<?xml version="1.0" encoding="utf-8"?>
<!-- Generator: Adobe Illustrator 19.0.0, SVG Export Plug-In . SVG Version: 6.00 Build 0)  -->
<svg version="1.1" id="图层_1" xmlns="http://www.w3.org/2000/svg" xmlns:xlink="http://www.w3.org/1999/xlink" x="0px" y="0px"
	 viewBox="125 155.8 862.6 482.2" style="enable-background:new 125 155.8 862.6 482.2;" xml:space="preserve">
<style type="text/css">
	.st0{display:none;}
	.st1{display:inline;fill:#FFFFFF;}
	.st2{display:inline;}
	.st3{fill:none;}
	.st4{opacity:0.53;fill:#202020;enable-background:new    ;}
	.st5{opacity:0.64;fill:#202020;enable-background:new    ;}
	.st6{opacity:0.58;fill:#202020;enable-background:new    ;}
	.st7{opacity:0.74;fill:#202020;enable-background:new    ;}
	.st8{opacity:0.73;fill:#202020;enable-background:new    ;}
	.st9{opacity:0.51;fill:#202020;enable-background:new    ;}
	.st10{opacity:0.69;fill:#202020;enable-background:new    ;}
	.st11{opacity:0.44;fill:#202020;enable-background:new    ;}
	.st12{opacity:0.76;fill:#202020;enable-background:new    ;}
	.st13{opacity:0.63;fill:#202020;enable-background:new    ;}
	.st14{opacity:0.56;fill:#202020;enable-background:new    ;}
	.st15{opacity:0.3;fill:#E6F3FF;enable-background:new    ;}
	.st16{opacity:0.3;}
	.st17{fill:#3265BF;}
	.st18{fill:#3D78F7;}
	.st19{opacity:0.1;fill:#3D78F7;enable-background:new    ;}
	.st20{opacity:0.1;fill:#AACAF9;enable-background:new    ;}
	.st21{opacity:0.2;fill:#3265BF;enable-background:new    ;}
	.st22{opacity:0.3;fill:#3265BF;enable-background:new    ;}
	.st23{fill:#669DFF;}
	.st24{fill:#8AB4FF;}
	.st25{fill:#AACAF9;}
	.st26{fill:#9CC4FF;}
	.st27{opacity:9.000000e-02;fill:#669DFF;enable-background:new    ;}
	.st28{opacity:0.2;fill:#9CC4FF;enable-background:new    ;}
</style>
<g id="图层_2" class="st0">
	<path class="st1" d="M167,630.9v460h852v-460H167L167,630.9z M684.7,791.1l-15.6,51.7l-15.5,51.6l-4.1,13.6h-28.2l-5.2-17.1
		l-13.2-43l-11.4-37.1l-13.9,46.5l-3.1,10.3l-2.6,8.7l-3.1,10.3l-6.4,21.5H534l-3.3-10.2l-4.9-15.3l-17.5-54.7l-14.9-46.4h31.8
		l19.9,74.5l5.1,19.1l3.7-12.4l8.4-28.4l15.6-52.7h16.3h11.9l4,13.1l12.3,39.9l12.5,40.6l12-50.3l2.1-8.7l8.3-34.5h30.4L684.7,791.1
		z"/>
	<g class="st2">
		<line class="st3" x1="646.9" y1="824.9" x2="649" y2="816.2"/>
		<line class="st3" x1="610.1" y1="794.7" x2="622.4" y2="834.6"/>
		<line class="st3" x1="574.6" y1="867.8" x2="572" y2="876.5"/>
		<line class="st3" x1="572" y1="876.5" x2="568.9" y2="886.8"/>
		<polygon class="st4" points="606.1,781.6 594.2,781.6 610.1,794.7 		"/>
		<polygon class="st4" points="525.3,781.6 493.5,781.6 508.4,828.1 545.2,856.1 		"/>
		<polygon class="st5" points="621.3,908.2 649.5,908.2 653.6,894.7 616.1,891.2 		"/>
		<polygon class="st6" points="687.7,781.6 657.3,781.6 649,816.2 684.7,791.4 		"/>
		<polygon class="st7" points="567.2,872.9 572,876.5 574.6,867.8 		"/>
		<polygon class="st8" points="669.1,843.1 684.7,791.4 649,816.2 646.9,824.9 		"/>
		<polygon class="st4" points="525.9,882.8 530.8,898.1 549.7,885 		"/>
		<polygon class="st9" points="634.9,875.2 622.4,834.6 602.9,848.2 616.1,891.2 653.6,894.7 669.1,843.1 646.9,824.9 		"/>
		<polygon class="st10" points="567.2,872.9 549.7,885 568.9,886.8 572,876.5 		"/>
		<polygon class="st11" points="530.8,898.1 534.1,908.2 562.5,908.2 568.9,886.8 549.7,885 		"/>
		<polygon class="st12" points="567.2,872.9 554,862.8 550.3,875.2 545.2,856.1 508.4,828.1 525.9,882.8 549.7,885 		"/>
		<polygon class="st13" points="591.5,811 602.9,848.2 622.4,834.6 610.1,794.7 594.2,781.6 577.9,781.6 562.3,834.4 577.6,857.5 		
			"/>
		<polygon class="st14" points="574.6,867.8 577.6,857.5 562.3,834.4 554,862.8 567.2,872.9 		"/>
	</g>
</g>
<rect x="125" y="155.2" class="st15" width="862.5" height="482.8"/>
<g class="st16">
	<line class="st3" x1="985.5" y1="638" x2="940.3" y2="638"/>
	<line class="st3" x1="648.1" y1="155.2" x2="741.1" y2="155.2"/>
	<polygon class="st3" points="348.8,448 322.3,540.7 324.8,542.9 366.8,492.7 	"/>
	<polygon class="st3" points="635,402.7 639.8,412.7 643.3,409.2 	"/>
	<polygon class="st3" points="366.8,492.7 420.9,625.9 470.8,578.8 434.4,411.5 	"/>
	<polygon class="st17" points="324.8,542.9 418.8,628 420.9,625.9 366.8,492.7 	"/>
	<polygon class="st18" points="517.6,311.7 434.4,411.5 470.8,578.8 639.8,412.7 635,402.7 	"/>
	<polygon class="st3" points="639.8,412.7 690,515.3 721.8,470.1 643.3,409.2 	"/>
	<polygon class="st19" points="825.6,322.6 985.5,638 987.5,638 987.5,349.2 911.5,200.6 	"/>
	<polygon class="st20" points="758.5,418 818.5,545.2 940.3,638 985.5,638 825.6,322.6 	"/>
	<polygon class="st21" points="719.2,334.8 643.3,409.2 721.8,470.1 758.5,418 	"/>
	<polygon class="st22" points="721.8,470.1 818.5,545.2 758.5,418 	"/>
	<polygon class="st3" points="423.5,632.4 420.9,625.9 418.8,628 	"/>
	<polygon class="st3" points="241.9,466.4 292.2,581.9 320,548.7 322.3,540.7 	"/>
	<polygon class="st3" points="320,548.7 324.8,542.9 322.3,540.7 	"/>
	<polygon class="st23" points="434.4,411.5 401.8,261.6 348.8,448 366.8,492.7 	"/>
	<polygon class="st17" points="303.3,604.5 320,548.7 292.2,581.9 	"/>
	<polygon class="st3" points="391.4,213.7 401.8,261.6 411.1,229 	"/>
	<polygon class="st23" points="987.5,349.2 987.5,155.2 943.5,155.2 911.5,200.6 	"/>
	<polygon class="st3" points="643.3,409.2 719.2,334.8 639.5,165.7 563.5,256.6 635,402.7 	"/>
	<polygon class="st24" points="563.5,256.6 517.6,311.7 635,402.7 	"/>
	<polygon class="st19" points="911.5,200.6 893,164.2 794.5,261 825.6,322.6 	"/>
	<polygon class="st20" points="825.6,322.6 794.5,261 719.2,334.8 758.5,418 	"/>
	<polygon class="st18" points="517.6,311.7 411.1,229 401.8,261.6 434.4,411.5 	"/>
	<polygon class="st24" points="324.8,542.9 320,548.7 303.3,604.5 317.4,638 408.6,638 418.8,628 	"/>
	<polygon class="st25" points="418.8,628 408.6,638 425.8,638 423.5,632.4 	"/>
	<polygon class="st18" points="294,638 317.4,638 303.3,604.5 	"/>
	<polygon class="st3" points="425.8,638 429.5,638 423.5,632.4 	"/>
	<polygon class="st18" points="292.2,581.9 244,638 294,638 303.3,604.5 	"/>
	<polygon class="st24" points="721.8,470.1 690,515.3 750.8,638 863,638 818.5,545.2 	"/>
	<polygon class="st26" points="241.9,466.4 125,358.4 125,638 244,638 292.2,581.9 	"/>
	<polygon class="st18" points="818.5,545.2 863,638 940.3,638 	"/>
	<polygon class="st24" points="602.3,638 750.8,638 690,515.3 	"/>
	<polygon class="st25" points="420.9,625.9 423.5,632.4 429.5,638 484,638 470.8,578.8 	"/>
	<polygon class="st18" points="639.8,412.7 470.8,578.8 484,638 602.3,638 690,515.3 	"/>
	<polygon class="st17" points="911.5,200.6 943.5,155.2 902.1,155.2 893,164.2 	"/>
	<polygon class="st24" points="125,198 125,358.4 241.9,466.4 	"/>
	<polygon class="st27" points="719.2,334.8 794.5,261 741.1,155.2 648.1,155.2 639.5,165.7 	"/>
	<polygon class="st18" points="639.5,165.7 634.5,155.2 514,155.2 563.5,256.6 	"/>
	<polygon class="st28" points="893,164.2 888.5,155.2 741.1,155.2 794.5,261 	"/>
	<polygon class="st17" points="902.1,155.2 888.5,155.2 893,164.2 	"/>
	<polygon class="st23" points="648.1,155.2 634.5,155.2 639.5,165.7 	"/>
	<polygon class="st24" points="401.8,261.6 391.4,213.7 316,155.2 231,155.2 348.8,448 	"/>
	<polygon class="st18" points="322.3,540.7 348.8,448 231,155.2 125,155.2 125,198 241.9,466.4 	"/>
	<polygon class="st17" points="378.8,155.2 316,155.2 391.4,213.7 	"/>
	<polygon class="st25" points="517.6,311.7 563.5,256.6 514,155.2 432.1,155.2 411.1,229 	"/>
	<polygon class="st24" points="411.1,229 432.1,155.2 378.8,155.2 391.4,213.7 	"/>
	<path class="st3" d="M229.1,259.8c-0.5,1-1,2-1.5,3"/>
</g>
</svg>
