<?xml version="1.0" encoding="utf-8"?>
<!-- Generator: Adobe Illustrator 19.0.0, SVG Export Plug-In . SVG Version: 6.00 Build 0)  -->
<svg version="1.1" id="图层_1" xmlns="http://www.w3.org/2000/svg" xmlns:xlink="http://www.w3.org/1999/xlink" x="0px" y="0px"
	 viewBox="125 155.8 862.6 482.2" style="enable-background:new 125 155.8 862.6 482.2;" xml:space="preserve">
<style type="text/css">
	.st0{display:none;}
	.st1{display:inline;fill:#FFFFFF;}
	.st2{display:inline;}
	.st3{fill:none;}
	.st4{opacity:0.53;fill:#202020;enable-background:new    ;}
	.st5{opacity:0.64;fill:#202020;enable-background:new    ;}
	.st6{opacity:0.58;fill:#202020;enable-background:new    ;}
	.st7{opacity:0.74;fill:#202020;enable-background:new    ;}
	.st8{opacity:0.73;fill:#202020;enable-background:new    ;}
	.st9{opacity:0.51;fill:#202020;enable-background:new    ;}
	.st10{opacity:0.69;fill:#202020;enable-background:new    ;}
	.st11{opacity:0.44;fill:#202020;enable-background:new    ;}
	.st12{opacity:0.76;fill:#202020;enable-background:new    ;}
	.st13{opacity:0.63;fill:#202020;enable-background:new    ;}
	.st14{opacity:0.56;fill:#202020;enable-background:new    ;}
	.st15{opacity:0.3;fill:#B0CDF7;}
	.st16{opacity:0.3;}
	.st17{fill:none;enable-background:new    ;}
	.st18{fill:#3265BF;}
	.st19{fill:#AACAF9;enable-background:new    ;}
	.st20{opacity:0.1;fill:#3D78F7;}
	.st21{opacity:0.1;fill:#AACAF9;enable-background:new    ;}
	.st22{opacity:0.2;fill:#3265BF;}
	.st23{opacity:0.3;fill:#3265BF;}
	.st24{fill:#669DFF;}
	.st25{fill:#8AB4FF;}
	.st26{fill:#3D78F7;}
	.st27{fill:#9CC4FF;enable-background:new    ;}
	.st28{opacity:9.000000e-02;fill:#669DFF;}
	.st29{opacity:0.2;fill:#9CC4FF;enable-background:new    ;}
</style>
<g id="图层_2" class="st0">
	<path class="st1" d="M-83,319.3v460h852v-460H-83z M434.7,479.5l-15.6,51.7l-15.5,51.6l-4.1,13.6h-28.2l-5.2-17.1l-13.2-43
		l-11.4-37.1l-13.9,46.5l-3.1,10.3l-2.6,8.7l-3.1,10.3l-6.4,21.5H284l-3.3-10.2l-4.9-15.3l-17.5-54.7l-14.9-46.4h31.8l19.9,74.5
		l5.1,19.1l3.7-12.4l8.4-28.4l15.6-52.7h16.3h11.9l4,13.1l12.3,39.9l12.5,40.6l12-50.3l2.1-8.7l8.3-34.5h30.4L434.7,479.5z"/>
	<g class="st2">
		<line class="st3" x1="396.9" y1="513.3" x2="399" y2="504.6"/>
		<line class="st3" x1="360.1" y1="483.1" x2="372.4" y2="523"/>
		<line class="st3" x1="324.6" y1="556.2" x2="322" y2="564.9"/>
		<line class="st3" x1="322" y1="564.9" x2="318.9" y2="575.2"/>
		<polygon class="st4" points="356.1,470 344.2,470 360.1,483.1 		"/>
		<polygon class="st4" points="275.3,470 243.5,470 258.4,516.5 295.2,544.5 		"/>
		<polygon class="st5" points="371.3,596.6 399.5,596.6 403.6,583.1 366.1,579.6 		"/>
		<polygon class="st6" points="437.7,470 407.3,470 399,504.6 434.7,479.8 		"/>
		<polygon class="st7" points="317.2,561.3 322,564.9 324.6,556.2 		"/>
		<polygon class="st8" points="419.1,531.5 434.7,479.8 399,504.6 396.9,513.3 		"/>
		<polygon class="st4" points="275.9,571.2 280.8,586.5 299.7,573.4 		"/>
		<polygon class="st9" points="384.9,563.6 372.4,523 352.9,536.6 366.1,579.6 403.6,583.1 419.1,531.5 396.9,513.3 		"/>
		<polygon class="st10" points="317.2,561.3 299.7,573.4 318.9,575.2 322,564.9 		"/>
		<polygon class="st11" points="280.8,586.5 284.1,596.6 312.5,596.6 318.9,575.2 299.7,573.4 		"/>
		<polygon class="st12" points="317.2,561.3 304,551.2 300.3,563.6 295.2,544.5 258.4,516.5 275.9,571.2 299.7,573.4 		"/>
		<polygon class="st13" points="341.5,499.4 352.9,536.6 372.4,523 360.1,483.1 344.2,470 327.9,470 312.3,522.8 327.6,545.9 		"/>
		<polygon class="st14" points="324.6,556.2 327.6,545.9 312.3,522.8 304,551.2 317.2,561.3 		"/>
	</g>
</g>
<rect x="125" y="154.6" class="st15" width="862.6" height="479.8"/>
<g class="st16">
	<line class="st17" x1="985.5" y1="639.2" x2="940.3" y2="639.2"/>
	<line class="st17" x1="648.1" y1="154.6" x2="741.1" y2="154.6"/>
	<polygon class="st17" points="348.7,447.4 322.3,540.1 324.8,542.3 366.7,492.1 	"/>
	<polygon class="st17" points="635,402.1 639.8,412.1 643.3,408.6 	"/>
	<polygon class="st17" points="366.7,492.1 420.9,627.1 470.7,578.2 434.4,410.9 	"/>
	<polygon class="st18" points="324.8,542.3 418.8,629.2 420.9,627.1 366.7,492.1 	"/>
	<polygon class="st19" points="517.6,311.1 434.4,410.9 470.7,578.2 639.8,412.1 635,402.1 	"/>
	<polygon class="st17" points="639.8,412.1 690,514.7 721.7,469.5 643.3,408.6 	"/>
	<polygon class="st20" points="825.6,322 985.5,639.2 987.5,639.2 987.5,348.6 911.5,200 	"/>
	<polygon class="st21" points="758.4,417.4 818.4,544.6 940.3,639.2 985.5,639.2 825.6,322 	"/>
	<polygon class="st22" points="719.2,334.2 643.3,408.6 721.7,469.5 758.4,417.4 	"/>
	<polygon class="st23" points="721.7,469.5 818.4,544.6 758.4,417.4 	"/>
	<polygon class="st17" points="423.5,633.6 420.9,627.1 418.8,629.2 	"/>
	<polygon class="st17" points="241.9,465.8 292.2,581.3 320,548.1 322.3,540.1 	"/>
	<polygon class="st17" points="320,548.1 324.8,542.3 322.3,540.1 	"/>
	<polygon class="st24" points="434.4,410.9 401.8,261 348.7,447.4 366.7,492.1 	"/>
	<polygon class="st18" points="303.3,606.7 320,548.1 292.2,581.3 	"/>
	<polygon class="st17" points="391.4,213.1 401.8,261 411.1,228.4 	"/>
	<polygon class="st24" points="987.5,348.6 987.5,154.6 943.5,154.6 911.5,200 	"/>
	<polygon class="st17" points="643.3,408.6 719.2,334.2 639.4,165.1 563.5,256 635,402.1 	"/>
	<polygon class="st25" points="563.5,256 517.6,311.1 635,402.1 	"/>
	<polygon class="st20" points="911.5,200 892.9,163.6 794.4,260.4 825.6,322 	"/>
	<polygon class="st21" points="825.6,322 794.4,260.4 719.2,334.2 758.4,417.4 	"/>
	<polygon class="st26" points="517.6,311.1 411.1,228.4 401.8,261 434.4,410.9 	"/>
	<polygon class="st25" points="324.8,542.3 320,548.1 303.3,606.7 317.4,639.2 408.6,639.2 418.8,629.2 	"/>
	<polygon class="st19" points="418.8,629.2 408.6,639.2 425.8,639.2 423.5,633.6 	"/>
	<polygon class="st26" points="294,639.2 317.4,639.2 303.3,606.7 	"/>
	<polygon class="st17" points="425.8,639.2 429.5,639.2 423.5,633.6 	"/>
	<polygon class="st26" points="292.2,581.3 244,639.2 294,639.2 303.3,606.7 	"/>
	<polygon class="st25" points="721.7,469.5 690,514.7 750.8,639.2 863,639.2 818.4,544.6 	"/>
	<polygon class="st27" points="241.9,465.8 125,357.8 125,639.2 244,639.2 292.2,581.3 	"/>
	<polygon class="st26" points="818.4,544.6 863,639.2 940.3,639.2 	"/>
	<polygon class="st25" points="602.3,639.2 750.8,639.2 690,514.7 	"/>
	<polygon class="st19" points="420.9,627.1 423.5,633.6 429.5,639.2 484,639.2 470.7,578.2 	"/>
	<polygon class="st26" points="639.8,412.1 470.7,578.2 484,639.2 602.3,639.2 690,514.7 	"/>
	<polygon class="st18" points="911.5,200 943.5,154.6 902.1,154.6 892.9,163.6 	"/>
	<polygon class="st25" points="125,197.4 125,357.8 241.9,465.8 	"/>
	<polygon class="st28" points="719.2,334.2 794.4,260.4 741.1,154.6 648.1,154.6 639.4,165.1 	"/>
	<polygon class="st26" points="639.4,165.1 634.4,154.6 514,154.6 563.5,256 	"/>
	<polygon class="st29" points="892.9,163.6 888.4,154.6 741.1,154.6 794.4,260.4 	"/>
	<polygon class="st18" points="902.1,154.6 888.4,154.6 892.9,163.6 	"/>
	<polygon class="st24" points="648.1,154.6 634.4,154.6 639.4,165.1 	"/>
	<polygon class="st25" points="401.8,261 391.4,213.1 316,154.6 231,154.6 348.7,447.4 	"/>
	<polygon class="st26" points="322.3,540.1 348.7,447.4 231,154.6 125,154.6 125,197.4 241.9,465.8 	"/>
	<polygon class="st18" points="378.7,154.6 316,154.6 391.4,213.1 	"/>
	<polygon class="st19" points="517.6,311.1 563.5,256 514,154.6 432.1,154.6 411.1,228.4 	"/>
	<polygon class="st25" points="411.1,228.4 432.1,154.6 378.7,154.6 391.4,213.1 	"/>
	<path class="st3" d="M229.1,259.2c-0.5,1-1,2-1.5,3"/>
</g>
</svg>
