<?xml version="1.0" encoding="utf-8"?>
<!-- Generator: Adobe Illustrator 19.0.0, SVG Export Plug-In . SVG Version: 6.00 Build 0)  -->
<svg version="1.1" xmlns="http://www.w3.org/2000/svg" xmlns:xlink="http://www.w3.org/1999/xlink" x="0px" y="0px"
	 viewBox="-211 165 862.6 482.2" style="enable-background:new -211 165 862.6 482.2;" xml:space="preserve">
<style type="text/css">
	.st0{display:none;}
	.st1{display:inline;fill:#FFFFFF;}
	.st2{display:inline;}
	.st3{fill:#202020;}
	.st4{opacity:0.53;fill:#202020;}
	.st5{opacity:0.64;fill:#202020;}
	.st6{opacity:0.58;fill:#202020;}
	.st7{opacity:0.74;fill:#202020;}
	.st8{opacity:0.73;fill:#202020;}
	.st9{opacity:0.51;fill:#202020;}
	.st10{opacity:0.69;fill:#202020;}
	.st11{opacity:0.44;fill:#202020;}
	.st12{opacity:0.76;fill:#202020;}
	.st13{opacity:0.63;fill:#202020;}
	.st14{opacity:0.56;fill:#202020;}
	.st15{opacity:0.31;}
	.st16{opacity:0.63;fill:none;stroke:#FFFFFF;stroke-miterlimit:10;enable-background:new    ;}
</style>
<g id="图层_2" class="st0">
	<path class="st1" d="M-208,163.5v460h852v-460H-208z M309.7,323.7l-15.6,51.7L278.6,427l-4.1,13.6h-28.2l-5.2-17.1l-13.2-43
		l-11.4-37.1l-13.9,46.5l-3.1,10.3l-2.6,8.7l-3.1,10.3l-6.4,21.5h-28.4l-3.3-10.2l-4.9-15.3l-17.5-54.7l-14.9-46.4h31.8l19.9,74.5
		l5.1,19.1l3.7-12.4l8.4-28.4l15.6-52.7h16.3h11.9l4,13.1l12.3,39.9l12.5,40.6l12-50.3l2.1-8.7l8.3-34.5h30.4L309.7,323.7z"/>
	<g class="st2">
		<line class="st3" x1="271.9" y1="357.5" x2="274" y2="348.8"/>
		<line class="st3" x1="235.1" y1="327.3" x2="247.4" y2="367.2"/>
		<line class="st3" x1="199.6" y1="400.4" x2="197" y2="409.1"/>
		<line class="st3" x1="197" y1="409.1" x2="193.9" y2="419.4"/>
		<polygon class="st4" points="231.1,314.2 219.2,314.2 235.1,327.3 		"/>
		<polygon class="st4" points="150.3,314.2 118.5,314.2 133.4,360.7 170.2,388.7 		"/>
		<polygon class="st5" points="246.3,440.8 274.5,440.8 278.6,427.3 241.1,423.8 		"/>
		<polygon class="st6" points="312.7,314.2 282.3,314.2 274,348.8 309.7,324 		"/>
		<polygon class="st7" points="192.2,405.5 197,409.1 199.6,400.4 		"/>
		<polygon class="st8" points="294.1,375.7 309.7,324 274,348.8 271.9,357.5 		"/>
		<polygon class="st4" points="150.9,415.4 155.8,430.7 174.7,417.6 		"/>
		<polygon class="st9" points="259.9,407.8 247.4,367.2 227.9,380.8 241.1,423.8 278.6,427.3 294.1,375.7 271.9,357.5 		"/>
		<polygon class="st10" points="192.2,405.5 174.7,417.6 193.9,419.4 197,409.1 		"/>
		<polygon class="st11" points="155.8,430.7 159.1,440.8 187.5,440.8 193.9,419.4 174.7,417.6 		"/>
		<polygon class="st12" points="192.2,405.5 179,395.4 175.3,407.8 170.2,388.7 133.4,360.7 150.9,415.4 174.7,417.6 		"/>
		<polygon class="st13" points="216.5,343.6 227.9,380.8 247.4,367.2 235.1,327.3 219.2,314.2 202.9,314.2 187.3,367 202.6,390.1 		
			"/>
		<polygon class="st14" points="199.6,400.4 202.6,390.1 187.3,367 179,395.4 192.2,405.5 		"/>
	</g>
</g>
<g id="图层_1">
	<g class="st15">
		<line class="st16" x1="649.5" y1="649.5" x2="604.3" y2="649.5"/>
		<line class="st16" x1="312.1" y1="165" x2="405.1" y2="165"/>
		<polygon class="st16" points="12.7,457.7 -13.7,550.4 -11.2,552.7 30.7,502.5 		"/>
		<polygon class="st16" points="299,412.5 303.8,422.5 307.3,419 		"/>
		<polygon class="st16" points="30.7,502.5 84.9,637.4 134.7,588.5 98.4,421.3 		"/>
		<polygon class="st16" points="-11.2,552.7 82.8,639.5 84.9,637.4 30.7,502.5 		"/>
		<polygon class="st16" points="181.6,321.5 98.4,421.3 134.7,588.5 303.8,422.5 299,412.5 		"/>
		<polygon class="st16" points="303.8,422.5 354,525 385.7,479.9 307.3,419 		"/>
		<polygon class="st16" points="489.6,332.4 649.5,649.5 651.5,649.5 651.5,359 575.5,210.4 		"/>
		<polygon class="st16" points="422.4,427.8 482.4,554.9 604.3,649.5 649.5,649.5 489.6,332.4 		"/>
		<polygon class="st16" points="383.2,344.6 307.3,419 385.7,479.9 422.4,427.8 		"/>
		<polygon class="st16" points="385.7,479.9 482.4,554.9 422.4,427.8 		"/>
		<polygon class="st16" points="87.5,643.9 84.9,637.4 82.8,639.5 		"/>
		<polygon class="st16" points="-94.1,476.1 -43.8,591.7 -16,558.4 -13.7,550.4 		"/>
		<polygon class="st16" points="-16,558.4 -11.2,552.7 -13.7,550.4 		"/>
		<polygon class="st16" points="98.4,421.3 65.8,271.4 12.7,457.7 30.7,502.5 		"/>
		<polygon class="st16" points="-32.7,617 -16,558.4 -43.8,591.7 		"/>
		<polygon class="st16" points="55.4,223.5 65.8,271.4 75.1,238.8 		"/>
		<polygon class="st16" points="651.5,359 651.5,165 607.5,165 575.5,210.4 		"/>
		<polygon class="st16" points="307.3,419 383.2,344.6 303.4,175.5 227.5,266.4 299,412.5 		"/>
		<polygon class="st16" points="227.5,266.4 181.6,321.5 299,412.5 		"/>
		<polygon class="st16" points="575.5,210.4 556.9,174 458.4,270.7 489.6,332.4 		"/>
		<polygon class="st16" points="489.6,332.4 458.4,270.7 383.2,344.6 422.4,427.8 		"/>
		<polygon class="st16" points="181.6,321.5 75.1,238.8 65.8,271.4 98.4,421.3 		"/>
		<polygon class="st16" points="-11.2,552.7 -16,558.4 -32.7,617 -18.6,649.5 72.6,649.5 82.8,639.5 		"/>
		<polygon class="st16" points="82.8,639.5 72.6,649.5 89.8,649.5 87.5,643.9 		"/>
		<polygon class="st16" points="-42,649.5 -18.6,649.5 -32.7,617 		"/>
		<polygon class="st16" points="89.8,649.5 93.5,649.5 87.5,643.9 		"/>
		<polygon class="st16" points="-43.8,591.7 -92,649.5 -42,649.5 -32.7,617 		"/>
		<polygon class="st16" points="385.7,479.9 354,525 414.8,649.5 527,649.5 482.4,554.9 		"/>
		<polygon class="st16" points="-94.1,476.1 -211,368.1 -211,649.5 -92,649.5 -43.8,591.7 		"/>
		<polygon class="st16" points="482.4,554.9 527,649.5 604.3,649.5 		"/>
		<polygon class="st16" points="266.3,649.5 414.8,649.5 354,525 		"/>
		<polygon class="st16" points="84.9,637.4 87.5,643.9 93.5,649.5 148,649.5 134.7,588.5 		"/>
		<polygon class="st16" points="303.8,422.5 134.7,588.5 148,649.5 266.3,649.5 354,525 		"/>
		<polygon class="st16" points="575.5,210.4 607.5,165 566.1,165 556.9,174 		"/>
		<polygon class="st16" points="-211,207.8 -211,368.1 -94.1,476.1 		"/>
		<polygon class="st16" points="383.2,344.6 458.4,270.7 405.1,165 312.1,165 303.4,175.5 		"/>
		<polygon class="st16" points="303.4,175.5 298.4,165 178,165 227.5,266.4 		"/>
		<polygon class="st16" points="556.9,174 552.4,165 405.1,165 458.4,270.7 		"/>
		<polygon class="st16" points="566.1,165 552.4,165 556.9,174 		"/>
		<polygon class="st16" points="312.1,165 298.4,165 303.4,175.5 		"/>
		<polygon class="st16" points="65.8,271.4 55.4,223.5 -20,165 -105,165 12.7,457.7 		"/>
		<polygon class="st16" points="-13.7,550.4 12.7,457.7 -105,165 -211,165 -211,207.8 -94.1,476.1 		"/>
		<polygon class="st16" points="42.7,165 -20,165 55.4,223.5 		"/>
		<polygon class="st16" points="181.6,321.5 227.5,266.4 178,165 96.1,165 75.1,238.8 		"/>
		<polygon class="st16" points="75.1,238.8 96.1,165 42.7,165 55.4,223.5 		"/>
	</g>
</g>
</svg>
