<?xml version="1.0" encoding="utf-8"?>
<!-- Generator: Adobe Illustrator 19.0.0, SVG Export Plug-In . SVG Version: 6.00 Build 0)  -->
<svg version="1.1" id="图层_1" xmlns="http://www.w3.org/2000/svg" xmlns:xlink="http://www.w3.org/1999/xlink" x="0px" y="0px"
	 viewBox="-79 384.9 437 73" style="enable-background:new -79 384.9 437 73;" xml:space="preserve">
<style type="text/css">
	.st0{fill:none;}
	.st1{enable-background:new    ;}
</style>
<rect x="-36.8" y="397.2" class="st0" width="434" height="92"/>
<g class="st1">
	<path d="M-34.3,404.3h3.4v0.9h-3.4v3.3h4.1v1h-5.1v-9.2h4.9v1h-3.8V404.3z"/>
	<path d="M-26.1,405.1v0.9h-2.9v-0.9H-26.1z"/>
	<path d="M-19.1,409.2h-1l-2.7-7.5l-0.3,7.8h-1.1l0.5-9.2h1.5l2.7,7.5l2.8-7.5h1.5l0.5,9.2h-1.1l-0.3-7.8L-19.1,409.2z"/>
	<path d="M-9.8,400.3h1l3.6,9.2h-1.2l-1-2.7h-3.8l-1,2.7h-1.1L-9.8,400.3z M-7.7,405.9l-1.6-4.4l-1.6,4.4H-7.7z"/>
	<path d="M-2.6,408.5h4.1v1h-5.2v-9.2h1.1V408.5z"/>
	<path d="M4.3,408.5h4.1v1H3.2v-9.2h1.1V408.5z"/>
	<path d="M11.4,404h-1.2v-1.4h1.2V404z M11.4,409.5h-1.2v-1.4h1.2V409.5z"/>
	<path d="M20.8,402.5c1.6,0,2.2,1,2.2,2.4v4.6h-1.1v-4.3c0-0.9-0.3-1.8-1.4-1.8c-0.7,0-1.6,0.4-2,0.9v5.2h-1.1v-9.6l1.1-0.2v3.7
		C19,402.9,19.9,402.5,20.8,402.5z"/>
	<path d="M28.6,408.8c0.8,0,1.5-0.2,2.1-0.4l0.2,0.9c-0.5,0.2-1.4,0.5-2.4,0.5c-2.2,0-3.4-1.3-3.4-3.5c0-2.2,1.1-3.8,3.2-3.8
		c1.8,0,2.7,1.2,2.7,3.2v0.6h-4.8C26.1,408,27.1,408.8,28.6,408.8L28.6,408.8z M28.2,403.2c-1.1,0-1.8,1-2,2.1H30
		C29.9,404,29.4,403.2,28.2,403.2L28.2,403.2z"/>
	<path d="M33.7,402.2l-0.2-0.9c0.8-0.3,1.8-0.8,2.3-1.2h0.9v9.3h-1.1v-8C35.1,401.7,34.4,402,33.7,402.2z"/>
	<path d="M43.5,406c-2,0-2.8-1.4-2.8-2.7c0-1.5,0.7-3.2,3-3.2c1.8,0,3.1,1.2,3.1,3.8c0,3.8-2,5.7-5.2,5.8l-0.2-1
		c2.4-0.1,4-1.3,4.3-3.8C45.3,405.6,44.4,406,43.5,406L43.5,406z M43.7,401.1c-1.3,0-2,1-2,2.2c0,1,0.6,1.9,2,1.9
		c0.9,0,1.7-0.6,2-1.2C45.8,402.7,45.5,401.1,43.7,401.1L43.7,401.1z"/>
	<path d="M51.5,406c-2,0-2.8-1.4-2.8-2.7c0-1.5,0.7-3.2,3-3.2c1.8,0,3.1,1.2,3.1,3.8c0,3.8-2,5.7-5.2,5.8l-0.2-1
		c2.4-0.1,4-1.3,4.3-3.8C53.3,405.6,52.4,406,51.5,406L51.5,406z M51.8,401.1c-1.3,0-2,1-2,2.2c0,1,0.6,1.9,2,1.9
		c0.9,0,1.7-0.6,2-1.2C53.8,402.7,53.5,401.1,51.8,401.1L51.8,401.1z"/>
	<path d="M57.7,402.2l-0.2-0.9c0.8-0.3,1.8-0.8,2.3-1.2h0.9v9.3h-1.1v-8C59.2,401.7,58.4,402,57.7,402.2z"/>
	<path d="M65.7,402.2l-0.2-0.9c0.8-0.3,1.8-0.8,2.3-1.2h0.9v9.3h-1.1v-8C67.2,401.7,66.4,402,65.7,402.2z"/>
	<path d="M75.5,406c-2,0-2.8-1.4-2.8-2.7c0-1.5,0.7-3.2,3-3.2c1.8,0,3.1,1.2,3.1,3.8c0,3.8-2,5.7-5.2,5.8l-0.2-1
		c2.4-0.1,4-1.3,4.3-3.8C77.3,405.6,76.5,406,75.5,406L75.5,406z M75.8,401.1c-1.3,0-2,1-2,2.2c0,1,0.6,1.9,2,1.9
		c0.9,0,1.7-0.6,2-1.2C77.8,402.7,77.5,401.1,75.8,401.1L75.8,401.1z"/>
	<path d="M83.5,406c-2,0-2.8-1.4-2.8-2.7c0-1.5,0.7-3.2,3-3.2c1.8,0,3.1,1.2,3.1,3.8c0,3.8-2,5.7-5.2,5.8l-0.2-1
		c2.4-0.1,4-1.3,4.3-3.8C85.3,405.6,84.5,406,83.5,406L83.5,406z M83.8,401.1c-1.3,0-2,1-2,2.2c0,1,0.6,1.9,2,1.9
		c0.9,0,1.7-0.6,2-1.2C85.8,402.7,85.5,401.1,83.8,401.1L83.8,401.1z"/>
	<path d="M93.4,402.6c0-0.9-0.6-1.5-1.7-1.5c-0.8,0-1.6,0.3-2.3,0.6l-0.2-1c0.7-0.4,1.8-0.6,2.6-0.6c1.5,0,2.7,0.7,2.7,2.5
		c0,1.1-0.6,2.2-2.1,3.9c-0.9,0.9-1.6,1.6-2.1,2.1h4.4v1h-5.8v-0.9c0.7-0.6,1.4-1.3,2.4-2.4C92.8,404.5,93.4,403.5,93.4,402.6
		L93.4,402.6z"/>
	<path d="M100.9,407.7c-1.2,0-1.6-0.8-1.6-1.9c0-1.6,0.8-3.5,2.5-3.5c0.8,0,1.2,0.4,1.3,0.9l0.2-0.7h0.7l-0.6,3
		c-0.1,0.3-0.1,0.7-0.1,0.9c0,0.3,0.1,0.5,0.5,0.5c1,0,1.6-1.3,1.6-2.5c0-2.1-1.5-3.3-3.6-3.3c-2.2,0-3.8,1.8-3.8,4
		c0,2.3,1.5,3.7,3.8,3.7c1.2,0,2.3-0.3,3.1-0.6l0.2,0.7c-0.9,0.4-2,0.7-3.3,0.7c-2.9,0-4.7-1.8-4.7-4.5c0-2.6,2.1-4.7,4.7-4.7
		c2.5,0,4.4,1.5,4.4,4c0,2-1.2,3.3-2.6,3.3c-0.7,0-1-0.4-1-1.1C102.3,407.1,101.6,407.7,100.9,407.7z M100.2,405.6
		c0,0.8,0.2,1.3,0.9,1.3c1,0,1.5-1.3,1.7-2.8c0-0.8-0.3-1.2-1-1.2C100.7,402.9,100.2,404.5,100.2,405.6L100.2,405.6z"/>
	<path d="M110.9,411.4c1.5,0,2-1,2-1.9v-1.1c-0.3,0.5-1,1.2-2.3,1.2c-1.7,0-2.7-1.2-2.7-3.4c0-2,0.7-3.8,2.9-3.8
		c0.9,0,1.7,0.4,2.2,0.9c0-0.2,0.1-0.5,0.1-0.7h1c-0.1,0.3-0.1,0.9-0.1,1.3v5.8c0,1.8-1.4,2.7-3.1,2.7c-0.9,0-1.8-0.2-2.6-0.6
		l0.2-0.9C109.2,411.2,110.1,411.4,110.9,411.4z M113,405.2c0-0.3,0-0.7-0.1-0.9c-0.3-0.4-1-0.9-1.9-0.9c-1.4,0-2,1.1-2,2.9
		c0,1.4,0.5,2.5,1.8,2.5c1.2,0,1.8-0.8,2-1.3c0-0.2,0.1-0.6,0.1-0.9V405.2z"/>
	<path d="M119.9,402.5c1,0,1.6,0.4,1.9,1c0.6-0.6,1.6-1,2.5-1c1.6,0,2.2,1,2.2,2.4v4.6h-1.1v-4.3c0-0.9-0.3-1.8-1.5-1.8
		c-0.6,0-1.5,0.4-2,0.9c0.1,0.3,0.1,0.7,0.1,1.1v4.1h-1v-4.3c0-0.9-0.3-1.8-1.5-1.8c-0.6,0-1.5,0.4-1.9,0.9v5.2h-1.1V404
		c0-0.4,0-0.9-0.2-1.4l1-0.1c0.1,0.3,0.2,0.7,0.2,1C118.1,402.9,119,402.5,119.9,402.5z"/>
	<path d="M134.2,409.4l-0.9,0.2c-0.3-0.3-0.4-0.8-0.5-1.2c-0.4,0.8-1.3,1.3-2.2,1.3c-1.1,0-2.2-0.6-2.2-2.1c0-1.6,0.8-2.1,4.3-2.3
		v-0.6c0-0.8-0.2-1.4-1.4-1.4c-0.7,0-1.5,0.2-2.1,0.6l-0.3-0.9c0.6-0.3,1.6-0.6,2.5-0.6c1.8,0,2.3,0.8,2.3,2.3v2.8
		C133.7,408.3,133.9,409,134.2,409.4z M129.4,407.5c0,1,0.9,1.2,1.4,1.2c1,0,1.7-0.7,1.9-1.5v-1.2
		C130.1,406.2,129.4,406.5,129.4,407.5z"/>
	<path d="M137.3,401.3h-1.2v-1.1h1.2V401.3z M137.3,409.5h-1.1v-6.9h1.1V409.5z"/>
	<path d="M140.9,409.5h-1.1v-9.6l1.1-0.2V409.5z"/>
	<path d="M144.4,409.5h-1.2v-1.4h1.2V409.5z"/>
	<path d="M146.3,406.1c0-2,0.8-3.8,3.3-3.8c0.6,0,1.2,0.1,1.6,0.3l-0.2,0.9c-0.4-0.2-0.9-0.3-1.4-0.3c-1.7,0-2.3,1.2-2.3,2.8
		c0,1.5,0.6,2.6,2.3,2.6c0.5,0,1.1-0.1,1.5-0.3l0.2,0.9c-0.4,0.1-1,0.3-1.7,0.3C147.1,409.7,146.3,408,146.3,406.1L146.3,406.1z"/>
	<path d="M159.2,406c0,1.8-0.8,3.7-3.3,3.7c-2.5,0-3.2-1.9-3.2-3.7c0-1.8,0.8-3.7,3.2-3.7C158.5,402.4,159.2,404.2,159.2,406
		L159.2,406z M156,408.8c1.4,0,2.1-1,2.1-2.8c0-1.8-0.7-2.7-2.1-2.7c-1.4,0-2.1,0.9-2.1,2.7C153.8,407.8,154.5,408.8,156,408.8
		L156,408.8z"/>
	<path d="M164.7,402.5c1,0,1.6,0.4,1.9,1c0.6-0.6,1.6-1,2.5-1c1.6,0,2.2,1,2.2,2.4v4.6h-1.1v-4.3c0-0.9-0.3-1.8-1.5-1.8
		c-0.6,0-1.5,0.4-2,0.9c0.1,0.3,0.1,0.7,0.1,1.1v4.1h-1v-4.3c0-0.9-0.3-1.8-1.5-1.8c-0.6,0-1.5,0.4-1.9,0.9v5.2h-1.1V404
		c0-0.4,0-0.9-0.2-1.4l1-0.1c0.1,0.3,0.2,0.7,0.2,1C162.9,402.9,163.9,402.5,164.7,402.5z"/>
</g>
<g class="st1">
	<path d="M-33,417.1h1l3.6,9.2h-1.2l-1-2.7h-3.8l-1,2.7h-1.1L-33,417.1z M-30.9,422.7l-1.6-4.4l-1.6,4.4H-30.9z"/>
	<path d="M-24.5,417.1c3.3,0,4.8,1.4,4.8,4.6c0,2.9-1.2,4.6-4.9,4.6h-2.3v-9.2H-24.5z M-20.9,421.7c0-2.5-1.2-3.6-3.6-3.6h-1.2v7.3
		h1.2C-22.1,425.3-20.9,424.3-20.9,421.7L-20.9,421.7z"/>
	<path d="M-15.1,417.1c3.3,0,4.8,1.4,4.8,4.6c0,2.9-1.2,4.6-4.9,4.6h-2.3v-9.2H-15.1z M-11.4,421.7c0-2.5-1.2-3.6-3.6-3.6h-1.2v7.3
		h1.2C-12.7,425.3-11.4,424.3-11.4,421.7L-11.4,421.7z"/>
	<path d="M-3.7,424c-0.5-1.1-0.9-1.6-1.7-1.6h-1.6v3.9h-1v-9.2h2.1c1.9,0,3.5,0.4,3.5,2.4c0,1.5-0.8,2.1-1.7,2.4
		c0.6,0.2,1,0.6,1.3,1.5c0.3,0.8,0.9,2.1,1.2,2.9h-1.2C-3,425.7-3.3,424.8-3.7,424z M-3.5,419.7c0-1.3-0.9-1.6-2.3-1.6h-1.2v3.4h1.9
		C-4.3,421.3-3.5,420.8-3.5,419.7z"/>
	<path d="M1.3,421.1h3.4v0.9H1.3v3.3h4.1v1H0.2v-9.2h4.9v1H1.3V421.1z"/>
	<path d="M11.8,418.4c-0.5-0.3-1.3-0.5-2-0.5c-0.8,0-1.7,0.3-1.7,1.5c0,0.8,0.7,1.2,1.8,1.7c1.4,0.7,2.5,1.3,2.5,2.8
		c0,1.9-1.3,2.6-2.8,2.6c-0.9,0-2.1-0.2-2.9-0.6l0.3-1c0.7,0.3,1.7,0.6,2.6,0.6c0.8,0,1.7-0.3,1.7-1.6c0-0.9-0.7-1.4-2-1.9
		c-1.3-0.6-2.2-1.1-2.2-2.5c0-1.8,1.5-2.5,2.7-2.5c1,0,1.9,0.3,2.4,0.5L11.8,418.4z"/>
	<path d="M18.8,418.4c-0.5-0.3-1.3-0.5-2-0.5c-0.8,0-1.7,0.3-1.7,1.5c0,0.8,0.7,1.2,1.8,1.7c1.4,0.7,2.5,1.3,2.5,2.8
		c0,1.9-1.3,2.6-2.8,2.6c-0.9,0-2.1-0.2-2.9-0.6l0.3-1c0.7,0.3,1.7,0.6,2.6,0.6c0.8,0,1.7-0.3,1.7-1.6c0-0.9-0.7-1.4-2-1.9
		c-1.3-0.6-2.2-1.1-2.2-2.5c0-1.8,1.5-2.5,2.7-2.5c1,0,1.9,0.3,2.4,0.5L18.8,418.4z"/>
	<path d="M22.7,420.8h-1.2v-1.4h1.2V420.8z M22.7,426.3h-1.2v-1.4h1.2V426.3z"/>
	<path d="M32.9,419.4c0-0.9-0.6-1.5-1.7-1.5c-0.8,0-1.6,0.3-2.3,0.6l-0.2-1c0.7-0.4,1.8-0.6,2.6-0.6c1.5,0,2.7,0.7,2.7,2.5
		c0,1.1-0.6,2.2-2.1,3.9c-0.9,0.9-1.6,1.6-2.1,2.1h4.4v1h-5.8v-0.9c0.7-0.6,1.4-1.3,2.4-2.4C32.3,421.3,32.9,420.3,32.9,419.4
		L32.9,419.4z"/>
	<path d="M39.6,421.8c0-2.6,0.9-4.9,4.3-4.9c0.8,0,1.7,0.2,2.3,0.4l-0.2,1c-0.6-0.2-1.4-0.4-2.1-0.4c-2.4,0-3.1,1.8-3.1,3.9
		c0,2.1,0.9,3.6,3.2,3.6c0.7,0,1.7-0.2,2.2-0.4l0.1,1c-0.5,0.2-1.5,0.4-2.4,0.4C40.6,426.5,39.6,424.4,39.6,421.8L39.6,421.8z"/>
	<path d="M51.5,419.3c1.6,0,2.2,1,2.2,2.4v4.6h-1.1V422c0-0.9-0.3-1.8-1.4-1.8c-0.7,0-1.6,0.4-2,0.9v5.2h-1.1v-9.6l1.1-0.2v3.7
		C49.8,419.7,50.7,419.3,51.5,419.3z"/>
	<path d="M62.3,422.8c0,1.8-0.8,3.7-3.3,3.7c-2.5,0-3.2-1.9-3.2-3.7c0-1.8,0.8-3.7,3.2-3.7C61.6,419.2,62.3,421,62.3,422.8
		L62.3,422.8z M59.1,425.6c1.4,0,2.1-1,2.1-2.8c0-1.8-0.7-2.7-2.1-2.7c-1.4,0-2.1,0.9-2.1,2.7C57,424.6,57.7,425.6,59.1,425.6
		L59.1,425.6z"/>
	<path d="M67.8,419.3c1,0,1.6,0.4,1.9,1c0.6-0.6,1.6-1,2.5-1c1.6,0,2.2,1,2.2,2.4v4.6h-1.1V422c0-0.9-0.3-1.8-1.5-1.8
		c-0.6,0-1.5,0.4-2,0.9c0.1,0.3,0.1,0.7,0.1,1.1v4.1h-1V422c0-0.9-0.3-1.8-1.5-1.8c-0.6,0-1.5,0.4-1.9,0.9v5.2h-1.1v-5.5
		c0-0.4,0-0.9-0.2-1.4l1-0.1c0.1,0.3,0.2,0.7,0.2,1C66.1,419.7,67,419.3,67.8,419.3z"/>
	<path d="M80,425.6c0.8,0,1.5-0.2,2.1-0.4l0.2,0.9c-0.5,0.2-1.4,0.5-2.4,0.5c-2.2,0-3.4-1.3-3.4-3.5c0-2.2,1.1-3.8,3.2-3.8
		c1.8,0,2.7,1.2,2.7,3.2v0.6h-4.8C77.5,424.8,78.6,425.6,80,425.6L80,425.6z M79.6,420c-1.1,0-1.8,1-2,2.1h3.8
		C81.4,420.8,80.9,420,79.6,420L79.6,420z"/>
	<path d="M94.5,426.3H93l-4.1-4.5v4.5h-1.1v-9.2h1.1v4.5l4-4.5h1.4l-4.2,4.5L94.5,426.3z"/>
	<path d="M97.1,418.1h-1.2V417h1.2V418.1z M97,426.3h-1.1v-6.9H97V426.3z"/>
	<path d="M102.9,419.3c1,0,1.6,0.4,1.9,1c0.6-0.6,1.6-1,2.5-1c1.6,0,2.2,1,2.2,2.4v4.6h-1.1V422c0-0.9-0.3-1.8-1.5-1.8
		c-0.6,0-1.5,0.4-2,0.9c0.1,0.3,0.1,0.7,0.1,1.1v4.1h-1V422c0-0.9-0.3-1.8-1.5-1.8c-0.6,0-1.5,0.4-1.9,0.9v5.2h-1.1v-5.5
		c0-0.4,0-0.9-0.2-1.4l1-0.1c0.1,0.3,0.2,0.7,0.2,1C101.1,419.7,102,419.3,102.9,419.3z"/>
	<path d="M117.2,426.2l-0.9,0.2c-0.3-0.3-0.4-0.8-0.5-1.2c-0.4,0.8-1.3,1.3-2.2,1.3c-1.1,0-2.2-0.6-2.2-2.1c0-1.6,0.8-2.1,4.3-2.3
		v-0.6c0-0.8-0.2-1.4-1.4-1.4c-0.7,0-1.5,0.2-2.1,0.6l-0.3-0.9c0.6-0.3,1.6-0.6,2.5-0.6c1.8,0,2.3,0.8,2.3,2.3v2.8
		C116.7,425.1,116.9,425.8,117.2,426.2z M112.4,424.3c0,1,0.9,1.2,1.4,1.2c1,0,1.7-0.7,1.9-1.5v-1.2
		C113.1,423,112.4,423.3,112.4,424.3z"/>
	<path d="M118.7,422.9c0-2,0.8-3.8,3.3-3.8c0.6,0,1.2,0.1,1.6,0.3l-0.2,0.9c-0.4-0.2-0.9-0.3-1.4-0.3c-1.7,0-2.3,1.2-2.3,2.8
		c0,1.5,0.6,2.6,2.3,2.6c0.5,0,1.1-0.1,1.5-0.3l0.2,0.9c-0.4,0.1-1,0.3-1.7,0.3C119.5,426.5,118.7,424.8,118.7,422.9L118.7,422.9z"
		/>
	<path d="M129,419.3c1.6,0,2.2,1,2.2,2.4v4.6h-1.1V422c0-0.9-0.3-1.8-1.4-1.8c-0.7,0-1.6,0.4-2,0.9v5.2h-1.1v-9.6l1.1-0.2v3.7
		C127.2,419.7,128.1,419.3,129,419.3z"/>
	<path d="M134.8,418.1h-1.2V417h1.2V418.1z M134.8,426.3h-1.1v-6.9h1.1V426.3z"/>
	<path d="M139.5,426.5c-1.7,0-2.7-1.2-2.7-3.4c0-2,0.7-3.8,2.9-3.8c0.8,0,1.6,0.4,2.1,0.9v-3.3l1.1-0.2v7.6c0,0.7,0,1.5,0.3,2
		l-0.9,0.2c-0.2-0.3-0.3-0.8-0.3-1.1C141.6,425.7,140.9,426.5,139.5,426.5L139.5,426.5z M141.9,422c0-0.3,0-0.7-0.1-0.9
		c-0.3-0.4-0.9-0.9-1.9-0.9c-1.4,0-2,1.1-2,2.9c0,1.4,0.5,2.5,1.8,2.5c1.2,0,1.8-0.8,2-1.3c0-0.2,0.1-0.6,0.1-0.9V422z"/>
	<path d="M145.1,421.7c0-2.5,1.1-4.8,4.2-4.8c3.1,0,4.3,2.3,4.3,4.8c0,2.4-1,4.8-4.3,4.8C146.6,426.5,145.1,424.7,145.1,421.7
		L145.1,421.7z M146.3,421.7c0,2.8,1.4,3.8,3.1,3.8c1.8,0,3.1-1.1,3.1-3.9c0-2.4-1-3.8-3.1-3.8S146.3,419.3,146.3,421.7L146.3,421.7
		z"/>
	<path d="M159.2,419.3l-0.1,1c-0.9,0-1.8,0.3-2.2,1.2v4.9h-1.1v-5.1c0-0.7,0-1.4-0.2-1.8l1-0.1c0.1,0.3,0.2,0.8,0.2,1.2
		C157.3,419.8,158.2,419.3,159.2,419.3z"/>
	<path d="M161.8,418.1h-1.2V417h1.2V418.1z M161.7,426.3h-1.1v-6.9h1.1V426.3z"/>
	<path d="M164.4,428.1l-0.8-0.1c0.4-1,0.7-2.6,0.8-3.5l1.1,0.1C165.3,425.6,164.8,427.2,164.4,428.1z"/>
	<path d="M173.3,417.1h1l3.6,9.2h-1.2l-1-2.7h-3.8l-1,2.7h-1.1L173.3,417.1z M175.4,422.7l-1.6-4.4l-1.6,4.4H175.4z"/>
	<path d="M185.5,422.8c0,1.8-0.8,3.7-3.3,3.7c-2.5,0-3.2-1.9-3.2-3.7c0-1.8,0.8-3.7,3.2-3.7C184.7,419.2,185.5,421,185.5,422.8
		L185.5,422.8z M182.2,425.6c1.4,0,2.1-1,2.1-2.8c0-1.8-0.7-2.7-2.1-2.7c-1.4,0-2.1,0.9-2.1,2.7
		C180.1,424.6,180.8,425.6,182.2,425.6L182.2,425.6z"/>
	<path d="M187.6,426.3v-9.6l1.1-0.2v3.8c0.3-0.4,1-1.2,2.3-1.2c1.7,0,2.7,1.2,2.7,3.5c0,2-0.7,3.8-2.9,3.8c-0.8,0-1.7-0.4-2.1-0.9
		l-0.1,0.7H187.6z M188.6,423.7c0,0.3,0,0.7,0.1,1c0.3,0.4,1,0.9,1.9,0.9c1.4,0,2-1.1,2-2.9c0-1.5-0.5-2.6-1.8-2.6
		c-1.2,0-1.8,0.8-2,1.3c0,0.2-0.1,0.6-0.1,0.9V423.7z"/>
	<path d="M201,426.2l-0.9,0.2c-0.3-0.3-0.4-0.8-0.5-1.2c-0.4,0.8-1.3,1.3-2.2,1.3c-1.1,0-2.2-0.6-2.2-2.1c0-1.6,0.8-2.1,4.3-2.3
		v-0.6c0-0.8-0.2-1.4-1.4-1.4c-0.7,0-1.5,0.2-2.1,0.6l-0.3-0.9c0.6-0.3,1.6-0.6,2.5-0.6c1.8,0,2.3,0.8,2.3,2.3v2.8
		C200.5,425.1,200.6,425.8,201,426.2z M196.2,424.3c0,1,0.9,1.2,1.4,1.2c1,0,1.7-0.7,1.9-1.5v-1.2
		C196.9,423,196.2,423.3,196.2,424.3z"/>
	<path d="M205.2,421.9v0.9h-2.9v-0.9H205.2z"/>
	<path d="M212.6,426.3h-1.3l-3-3.5v3.5h-1.1v-9.6l1.1-0.2v6.2l2.9-3.3h1.3l-3.1,3.3L212.6,426.3z"/>
	<path d="M216.3,426.5c-1.7,0-2.2-1-2.2-2.5v-4.6h1.1v4.4c0,0.9,0.3,1.8,1.4,1.8c0.7,0,1.6-0.4,2-0.9v-5.3h1.1v5.2
		c0,0.6,0.1,1.2,0.2,1.7l-1,0.2c-0.1-0.3-0.2-0.7-0.2-1C218.1,426.1,217.2,426.5,216.3,426.5z"/>
	<path d="M222.4,428.1l-0.8-0.1c0.4-1,0.7-2.6,0.8-3.5l1.1,0.1C223.4,425.6,222.9,427.2,222.4,428.1z"/>
	<path d="M233.4,418.4c-0.5-0.3-1.3-0.5-2-0.5c-0.8,0-1.7,0.3-1.7,1.5c0,0.8,0.7,1.2,1.8,1.7c1.4,0.7,2.5,1.3,2.5,2.8
		c0,1.9-1.3,2.6-2.8,2.6c-0.9,0-2.1-0.2-2.9-0.6l0.3-1c0.7,0.3,1.7,0.6,2.6,0.6c0.8,0,1.7-0.3,1.7-1.6c0-0.9-0.7-1.4-2-1.9
		c-1.3-0.6-2.2-1.1-2.2-2.5c0-1.8,1.5-2.5,2.7-2.5c1,0,1.9,0.3,2.4,0.5L233.4,418.4z"/>
	<path d="M238.9,425.6c0.8,0,1.5-0.2,2.1-0.4l0.2,0.9c-0.5,0.2-1.4,0.5-2.4,0.5c-2.2,0-3.4-1.3-3.4-3.5c0-2.2,1.1-3.8,3.2-3.8
		c1.8,0,2.7,1.2,2.7,3.2v0.6h-4.8C236.5,424.8,237.5,425.6,238.9,425.6L238.9,425.6z M238.6,420c-1.1,0-1.8,1-2,2.1h3.8
		C240.3,420.8,239.8,420,238.6,420L238.6,420z"/>
	<path d="M244.3,419.3c0.1,0.3,0.2,0.7,0.2,1c0.5-0.6,1.5-1,2.4-1c1.6,0,2.2,1,2.2,2.4v4.6H248V422c0-0.9-0.3-1.8-1.4-1.8
		c-0.7,0-1.6,0.4-2,0.9v5.2h-1.1v-5.5c0-0.4,0-0.9-0.2-1.4L244.3,419.3z"/>
	<path d="M253.9,426.5c-1.7,0-2.7-1.2-2.7-3.4c0-2,0.7-3.8,2.9-3.8c0.8,0,1.6,0.4,2.1,0.9v-3.3l1.1-0.2v7.6c0,0.7,0,1.5,0.3,2
		l-0.9,0.2c-0.2-0.3-0.3-0.8-0.3-1.1C255.9,425.7,255.2,426.5,253.9,426.5L253.9,426.5z M256.2,422c0-0.3,0-0.7-0.1-0.9
		c-0.3-0.4-0.9-0.9-1.9-0.9c-1.4,0-2,1.1-2,2.9c0,1.4,0.5,2.5,1.8,2.5c1.2,0,1.8-0.8,2-1.3c0-0.2,0.1-0.6,0.1-0.9V422z"/>
	<path d="M265,426.2l-0.9,0.2c-0.3-0.3-0.4-0.8-0.5-1.2c-0.4,0.8-1.3,1.3-2.2,1.3c-1.1,0-2.2-0.6-2.2-2.1c0-1.6,0.8-2.1,4.3-2.3
		v-0.6c0-0.8-0.2-1.4-1.4-1.4c-0.7,0-1.5,0.2-2.1,0.6l-0.3-0.9c0.6-0.3,1.6-0.6,2.5-0.6c1.8,0,2.3,0.8,2.3,2.3v2.8
		C264.5,425.1,264.6,425.8,265,426.2z M260.2,424.3c0,1,0.9,1.2,1.4,1.2c1,0,1.7-0.7,1.9-1.5v-1.2
		C260.9,423,260.2,423.3,260.2,424.3z"/>
	<path d="M268.1,418.1h-1.2V417h1.2V418.1z M268,426.3h-1.1v-6.9h1.1V426.3z"/>
	<path d="M272.8,421.9v0.9H270v-0.9H272.8z"/>
	<path d="M278.3,420.5c-0.4-0.2-1.1-0.4-1.6-0.4c-0.5,0-1.2,0.2-1.2,1c0,0.6,0.4,0.8,1.3,1.2c1.1,0.5,1.9,0.9,1.9,2.1
		c0,1.6-1.2,2.1-2.2,2.1c-0.7,0-1.7-0.2-2.3-0.4l0.3-0.9c0.6,0.3,1.4,0.4,2,0.4c0.7,0,1.3-0.2,1.3-1.1c0-0.6-0.5-1-1.6-1.4
		c-1-0.4-1.7-0.8-1.7-1.9c0-1.5,1.3-1.9,2.3-1.9c0.6,0,1.5,0.2,1.9,0.3L278.3,420.5z"/>
	<path d="M284.2,419.3c1.6,0,2.2,1,2.2,2.4v4.6h-1.1V422c0-0.9-0.3-1.8-1.4-1.8c-0.7,0-1.6,0.4-2,0.9v5.2h-1.1v-9.6l1.1-0.2v3.7
		C282.4,419.7,283.3,419.3,284.2,419.3z"/>
	<path d="M290,418.1h-1.2V417h1.2V418.1z M289.9,426.3h-1.1v-6.9h1.1V426.3z"/>
</g>
<g class="st1">
	<path d="M-35.4,443.1v-9.2h2.2c2.2,0,3.7,0.6,3.7,2.7c0,2.1-1.4,3-3.2,3h-1.6v3.5H-35.4z M-33,438.7c1.2,0,2.3-0.3,2.3-2
		c0-1.4-1-1.8-2.5-1.8h-1.1v3.8H-33z"/>
	<path d="M-26.3,443.1h-1.1v-9.2h1.1v4h4.9v-4h1.1v9.2h-1.1v-4.2h-4.9V443.1z"/>
	<path d="M-18,438.5c0-2.5,1.1-4.8,4.2-4.8c3.1,0,4.3,2.3,4.3,4.8c0,2.4-1,4.8-4.3,4.8C-16.5,443.3-18,441.5-18,438.5L-18,438.5z
		 M-16.9,438.5c0,2.8,1.4,3.8,3.1,3.8c1.8,0,3.1-1.1,3.1-3.9c0-2.4-1-3.8-3.1-3.8S-16.9,436.1-16.9,438.5L-16.9,438.5z"/>
	<path d="M-6.3,443.1h-1.1v-9.2h1.5l4.5,7.5v-7.5h1.1v9.2h-1.2l-4.7-7.9V443.1z"/>
	<path d="M3.4,437.9h3.4v0.9H3.4v3.3h4.1v1H2.4v-9.2h4.9v1H3.4V437.9z"/>
	<path d="M10.8,437.6H9.6v-1.4h1.2V437.6z M10.8,443.1H9.6v-1.4h1.2V443.1z"/>
	<path d="M22.7,438.5c0,2.9-1,4.8-3.2,4.8c-2.2,0-3.1-1.9-3.1-4.8c0-3,1-4.8,3.1-4.8C21.7,433.7,22.7,435.6,22.7,438.5L22.7,438.5z
		 M17.5,438.5c0,2.7,0.8,3.8,2,3.8c1.2,0,2-1.1,2-3.8c0-2.8-0.8-3.9-2-3.9C18.3,434.6,17.5,435.7,17.5,438.5L17.5,438.5z"/>
	<path d="M27.2,439.6c-2,0-2.8-1.4-2.8-2.7c0-1.5,0.7-3.2,3-3.2c1.8,0,3.1,1.2,3.1,3.8c0,3.8-2,5.7-5.2,5.8l-0.2-1
		c2.4-0.1,4-1.3,4.3-3.8C29,439.2,28.2,439.6,27.2,439.6L27.2,439.6z M27.5,434.7c-1.3,0-2,1-2,2.2c0,1,0.6,1.9,2,1.9
		c0.9,0,1.7-0.6,2-1.2C29.5,436.3,29.2,434.7,27.5,434.7L27.5,434.7z"/>
	<path d="M38.7,438.5c0,2.9-1,4.8-3.2,4.8c-2.2,0-3.1-1.9-3.1-4.8c0-3,1-4.8,3.1-4.8C37.7,433.7,38.7,435.6,38.7,438.5L38.7,438.5z
		 M33.5,438.5c0,2.7,0.8,3.8,2,3.8c1.2,0,2-1.1,2-3.8c0-2.8-0.8-3.9-2-3.9C34.3,434.6,33.5,435.7,33.5,438.5L33.5,438.5z"/>
	<path d="M43.1,438.7v0.9h-2.9v-0.9H43.1z"/>
	<path d="M47.5,439.6c-2,0-2.8-1.4-2.8-2.7c0-1.5,0.7-3.2,3-3.2c1.8,0,3.1,1.2,3.1,3.8c0,3.8-2,5.7-5.2,5.8l-0.2-1
		c2.4-0.1,4-1.3,4.3-3.8C49.3,439.2,48.4,439.6,47.5,439.6L47.5,439.6z M47.7,434.7c-1.3,0-2,1-2,2.2c0,1,0.6,1.9,2,1.9
		c0.9,0,1.7-0.6,2-1.2C49.8,436.3,49.5,434.7,47.7,434.7L47.7,434.7z"/>
	<path d="M53.1,434.9v-1H59v0.9c-1.3,2-3.1,5.9-3.9,8.3h-1.2c0.7-2.3,2.7-6.3,4-8.2H53.1z"/>
	<path d="M65.4,436.2c0-0.9-0.6-1.5-1.7-1.5c-0.8,0-1.6,0.3-2.3,0.6l-0.2-1c0.7-0.4,1.8-0.6,2.6-0.6c1.5,0,2.7,0.7,2.7,2.5
		c0,1.1-0.6,2.2-2.1,3.9c-0.9,0.9-1.6,1.6-2.1,2.1h4.4v1h-5.8v-0.9c0.7-0.6,1.4-1.3,2.4-2.4C64.8,438.1,65.4,437.1,65.4,436.2
		L65.4,436.2z"/>
	<path d="M72.2,437.3c1.7,0,2.7,1.1,2.7,2.8c0,1.8-0.9,3.3-3,3.3c-1.8,0-3.1-1.3-3.1-3.9c0-3.1,1.7-5.6,5-5.7l0.2,0.9
		c-2.3,0.1-3.7,1.5-4.1,3.7C70.3,437.8,71.2,437.3,72.2,437.3L72.2,437.3z M71.9,442.4c1.2,0,1.9-0.8,1.9-2.3c0-1.1-0.5-1.9-1.8-1.9
		c-1,0-1.8,0.6-2.1,1.2C69.8,440.9,70.4,442.4,71.9,442.4z"/>
	<path d="M79.4,438.7v0.9h-2.9v-0.9H79.4z"/>
	<path d="M84.2,437.5c1.5,0,2.7,0.7,2.7,2.7c0,2.1-1.4,3.1-3.3,3.1c-0.6,0-1.6-0.1-2.2-0.3l0.2-1c0.6,0.2,1.4,0.3,2,0.3
		c1.2,0,2.2-0.6,2.2-2.2c0-1.3-0.9-1.8-1.9-1.8c-0.6,0-1.3,0.2-1.8,0.5l-0.6-0.3l0.4-4.7h4.6v1h-3.7l-0.3,3
		C83,437.6,83.7,437.5,84.2,437.5z"/>
	<path d="M94.1,440.1h1.4v0.9h-1.4v2.1h-1V441h-4.4v-0.8l4.3-6.3h1.1V440.1z M93.1,440.1v-4.8l-3.3,4.8H93.1z"/>
	<path d="M101.6,436.2c0-0.9-0.6-1.5-1.7-1.5c-0.8,0-1.6,0.3-2.3,0.6l-0.2-1c0.7-0.4,1.8-0.6,2.6-0.6c1.5,0,2.7,0.7,2.7,2.5
		c0,1.1-0.6,2.2-2.1,3.9c-0.9,0.9-1.6,1.6-2.1,2.1h4.4v1h-5.8v-0.9c0.7-0.6,1.4-1.3,2.4-2.4C101,438.1,101.6,437.1,101.6,436.2
		L101.6,436.2z"/>
	<path d="M109.6,436.2c0-0.9-0.6-1.5-1.7-1.5c-0.8,0-1.6,0.3-2.3,0.6l-0.2-1c0.7-0.4,1.8-0.6,2.6-0.6c1.5,0,2.7,0.7,2.7,2.5
		c0,1.1-0.6,2.2-2.1,3.9c-0.9,0.9-1.6,1.6-2.1,2.1h4.4v1h-5.8v-0.9c0.7-0.6,1.4-1.3,2.4-2.4C109,438.1,109.6,437.1,109.6,436.2
		L109.6,436.2z"/>
</g>
</svg>
