<?xml version="1.0" encoding="utf-8"?>
<!-- Generator: Adobe Illustrator 19.0.0, SVG Export Plug-In . SVG Version: 6.00 Build 0)  -->
<svg version="1.1" id="图层_1" xmlns="http://www.w3.org/2000/svg" xmlns:xlink="http://www.w3.org/1999/xlink" x="0px" y="0px"
	 viewBox="31 297 437 73" style="enable-background:new 31 297 437 73;" xml:space="preserve">
<style type="text/css">
	.st0{fill:none;}
	.st1{enable-background:new    ;}
</style>
<rect x="86.8" y="310.6" class="st0" width="434" height="92"/>
<g class="st1">
	<path d="M89.3,317.7h3.4v0.9h-3.4v3.3h4.1v1h-5.1v-9.2h4.9v1h-3.8L89.3,317.7L89.3,317.7z"/>
	<path d="M97.5,318.5v0.9h-2.9v-0.9H97.5z"/>
	<path d="M104.5,322.6h-1l-2.7-7.5l-0.3,7.8h-1.1l0.5-9.2h1.5l2.7,7.5l2.8-7.5h1.5l0.5,9.2h-1.1l-0.3-7.8L104.5,322.6z"/>
	<path d="M113.8,313.7h1l3.6,9.2h-1.2l-1-2.7h-3.8l-1,2.7h-1.1L113.8,313.7z M115.9,319.3l-1.6-4.4l-1.6,4.4H115.9z"/>
	<path d="M121,321.9h4.1v1h-5.2v-9.2h1.1V321.9z"/>
	<path d="M127.9,321.9h4.1v1h-5.2v-9.2h1.1V321.9z"/>
	<path d="M135,317.4h-1.2V316h1.2V317.4z M135,322.9h-1.2v-1.4h1.2V322.9z"/>
	<path d="M144.4,315.9c1.6,0,2.2,1,2.2,2.4v4.6h-1.1v-4.3c0-0.9-0.3-1.8-1.4-1.8c-0.7,0-1.6,0.4-2,0.9v5.2H141v-9.6l1.1-0.2v3.7
		C142.6,316.3,143.5,315.9,144.4,315.9z"/>
	<path d="M152.2,322.2c0.8,0,1.5-0.2,2.1-0.4l0.2,0.9c-0.5,0.2-1.4,0.5-2.4,0.5c-2.2,0-3.4-1.3-3.4-3.5s1.1-3.8,3.2-3.8
		c1.8,0,2.7,1.2,2.7,3.2v0.6h-4.8C149.7,321.4,150.7,322.2,152.2,322.2L152.2,322.2z M151.8,316.6c-1.1,0-1.8,1-2,2.1h3.8
		C153.5,317.4,153,316.6,151.8,316.6L151.8,316.6z"/>
	<path d="M157.3,315.6l-0.2-0.9c0.8-0.3,1.8-0.8,2.3-1.2h0.9v9.3h-1.1v-8C158.7,315.1,158,315.4,157.3,315.6z"/>
	<path d="M167.1,319.4c-2,0-2.8-1.4-2.8-2.7c0-1.5,0.7-3.2,3-3.2c1.8,0,3.1,1.2,3.1,3.8c0,3.8-2,5.7-5.2,5.8l-0.2-1
		c2.4-0.1,4-1.3,4.3-3.8C168.9,319,168,319.4,167.1,319.4L167.1,319.4z M167.3,314.5c-1.3,0-2,1-2,2.2c0,1,0.6,1.9,2,1.9
		c0.9,0,1.7-0.6,2-1.2C169.4,316.1,169.1,314.5,167.3,314.5L167.3,314.5z"/>
	<path d="M175.1,319.4c-2,0-2.8-1.4-2.8-2.7c0-1.5,0.7-3.2,3-3.2c1.8,0,3.1,1.2,3.1,3.8c0,3.8-2,5.7-5.2,5.8l-0.2-1
		c2.4-0.1,4-1.3,4.3-3.8C176.9,319,176,319.4,175.1,319.4L175.1,319.4z M175.4,314.5c-1.3,0-2,1-2,2.2c0,1,0.6,1.9,2,1.9
		c0.9,0,1.7-0.6,2-1.2C177.4,316.1,177.1,314.5,175.4,314.5L175.4,314.5z"/>
	<path d="M181.3,315.6l-0.2-0.9c0.8-0.3,1.8-0.8,2.3-1.2h0.9v9.3h-1.1v-8C182.8,315.1,182,315.4,181.3,315.6z"/>
	<path d="M189.3,315.6l-0.2-0.9c0.8-0.3,1.8-0.8,2.3-1.2h0.9v9.3h-1.1v-8C190.8,315.1,190,315.4,189.3,315.6z"/>
	<path d="M199.1,319.4c-2,0-2.8-1.4-2.8-2.7c0-1.5,0.7-3.2,3-3.2c1.8,0,3.1,1.2,3.1,3.8c0,3.8-2,5.7-5.2,5.8l-0.2-1
		c2.4-0.1,4-1.3,4.3-3.8C200.9,319,200.1,319.4,199.1,319.4L199.1,319.4z M199.4,314.5c-1.3,0-2,1-2,2.2c0,1,0.6,1.9,2,1.9
		c0.9,0,1.7-0.6,2-1.2C201.4,316.1,201.1,314.5,199.4,314.5L199.4,314.5z"/>
	<path d="M207.1,319.4c-2,0-2.8-1.4-2.8-2.7c0-1.5,0.7-3.2,3-3.2c1.8,0,3.1,1.2,3.1,3.8c0,3.8-2,5.7-5.2,5.8l-0.2-1
		c2.4-0.1,4-1.3,4.3-3.8C208.9,319,208.1,319.4,207.1,319.4L207.1,319.4z M207.4,314.5c-1.3,0-2,1-2,2.2c0,1,0.6,1.9,2,1.9
		c0.9,0,1.7-0.6,2-1.2C209.4,316.1,209.1,314.5,207.4,314.5L207.4,314.5z"/>
	<path d="M217,316c0-0.9-0.6-1.5-1.7-1.5c-0.8,0-1.6,0.3-2.3,0.6l-0.2-1c0.7-0.4,1.8-0.6,2.6-0.6c1.5,0,2.7,0.7,2.7,2.5
		c0,1.1-0.6,2.2-2.1,3.9c-0.9,0.9-1.6,1.6-2.1,2.1h4.4v1h-5.8v-0.9c0.7-0.6,1.4-1.3,2.4-2.4C216.4,317.9,217,316.9,217,316L217,316z
		"/>
	<path d="M224.5,321.1c-1.2,0-1.6-0.8-1.6-1.9c0-1.6,0.8-3.5,2.5-3.5c0.8,0,1.2,0.4,1.3,0.9l0.2-0.7h0.7l-0.6,3
		c-0.1,0.3-0.1,0.7-0.1,0.9c0,0.3,0.1,0.5,0.5,0.5c1,0,1.6-1.3,1.6-2.5c0-2.1-1.5-3.3-3.6-3.3c-2.2,0-3.8,1.8-3.8,4
		c0,2.3,1.5,3.7,3.8,3.7c1.2,0,2.3-0.3,3.1-0.6l0.2,0.7c-0.9,0.4-2,0.7-3.3,0.7c-2.9,0-4.7-1.8-4.7-4.5c0-2.6,2.1-4.7,4.7-4.7
		c2.5,0,4.4,1.5,4.4,4c0,2-1.2,3.3-2.6,3.3c-0.7,0-1-0.4-1-1.1C225.9,320.5,225.2,321.1,224.5,321.1z M223.8,319
		c0,0.8,0.2,1.3,0.9,1.3c1,0,1.5-1.3,1.7-2.8c0-0.8-0.3-1.2-1-1.2C224.3,316.3,223.8,317.9,223.8,319L223.8,319z"/>
	<path d="M234.5,324.8c1.5,0,2-1,2-1.9v-1.1c-0.3,0.5-1,1.2-2.3,1.2c-1.7,0-2.7-1.2-2.7-3.4c0-2,0.7-3.8,2.9-3.8
		c0.9,0,1.7,0.4,2.2,0.9c0-0.2,0.1-0.5,0.1-0.7h1c-0.1,0.3-0.1,0.9-0.1,1.3v5.8c0,1.8-1.4,2.7-3.1,2.7c-0.9,0-1.8-0.2-2.6-0.6
		l0.2-0.9C232.8,324.6,233.7,324.8,234.5,324.8z M236.6,318.6c0-0.3,0-0.7-0.1-0.9c-0.3-0.4-1-0.9-1.9-0.9c-1.4,0-2,1.1-2,2.9
		c0,1.4,0.5,2.5,1.8,2.5c1.2,0,1.8-0.8,2-1.3c0-0.2,0.1-0.6,0.1-0.9L236.6,318.6L236.6,318.6z"/>
	<path d="M243.5,315.9c1,0,1.6,0.4,1.9,1c0.6-0.6,1.6-1,2.5-1c1.6,0,2.2,1,2.2,2.4v4.6H249v-4.3c0-0.9-0.3-1.8-1.5-1.8
		c-0.6,0-1.5,0.4-2,0.9c0.1,0.3,0.1,0.7,0.1,1.1v4.1h-1v-4.3c0-0.9-0.3-1.8-1.5-1.8c-0.6,0-1.5,0.4-1.9,0.9v5.2h-1.1v-5.5
		c0-0.4,0-0.9-0.2-1.4l1-0.1c0.1,0.3,0.2,0.7,0.2,1C241.7,316.3,242.6,315.9,243.5,315.9z"/>
	<path d="M257.8,322.8l-0.9,0.2c-0.3-0.3-0.4-0.8-0.5-1.2c-0.4,0.8-1.3,1.3-2.2,1.3c-1.1,0-2.2-0.6-2.2-2.1c0-1.6,0.8-2.1,4.3-2.3
		v-0.6c0-0.8-0.2-1.4-1.4-1.4c-0.7,0-1.5,0.2-2.1,0.6l-0.3-0.9c0.6-0.3,1.6-0.6,2.5-0.6c1.8,0,2.3,0.8,2.3,2.3v2.8
		C257.3,321.7,257.5,322.4,257.8,322.8z M253,320.9c0,1,0.9,1.2,1.4,1.2c1,0,1.7-0.7,1.9-1.5v-1.2C253.7,319.6,253,319.9,253,320.9z
		"/>
	<path d="M260.9,314.7h-1.2v-1.1h1.2V314.7z M260.9,322.9h-1.1V316h1.1V322.9z"/>
	<path d="M264.5,322.9h-1.1v-9.6l1.1-0.2V322.9z"/>
	<path d="M268,322.9h-1.2v-1.4h1.2V322.9z"/>
	<path d="M269.9,319.5c0-2,0.8-3.8,3.3-3.8c0.6,0,1.2,0.1,1.6,0.3l-0.2,0.9c-0.4-0.2-0.9-0.3-1.4-0.3c-1.7,0-2.3,1.2-2.3,2.8
		c0,1.5,0.6,2.6,2.3,2.6c0.5,0,1.1-0.1,1.5-0.3l0.2,0.9c-0.4,0.1-1,0.3-1.7,0.3C270.7,323.1,269.9,321.4,269.9,319.5L269.9,319.5z"
		/>
	<path d="M282.8,319.4c0,1.8-0.8,3.7-3.3,3.7s-3.2-1.9-3.2-3.7c0-1.8,0.8-3.7,3.2-3.7C282.1,315.8,282.8,317.6,282.8,319.4
		L282.8,319.4z M279.6,322.2c1.4,0,2.1-1,2.1-2.8s-0.7-2.7-2.1-2.7c-1.4,0-2.1,0.9-2.1,2.7C277.4,321.2,278.1,322.2,279.6,322.2
		L279.6,322.2z"/>
	<path d="M288.3,315.9c1,0,1.6,0.4,1.9,1c0.6-0.6,1.6-1,2.5-1c1.6,0,2.2,1,2.2,2.4v4.6h-1.1v-4.3c0-0.9-0.3-1.8-1.5-1.8
		c-0.6,0-1.5,0.4-2,0.9c0.1,0.3,0.1,0.7,0.1,1.1v4.1h-1v-4.3c0-0.9-0.3-1.8-1.5-1.8c-0.6,0-1.5,0.4-1.9,0.9v5.2h-1.1v-5.5
		c0-0.4,0-0.9-0.2-1.4l1-0.1c0.1,0.3,0.2,0.7,0.2,1C286.5,316.3,287.5,315.9,288.3,315.9z"/>
</g>
<g class="st1">
	<path d="M90.6,330.5h1l3.6,9.2H94l-1-2.7h-3.8l-1,2.7h-1.1L90.6,330.5z M92.7,336.1l-1.6-4.4l-1.6,4.4H92.7z"/>
	<path d="M99.1,330.5c3.3,0,4.8,1.4,4.8,4.6c0,2.9-1.2,4.6-4.9,4.6h-2.3v-9.2H99.1z M102.7,335.1c0-2.5-1.2-3.6-3.6-3.6h-1.2v7.3
		h1.2C101.5,338.7,102.7,337.7,102.7,335.1L102.7,335.1z"/>
	<path d="M108.5,330.5c3.3,0,4.8,1.4,4.8,4.6c0,2.9-1.2,4.6-4.9,4.6h-2.3v-9.2H108.5z M112.2,335.1c0-2.5-1.2-3.6-3.6-3.6h-1.2v7.3
		h1.2C110.9,338.7,112.2,337.7,112.2,335.1L112.2,335.1z"/>
	<path d="M119.9,337.4c-0.5-1.1-0.9-1.6-1.7-1.6h-1.6v3.9h-1v-9.2h2.1c1.9,0,3.5,0.4,3.5,2.4c0,1.5-0.8,2.1-1.7,2.4
		c0.6,0.2,1,0.6,1.3,1.5c0.3,0.8,0.9,2.1,1.2,2.9h-1.2C120.6,339.1,120.3,338.2,119.9,337.4z M120.1,333.1c0-1.3-0.9-1.6-2.3-1.6
		h-1.2v3.4h1.9C119.3,334.7,120.1,334.2,120.1,333.1z"/>
	<path d="M124.9,334.5h3.4v0.9h-3.4v3.3h4.1v1h-5.2v-9.2h4.9v1h-3.8V334.5z"/>
	<path d="M135.4,331.8c-0.5-0.3-1.3-0.5-2-0.5c-0.8,0-1.7,0.3-1.7,1.5c0,0.8,0.7,1.2,1.8,1.7c1.4,0.7,2.5,1.3,2.5,2.8
		c0,1.9-1.3,2.6-2.8,2.6c-0.9,0-2.1-0.2-2.9-0.6l0.3-1c0.7,0.3,1.7,0.6,2.6,0.6c0.8,0,1.7-0.3,1.7-1.6c0-0.9-0.7-1.4-2-1.9
		c-1.3-0.6-2.2-1.1-2.2-2.5c0-1.8,1.5-2.5,2.7-2.5c1,0,1.9,0.3,2.4,0.5L135.4,331.8z"/>
	<path d="M142.4,331.8c-0.5-0.3-1.3-0.5-2-0.5c-0.8,0-1.7,0.3-1.7,1.5c0,0.8,0.7,1.2,1.8,1.7c1.4,0.7,2.5,1.3,2.5,2.8
		c0,1.9-1.3,2.6-2.8,2.6c-0.9,0-2.1-0.2-2.9-0.6l0.3-1c0.7,0.3,1.7,0.6,2.6,0.6c0.8,0,1.7-0.3,1.7-1.6c0-0.9-0.7-1.4-2-1.9
		c-1.3-0.6-2.2-1.1-2.2-2.5c0-1.8,1.5-2.5,2.7-2.5c1,0,1.9,0.3,2.4,0.5L142.4,331.8z"/>
	<path d="M146.3,334.2h-1.2v-1.4h1.2V334.2z M146.3,339.7h-1.2v-1.4h1.2V339.7z"/>
	<path d="M156.5,332.8c0-0.9-0.6-1.5-1.7-1.5c-0.8,0-1.6,0.3-2.3,0.6l-0.2-1c0.7-0.4,1.8-0.6,2.6-0.6c1.5,0,2.7,0.7,2.7,2.5
		c0,1.1-0.6,2.2-2.1,3.9c-0.9,0.9-1.6,1.6-2.1,2.1h4.4v1H152v-0.9c0.7-0.6,1.4-1.3,2.4-2.4C155.9,334.7,156.5,333.7,156.5,332.8
		L156.5,332.8z"/>
	<path d="M163.2,335.2c0-2.6,0.9-4.9,4.3-4.9c0.8,0,1.7,0.2,2.3,0.4l-0.2,1c-0.6-0.2-1.4-0.4-2.1-0.4c-2.4,0-3.1,1.8-3.1,3.9
		s0.9,3.6,3.2,3.6c0.7,0,1.7-0.2,2.2-0.4l0.1,1c-0.5,0.2-1.5,0.4-2.4,0.4C164.2,339.9,163.2,337.8,163.2,335.2L163.2,335.2z"/>
	<path d="M175.1,332.7c1.6,0,2.2,1,2.2,2.4v4.6h-1.1v-4.3c0-0.9-0.3-1.8-1.4-1.8c-0.7,0-1.6,0.4-2,0.9v5.2h-1.1v-9.6l1.1-0.2v3.7
		C173.4,333.1,174.3,332.7,175.1,332.7z"/>
	<path d="M185.9,336.2c0,1.8-0.8,3.7-3.3,3.7s-3.2-1.9-3.2-3.7c0-1.8,0.8-3.7,3.2-3.7C185.2,332.6,185.9,334.4,185.9,336.2
		L185.9,336.2z M182.7,339c1.4,0,2.1-1,2.1-2.8s-0.7-2.7-2.1-2.7s-2.1,0.9-2.1,2.7C180.6,338,181.3,339,182.7,339L182.7,339z"/>
	<path d="M191.4,332.7c1,0,1.6,0.4,1.9,1c0.6-0.6,1.6-1,2.5-1c1.6,0,2.2,1,2.2,2.4v4.6h-1.1v-4.3c0-0.9-0.3-1.8-1.5-1.8
		c-0.6,0-1.5,0.4-2,0.9c0.1,0.3,0.1,0.7,0.1,1.1v4.1h-1v-4.3c0-0.9-0.3-1.8-1.5-1.8c-0.6,0-1.5,0.4-1.9,0.9v5.2H188v-5.5
		c0-0.4,0-0.9-0.2-1.4l1-0.1c0.1,0.3,0.2,0.7,0.2,1C189.7,333.1,190.6,332.7,191.4,332.7z"/>
	<path d="M203.6,339c0.8,0,1.5-0.2,2.1-0.4l0.2,0.9c-0.5,0.2-1.4,0.5-2.4,0.5c-2.2,0-3.4-1.3-3.4-3.5s1.1-3.8,3.2-3.8
		c1.8,0,2.7,1.2,2.7,3.2v0.6h-4.8C201.1,338.2,202.2,339,203.6,339L203.6,339z M203.2,333.4c-1.1,0-1.8,1-2,2.1h3.8
		C205,334.2,204.5,333.4,203.2,333.4L203.2,333.4z"/>
	<path d="M218.1,339.7h-1.5l-4.1-4.5v4.5h-1.1v-9.2h1.1v4.5l4-4.5h1.4l-4.2,4.5L218.1,339.7z"/>
	<path d="M220.7,331.5h-1.2v-1.1h1.2V331.5z M220.6,339.7h-1.1v-6.9h1.1V339.7z"/>
	<path d="M226.5,332.7c1,0,1.6,0.4,1.9,1c0.6-0.6,1.6-1,2.5-1c1.6,0,2.2,1,2.2,2.4v4.6H232v-4.3c0-0.9-0.3-1.8-1.5-1.8
		c-0.6,0-1.5,0.4-2,0.9c0.1,0.3,0.1,0.7,0.1,1.1v4.1h-1v-4.3c0-0.9-0.3-1.8-1.5-1.8c-0.6,0-1.5,0.4-1.9,0.9v5.2h-1.1v-5.5
		c0-0.4,0-0.9-0.2-1.4l1-0.1c0.1,0.3,0.2,0.7,0.2,1C224.7,333.1,225.6,332.7,226.5,332.7z"/>
	<path d="M240.8,339.6l-0.9,0.2c-0.3-0.3-0.4-0.8-0.5-1.2c-0.4,0.8-1.3,1.3-2.2,1.3c-1.1,0-2.2-0.6-2.2-2.1c0-1.6,0.8-2.1,4.3-2.3
		v-0.6c0-0.8-0.2-1.4-1.4-1.4c-0.7,0-1.5,0.2-2.1,0.6l-0.3-0.9c0.6-0.3,1.6-0.6,2.5-0.6c1.8,0,2.3,0.8,2.3,2.3v2.8
		C240.3,338.5,240.5,339.2,240.8,339.6z M236,337.7c0,1,0.9,1.2,1.4,1.2c1,0,1.7-0.7,1.9-1.5v-1.2C236.7,336.4,236,336.7,236,337.7z
		"/>
	<path d="M242.3,336.3c0-2,0.8-3.8,3.3-3.8c0.6,0,1.2,0.1,1.6,0.3l-0.2,0.9c-0.4-0.2-0.9-0.3-1.4-0.3c-1.7,0-2.3,1.2-2.3,2.8
		c0,1.5,0.6,2.6,2.3,2.6c0.5,0,1.1-0.1,1.5-0.3l0.2,0.9c-0.4,0.1-1,0.3-1.7,0.3C243.1,339.9,242.3,338.2,242.3,336.3L242.3,336.3z"
		/>
	<path d="M252.6,332.7c1.6,0,2.2,1,2.2,2.4v4.6h-1.1v-4.3c0-0.9-0.3-1.8-1.4-1.8c-0.7,0-1.6,0.4-2,0.9v5.2h-1.1v-9.6l1.1-0.2v3.7
		C250.8,333.1,251.7,332.7,252.6,332.7z"/>
	<path d="M258.4,331.5h-1.2v-1.1h1.2V331.5z M258.4,339.7h-1.1v-6.9h1.1V339.7z"/>
	<path d="M263.1,339.9c-1.7,0-2.7-1.2-2.7-3.4c0-2,0.7-3.8,2.9-3.8c0.8,0,1.6,0.4,2.1,0.9v-3.3l1.1-0.2v7.6c0,0.7,0,1.5,0.3,2
		l-0.9,0.2c-0.2-0.3-0.3-0.8-0.3-1.1C265.2,339.1,264.5,339.9,263.1,339.9L263.1,339.9z M265.5,335.4c0-0.3,0-0.7-0.1-0.9
		c-0.3-0.4-0.9-0.9-1.9-0.9c-1.4,0-2,1.1-2,2.9c0,1.4,0.5,2.5,1.8,2.5c1.2,0,1.8-0.8,2-1.3c0-0.2,0.1-0.6,0.1-0.9L265.5,335.4
		L265.5,335.4z"/>
	<path d="M268.7,335.1c0-2.5,1.1-4.8,4.2-4.8s4.3,2.3,4.3,4.8c0,2.4-1,4.8-4.3,4.8C270.2,339.9,268.7,338.1,268.7,335.1L268.7,335.1
		z M269.9,335.1c0,2.8,1.4,3.8,3.1,3.8c1.8,0,3.1-1.1,3.1-3.9c0-2.4-1-3.8-3.1-3.8S269.9,332.7,269.9,335.1L269.9,335.1z"/>
	<path d="M282.8,332.7l-0.1,1c-0.9,0-1.8,0.3-2.2,1.2v4.9h-1.1v-5.1c0-0.7,0-1.4-0.2-1.8l1-0.1c0.1,0.3,0.2,0.8,0.2,1.2
		C280.9,333.2,281.8,332.7,282.8,332.7z"/>
	<path d="M285.4,331.5h-1.2v-1.1h1.2V331.5z M285.3,339.7h-1.1v-6.9h1.1V339.7z"/>
	<path d="M288,341.5l-0.8-0.1c0.4-1,0.7-2.6,0.8-3.5l1.1,0.1C288.9,339,288.4,340.6,288,341.5z"/>
	<path d="M296.9,330.5h1l3.6,9.2h-1.2l-1-2.7h-3.8l-1,2.7h-1.1L296.9,330.5z M299,336.1l-1.6-4.4l-1.6,4.4H299z"/>
	<path d="M309.1,336.2c0,1.8-0.8,3.7-3.3,3.7s-3.2-1.9-3.2-3.7c0-1.8,0.8-3.7,3.2-3.7C308.3,332.6,309.1,334.4,309.1,336.2
		L309.1,336.2z M305.8,339c1.4,0,2.1-1,2.1-2.8s-0.7-2.7-2.1-2.7s-2.1,0.9-2.1,2.7C303.7,338,304.4,339,305.8,339L305.8,339z"/>
	<path d="M311.2,339.7v-9.6l1.1-0.2v3.8c0.3-0.4,1-1.2,2.3-1.2c1.7,0,2.7,1.2,2.7,3.5c0,2-0.7,3.8-2.9,3.8c-0.8,0-1.7-0.4-2.1-0.9
		l-0.1,0.7h-1V339.7z M312.2,337.1c0,0.3,0,0.7,0.1,1c0.3,0.4,1,0.9,1.9,0.9c1.4,0,2-1.1,2-2.9c0-1.5-0.5-2.6-1.8-2.6
		c-1.2,0-1.8,0.8-2,1.3c0,0.2-0.1,0.6-0.1,0.9v1.4H312.2z"/>
	<path d="M324.6,339.6l-0.9,0.2c-0.3-0.3-0.4-0.8-0.5-1.2c-0.4,0.8-1.3,1.3-2.2,1.3c-1.1,0-2.2-0.6-2.2-2.1c0-1.6,0.8-2.1,4.3-2.3
		v-0.6c0-0.8-0.2-1.4-1.4-1.4c-0.7,0-1.5,0.2-2.1,0.6l-0.3-0.9c0.6-0.3,1.6-0.6,2.5-0.6c1.8,0,2.3,0.8,2.3,2.3v2.8
		C324.1,338.5,324.2,339.2,324.6,339.6z M319.8,337.7c0,1,0.9,1.2,1.4,1.2c1,0,1.7-0.7,1.9-1.5v-1.2
		C320.5,336.4,319.8,336.7,319.8,337.7z"/>
	<path d="M328.8,335.3v0.9h-2.9v-0.9H328.8z"/>
	<path d="M336.2,339.7h-1.3l-3-3.5v3.5h-1.1v-9.6l1.1-0.2v6.2l2.9-3.3h1.3l-3.1,3.3L336.2,339.7z"/>
	<path d="M339.9,339.9c-1.7,0-2.2-1-2.2-2.5v-4.6h1.1v4.4c0,0.9,0.3,1.8,1.4,1.8c0.7,0,1.6-0.4,2-0.9v-5.3h1.1v5.2
		c0,0.6,0.1,1.2,0.2,1.7l-1,0.2c-0.1-0.3-0.2-0.7-0.2-1C341.7,339.5,340.8,339.9,339.9,339.9z"/>
	<path d="M346,341.5l-0.8-0.1c0.4-1,0.7-2.6,0.8-3.5l1.1,0.1C347,339,346.5,340.6,346,341.5z"/>
	<path d="M357,331.8c-0.5-0.3-1.3-0.5-2-0.5c-0.8,0-1.7,0.3-1.7,1.5c0,0.8,0.7,1.2,1.8,1.7c1.4,0.7,2.5,1.3,2.5,2.8
		c0,1.9-1.3,2.6-2.8,2.6c-0.9,0-2.1-0.2-2.9-0.6l0.3-1c0.7,0.3,1.7,0.6,2.6,0.6c0.8,0,1.7-0.3,1.7-1.6c0-0.9-0.7-1.4-2-1.9
		c-1.3-0.6-2.2-1.1-2.2-2.5c0-1.8,1.5-2.5,2.7-2.5c1,0,1.9,0.3,2.4,0.5L357,331.8z"/>
	<path d="M362.5,339c0.8,0,1.5-0.2,2.1-0.4l0.2,0.9c-0.5,0.2-1.4,0.5-2.4,0.5c-2.2,0-3.4-1.3-3.4-3.5s1.1-3.8,3.2-3.8
		c1.8,0,2.7,1.2,2.7,3.2v0.6h-4.8C360.1,338.2,361.1,339,362.5,339L362.5,339z M362.2,333.4c-1.1,0-1.8,1-2,2.1h3.8
		C363.9,334.2,363.4,333.4,362.2,333.4L362.2,333.4z"/>
	<path d="M367.9,332.7c0.1,0.3,0.2,0.7,0.2,1c0.5-0.6,1.5-1,2.4-1c1.6,0,2.2,1,2.2,2.4v4.6h-1.1v-4.3c0-0.9-0.3-1.8-1.4-1.8
		c-0.7,0-1.6,0.4-2,0.9v5.2h-1.1v-5.5c0-0.4,0-0.9-0.2-1.4L367.9,332.7z"/>
	<path d="M377.5,339.9c-1.7,0-2.7-1.2-2.7-3.4c0-2,0.7-3.8,2.9-3.8c0.8,0,1.6,0.4,2.1,0.9v-3.3l1.1-0.2v7.6c0,0.7,0,1.5,0.3,2
		l-0.9,0.2c-0.2-0.3-0.3-0.8-0.3-1.1C379.5,339.1,378.8,339.9,377.5,339.9L377.5,339.9z M379.8,335.4c0-0.3,0-0.7-0.1-0.9
		c-0.3-0.4-0.9-0.9-1.9-0.9c-1.4,0-2,1.1-2,2.9c0,1.4,0.5,2.5,1.8,2.5c1.2,0,1.8-0.8,2-1.3c0-0.2,0.1-0.6,0.1-0.9v-1.4H379.8z"/>
	<path d="M388.6,339.6l-0.9,0.2c-0.3-0.3-0.4-0.8-0.5-1.2c-0.4,0.8-1.3,1.3-2.2,1.3c-1.1,0-2.2-0.6-2.2-2.1c0-1.6,0.8-2.1,4.3-2.3
		v-0.6c0-0.8-0.2-1.4-1.4-1.4c-0.7,0-1.5,0.2-2.1,0.6l-0.3-0.9c0.6-0.3,1.6-0.6,2.5-0.6c1.8,0,2.3,0.8,2.3,2.3v2.8
		C388.1,338.5,388.2,339.2,388.6,339.6z M383.8,337.7c0,1,0.9,1.2,1.4,1.2c1,0,1.7-0.7,1.9-1.5v-1.2
		C384.5,336.4,383.8,336.7,383.8,337.7z"/>
	<path d="M391.7,331.5h-1.2v-1.1h1.2V331.5z M391.6,339.7h-1.1v-6.9h1.1V339.7z"/>
	<path d="M396.4,335.3v0.9h-2.8v-0.9H396.4z"/>
	<path d="M401.9,333.9c-0.4-0.2-1.1-0.4-1.6-0.4s-1.2,0.2-1.2,1c0,0.6,0.4,0.8,1.3,1.2c1.1,0.5,1.9,0.9,1.9,2.1
		c0,1.6-1.2,2.1-2.2,2.1c-0.7,0-1.7-0.2-2.3-0.4l0.3-0.9c0.6,0.3,1.4,0.4,2,0.4c0.7,0,1.3-0.2,1.3-1.1c0-0.6-0.5-1-1.6-1.4
		c-1-0.4-1.7-0.8-1.7-1.9c0-1.5,1.3-1.9,2.3-1.9c0.6,0,1.5,0.2,1.9,0.3L401.9,333.9z"/>
	<path d="M407.8,332.7c1.6,0,2.2,1,2.2,2.4v4.6h-1.1v-4.3c0-0.9-0.3-1.8-1.4-1.8c-0.7,0-1.6,0.4-2,0.9v5.2h-1.1v-9.6l1.1-0.2v3.7
		C406,333.1,406.9,332.7,407.8,332.7z"/>
	<path d="M413.6,331.5h-1.2v-1.1h1.2V331.5z M413.5,339.7h-1.1v-6.9h1.1V339.7z"/>
</g>
<g class="st1">
	<path d="M88.2,356.5v-9.2h2.2c2.2,0,3.7,0.6,3.7,2.7s-1.4,3-3.2,3h-1.6v3.5H88.2z M90.6,352.1c1.2,0,2.3-0.3,2.3-2
		c0-1.4-1-1.8-2.5-1.8h-1.1v3.8H90.6z"/>
	<path d="M97.3,356.5h-1.1v-9.2h1.1v4h4.9v-4h1.1v9.2h-1.1v-4.2h-4.9V356.5z"/>
	<path d="M105.6,351.9c0-2.5,1.1-4.8,4.2-4.8s4.3,2.3,4.3,4.8c0,2.4-1,4.8-4.3,4.8C107.1,356.7,105.6,354.9,105.6,351.9L105.6,351.9
		z M106.7,351.9c0,2.8,1.4,3.8,3.1,3.8c1.8,0,3.1-1.1,3.1-3.9c0-2.4-1-3.8-3.1-3.8C107.7,348,106.7,349.5,106.7,351.9L106.7,351.9z"
		/>
	<path d="M117.3,356.5h-1.1v-9.2h1.5l4.5,7.5v-7.5h1.1v9.2h-1.2l-4.7-7.9v7.9H117.3z"/>
	<path d="M127,351.3h3.4v0.9H127v3.3h4.1v1H126v-9.2h4.9v1H127V351.3z"/>
	<path d="M134.4,351h-1.2v-1.4h1.2V351z M134.4,356.5h-1.2v-1.4h1.2V356.5z"/>
	<path d="M146.3,351.9c0,2.9-1,4.8-3.2,4.8c-2.2,0-3.1-1.9-3.1-4.8c0-3,1-4.8,3.1-4.8C145.3,347.1,146.3,349,146.3,351.9
		L146.3,351.9z M141.1,351.9c0,2.7,0.8,3.8,2,3.8c1.2,0,2-1.1,2-3.8c0-2.8-0.8-3.9-2-3.9C141.9,348,141.1,349.1,141.1,351.9
		L141.1,351.9z"/>
	<path d="M150.8,353c-2,0-2.8-1.4-2.8-2.7c0-1.5,0.7-3.2,3-3.2c1.8,0,3.1,1.2,3.1,3.8c0,3.8-2,5.7-5.2,5.8l-0.2-1
		c2.4-0.1,4-1.3,4.3-3.8C152.6,352.6,151.8,353,150.8,353L150.8,353z M151.1,348.1c-1.3,0-2,1-2,2.2c0,1,0.6,1.9,2,1.9
		c0.9,0,1.7-0.6,2-1.2C153.1,349.7,152.8,348.1,151.1,348.1L151.1,348.1z"/>
	<path d="M162.3,351.9c0,2.9-1,4.8-3.2,4.8c-2.2,0-3.1-1.9-3.1-4.8c0-3,1-4.8,3.1-4.8C161.3,347.1,162.3,349,162.3,351.9
		L162.3,351.9z M157.1,351.9c0,2.7,0.8,3.8,2,3.8c1.2,0,2-1.1,2-3.8c0-2.8-0.8-3.9-2-3.9C157.9,348,157.1,349.1,157.1,351.9
		L157.1,351.9z"/>
	<path d="M166.7,352.1v0.9h-2.9v-0.9H166.7z"/>
	<path d="M171.1,353c-2,0-2.8-1.4-2.8-2.7c0-1.5,0.7-3.2,3-3.2c1.8,0,3.1,1.2,3.1,3.8c0,3.8-2,5.7-5.2,5.8l-0.2-1
		c2.4-0.1,4-1.3,4.3-3.8C172.9,352.6,172,353,171.1,353L171.1,353z M171.3,348.1c-1.3,0-2,1-2,2.2c0,1,0.6,1.9,2,1.9
		c0.9,0,1.7-0.6,2-1.2C173.4,349.7,173.1,348.1,171.3,348.1L171.3,348.1z"/>
	<path d="M176.7,348.3v-1h5.9v0.9c-1.3,2-3.1,5.9-3.9,8.3h-1.2c0.7-2.3,2.7-6.3,4-8.2L176.7,348.3L176.7,348.3z"/>
	<path d="M189,349.6c0-0.9-0.6-1.5-1.7-1.5c-0.8,0-1.6,0.3-2.3,0.6l-0.2-1c0.7-0.4,1.8-0.6,2.6-0.6c1.5,0,2.7,0.7,2.7,2.5
		c0,1.1-0.6,2.2-2.1,3.9c-0.9,0.9-1.6,1.6-2.1,2.1h4.4v1h-5.8v-0.9c0.7-0.6,1.4-1.3,2.4-2.4C188.4,351.5,189,350.5,189,349.6
		L189,349.6z"/>
	<path d="M195.8,350.7c1.7,0,2.7,1.1,2.7,2.8c0,1.8-0.9,3.3-3,3.3c-1.8,0-3.1-1.3-3.1-3.9c0-3.1,1.7-5.6,5-5.7l0.2,0.9
		c-2.3,0.1-3.7,1.5-4.1,3.7C193.9,351.2,194.8,350.7,195.8,350.7L195.8,350.7z M195.5,355.8c1.2,0,1.9-0.8,1.9-2.3
		c0-1.1-0.5-1.9-1.8-1.9c-1,0-1.8,0.6-2.1,1.2C193.4,354.3,194,355.8,195.5,355.8z"/>
	<path d="M203,352.1v0.9h-2.9v-0.9H203z"/>
	<path d="M207.8,350.9c1.5,0,2.7,0.7,2.7,2.7c0,2.1-1.4,3.1-3.3,3.1c-0.6,0-1.6-0.1-2.2-0.3l0.2-1c0.6,0.2,1.4,0.3,2,0.3
		c1.2,0,2.2-0.6,2.2-2.2c0-1.3-0.9-1.8-1.9-1.8c-0.6,0-1.3,0.2-1.8,0.5l-0.6-0.3l0.4-4.7h4.6v1h-3.7l-0.3,3
		C206.6,351,207.3,350.9,207.8,350.9z"/>
	<path d="M217.7,353.5h1.4v0.9h-1.4v2.1h-1v-2.1h-4.4v-0.8l4.3-6.3h1.1V353.5z M216.7,353.5v-4.8l-3.3,4.8H216.7z"/>
	<path d="M225.2,349.6c0-0.9-0.6-1.5-1.7-1.5c-0.8,0-1.6,0.3-2.3,0.6l-0.2-1c0.7-0.4,1.8-0.6,2.6-0.6c1.5,0,2.7,0.7,2.7,2.5
		c0,1.1-0.6,2.2-2.1,3.9c-0.9,0.9-1.6,1.6-2.1,2.1h4.4v1h-5.8v-0.9c0.7-0.6,1.4-1.3,2.4-2.4C224.6,351.5,225.2,350.5,225.2,349.6
		L225.2,349.6z"/>
	<path d="M233.2,349.6c0-0.9-0.6-1.5-1.7-1.5c-0.8,0-1.6,0.3-2.3,0.6l-0.2-1c0.7-0.4,1.8-0.6,2.6-0.6c1.5,0,2.7,0.7,2.7,2.5
		c0,1.1-0.6,2.2-2.1,3.9c-0.9,0.9-1.6,1.6-2.1,2.1h4.4v1h-5.8v-0.9c0.7-0.6,1.4-1.3,2.4-2.4C232.6,351.5,233.2,350.5,233.2,349.6
		L233.2,349.6z"/>
</g>
</svg>
