<?xml version="1.0" encoding="utf-8"?>
<!-- Generator: Adobe Illustrator 19.0.0, SVG Export Plug-In . SVG Version: 6.00 Build 0)  -->
<svg version="1.1" id="图层_1" xmlns="http://www.w3.org/2000/svg" xmlns:xlink="http://www.w3.org/1999/xlink" x="0px" y="0px"
	 viewBox="0 0 1280 800" style="enable-background:new 0 0 1280 800;" xml:space="preserve">
<style type="text/css">
	.st0{fill:#242323;}
</style>
<g id="XMLID_3_">
	<path id="XMLID_4_" class="st0" d="M470.3,438h-19.8l-27.4-36.8V438h-14.9v-76.8h14.9V399l26.5-37.8h18.5l-29.8,37.9L470.3,438z"/>
	<path id="XMLID_6_" class="st0" d="M499.8,361.2h13.7L543,438h-16.4l-6.7-18.5h-28l-6.5,18.5h-15L499.8,361.2z M516.6,408
		l-10.4-30.5L495.6,408H516.6z"/>
	<path id="XMLID_9_" class="st0" d="M591.2,376.7c-4.6-2.2-10.6-3.9-15.2-3.9c-4.7,0-11.2,1.3-11.2,8.6c0,4.8,5.2,7.4,11.8,10.6
		c10.9,5.3,20.7,10.4,20.7,24.2c0,17.7-12,23.1-24.7,23.1c-8.7,0-19.2-2.1-24.5-4.6l3.7-13.5c5.7,2.7,13.8,5,20.1,5
		c4.7,0,10.3-2,10.3-9.1c0-5.3-4.2-8.6-14-13c-10.7-4.7-18.1-9.1-18.1-21.8c0-18,14.6-22.3,24.3-22.3c8.6,0,16.2,1.8,20.8,3.9
		L591.2,376.7z"/>
	<path id="XMLID_11_" class="st0" d="M627.5,438h-14.9v-76.8h14.9V438z"/>
	<path id="XMLID_13_" class="st0" d="M638,361.2h17.8l18.5,32l18-32h17.3l-28.5,43.9V438h-14.9v-32.9L638,361.2z"/>
	<path id="XMLID_15_" class="st0" d="M716.7,399.3c0-18.6,8.3-39.9,36.4-39.9c28.2,0,36.5,21.3,36.5,40c0,18.8-8.1,40.6-36.4,40.6
		C726,440,716.7,419.6,716.7,399.3L716.7,399.3z M732.5,399.3c0,20.3,8.8,27.5,20.6,27.5c12.1,0,20.7-7.4,20.7-27.6
		c0-19.1-7.9-26.8-20.6-26.8c-12.8,0-20.7,7.7-20.7,26.8V399.3z"/>
	<path id="XMLID_18_" class="st0" d="M802.4,399.3c0-18.6,8.3-39.9,36.4-39.9c28.2,0,36.5,21.3,36.5,40c0,18.8-8.1,40.6-36.4,40.6
		C811.7,440,802.4,419.6,802.4,399.3L802.4,399.3z M818.2,399.3c0,20.3,8.8,27.5,20.6,27.5c12.1,0,20.7-7.4,20.7-27.6
		c0-19.1-7.9-26.8-20.6-26.8c-12.8,0-20.7,7.7-20.7,26.8V399.3z"/>
</g>
</svg>
