<?xml version="1.0" encoding="utf-8"?>
<!-- Generator: Adobe Illustrator 15.0.0, SVG Export Plug-In . SVG Version: 6.00 Build 0)  -->
<!DOCTYPE svg PUBLIC "-//W3C//DTD SVG 1.1//EN" "http://www.w3.org/Graphics/SVG/1.1/DTD/svg11.dtd">
<svg version="1.1" id="图层_1" xmlns="http://www.w3.org/2000/svg" xmlns:xlink="http://www.w3.org/1999/xlink" x="0px" y="0px"
	 width="300px" height="412.442px" viewBox="0 0 300 412.442" enable-background="new 0 0 300 412.442" xml:space="preserve">
<rect y="0" fill="#FFFFFF" width="300" height="412.441"/>
<rect x="-475.055" y="23.742" fill="none" width="1252.055" height="826.028"/>
<text transform="matrix(1 0 0 1 47.7241 110.1914)"><tspan x="0" y="0" fill="#305199" font-family="'HelveticaInserat-Roman-SemiB'" font-size="100" letter-spacing="-1">F</tspan><tspan x="39.599" y="0" fill="#305199" font-family="'HelveticaInserat-Roman-SemiB'" font-size="100" letter-spacing="-3">ROM</tspan><tspan x="10.1" y="77" fill="#305199" font-family="'HelveticaInserat-Roman-SemiB'" font-size="100" letter-spacing="-1">Z</tspan><tspan x="53.999" y="77" fill="#305199" font-family="'HelveticaInserat-Roman-SemiB'" font-size="100" letter-spacing="-3">E</tspan><tspan x="95.797" y="77" fill="#305199" font-family="'HelveticaInserat-Roman-SemiB'" font-size="100" letter-spacing="-3">RO</tspan><tspan x="57.399" y="154" fill="#305199" font-family="'HelveticaInserat-Roman-SemiB'" font-size="100" letter-spacing="-1">TO</tspan><tspan x="8.9" y="231" fill="#305199" font-family="'HelveticaInserat-Roman-SemiB'" font-size="100" letter-spacing="-4">HERO</tspan></text>
<g>
	<path fill="#305199" d="M130.981,369.33c0.108-0.012,0.238-0.076,0.393-0.195c0.154-0.118,0.321-0.265,0.5-0.441
		c0.178-0.177,0.361-0.373,0.545-0.588c0.186-0.215,0.36-0.426,0.525-0.63c0.166-0.205,0.315-0.396,0.445-0.57
		c0.131-0.177,0.233-0.31,0.305-0.403c0.068,0.069,0.151,0.159,0.248,0.268s0.187,0.21,0.272,0.304
		c-0.128,0.201-0.29,0.445-0.483,0.734c-0.195,0.287-0.406,0.585-0.637,0.891c-0.23,0.305-0.47,0.61-0.72,0.918
		s-0.496,0.585-0.739,0.831c-0.243,0.247-0.472,0.45-0.687,0.609c-0.214,0.159-0.399,0.247-0.554,0.263
		c-0.263,0.028-0.507-0.012-0.733-0.119c-0.225-0.109-0.436-0.257-0.628-0.444c-0.194-0.189-0.379-0.408-0.555-0.656
		c-0.177-0.251-0.344-0.507-0.501-0.771c-0.095,0.198-0.189,0.414-0.284,0.65c-0.094,0.234-0.181,0.459-0.261,0.671
		c-0.079,0.214-0.144,0.398-0.196,0.558c-0.051,0.159-0.084,0.256-0.102,0.292c-0.007,0.068-0.021,0.119-0.044,0.152
		c-0.024,0.032-0.066,0.051-0.127,0.057c-0.101,0.011-0.225-0.025-0.373-0.106c-0.149-0.082-0.301-0.195-0.46-0.342
		c-0.159-0.145-0.316-0.305-0.475-0.479c-0.158-0.176-0.297-0.354-0.419-0.537c-0.063-0.086-0.108-0.188-0.134-0.305
		s-0.048-0.26-0.066-0.428c-0.059-0.555-0.071-1.188-0.037-1.897c0.034-0.71,0.107-1.461,0.222-2.251
		c0.114-0.792,0.263-1.61,0.45-2.461c0.185-0.849,0.4-1.693,0.645-2.531c0.246-0.84,0.519-1.661,0.822-2.469
		c0.302-0.807,0.624-1.563,0.964-2.271c0.34-0.71,0.697-1.352,1.072-1.928c0.374-0.575,0.764-1.054,1.165-1.437
		c0.062-0.058,0.121-0.099,0.177-0.121s0.103-0.037,0.144-0.041c0.081-0.009,0.201,0.035,0.361,0.135
		c0.16,0.097,0.331,0.218,0.513,0.359c0.182,0.143,0.354,0.286,0.515,0.431s0.281,0.264,0.36,0.357
		c0.048,0.072,0.08,0.18,0.095,0.322c0.059,0.556-0.015,1.264-0.224,2.124c-0.209,0.859-0.53,1.818-0.963,2.871
		c-0.434,1.056-0.973,2.183-1.618,3.383c-0.646,1.2-1.377,2.414-2.194,3.641c-0.056,0.439-0.108,0.878-0.158,1.312
		c-0.049,0.436-0.091,0.872-0.126,1.311c0.512-1.204,0.978-2.161,1.396-2.874c0.418-0.712,0.784-1.258,1.099-1.635
		c0.313-0.379,0.575-0.628,0.784-0.747c0.208-0.12,0.356-0.185,0.444-0.194c0.081-0.009,0.182,0.034,0.304,0.127
		c0.123,0.094,0.241,0.205,0.357,0.333s0.221,0.253,0.316,0.376c0.095,0.121,0.158,0.21,0.191,0.266
		c0.016,0.084-0.038,0.262-0.158,0.533c-0.121,0.273-0.295,0.592-0.522,0.956c-0.227,0.365-0.5,0.753-0.821,1.166
		c-0.32,0.412-0.675,0.802-1.066,1.166c0.257,0.364,0.473,0.648,0.652,0.851c0.178,0.201,0.326,0.352,0.445,0.45
		C130.776,369.236,130.89,369.305,130.981,369.33z M128.821,359.255c-0.148,0.526-0.296,1.108-0.443,1.745
		c-0.147,0.637-0.289,1.312-0.424,2.023c0.636-1.14,1.169-2.191,1.602-3.156s0.78-1.833,1.042-2.605
		c0.262-0.773,0.44-1.449,0.535-2.03c0.096-0.58,0.123-1.06,0.083-1.438c-0.002-0.025-0.006-0.052-0.013-0.082
		c-0.006-0.028-0.026-0.041-0.06-0.038c-0.081,0.01-0.2,0.141-0.357,0.396c-0.157,0.256-0.339,0.623-0.547,1.104
		c-0.207,0.482-0.433,1.065-0.677,1.75C129.316,357.609,129.07,358.387,128.821,359.255z"/>
	<path fill="#305199" d="M140.47,368.478c0.005,0.051,0.029,0.074,0.069,0.069c0.06-0.007,0.155-0.071,0.285-0.196
		c0.129-0.124,0.277-0.28,0.441-0.468s0.337-0.396,0.521-0.63c0.183-0.232,0.358-0.459,0.525-0.681
		c0.167-0.223,0.318-0.426,0.451-0.609c0.135-0.185,0.236-0.328,0.307-0.429c0.069,0.069,0.156,0.163,0.26,0.279
		c0.105,0.116,0.199,0.222,0.284,0.314c-0.142,0.202-0.312,0.447-0.51,0.737c-0.197,0.288-0.411,0.59-0.641,0.903
		c-0.229,0.314-0.466,0.626-0.712,0.937c-0.246,0.312-0.488,0.592-0.728,0.837c-0.241,0.247-0.47,0.453-0.692,0.616
		c-0.221,0.165-0.418,0.256-0.593,0.273c-0.122,0.013-0.258-0.002-0.408-0.046c-0.151-0.044-0.293-0.111-0.426-0.205
		c-0.133-0.092-0.247-0.205-0.342-0.339c-0.096-0.135-0.154-0.29-0.172-0.468c-0.007-0.066-0.018-0.149-0.031-0.245
		c-0.014-0.097-0.021-0.224-0.024-0.38c-0.004-0.157,0.003-0.35,0.021-0.577c0.016-0.228,0.048-0.51,0.094-0.847
		c-0.191,0.318-0.419,0.654-0.685,1.005c-0.266,0.352-0.549,0.688-0.848,1.009c-0.3,0.322-0.604,0.615-0.913,0.883
		c-0.309,0.267-0.598,0.474-0.868,0.62c-0.032,0.021-0.059,0.032-0.079,0.034c-0.02,0.003-0.04,0.004-0.061,0.007
		c-0.067,0.007-0.161-0.025-0.281-0.099c-0.12-0.072-0.241-0.171-0.364-0.3c-0.121-0.126-0.231-0.275-0.328-0.443
		c-0.095-0.168-0.152-0.341-0.171-0.519c-0.005-0.05-0.003-0.221,0.007-0.511c0.01-0.291,0.068-0.664,0.172-1.123
		c0.105-0.457,0.276-0.979,0.514-1.561c0.238-0.582,0.582-1.191,1.032-1.826c0.232-0.322,0.485-0.63,0.761-0.923
		c0.232-0.246,0.502-0.5,0.808-0.762c0.306-0.263,0.633-0.48,0.983-0.654c0.013-0.001,0.024-0.006,0.033-0.016
		c0.01-0.01,0.025-0.007,0.047,0.008c0.084,0.025,0.186,0.068,0.304,0.127c0.12,0.06,0.238,0.124,0.358,0.192
		c0.119,0.068,0.225,0.138,0.318,0.21c0.093,0.07,0.155,0.129,0.187,0.177c0.009,0.017,0.01,0.028,0.004,0.038l-0.018,0.027
		c-0.282,0.234-0.544,0.489-0.787,0.767c-0.243,0.276-0.458,0.536-0.643,0.776c-0.215,0.287-0.413,0.567-0.595,0.842
		c-0.427,0.658-0.712,1.218-0.854,1.679c-0.142,0.463-0.202,0.79-0.181,0.983c0.015,0.144,0.07,0.21,0.164,0.2
		s0.208-0.071,0.343-0.183c0.134-0.112,0.284-0.26,0.448-0.444c0.166-0.183,0.345-0.397,0.54-0.645
		c0.195-0.245,0.397-0.503,0.608-0.771c0.186-0.233,0.364-0.482,0.533-0.746c0.147-0.221,0.298-0.47,0.452-0.75
		s0.282-0.562,0.38-0.845c0-0.009,0.002-0.017,0.008-0.026s0.016-0.011,0.03-0.004c0.081,0.06,0.177,0.163,0.288,0.31
		c0.111,0.145,0.216,0.305,0.316,0.482c0.101,0.177,0.189,0.348,0.264,0.514c0.075,0.167,0.118,0.297,0.128,0.39
		c-0.113,0.411-0.195,0.784-0.244,1.118c-0.05,0.332-0.084,0.623-0.103,0.872c-0.018,0.248-0.023,0.46-0.015,0.633
		C140.452,368.252,140.46,368.385,140.47,368.478z"/>
	<path fill="#305199" d="M144.238,365.041c0.174-0.256,0.347-0.534,0.515-0.832c0.17-0.3,0.323-0.618,0.461-0.956
		c0.138-0.337,0.237-0.698,0.299-1.079c0.007-0.196,0.027-0.405,0.062-0.625c0.033-0.221,0.077-0.423,0.13-0.607
		c0.052-0.185,0.105-0.339,0.159-0.463c0.055-0.126,0.11-0.191,0.163-0.196c0.088,0.05,0.22,0.149,0.399,0.295
		c0.179,0.148,0.359,0.305,0.54,0.474c0.181,0.168,0.343,0.322,0.483,0.465c0.141,0.144,0.213,0.231,0.217,0.266
		c-0.04,0.396-0.042,0.748-0.004,1.06c0.035,0.312,0.088,0.616,0.156,0.915c0.07,0.299,0.145,0.617,0.225,0.953
		c0.079,0.336,0.144,0.728,0.19,1.173c0.028,0.27,0.026,0.583-0.009,0.939c-0.032,0.356-0.122,0.684-0.269,0.979
		c0.316-0.288,0.627-0.609,0.93-0.96c0.304-0.352,0.571-0.68,0.806-0.984c0.274-0.362,0.536-0.721,0.784-1.08l0.521,0.571
		c-0.196,0.284-0.407,0.588-0.635,0.91c-0.229,0.321-0.467,0.64-0.716,0.956c-0.249,0.315-0.504,0.619-0.767,0.91
		c-0.263,0.293-0.523,0.554-0.784,0.786c-0.263,0.231-0.517,0.421-0.768,0.566c-0.25,0.145-0.489,0.23-0.719,0.254
		c-0.195,0.021-0.418-0.016-0.665-0.107c-0.248-0.093-0.485-0.213-0.712-0.358c-0.227-0.146-0.428-0.304-0.603-0.474
		c-0.174-0.169-0.281-0.314-0.32-0.438c-0.002-0.017,0.008-0.055,0.028-0.111c0.021-0.059,0.047-0.118,0.077-0.182
		c0.031-0.062,0.062-0.119,0.095-0.168c0.032-0.052,0.058-0.078,0.078-0.079c0.04-0.005,0.127,0.024,0.254,0.088
		c0.131,0.062,0.336,0.079,0.619,0.049c0.154-0.017,0.283-0.08,0.382-0.193c0.102-0.113,0.18-0.258,0.236-0.434
		c0.056-0.176,0.089-0.375,0.1-0.598c0.011-0.222,0.003-0.456-0.022-0.7c-0.037-0.353-0.087-0.695-0.15-1.024
		c-0.062-0.33-0.125-0.647-0.193-0.956c-0.096,0.181-0.209,0.371-0.337,0.572c-0.129,0.201-0.26,0.399-0.391,0.597
		c-0.133,0.197-0.266,0.39-0.398,0.577c-0.134,0.188-0.253,0.357-0.361,0.505l-0.55-0.567
		C143.911,365.526,144.064,365.298,144.238,365.041z"/>
	<path fill="#305199" d="M152.47,369.034c-0.102,0.011-0.232-0.02-0.397-0.093c-0.164-0.07-0.323-0.165-0.479-0.28
		c-0.155-0.115-0.292-0.247-0.409-0.397c-0.118-0.149-0.185-0.3-0.201-0.45c0.028-0.377,0.074-0.812,0.138-1.305
		c0.063-0.491,0.135-0.993,0.213-1.503c0.08-0.511,0.166-1.012,0.261-1.504c0.094-0.489,0.181-0.927,0.259-1.309
		c0.079-0.383,0.149-0.693,0.214-0.93c0.063-0.236,0.109-0.355,0.136-0.358c0.04-0.005,0.147,0.039,0.319,0.131
		c0.175,0.094,0.358,0.207,0.553,0.344c0.194,0.138,0.373,0.285,0.533,0.443c0.158,0.156,0.245,0.298,0.258,0.424
		c0.003,0.025,0.003,0.059,0.001,0.097c-0.003,0.039-0.009,0.088-0.017,0.148c-0.031,0.216-0.073,0.471-0.128,0.767
		c-0.054,0.296-0.11,0.602-0.173,0.919c-0.062,0.317-0.124,0.634-0.186,0.951s-0.115,0.614-0.16,0.892
		c-0.046,0.276-0.082,0.52-0.107,0.726c-0.025,0.208-0.034,0.357-0.024,0.449c0.006,0.051,0.029,0.074,0.07,0.069
		c0.073-0.007,0.179-0.073,0.315-0.199c0.136-0.125,0.291-0.285,0.464-0.483c0.174-0.196,0.354-0.41,0.539-0.644
		c0.187-0.232,0.365-0.462,0.535-0.688s0.324-0.433,0.461-0.617c0.137-0.184,0.241-0.323,0.312-0.416
		c0.07,0.069,0.152,0.159,0.249,0.268s0.187,0.21,0.271,0.304c-0.128,0.2-0.289,0.443-0.483,0.734
		c-0.193,0.287-0.406,0.585-0.637,0.89c-0.229,0.305-0.47,0.611-0.719,0.919c-0.251,0.307-0.495,0.584-0.734,0.831
		c-0.239,0.246-0.467,0.449-0.682,0.607C152.82,368.929,152.632,369.016,152.47,369.034z M155.209,356.692
		c-0.004,0.036-0.021,0.119-0.051,0.255c-0.03,0.135-0.065,0.292-0.108,0.471c-0.043,0.18-0.093,0.367-0.149,0.565
		c-0.059,0.197-0.115,0.379-0.172,0.548c-0.057,0.168-0.114,0.307-0.17,0.42c-0.057,0.112-0.104,0.171-0.146,0.175
		c-0.121,0.004-0.272-0.026-0.453-0.092c-0.182-0.066-0.356-0.144-0.525-0.232c-0.17-0.088-0.314-0.178-0.437-0.267
		s-0.185-0.155-0.189-0.196c-0.018-0.177-0.003-0.41,0.049-0.701c0.051-0.29,0.116-0.573,0.196-0.852
		c0.079-0.274,0.163-0.517,0.254-0.722s0.168-0.312,0.228-0.318c0.122-0.013,0.274,0.021,0.46,0.098
		c0.185,0.079,0.367,0.172,0.545,0.281c0.179,0.108,0.333,0.218,0.464,0.327S155.203,356.641,155.209,356.692z"/>
	<path fill="#305199" d="M165.225,363.815c-0.534,0.746-1.088,1.456-1.664,2.13s-1.153,1.326-1.732,1.958
		c-0.058,0.363-0.126,0.749-0.205,1.157s-0.18,0.875-0.301,1.398c-0.137,0.576-0.301,1.143-0.494,1.699
		c-0.192,0.557-0.406,1.082-0.635,1.581c-0.23,0.495-0.472,0.952-0.728,1.372c-0.256,0.419-0.512,0.783-0.768,1.095
		c-0.258,0.313-0.51,0.561-0.76,0.745c-0.249,0.185-0.485,0.288-0.706,0.311c-0.108,0.012-0.245-0.025-0.41-0.109
		c-0.166-0.084-0.327-0.197-0.485-0.338c-0.158-0.142-0.296-0.294-0.412-0.461s-0.183-0.325-0.198-0.477
		c-0.057-0.531,0.004-1.062,0.18-1.597c0.173-0.532,0.435-1.076,0.781-1.633c0.346-0.556,0.763-1.126,1.249-1.709
		c0.485-0.583,1.013-1.186,1.579-1.808c0.128-0.669,0.246-1.364,0.356-2.088c0.112-0.721,0.218-1.437,0.319-2.146
		c-0.24,0.494-0.478,0.928-0.71,1.301c-0.231,0.374-0.45,0.693-0.653,0.956c-0.204,0.266-0.382,0.479-0.535,0.644
		c-0.152,0.166-0.27,0.291-0.348,0.376c-0.05,0.047-0.11,0.087-0.184,0.114c-0.07,0.029-0.137,0.048-0.198,0.054
		c-0.126,0.014-0.273-0.02-0.439-0.1c-0.164-0.081-0.32-0.188-0.468-0.321c-0.146-0.134-0.274-0.284-0.385-0.451
		c-0.108-0.167-0.173-0.33-0.189-0.49c-0.02-0.186-0.002-0.486,0.053-0.905c0.054-0.42,0.133-0.928,0.236-1.525
		c0.104-0.599,0.229-1.271,0.373-2.019c0.146-0.746,0.304-1.542,0.473-2.386c0.009-0.043,0.02-0.064,0.03-0.061
		c0.01,0.003,0.028,0.003,0.056,0c0.131,0.012,0.312,0.059,0.546,0.141s0.462,0.174,0.688,0.277
		c0.225,0.104,0.421,0.204,0.589,0.303c0.167,0.096,0.252,0.167,0.257,0.208c-0.014,0.062-0.053,0.206-0.112,0.434
		c-0.062,0.227-0.132,0.501-0.21,0.82s-0.161,0.663-0.248,1.033c-0.086,0.372-0.164,0.727-0.234,1.066
		c-0.069,0.34-0.124,0.646-0.163,0.917c-0.039,0.273-0.053,0.473-0.039,0.599c0.003,0.034,0.019,0.049,0.046,0.046
		c0.047-0.005,0.142-0.092,0.284-0.26c0.142-0.168,0.313-0.43,0.515-0.782c0.201-0.354,0.422-0.801,0.664-1.341
		c0.243-0.541,0.49-1.186,0.745-1.937c0.076-0.569,0.141-1.025,0.192-1.366c0.052-0.343,0.092-0.515,0.119-0.518
		c0.041-0.004,0.151,0.048,0.334,0.156c0.181,0.108,0.376,0.239,0.582,0.391c0.207,0.153,0.394,0.308,0.561,0.465
		c0.165,0.156,0.254,0.282,0.264,0.375c0.005,0.041,0.004,0.08,0.002,0.114c-0.003,0.034-0.01,0.073-0.019,0.117
		c-0.093,0.605-0.171,1.151-0.235,1.64c-0.064,0.487-0.12,0.934-0.169,1.339c-0.05,0.405-0.091,0.777-0.127,1.118
		c-0.036,0.34-0.07,0.668-0.105,0.987c0.458-0.509,0.909-1.026,1.358-1.555c0.447-0.528,0.887-1.079,1.315-1.651L165.225,363.815z
		 M157.024,375.879c0.121-0.013,0.274-0.176,0.459-0.49c0.185-0.312,0.378-0.709,0.577-1.189c0.202-0.48,0.399-1.015,0.593-1.601
		c0.192-0.588,0.359-1.16,0.497-1.719c-0.229,0.296-0.481,0.621-0.765,0.974s-0.542,0.734-0.778,1.143
		c-0.236,0.407-0.425,0.839-0.568,1.291c-0.142,0.454-0.188,0.925-0.136,1.413C156.917,375.827,156.957,375.886,157.024,375.879z"/>
	<path fill="#305199" d="M166.997,365.492c0.026,0.252,0.114,0.371,0.262,0.355c0.155-0.017,0.344-0.191,0.568-0.526
		c0.222-0.334,0.447-0.752,0.673-1.252c-0.023-0.091-0.04-0.173-0.051-0.243c-0.011-0.072-0.02-0.136-0.026-0.195
		c-0.017-0.168-0.023-0.37-0.018-0.605c0.005-0.234,0.054-0.506,0.145-0.812c0.056-0.235,0.131-0.47,0.222-0.7
		c0.074-0.203,0.166-0.424,0.277-0.66c0.111-0.238,0.236-0.463,0.378-0.673l0.052-0.082c0.079,0.094,0.182,0.222,0.312,0.382
		c0.129,0.16,0.259,0.325,0.389,0.494c0.13,0.171,0.246,0.325,0.346,0.468s0.164,0.243,0.189,0.3
		c0.039,0.362,0.025,0.729-0.041,1.102c-0.066,0.374-0.168,0.746-0.306,1.118c0.4-0.077,0.762-0.245,1.086-0.504
		c0.323-0.26,0.646-0.662,0.97-1.207c0.068,0.069,0.158,0.164,0.271,0.285c0.11,0.119,0.202,0.223,0.272,0.308
		c-0.244,0.4-0.489,0.737-0.736,1.011c-0.246,0.272-0.498,0.495-0.756,0.667s-0.524,0.304-0.801,0.398
		c-0.276,0.092-0.562,0.154-0.858,0.186c-0.196,0.327-0.413,0.631-0.649,0.911c-0.236,0.281-0.48,0.527-0.733,0.741
		c-0.252,0.215-0.509,0.386-0.768,0.517c-0.259,0.128-0.509,0.206-0.752,0.231c-0.201,0.021-0.419-0.032-0.65-0.161
		c-0.231-0.128-0.446-0.295-0.645-0.5c-0.199-0.204-0.368-0.427-0.51-0.667c-0.141-0.24-0.223-0.457-0.242-0.65
		c-0.068-0.64-0.066-1.282,0.005-1.929c0.071-0.646,0.225-1.26,0.459-1.841c0.233-0.583,0.557-1.109,0.967-1.578
		c0.409-0.468,0.916-0.846,1.519-1.131c0.019-0.019,0.054-0.035,0.103-0.049c0.05-0.015,0.092-0.023,0.125-0.026
		c0.095-0.01,0.198,0.024,0.312,0.101c0.114,0.079,0.222,0.166,0.325,0.266c0.102,0.101,0.189,0.2,0.261,0.3
		c0.071,0.098,0.109,0.163,0.113,0.197c-0.009,0.044-0.054,0.102-0.135,0.173c-0.082,0.074-0.188,0.193-0.319,0.36
		c-0.133,0.167-0.285,0.402-0.456,0.706c-0.173,0.304-0.355,0.698-0.549,1.188c-0.291,0.721-0.473,1.363-0.542,1.928
		C166.982,364.755,166.965,365.189,166.997,365.492z"/>
	<path fill="#305199" d="M174.674,364.679c0.026,0.252,0.113,0.371,0.262,0.355c0.155-0.018,0.344-0.191,0.568-0.526
		c0.223-0.334,0.447-0.752,0.673-1.252c-0.023-0.091-0.04-0.173-0.051-0.243c-0.011-0.072-0.02-0.137-0.026-0.196
		c-0.017-0.167-0.022-0.369-0.018-0.604c0.006-0.234,0.054-0.505,0.145-0.812c0.056-0.236,0.13-0.47,0.222-0.7
		c0.073-0.203,0.165-0.424,0.277-0.661c0.11-0.237,0.236-0.462,0.379-0.672l0.052-0.082c0.078,0.094,0.182,0.222,0.312,0.382
		c0.128,0.16,0.259,0.325,0.389,0.494c0.13,0.17,0.246,0.325,0.347,0.468c0.1,0.143,0.162,0.242,0.189,0.3
		c0.038,0.362,0.024,0.729-0.041,1.102c-0.067,0.374-0.169,0.746-0.307,1.118c0.401-0.077,0.762-0.244,1.086-0.504
		c0.323-0.26,0.646-0.662,0.97-1.207c0.069,0.069,0.158,0.164,0.27,0.284s0.202,0.223,0.273,0.309
		c-0.244,0.4-0.488,0.738-0.736,1.011c-0.246,0.272-0.498,0.495-0.756,0.667s-0.525,0.304-0.8,0.398
		c-0.276,0.092-0.562,0.154-0.859,0.186c-0.196,0.327-0.413,0.631-0.649,0.911c-0.235,0.281-0.48,0.527-0.732,0.741
		c-0.254,0.214-0.51,0.386-0.769,0.516c-0.259,0.129-0.509,0.207-0.752,0.232c-0.202,0.022-0.418-0.031-0.65-0.161
		c-0.231-0.129-0.446-0.295-0.646-0.5c-0.197-0.203-0.367-0.426-0.509-0.667c-0.141-0.24-0.222-0.457-0.242-0.65
		c-0.068-0.641-0.066-1.283,0.005-1.929c0.07-0.646,0.224-1.26,0.459-1.842c0.233-0.582,0.557-1.108,0.966-1.576
		c0.41-0.469,0.917-0.847,1.52-1.132c0.019-0.019,0.053-0.035,0.103-0.05c0.05-0.014,0.092-0.022,0.126-0.025
		c0.094-0.01,0.197,0.024,0.311,0.101c0.114,0.079,0.222,0.166,0.325,0.266c0.103,0.101,0.189,0.199,0.261,0.299
		c0.071,0.099,0.109,0.164,0.113,0.198c-0.009,0.044-0.055,0.102-0.135,0.173c-0.081,0.074-0.188,0.193-0.32,0.36
		c-0.131,0.168-0.283,0.402-0.455,0.706c-0.173,0.304-0.355,0.699-0.55,1.188c-0.291,0.721-0.472,1.363-0.541,1.928
		C174.659,363.943,174.643,364.375,174.674,364.679z"/>
</g>
</svg>
