<?xml version="1.0" encoding="utf-8"?>
<!-- Generator: Adobe Illustrator 15.0.0, SVG Export Plug-In . SVG Version: 6.00 Build 0)  -->
<!DOCTYPE svg PUBLIC "-//W3C//DTD SVG 1.1//EN" "http://www.w3.org/Graphics/SVG/1.1/DTD/svg11.dtd">
<svg version="1.1" id="图层_1" xmlns="http://www.w3.org/2000/svg" xmlns:xlink="http://www.w3.org/1999/xlink" x="0px" y="0px"
	 width="300px" height="412.442px" viewBox="0 0 300 412.442" enable-background="new 0 0 300 412.442" xml:space="preserve">
<g>
	<path fill="#F5F5F5" d="M169.273,248.562c0.065,0,0.15,0,0.25,0s0.183,0,0.25,0c0.133,0,0.283-0.016,0.45-0.05
		c0.165-0.033,0.315-0.051,0.45-0.051c1.133-0.266,2.165-0.899,3.1-1.899c0.933-1,1.4-2.266,1.4-3.8v-37v-0.7
		c0-1.8-0.484-3.15-1.45-4.05c-0.968-0.9-2.05-1.416-3.25-1.551c-0.067,0-0.15,0-0.25,0c-0.101,0-0.185,0-0.25,0
		c-1.268,0-2.417,0.45-3.45,1.351c-1.034,0.899-1.55,2.317-1.55,4.25v36.8c0,2.135,0.45,3.734,1.35,4.8
		C167.224,247.729,168.206,248.362,169.273,248.562z"/>
	<path fill="#F5F5F5" d="M173.124,277.961c-1.968-0.6-4.617-0.899-7.95-0.899v15.899c0.133,0,0.25,0,0.35,0c0.101,0,0.216,0,0.351,0
		c0.2,0,0.399,0,0.6,0s0.433,0,0.7,0c0.266,0.067,0.55,0.101,0.85,0.101c0.301,0,0.551,0,0.75,0c3,0,4.966-0.633,5.9-1.9
		c0.933-1.266,1.4-3.6,1.4-7C176.074,280.629,175.09,278.562,173.124,277.961z"/>
	<path fill="#F5F5F5" d="M163.373,138.961c0.199,0,0.399,0,0.6,0c0.199,0,0.433,0,0.699,0c0.266,0.067,0.551,0.101,0.851,0.101
		s0.55,0,0.75,0c3,0,4.966-0.633,5.899-1.9c0.934-1.266,1.4-3.6,1.4-7c0-3.532-0.984-5.6-2.949-6.2
		c-1.968-0.6-4.617-0.899-7.951-0.899v15.899c0.133,0,0.25,0,0.351,0S163.238,138.961,163.373,138.961z"/>
	<path fill="#F5F5F5" d="M219.474,276.461c-0.067,0-0.15,0-0.25,0c-0.101,0-0.185,0-0.25,0c-1.268,0-2.417,0.45-3.45,1.351
		c-1.034,0.899-1.55,2.317-1.55,4.25v36.8c0,2.135,0.45,3.734,1.35,4.8c0.9,1.067,1.883,1.7,2.95,1.9c0.065,0,0.15,0,0.25,0
		s0.183,0,0.25,0c0.133,0,0.283-0.016,0.45-0.05c0.165-0.033,0.315-0.051,0.45-0.051c1.133-0.266,2.165-0.899,3.1-1.899
		c0.933-1,1.4-2.266,1.4-3.8v-37v-0.7c0-1.8-0.484-3.15-1.45-4.05C221.756,277.112,220.674,276.596,219.474,276.461z"/>
	<path fill="#F5F5F5" d="M216.771,171.562c0.066,0,0.15,0,0.25,0c0.101,0,0.184,0,0.25,0c0.133,0,0.283-0.016,0.451-0.05
		c0.165-0.033,0.314-0.051,0.449-0.051c1.133-0.266,2.166-0.899,3.1-1.899s1.4-2.266,1.4-3.8v-37v-0.7c0-1.8-0.484-3.15-1.449-4.05
		c-0.968-0.9-2.051-1.416-3.25-1.551c-0.068,0-0.15,0-0.25,0c-0.101,0-0.186,0-0.25,0c-1.268,0-2.418,0.45-3.451,1.351
		c-1.033,0.899-1.549,2.317-1.549,4.25v36.8c0,2.135,0.449,3.734,1.35,4.8C214.723,170.729,215.705,171.362,216.771,171.562z"/>
	<path fill="#F5F5F5" d="M166.475,88.762v-37v-0.7c0-1.8-0.484-3.15-1.45-4.05c-0.968-0.9-2.05-1.416-3.25-1.551
		c-0.067,0-0.15,0-0.25,0c-0.101,0-0.185,0-0.25,0c-1.268,0-2.417,0.45-3.45,1.351c-1.034,0.899-1.55,2.317-1.55,4.25v36.8
		c0,2.135,0.45,3.734,1.35,4.8c0.9,1.067,1.883,1.7,2.95,1.9c0.065,0,0.15,0,0.25,0s0.183,0,0.25,0c0.133,0,0.283-0.016,0.45-0.05
		c0.165-0.033,0.315-0.051,0.45-0.051c1.133-0.266,2.165-0.899,3.1-1.899C166.007,91.562,166.475,90.296,166.475,88.762z"/>
	<path fill="#F5F5F5" d="M107.175,61.961c0.2,0,0.4,0,0.6,0c0.2,0,0.433,0,0.7,0c0.266,0.067,0.55,0.101,0.85,0.101
		c0.3,0,0.55,0,0.75,0c3,0,4.965-0.633,5.9-1.9c0.933-1.266,1.4-3.6,1.4-7c0-3.532-0.984-5.6-2.95-6.2
		c-1.967-0.6-4.617-0.899-7.95-0.899v15.899c0.133,0,0.25,0,0.35,0S107.04,61.961,107.175,61.961z"/>
	<path fill="#F5F5F5" d="M0,0v412.442h300V0H0z M90.075,32.961h25.2c5,0,9.366,1.168,13.1,3.5c3.733,2.335,5.6,6.968,5.6,13.9v1.9
		c0,4.066-0.584,7.134-1.75,9.199c-1.167,2.067-2.45,3.567-3.85,4.5c-0.867,0.535-1.717,0.918-2.55,1.15
		c-0.834,0.234-1.517,0.417-2.05,0.55c2.866,1.067,5.283,2.468,7.25,4.2c1.966,1.734,2.95,4.367,2.95,7.9v20.899
		c0,0.867,0.033,1.617,0.1,2.25c0.065,0.635,0.166,1.15,0.3,1.55c0.066,0.4,0.166,0.801,0.3,1.2h-15.9c-0.467-0.266-0.8-0.633-1-1.1
		c-0.267-0.4-0.517-1.033-0.75-1.9c-0.234-0.865-0.35-2-0.35-3.399v-18c-0.268-3.066-1.035-4.883-2.3-5.45
		c-1.267-0.565-2.8-0.851-4.6-0.851c-0.534,0-1.067-0.016-1.6-0.05c-0.535-0.032-1.1-0.083-1.7-0.149v30.899h-16.4V32.961z
		 M50.076,32.961h35.2v13.801h-18v16.6h15.9v13.6h-15.9v28.7h-17.2V32.961z M58.076,168.362l24.4-43.9h-23v-14.5h41.6v14.5
		l-24.5,43.9h24.5v14.3h-43V168.362z M102.575,336.662h-16.6v-30.2h-10.2v30.2h-17.1v-72.7h17.1v27.5h10.2v-27.5h16.6V336.662z
		 M104.075,109.961h38.1v13.801h-20.9v15.199h18v14.301h-18v15.8h20.9v13.6h-38.1V109.961z M105.375,186.961h38v14.5h-10.7v58.2
		h-16.6v-58.2h-10.7V186.961z M145.175,277.762h-20.9v15.199h18v14.301h-18v15.8h20.9v13.6h-38.1v-72.7h38.1V277.762z
		 M144.724,100.961c-3.367-3.665-5.217-8.532-5.55-14.6v-34.6c0.333-6.133,2.416-10.916,6.25-14.351
		c3.833-3.433,9.183-5.149,16.05-5.149c0.133,0,0.25,0,0.35,0s0.216,0,0.35,0c4.866,0.066,9.4,1.449,13.601,4.149
		s6.633,7.585,7.3,14.65v35.3c0,5.734-1.784,10.617-5.35,14.65c-3.567,4.034-8.75,6.05-15.551,6.05
		C153.907,106.662,148.09,104.629,144.724,100.961z M146.272,109.961h25.2c5,0,9.365,1.168,13.1,3.5c3.732,2.335,5.6,6.968,5.6,13.9
		v1.9c0,4.066-0.584,7.134-1.75,9.199c-1.166,2.067-2.449,3.567-3.85,4.5c-0.867,0.535-1.717,0.918-2.55,1.15
		c-0.835,0.234-1.517,0.417-2.05,0.55c2.865,1.067,5.283,2.468,7.25,4.2c1.965,1.734,2.949,4.367,2.949,7.9v20.899
		c0,0.867,0.033,1.617,0.101,2.25c0.065,0.635,0.165,1.15,0.3,1.55c0.066,0.4,0.166,0.801,0.301,1.2h-15.9
		c-0.467-0.266-0.801-0.633-1-1.1c-0.268-0.4-0.518-1.033-0.75-1.9c-0.234-0.865-0.35-2-0.35-3.399v-18
		c-0.268-3.066-1.035-4.883-2.301-5.45c-1.268-0.565-2.8-0.851-4.6-0.851c-0.535,0-1.067-0.016-1.6-0.05
		c-0.535-0.032-1.101-0.083-1.701-0.149v30.899h-16.399V109.961z M147.874,205.762c0.333-6.133,2.416-10.916,6.25-14.351
		c3.833-3.433,9.184-5.149,16.051-5.149c0.133,0,0.25,0,0.35,0s0.216,0,0.35,0c4.866,0.066,9.4,1.449,13.601,4.149
		s6.633,7.585,7.3,14.65v35.3c0,5.734-1.784,10.617-5.35,14.65c-3.567,4.034-8.75,6.05-15.551,6.05
		c-8.267-0.4-14.084-2.433-17.449-6.101c-3.368-3.665-5.218-8.532-5.55-14.6V205.762z M177.474,336.662
		c-0.467-0.266-0.8-0.633-1-1.1c-0.267-0.4-0.517-1.033-0.75-1.9c-0.234-0.865-0.35-2-0.35-3.399v-18
		c-0.268-3.066-1.034-4.883-2.3-5.45c-1.268-0.565-2.801-0.851-4.601-0.851c-0.534,0-1.067-0.016-1.6-0.05
		c-0.534-0.032-1.101-0.083-1.7-0.149v30.899h-16.4v-72.7h25.2c5,0,9.366,1.168,13.101,3.5c3.732,2.335,5.6,6.968,5.6,13.9v1.9
		c0,4.066-0.584,7.134-1.75,9.199c-1.167,2.067-2.45,3.567-3.85,4.5c-0.867,0.535-1.718,0.918-2.551,1.15
		c-0.834,0.234-1.517,0.417-2.05,0.55c2.866,1.067,5.283,2.468,7.25,4.2c1.966,1.734,2.95,4.367,2.95,7.9v20.899
		c0,0.867,0.033,1.617,0.1,2.25c0.066,0.635,0.166,1.15,0.301,1.55c0.065,0.4,0.165,0.801,0.3,1.2H177.474z M240.773,317.362
		c0,5.734-1.784,10.617-5.35,14.65c-3.567,4.034-8.75,6.05-15.551,6.05c-8.267-0.4-14.084-2.433-17.449-6.101
		c-3.367-3.665-5.218-8.532-5.551-14.6v-34.6c0.333-6.133,2.416-10.916,6.25-14.351c3.833-3.433,9.184-5.149,16.051-5.149
		c0.133,0,0.25,0,0.35,0s0.216,0,0.35,0c4.866,0.066,9.4,1.449,13.601,4.149s6.633,7.585,7.3,14.65V317.362z M195.372,163.362v-34.6
		c0.333-6.133,2.415-10.916,6.25-14.351c3.833-3.433,9.183-5.149,16.05-5.149c0.133,0,0.25,0,0.35,0c0.101,0,0.217,0,0.351,0
		c4.866,0.066,9.399,1.449,13.601,4.149c4.199,2.7,6.633,7.585,7.299,14.65v35.3c0,5.734-1.783,10.617-5.35,14.65
		c-3.566,4.034-8.75,6.05-15.55,6.05c-8.267-0.4-14.085-2.433-17.45-6.101C197.555,174.296,195.705,169.429,195.372,163.362z
		 M250.574,105.662h-15.7v-54.6l-9.5,54.6h-11.4l-9.5-55.3v55.3h-15.7v-72.7h25.9l5,37.5l5.7-37.5h25.2V105.662z"/>
</g>
<g>
	<path fill="#305199" d="M130.981,369.331c0.108-0.012,0.238-0.076,0.393-0.195c0.154-0.119,0.321-0.266,0.5-0.441
		c0.178-0.178,0.361-0.373,0.545-0.588c0.186-0.215,0.36-0.426,0.525-0.631c0.166-0.205,0.315-0.395,0.445-0.568
		c0.131-0.178,0.233-0.311,0.305-0.404c0.068,0.07,0.151,0.16,0.248,0.268c0.097,0.109,0.187,0.211,0.272,0.305
		c-0.128,0.201-0.29,0.445-0.483,0.734c-0.195,0.287-0.406,0.584-0.637,0.891c-0.229,0.305-0.47,0.609-0.72,0.918
		s-0.496,0.586-0.739,0.832c-0.243,0.246-0.472,0.449-0.687,0.607c-0.214,0.16-0.399,0.248-0.554,0.264
		c-0.263,0.027-0.507-0.012-0.733-0.119c-0.225-0.109-0.436-0.256-0.628-0.443c-0.194-0.189-0.379-0.408-0.555-0.656
		c-0.177-0.252-0.344-0.508-0.501-0.771c-0.095,0.199-0.189,0.414-0.284,0.65c-0.094,0.234-0.181,0.459-0.261,0.672
		c-0.079,0.213-0.144,0.396-0.196,0.557c-0.051,0.16-0.084,0.256-0.102,0.293c-0.007,0.068-0.021,0.119-0.044,0.152
		c-0.024,0.031-0.066,0.051-0.127,0.057c-0.101,0.01-0.225-0.025-0.373-0.107c-0.149-0.08-0.301-0.193-0.46-0.342
		c-0.159-0.145-0.316-0.305-0.475-0.479c-0.158-0.176-0.297-0.354-0.419-0.537c-0.063-0.086-0.108-0.188-0.134-0.305
		s-0.048-0.26-0.066-0.428c-0.059-0.555-0.071-1.188-0.037-1.896c0.034-0.711,0.107-1.461,0.222-2.252
		c0.114-0.791,0.263-1.609,0.45-2.461c0.185-0.85,0.4-1.693,0.645-2.531c0.246-0.84,0.519-1.66,0.822-2.469
		c0.302-0.807,0.624-1.562,0.964-2.271s0.697-1.352,1.072-1.928c0.374-0.574,0.764-1.053,1.165-1.438
		c0.062-0.057,0.121-0.098,0.177-0.121c0.056-0.021,0.103-0.035,0.144-0.039c0.081-0.01,0.201,0.033,0.361,0.135
		c0.16,0.096,0.331,0.217,0.513,0.357c0.182,0.145,0.354,0.287,0.515,0.432c0.161,0.145,0.281,0.264,0.36,0.357
		c0.048,0.072,0.08,0.18,0.095,0.322c0.059,0.555-0.015,1.264-0.224,2.123c-0.209,0.859-0.53,1.818-0.963,2.871
		c-0.434,1.057-0.973,2.184-1.618,3.383c-0.646,1.201-1.377,2.414-2.194,3.641c-0.056,0.439-0.108,0.879-0.158,1.312
		c-0.049,0.436-0.091,0.873-0.126,1.311c0.512-1.203,0.978-2.16,1.396-2.873s0.784-1.258,1.099-1.635
		c0.313-0.379,0.575-0.629,0.784-0.748c0.208-0.119,0.356-0.184,0.444-0.193c0.081-0.01,0.182,0.033,0.304,0.127
		c0.123,0.094,0.241,0.205,0.357,0.334c0.116,0.127,0.221,0.252,0.316,0.375c0.095,0.121,0.158,0.211,0.191,0.266
		c0.016,0.084-0.038,0.262-0.158,0.533c-0.121,0.273-0.295,0.592-0.522,0.957s-0.5,0.752-0.821,1.166
		c-0.32,0.412-0.675,0.801-1.066,1.166c0.257,0.363,0.473,0.646,0.652,0.85c0.178,0.201,0.326,0.354,0.445,0.451
		C130.776,369.237,130.89,369.305,130.981,369.331z M128.821,359.254c-0.148,0.527-0.296,1.109-0.443,1.746
		s-0.289,1.312-0.424,2.023c0.636-1.141,1.169-2.191,1.602-3.156s0.78-1.834,1.042-2.605c0.262-0.773,0.44-1.449,0.535-2.029
		c0.096-0.58,0.123-1.061,0.083-1.439c-0.002-0.025-0.006-0.051-0.013-0.082c-0.006-0.027-0.026-0.041-0.06-0.037
		c-0.081,0.01-0.2,0.141-0.357,0.396c-0.157,0.256-0.339,0.623-0.547,1.104c-0.207,0.482-0.433,1.064-0.677,1.75
		C129.316,357.61,129.07,358.387,128.821,359.254z"/>
	<path fill="#305199" d="M140.47,368.477c0.005,0.053,0.029,0.074,0.069,0.07c0.06-0.008,0.155-0.072,0.285-0.197
		c0.129-0.123,0.277-0.279,0.441-0.467s0.337-0.396,0.521-0.631c0.183-0.23,0.358-0.459,0.525-0.68
		c0.167-0.225,0.318-0.426,0.451-0.609c0.135-0.186,0.236-0.328,0.307-0.43c0.069,0.068,0.156,0.164,0.26,0.279
		c0.105,0.115,0.199,0.223,0.284,0.314c-0.142,0.201-0.312,0.447-0.51,0.736c-0.197,0.289-0.411,0.59-0.641,0.902
		c-0.229,0.314-0.466,0.627-0.712,0.938c-0.246,0.312-0.488,0.592-0.728,0.838c-0.241,0.246-0.47,0.453-0.692,0.615
		c-0.221,0.166-0.418,0.256-0.593,0.273c-0.122,0.014-0.258-0.002-0.408-0.047c-0.151-0.043-0.293-0.109-0.426-0.205
		c-0.133-0.092-0.247-0.205-0.342-0.338c-0.096-0.135-0.154-0.291-0.172-0.469c-0.007-0.066-0.018-0.148-0.031-0.244
		c-0.014-0.098-0.021-0.225-0.024-0.381c-0.004-0.156,0.003-0.35,0.021-0.576c0.016-0.229,0.048-0.51,0.094-0.848
		c-0.191,0.318-0.419,0.654-0.685,1.006c-0.266,0.352-0.549,0.688-0.848,1.008c-0.3,0.322-0.604,0.615-0.913,0.883
		s-0.598,0.475-0.868,0.621c-0.032,0.021-0.059,0.031-0.079,0.033c-0.02,0.004-0.04,0.004-0.061,0.008
		c-0.067,0.006-0.161-0.025-0.281-0.1c-0.12-0.072-0.241-0.17-0.364-0.299c-0.121-0.127-0.231-0.275-0.328-0.443
		c-0.095-0.168-0.152-0.342-0.171-0.52c-0.005-0.051-0.003-0.221,0.007-0.512c0.01-0.291,0.068-0.664,0.172-1.123
		c0.105-0.457,0.276-0.979,0.514-1.561c0.238-0.582,0.582-1.191,1.032-1.826c0.232-0.322,0.485-0.629,0.761-0.922
		c0.232-0.246,0.502-0.5,0.808-0.762c0.306-0.264,0.633-0.48,0.983-0.654c0.013-0.002,0.024-0.006,0.033-0.016
		c0.01-0.012,0.025-0.008,0.047,0.008c0.084,0.023,0.186,0.066,0.304,0.127c0.12,0.059,0.238,0.123,0.358,0.191
		c0.119,0.068,0.225,0.139,0.318,0.209c0.093,0.07,0.155,0.131,0.187,0.178c0.009,0.018,0.01,0.027,0.004,0.039l-0.018,0.025
		c-0.282,0.234-0.544,0.49-0.787,0.768c-0.243,0.275-0.458,0.537-0.643,0.775c-0.215,0.287-0.413,0.568-0.595,0.844
		c-0.427,0.656-0.712,1.217-0.854,1.678c-0.142,0.463-0.202,0.791-0.181,0.982c0.015,0.145,0.07,0.211,0.164,0.201
		c0.094-0.01,0.208-0.07,0.343-0.184c0.134-0.111,0.284-0.26,0.448-0.443c0.166-0.184,0.345-0.396,0.54-0.645
		c0.195-0.246,0.397-0.504,0.608-0.771c0.186-0.232,0.364-0.482,0.533-0.746c0.147-0.221,0.298-0.471,0.452-0.75
		c0.154-0.279,0.282-0.562,0.38-0.846c0-0.008,0.002-0.016,0.008-0.025c0.006-0.01,0.016-0.012,0.03-0.004
		c0.081,0.061,0.177,0.162,0.288,0.311c0.111,0.145,0.216,0.305,0.316,0.48c0.101,0.178,0.189,0.35,0.264,0.516
		c0.075,0.166,0.118,0.297,0.128,0.389c-0.113,0.412-0.195,0.785-0.244,1.119c-0.05,0.332-0.084,0.623-0.103,0.871
		c-0.018,0.248-0.023,0.461-0.015,0.633C140.452,368.252,140.46,368.385,140.47,368.477z"/>
	<path fill="#305199" d="M144.238,365.042c0.174-0.256,0.347-0.535,0.515-0.832c0.17-0.301,0.323-0.619,0.461-0.957
		c0.138-0.336,0.237-0.697,0.299-1.078c0.007-0.197,0.027-0.406,0.062-0.625c0.033-0.221,0.077-0.424,0.13-0.607
		c0.052-0.186,0.105-0.34,0.159-0.463c0.055-0.127,0.11-0.191,0.163-0.195c0.088,0.049,0.22,0.148,0.399,0.295
		c0.179,0.146,0.359,0.305,0.54,0.473c0.181,0.168,0.343,0.322,0.483,0.465c0.141,0.145,0.213,0.232,0.217,0.268
		c-0.04,0.395-0.042,0.748-0.004,1.059c0.035,0.312,0.088,0.617,0.156,0.916c0.07,0.299,0.145,0.617,0.225,0.953
		c0.079,0.336,0.144,0.729,0.19,1.172c0.028,0.271,0.026,0.584-0.009,0.939c-0.032,0.355-0.122,0.684-0.269,0.979
		c0.316-0.287,0.627-0.607,0.93-0.959c0.304-0.352,0.571-0.68,0.806-0.984c0.274-0.361,0.536-0.721,0.784-1.08l0.521,0.57
		c-0.196,0.285-0.407,0.59-0.635,0.91c-0.229,0.322-0.467,0.641-0.716,0.957c-0.249,0.314-0.504,0.619-0.767,0.91
		c-0.263,0.293-0.523,0.553-0.784,0.785c-0.263,0.23-0.517,0.422-0.768,0.566c-0.25,0.145-0.489,0.23-0.719,0.254
		c-0.195,0.021-0.418-0.016-0.665-0.107c-0.248-0.092-0.485-0.213-0.712-0.357c-0.227-0.146-0.428-0.305-0.603-0.475
		c-0.174-0.168-0.281-0.312-0.32-0.438c-0.002-0.018,0.008-0.055,0.028-0.111c0.021-0.059,0.047-0.117,0.077-0.182
		c0.031-0.062,0.062-0.119,0.095-0.168c0.032-0.053,0.058-0.078,0.078-0.078c0.04-0.006,0.127,0.023,0.254,0.088
		c0.131,0.061,0.336,0.078,0.619,0.049c0.154-0.018,0.283-0.08,0.382-0.193c0.102-0.113,0.18-0.258,0.236-0.434
		c0.056-0.176,0.089-0.375,0.1-0.598c0.011-0.223,0.003-0.457-0.022-0.701c-0.037-0.354-0.087-0.695-0.15-1.023
		c-0.062-0.33-0.125-0.646-0.193-0.957c-0.096,0.182-0.209,0.371-0.337,0.572c-0.129,0.201-0.26,0.398-0.391,0.598
		c-0.133,0.197-0.266,0.391-0.398,0.576c-0.134,0.189-0.253,0.357-0.361,0.506l-0.55-0.566
		C143.911,365.526,144.064,365.297,144.238,365.042z"/>
	<path fill="#305199" d="M152.471,369.034c-0.103,0.012-0.232-0.02-0.397-0.092c-0.164-0.07-0.323-0.166-0.479-0.281
		c-0.154-0.115-0.292-0.246-0.408-0.396c-0.119-0.148-0.186-0.301-0.201-0.449c0.027-0.379,0.074-0.812,0.138-1.307
		c0.063-0.49,0.135-0.992,0.213-1.502c0.08-0.512,0.166-1.012,0.261-1.504c0.094-0.49,0.182-0.928,0.26-1.309
		c0.078-0.385,0.148-0.693,0.213-0.932c0.063-0.234,0.109-0.354,0.137-0.357c0.04-0.004,0.146,0.039,0.318,0.131
		c0.176,0.094,0.358,0.207,0.554,0.344c0.194,0.139,0.373,0.285,0.532,0.443c0.158,0.156,0.246,0.299,0.259,0.424
		c0.003,0.025,0.003,0.059,0.001,0.098c-0.003,0.039-0.01,0.088-0.018,0.148c-0.031,0.215-0.072,0.471-0.127,0.766
		c-0.055,0.297-0.11,0.604-0.174,0.92c-0.062,0.316-0.124,0.635-0.186,0.951c-0.062,0.316-0.115,0.613-0.16,0.893
		c-0.046,0.275-0.082,0.52-0.107,0.725c-0.024,0.209-0.033,0.357-0.023,0.449c0.006,0.051,0.029,0.074,0.07,0.068
		c0.072-0.006,0.179-0.072,0.314-0.197c0.137-0.125,0.291-0.285,0.464-0.484c0.175-0.195,0.354-0.41,0.539-0.643
		c0.187-0.232,0.365-0.463,0.535-0.689c0.17-0.225,0.323-0.432,0.461-0.617c0.138-0.184,0.241-0.322,0.312-0.416
		c0.07,0.07,0.152,0.16,0.25,0.27c0.097,0.107,0.187,0.209,0.271,0.303c-0.128,0.201-0.289,0.443-0.483,0.734
		c-0.192,0.287-0.406,0.586-0.637,0.891c-0.229,0.305-0.47,0.611-0.719,0.918c-0.251,0.307-0.495,0.584-0.734,0.832
		c-0.238,0.246-0.467,0.449-0.682,0.607C152.82,368.928,152.632,369.016,152.471,369.034z M155.209,356.692
		c-0.004,0.035-0.021,0.119-0.051,0.256c-0.03,0.135-0.065,0.291-0.108,0.471s-0.093,0.367-0.149,0.564
		c-0.059,0.197-0.114,0.379-0.172,0.549c-0.057,0.168-0.113,0.307-0.17,0.42c-0.057,0.111-0.104,0.17-0.146,0.174
		c-0.121,0.004-0.272-0.025-0.453-0.092c-0.183-0.066-0.356-0.145-0.524-0.232c-0.17-0.088-0.314-0.178-0.438-0.266
		c-0.123-0.09-0.186-0.156-0.189-0.197c-0.018-0.176-0.002-0.41,0.049-0.701c0.052-0.289,0.117-0.572,0.197-0.852
		c0.078-0.273,0.162-0.518,0.254-0.721c0.09-0.205,0.168-0.312,0.228-0.318c0.122-0.014,0.274,0.02,0.46,0.098
		s0.367,0.172,0.545,0.281c0.18,0.107,0.333,0.217,0.464,0.326C155.137,356.561,155.203,356.641,155.209,356.692z"/>
	<path fill="#305199" d="M165.225,363.815c-0.533,0.746-1.088,1.457-1.664,2.131s-1.152,1.326-1.731,1.957
		c-0.058,0.363-0.126,0.75-0.205,1.156c-0.079,0.408-0.181,0.875-0.301,1.398c-0.138,0.576-0.302,1.143-0.494,1.699
		s-0.406,1.082-0.636,1.582c-0.229,0.494-0.471,0.951-0.728,1.371c-0.256,0.42-0.512,0.783-0.768,1.096
		c-0.259,0.312-0.511,0.561-0.761,0.744c-0.248,0.186-0.484,0.289-0.705,0.311c-0.108,0.014-0.246-0.023-0.41-0.107
		c-0.166-0.084-0.327-0.197-0.485-0.338c-0.157-0.143-0.296-0.295-0.412-0.461c-0.116-0.168-0.183-0.326-0.198-0.479
		c-0.057-0.531,0.004-1.061,0.181-1.596c0.173-0.533,0.435-1.076,0.78-1.633c0.347-0.557,0.764-1.127,1.25-1.709
		c0.484-0.584,1.013-1.188,1.578-1.809c0.129-0.67,0.246-1.365,0.356-2.088c0.112-0.721,0.218-1.438,0.319-2.146
		c-0.24,0.494-0.479,0.928-0.711,1.301c-0.23,0.375-0.449,0.693-0.652,0.957c-0.204,0.266-0.383,0.479-0.535,0.643
		c-0.152,0.166-0.27,0.291-0.348,0.377c-0.051,0.047-0.11,0.086-0.185,0.113c-0.069,0.029-0.137,0.049-0.198,0.055
		c-0.125,0.014-0.272-0.02-0.438-0.1c-0.164-0.082-0.319-0.189-0.468-0.322c-0.146-0.133-0.274-0.283-0.385-0.451
		c-0.108-0.166-0.174-0.33-0.189-0.488c-0.02-0.188-0.002-0.486,0.053-0.906s0.133-0.928,0.236-1.525s0.229-1.27,0.373-2.018
		c0.146-0.746,0.304-1.543,0.473-2.387c0.01-0.043,0.02-0.064,0.03-0.061c0.01,0.002,0.028,0.002,0.056,0
		c0.131,0.012,0.312,0.059,0.547,0.141c0.233,0.082,0.461,0.174,0.688,0.277c0.225,0.104,0.421,0.203,0.589,0.303
		c0.167,0.096,0.252,0.166,0.257,0.207c-0.014,0.062-0.053,0.207-0.111,0.436c-0.062,0.227-0.133,0.5-0.211,0.818
		c-0.078,0.32-0.16,0.664-0.248,1.033c-0.086,0.373-0.164,0.729-0.233,1.066c-0.069,0.34-0.124,0.646-0.163,0.918
		s-0.053,0.473-0.039,0.598c0.003,0.035,0.02,0.049,0.046,0.047c0.048-0.006,0.142-0.092,0.284-0.26s0.312-0.43,0.516-0.783
		c0.2-0.354,0.422-0.801,0.664-1.34c0.242-0.541,0.489-1.186,0.744-1.938c0.076-0.568,0.141-1.025,0.192-1.365
		c0.052-0.344,0.092-0.516,0.118-0.52c0.041-0.004,0.151,0.049,0.334,0.156c0.182,0.109,0.377,0.24,0.582,0.391
		c0.207,0.154,0.395,0.309,0.562,0.467c0.165,0.154,0.254,0.281,0.265,0.375c0.004,0.041,0.004,0.08,0.002,0.113
		c-0.004,0.033-0.011,0.072-0.02,0.117c-0.093,0.605-0.171,1.15-0.234,1.641c-0.064,0.486-0.121,0.934-0.17,1.338
		c-0.05,0.404-0.091,0.777-0.127,1.119c-0.035,0.34-0.07,0.668-0.104,0.986c0.458-0.51,0.909-1.025,1.358-1.555
		c0.446-0.529,0.887-1.08,1.314-1.652L165.225,363.815z M157.023,375.879c0.121-0.014,0.274-0.176,0.459-0.49
		c0.186-0.312,0.379-0.709,0.578-1.189c0.201-0.48,0.398-1.016,0.592-1.602c0.193-0.588,0.359-1.158,0.498-1.719
		c-0.229,0.297-0.481,0.621-0.766,0.975c-0.283,0.354-0.542,0.734-0.777,1.143c-0.236,0.408-0.426,0.84-0.568,1.291
		c-0.143,0.455-0.188,0.926-0.137,1.414C156.917,375.827,156.957,375.885,157.023,375.879z"/>
	<path fill="#305199" d="M166.997,365.493c0.026,0.252,0.114,0.371,0.262,0.354c0.155-0.016,0.345-0.189,0.568-0.525
		c0.222-0.334,0.446-0.752,0.673-1.252c-0.023-0.092-0.04-0.172-0.051-0.242c-0.012-0.072-0.02-0.137-0.026-0.195
		c-0.017-0.168-0.022-0.371-0.019-0.605c0.006-0.234,0.055-0.506,0.146-0.812c0.056-0.234,0.132-0.469,0.222-0.699
		c0.074-0.203,0.166-0.424,0.277-0.66c0.111-0.238,0.236-0.463,0.378-0.674l0.052-0.082c0.08,0.096,0.183,0.223,0.312,0.383
		c0.129,0.16,0.259,0.324,0.389,0.494c0.131,0.17,0.246,0.324,0.346,0.469c0.101,0.143,0.164,0.242,0.189,0.299
		c0.039,0.361,0.025,0.729-0.041,1.102c-0.066,0.375-0.168,0.746-0.306,1.119c0.399-0.078,0.762-0.246,1.086-0.504
		c0.323-0.26,0.646-0.662,0.97-1.207c0.068,0.068,0.158,0.164,0.271,0.285c0.109,0.119,0.201,0.223,0.271,0.307
		c-0.244,0.4-0.488,0.738-0.736,1.012c-0.246,0.271-0.498,0.494-0.756,0.666c-0.258,0.174-0.523,0.305-0.801,0.398
		c-0.275,0.092-0.562,0.154-0.857,0.186c-0.196,0.328-0.414,0.633-0.649,0.912c-0.235,0.281-0.479,0.527-0.733,0.74
		c-0.252,0.215-0.509,0.387-0.768,0.518c-0.259,0.129-0.509,0.205-0.752,0.23c-0.201,0.021-0.419-0.031-0.65-0.16
		c-0.23-0.129-0.445-0.295-0.645-0.5s-0.368-0.428-0.51-0.668s-0.224-0.457-0.242-0.648c-0.068-0.641-0.066-1.283,0.005-1.93
		s0.226-1.26,0.459-1.842s0.558-1.107,0.967-1.578c0.409-0.467,0.916-0.846,1.519-1.131c0.02-0.018,0.055-0.035,0.104-0.049
		c0.05-0.014,0.092-0.023,0.125-0.025c0.096-0.01,0.198,0.023,0.312,0.102c0.113,0.078,0.222,0.166,0.324,0.266
		c0.103,0.102,0.189,0.199,0.262,0.299c0.07,0.1,0.108,0.164,0.113,0.197c-0.01,0.045-0.055,0.102-0.136,0.174
		c-0.082,0.074-0.188,0.193-0.319,0.359c-0.133,0.168-0.285,0.402-0.455,0.707c-0.174,0.303-0.355,0.697-0.549,1.188
		c-0.291,0.721-0.474,1.363-0.543,1.928C166.982,364.754,166.965,365.19,166.997,365.493z"/>
	<path fill="#305199" d="M174.674,364.678c0.026,0.252,0.113,0.371,0.262,0.355c0.155-0.018,0.344-0.191,0.568-0.525
		c0.223-0.334,0.447-0.752,0.673-1.252c-0.022-0.092-0.04-0.174-0.051-0.244s-0.021-0.137-0.026-0.195
		c-0.017-0.166-0.021-0.369-0.018-0.604c0.006-0.234,0.054-0.506,0.145-0.812c0.057-0.236,0.131-0.471,0.223-0.699
		c0.072-0.203,0.164-0.424,0.277-0.662c0.109-0.236,0.235-0.461,0.379-0.672l0.052-0.082c0.077,0.094,0.182,0.223,0.312,0.383
		c0.129,0.16,0.26,0.324,0.389,0.494c0.131,0.17,0.246,0.324,0.348,0.467c0.1,0.143,0.162,0.242,0.189,0.301
		c0.037,0.361,0.023,0.729-0.041,1.102c-0.067,0.375-0.17,0.746-0.308,1.117c0.401-0.076,0.763-0.242,1.086-0.504
		c0.323-0.26,0.646-0.66,0.97-1.207c0.069,0.07,0.158,0.164,0.271,0.285c0.112,0.119,0.202,0.223,0.272,0.309
		c-0.244,0.4-0.487,0.738-0.735,1.012c-0.246,0.271-0.498,0.494-0.757,0.666c-0.258,0.172-0.524,0.305-0.799,0.398
		c-0.276,0.092-0.562,0.154-0.859,0.186c-0.196,0.328-0.413,0.631-0.649,0.912c-0.235,0.281-0.479,0.525-0.731,0.74
		c-0.254,0.215-0.51,0.387-0.77,0.516c-0.259,0.129-0.509,0.207-0.752,0.232c-0.201,0.021-0.418-0.031-0.65-0.16
		c-0.23-0.129-0.445-0.295-0.646-0.5c-0.196-0.203-0.366-0.428-0.509-0.668c-0.141-0.24-0.223-0.457-0.242-0.65
		c-0.068-0.641-0.066-1.283,0.005-1.928c0.07-0.646,0.224-1.26,0.459-1.842c0.233-0.582,0.558-1.109,0.966-1.576
		c0.41-0.471,0.918-0.848,1.521-1.133c0.019-0.02,0.053-0.035,0.103-0.051c0.051-0.014,0.092-0.021,0.127-0.023
		c0.094-0.01,0.196,0.023,0.311,0.1c0.113,0.08,0.222,0.166,0.324,0.268c0.104,0.1,0.189,0.197,0.262,0.299
		c0.07,0.098,0.109,0.164,0.113,0.197c-0.01,0.045-0.055,0.102-0.135,0.174c-0.082,0.072-0.188,0.191-0.32,0.359
		c-0.131,0.168-0.283,0.402-0.455,0.705c-0.174,0.305-0.355,0.699-0.551,1.189c-0.291,0.721-0.472,1.361-0.541,1.928
		C174.659,363.944,174.643,364.375,174.674,364.678z"/>
</g>
</svg>
