<?xml version="1.0" encoding="utf-8"?>
<!-- Generator: Adobe Illustrator 19.0.0, SVG Export Plug-In . SVG Version: 6.00 Build 0)  -->
<svg version="1.1" id="图层_2" xmlns="http://www.w3.org/2000/svg" xmlns:xlink="http://www.w3.org/1999/xlink" x="0px" y="0px"
	 viewBox="0 0 814 624" style="enable-background:new 0 0 814 624;" xml:space="preserve">
<style type="text/css">
	.st0{fill:none;}
	.st1{fill:#545556;}
	.st2{fill:#A4A4A5;}
	.st3{fill:#303030;}
	.st4{fill:#292A2D;}
	.st5{fill:#3D3E3F;}
	.st6{fill:#232323;}
	.st7{fill:#3D78F7;}
	.st8{fill:none;stroke:#232323;stroke-width:2;stroke-miterlimit:10;}
</style>
<path id="XMLID_424_" class="st0" d="M513.9,102.1c-15.4,0-24.9,9.2-24.9,32.2v0.1c0,24.4,10.7,33,24.8,33
	c14.5,0,24.8-8.9,24.8-33.1C538.7,111.3,529.2,102.1,513.9,102.1z"/>
<path id="XMLID_425_" class="st0" d="M195.7,102.1c-15.4,0-24.7,9.2-24.7,32.2v0.1c0,24.4,10.4,33,24.5,33
	c14.5,0,24.8-8.9,24.8-33.1C220.4,111.3,210.9,102.1,195.7,102.1z"/>
<path id="XMLID_426_" class="st0" d="M279.4,104H272v26h14.9c7.2-1,11.8-5.6,11.8-13.6C298.6,105.7,290.4,104,279.4,104z"/>
<path id="XMLID_427_" class="st0" d="M118.2,97.7c0-12.6-8.8-18.7-26.1-18.7H82v4.1l23.7,34.3C113.8,115.1,118.2,109.5,118.2,97.7z"
	/>
<path id="XMLID_428_" class="st0" d="M102.9,138.5l32.7,22l-17.5-25.1C113.4,137.2,108.3,138.2,102.9,138.5z"/>
<path id="XMLID_429_" class="st0" d="M82,119h11.4c4.7,0,8.9-0.5,12.3-1.5L82,83.1V119z"/>
<path id="XMLID_430_" class="st0" d="M721.7,102.1c-15.4,0-24.7,9.2-24.7,32.2v0.1c0,24.4,10.4,33,24.5,33
	c14.5,0,24.8-8.9,24.8-33.1C746.4,111.3,736.9,102.1,721.7,102.1z"/>
<path id="XMLID_431_" class="st1" d="M82,83.1V79h10.1c17.3,0,26.1,6,26.1,18.7c0,11.8-4.5,17.4-12.6,19.8l12.6,18
	c14.1-5.4,24.3-17.8,24.3-39.4c0-14-5-23.2-13.3-29.2l-50.3,12L82,83.1z"/>
<polygon id="XMLID_432_" class="st2" points="64.1,58 58,58 58,83.8 78.8,78.9 "/>
<path id="XMLID_433_" class="st3" d="M58,181h24v-42h17.8c1.1,0,2.2-0.3,3.2-0.3l-45-30.6V181z"/>
<path id="XMLID_434_" class="st4" d="M129.2,66.9C120,60.4,106.6,58,91.3,58H64.1l14.6,20.9L129.2,66.9z"/>
<path id="XMLID_435_" class="st5" d="M105.5,117.5c-3.4,1-7.5,1.5-12.2,1.5H82V83.1l-3.1-4.3l-20.9,5v24.3l45,30.3
	c5.4-0.3,10.5-1.2,15.2-3L105.5,117.5z"/>
<path id="XMLID_438_" class="st6" d="M195.5,86.5c-33.7,0-43.5,25.6-43.5,47.9v0.1c0,24.2,11,48.7,43.6,48.7
	c34,0,43.7-26.2,43.7-48.7C239.3,112,229.4,86.5,195.5,86.5z M195.5,167.4c-14.2,0-24.5-8.6-24.5-33v-0.1c0-22.9,9.3-32.2,24.7-32.2
	c15.2,0,24.7,9.2,24.7,32.2C220.4,158.5,210.1,167.4,195.5,167.4z"/>
<rect id="XMLID_439_" x="640" y="89" class="st6" width="18" height="92"/>
<path id="XMLID_442_" class="st6" d="M513.8,86.5c-33.7,0-43.8,25.6-43.8,47.9v0.1c0,24.2,11.3,48.7,43.9,48.7
	c34,0,43.7-26.2,43.7-48.7C557.6,112,547.6,86.5,513.8,86.5z M513.8,167.4c-14.2,0-24.8-8.6-24.8-33v-0.1c0-22.9,9.6-32.2,24.9-32.2
	c15.2,0,24.7,9.2,24.7,32.2C538.7,158.5,528.3,167.4,513.8,167.4z"/>
<path id="XMLID_445_" class="st6" d="M716.2,86.5c-33.7,0-43.2,25.6-43.2,47.9v0.1c0,24.2,10.7,48.7,43.3,48.7
	c34,0,43.7-26.2,43.7-48.7C760,112,750,86.5,716.2,86.5z M716.2,167.4c-14.2,0-24.2-8.6-24.2-33v-0.1c0-22.9,9-32.2,24.4-32.2
	c15.2,0,24.7,9.2,24.7,32.2C741.1,158.5,730.8,167.4,716.2,167.4z"/>
<polygon id="XMLID_446_" class="st6" points="591,89 573,89 573,181 626,181 626,165 591,165 "/>
<polygon id="XMLID_447_" class="st6" points="408,181 425,181 425,143 455,143 455,128 425,128 425,104 458,104 458,89 408,89 "/>
<path id="XMLID_450_" class="st6" d="M300.8,137.2c9-3,15.4-9.8,15.4-22.7c0-22-17.3-25.5-38.6-25.5H255v92h17v-37h10.7
	c6.6,0,9.7,3.3,14.2,12.9c3.1,6.8,7.6,18.1,9.6,24.1h19.1c-4-10-11.5-26.7-15-33.8C308.7,143.3,305.7,139.4,300.8,137.2z M286.9,130
	H272v-26h7.4c10.9,0,19.2,1.7,19.2,12.4C298.6,124.4,294.1,129,286.9,130z"/>
<polygon id="XMLID_451_" class="st6" points="328,104 353,104 353,181 370,181 370,104 395,104 395,89 328,89 "/>
<g id="XMLID_17_">
	<path id="XMLID_18_" class="st6" d="M82,322.3h-2l-5.7-15.6L73.5,323h-2.2l1-19.2h3l5.7,15.5l5.8-15.5H90l1,19.2h-2.3l-0.7-16.3
		L82,322.3z"/>
	<path id="XMLID_20_" class="st6" d="M104.6,308.6h2.5c-1.2,3.7-3.4,9.9-5,13.9c-1.3,3.2-2.6,5.4-3.7,6.5l-2.2-1
		c1.1-1,2.5-3,3.6-5.8l-5.7-13.6h2.5l4.4,11.1C102.3,316.2,103.7,311.7,104.6,308.6z"/>
	<path id="XMLID_22_" class="st6" d="M124.4,310.8c-0.9-0.4-2.2-0.8-3.4-0.8c-1,0-2.5,0.4-2.5,2.1c0,1.2,0.8,1.7,2.8,2.6
		c2.2,1,3.9,2,3.9,4.4c0,3.3-2.4,4.3-4.6,4.3c-1.5,0-3.6-0.4-4.9-0.9l0.5-1.9c1.2,0.5,2.9,0.9,4.1,0.9c1.4,0,2.6-0.5,2.6-2.3
		c0-1.3-1.1-2-3.3-2.9c-2.1-0.9-3.4-1.7-3.4-4c0-3.2,2.7-3.9,4.7-3.9c1.3,0,3,0.3,3.9,0.7L124.4,310.8z"/>
	<path id="XMLID_24_" class="st6" d="M136.5,308.2c3.4,0,5.6,2.4,5.6,7.2c0,4.2-1.5,7.9-6,7.9c-1.7,0-3.4-0.8-4.3-1.8v7.2h-2.2
		v-17.2c0-0.9-0.1-2-0.3-2.8l2-0.3c0.2,0.5,0.4,1.5,0.5,2.3C132.4,309.7,133.9,308.2,136.5,308.2L136.5,308.2z M131.7,317.5
		c0,0.7,0,1.5,0.1,2c0.6,0.9,2,1.9,3.9,1.9c2.9,0,4.1-2.3,4.1-5.9c0-3-1-5.3-3.7-5.3c-2.5,0-3.8,1.7-4.2,2.7
		c-0.1,0.4-0.1,1.2-0.1,1.8V317.5z"/>
	<path id="XMLID_27_" class="st6" d="M152.9,321.5c1.6,0,3.2-0.3,4.3-0.8l0.4,1.8c-1,0.5-2.9,1-4.9,1c-4.6,0-7.1-2.7-7.1-7.4
		c0-4.5,2.3-7.9,6.7-7.9c3.7,0,5.5,2.4,5.5,6.6v1.3h-10C147.8,319.9,149.9,321.5,152.9,321.5L152.9,321.5z M152.1,309.9
		c-2.4,0-3.8,2-4.1,4.4h7.8C155.7,311.4,154.7,309.9,152.1,309.9L152.1,309.9z"/>
	<path id="XMLID_30_" class="st6" d="M161.4,316c0-4.2,1.7-7.8,6.9-7.8c1.3,0,2.5,0.2,3.4,0.5l-0.4,1.9c-0.9-0.4-2-0.5-2.9-0.5
		c-3.5,0-4.7,2.6-4.7,5.9c0,3.1,1.3,5.5,4.8,5.5c1,0,2.2-0.2,3-0.5l0.3,2c-0.7,0.3-2.1,0.5-3.5,0.5C163,323.4,161.4,319.8,161.4,316
		L161.4,316z"/>
	<path id="XMLID_32_" class="st6" d="M177.9,305.9h-2.5v-2.3h2.5V305.9z M177.8,323h-2.3v-14.4h2.3V323z"/>
	<path id="XMLID_35_" class="st6" d="M193.9,322.8l-1.9,0.4c-0.6-0.7-0.9-1.7-1-2.6c-0.8,1.7-2.7,2.7-4.6,2.7
		c-2.3,0-4.6-1.1-4.6-4.3c0-3.4,1.7-4.4,9-4.8v-1.2c0-1.7-0.3-2.8-2.9-2.8c-1.5,0-3,0.4-4.4,1.2l-0.5-1.9c1.3-0.7,3.3-1.2,5.2-1.2
		c3.7,0,4.8,1.6,4.8,4.7v5.8C192.8,320.5,193.2,322,193.9,322.8z M183.9,318.9c0,2.1,1.8,2.5,2.9,2.5c2.1,0,3.5-1.4,3.9-3v-2.5
		C185.4,316.2,183.9,316.7,183.9,318.9z"/>
	<path id="XMLID_38_" class="st6" d="M200.3,323H198v-19.9l2.3-0.3V323z"/>
	<path id="XMLID_40_" class="st6" d="M210.9,321.3v1.7l-1.2,0.1c-2.3,0.1-3.7-0.7-3.7-3.3v-9.2h-2.4v-1.8h2.4v-3.4l2.2-0.5v3.9h3.2
		v1.8h-3.2v8.5c0,1.8,0.4,2.3,1.9,2.3H210.9z"/>
	<path id="XMLID_303_" class="st6" d="M223.5,308.6h2.5c-1.2,3.7-3.4,9.9-5,13.9c-1.3,3.2-2.6,5.4-3.7,6.5l-2.2-1
		c1.1-1,2.5-3,3.6-5.8l-5.7-13.6h2.5l4.4,11.1C221.2,316.2,222.6,311.7,223.5,308.6z"/>
	<path id="XMLID_305_" class="st6" d="M253.8,308.6h2.5l-4.8,14.4h-2.2l-4.1-11.5l-4,11.5h-2.2l-4.7-14.4h2.5l3.5,11.7l3.9-11.4h2.2
		l4,11.4L253.8,308.6z"/>
	<path id="XMLID_307_" class="st6" d="M270.6,322.8l-1.9,0.4c-0.6-0.7-0.9-1.7-1-2.6c-0.8,1.7-2.7,2.7-4.6,2.7
		c-2.3,0-4.6-1.1-4.6-4.3c0-3.4,1.7-4.4,9-4.8v-1.2c0-1.7-0.3-2.8-2.9-2.8c-1.5,0-3,0.4-4.4,1.2l-0.5-1.9c1.3-0.7,3.3-1.2,5.2-1.2
		c3.7,0,4.8,1.6,4.8,4.7v5.8C269.5,320.5,269.9,322,270.6,322.8z M260.5,318.9c0,2.1,1.8,2.5,2.9,2.5c2.1,0,3.5-1.4,3.9-3v-2.5
		C262.1,316.2,260.5,316.7,260.5,318.9z"/>
	<path id="XMLID_310_" class="st6" d="M282,310.8c-0.9-0.4-2.2-0.8-3.4-0.8c-1,0-2.5,0.4-2.5,2.1c0,1.2,0.8,1.7,2.8,2.6
		c2.2,1,3.9,2,3.9,4.4c0,3.3-2.4,4.3-4.6,4.3c-1.5,0-3.6-0.4-4.9-0.9l0.5-1.9c1.2,0.5,2.9,0.9,4.1,0.9c1.4,0,2.6-0.5,2.6-2.3
		c0-1.3-1.1-2-3.3-2.9c-2.1-0.9-3.4-1.7-3.4-4c0-3.2,2.7-3.9,4.7-3.9c1.4,0,3,0.3,3.9,0.7L282,310.8z"/>
	<path id="XMLID_312_" class="st6" d="M304.7,322.8l-1.9,0.4c-0.6-0.7-0.9-1.7-1-2.6c-0.8,1.7-2.7,2.7-4.6,2.7
		c-2.3,0-4.6-1.1-4.6-4.3c0-3.4,1.7-4.4,9-4.8v-1.2c0-1.7-0.3-2.8-2.9-2.8c-1.5,0-3,0.4-4.4,1.2l-0.5-1.9c1.3-0.7,3.3-1.2,5.2-1.2
		c3.7,0,4.8,1.6,4.8,4.7v5.8C303.6,320.5,304,322,304.7,322.8z M294.6,318.9c0,2.1,1.8,2.5,2.9,2.5c2.1,0,3.5-1.4,3.9-3v-2.5
		C296.2,316.2,294.6,316.7,294.6,318.9z"/>
	<path id="XMLID_315_" class="st6" d="M313.5,323.3c-3.4,0-5.6-2.4-5.6-7.2c0-4.2,1.5-7.9,6-7.9c1.7,0,3.4,0.8,4.3,1.8v-6.9l2.2-0.3
		v15.8c0,1.5,0.1,3.1,0.6,4.2l-2,0.4c-0.4-0.7-0.6-1.6-0.6-2.4C317.8,321.8,316.3,323.3,313.5,323.3L313.5,323.3z M318.3,314.1
		c0-0.7,0-1.4-0.1-2c-0.6-0.9-2-1.9-3.9-1.9c-2.9,0-4.1,2.3-4.1,5.9c0,3,1,5.3,3.7,5.3c2.5,0,3.8-1.7,4.2-2.7
		c0.1-0.5,0.1-1.2,0.1-1.8V314.1z"/>
	<path id="XMLID_318_" class="st6" d="M337.2,323.3c-3.4,0-5.6-2.4-5.6-7.2c0-4.2,1.5-7.9,6-7.9c1.7,0,3.4,0.8,4.3,1.8v-6.9l2.2-0.3
		v15.8c0,1.5,0.1,3.1,0.6,4.2l-2,0.4c-0.4-0.7-0.6-1.6-0.6-2.4C341.5,321.8,340,323.3,337.2,323.3L337.2,323.3z M342.1,314.1
		c0-0.7,0-1.4-0.2-2c-0.6-0.9-2-1.9-3.9-1.9c-2.9,0-4.1,2.3-4.1,5.9c0,3,1,5.3,3.7,5.3c2.5,0,3.8-1.7,4.2-2.7
		c0.1-0.5,0.2-1.2,0.2-1.8V314.1z"/>
	<path id="XMLID_321_" class="st6" d="M355.9,321.5c1.6,0,3.2-0.3,4.3-0.8l0.4,1.8c-1,0.5-2.9,1-4.9,1c-4.6,0-7.1-2.7-7.1-7.4
		c0-4.5,2.3-7.9,6.7-7.9c3.7,0,5.5,2.4,5.5,6.6v1.3h-10C350.8,319.9,352.9,321.5,355.9,321.5L355.9,321.5z M355.1,309.9
		c-2.4,0-3.8,2-4.1,4.4h7.8C358.7,311.4,357.7,309.9,355.1,309.9L355.1,309.9z"/>
	<path id="XMLID_324_" class="st6" d="M372.6,310.8c-0.9-0.4-2.2-0.8-3.4-0.8c-1,0-2.5,0.4-2.5,2.1c0,1.2,0.8,1.7,2.8,2.6
		c2.2,1,3.9,2,3.9,4.4c0,3.3-2.4,4.3-4.6,4.3c-1.5,0-3.6-0.4-4.9-0.9l0.5-1.9c1.2,0.5,2.9,0.9,4.1,0.9c1.4,0,2.6-0.5,2.6-2.3
		c0-1.3-1.1-2-3.3-2.9c-2.1-0.9-3.4-1.7-3.4-4c0-3.2,2.7-3.9,4.7-3.9c1.3,0,3,0.3,3.9,0.7L372.6,310.8z"/>
	<path id="XMLID_326_" class="st6" d="M380,305.9h-2.5v-2.3h2.5V305.9z M379.9,323h-2.3v-14.4h2.3V323z"/>
	<path id="XMLID_329_" class="st6" d="M390.5,327c3.2,0,4.2-2,4.2-4v-2.2c-0.7,1-2.2,2.5-4.7,2.5c-3.5,0-5.6-2.4-5.6-7.2
		c0-4.2,1.5-7.9,6-7.9c1.8,0,3.6,0.8,4.5,1.9c0-0.4,0.1-1.1,0.2-1.5h2c-0.1,0.6-0.2,1.9-0.2,2.7v12c0,3.8-2.8,5.6-6.4,5.6
		c-1.8,0-3.8-0.5-5.4-1.2l0.5-1.9C386.9,326.5,388.8,327,390.5,327z M394.7,314.1c0-0.7,0-1.4-0.1-2c-0.6-0.9-2-1.9-3.9-1.9
		c-2.9,0-4.1,2.3-4.1,5.9c0,3,1.1,5.3,3.7,5.3c2.5,0,3.8-1.7,4.2-2.7c0.1-0.5,0.1-1.2,0.1-1.8V314.1z"/>
	<path id="XMLID_332_" class="st6" d="M403.9,308.4c0.2,0.6,0.4,1.5,0.5,2.1c1.1-1.2,3.1-2.1,4.9-2.1c3.4,0,4.6,2.1,4.6,5.1v9.6
		h-2.2v-9c0-2-0.6-3.7-3-3.7c-1.5,0-3.2,0.8-4.2,1.9V323h-2.3v-11.5c0-0.9-0.1-2-0.3-2.8L403.9,308.4z"/>
	<path id="XMLID_334_" class="st6" d="M425.8,323v-19.9l2.2-0.3v7.9c0.6-0.9,2.1-2.4,4.7-2.4c3.4,0,5.6,2.4,5.6,7.2
		c0,4.2-1.5,7.9-6,7.9c-1.7,0-3.6-0.9-4.4-1.8l-0.3,1.5H425.8z M428,317.5c0,0.7,0,1.5,0.1,2c0.6,0.9,2,1.9,3.9,1.9
		c2.9,0,4.1-2.3,4.1-5.9c0-3-1.1-5.3-3.7-5.3c-2.5,0-3.8,1.7-4.2,2.7c-0.1,0.4-0.1,1.2-0.1,1.8V317.5z"/>
	<path id="XMLID_337_" class="st6" d="M449.2,321.5c1.6,0,3.2-0.3,4.3-0.8l0.4,1.8c-1,0.5-2.9,1-4.9,1c-4.6,0-7.1-2.7-7.1-7.4
		c0-4.5,2.3-7.9,6.7-7.9c3.7,0,5.5,2.4,5.5,6.6v1.3h-10C444.1,319.9,446.2,321.5,449.2,321.5L449.2,321.5z M448.4,309.9
		c-2.4,0-3.8,2-4.1,4.4h7.8C452,311.4,451,309.9,448.4,309.9L448.4,309.9z"/>
	<path id="XMLID_340_" class="st6" d="M456.6,310.5v-1.8h2.6V308c0-2.6,0.8-5.4,4.6-5.4c0.8,0,1.8,0.1,2.6,0.3l-0.4,1.9
		c-0.6-0.2-1.4-0.3-1.9-0.3c-1.9,0-2.7,0.8-2.7,3.5v0.6h3.5v1.8h-3.5V323h-2.2v-12.5H456.6z"/>
	<path id="XMLID_342_" class="st6" d="M480.5,315.8c0,3.8-1.6,7.7-6.8,7.7c-5.2,0-6.8-3.9-6.8-7.8c0-3.7,1.6-7.6,6.8-7.6
		C478.9,308.1,480.5,312,480.5,315.8L480.5,315.8z M473.7,321.6c2.9,0,4.4-2,4.4-5.8c0-3.7-1.5-5.7-4.4-5.7s-4.4,2-4.4,5.7
		C469.3,319.5,470.8,321.6,473.7,321.6L473.7,321.6z"/>
	<path id="XMLID_345_" class="st6" d="M491.9,308.4l-0.1,2c-1.8,0-3.8,0.7-4.6,2.5V323H485v-10.6c0-1.4-0.1-2.8-0.3-3.7l2-0.3
		c0.2,0.6,0.4,1.7,0.5,2.4C488,309.3,489.9,308.4,491.9,308.4z"/>
	<path id="XMLID_347_" class="st6" d="M501.4,321.5c1.6,0,3.2-0.3,4.3-0.8l0.4,1.8c-1,0.5-2.9,1-4.9,1c-4.6,0-7.1-2.7-7.1-7.4
		c0-4.5,2.3-7.9,6.7-7.9c3.7,0,5.5,2.4,5.5,6.6v1.3h-10C496.2,319.9,498.4,321.5,501.4,321.5L501.4,321.5z M500.5,309.9
		c-2.4,0-3.8,2-4.1,4.4h7.8C504.2,311.4,503.1,309.9,500.5,309.9L500.5,309.9z"/>
	<path id="XMLID_350_" class="st6" d="M512.8,323h-2.5v-2.8h2.5V323z"/>
	<path id="XMLID_352_" class="st6" d="M533.5,323h-2.2v-19.2h3l9.3,15.6v-15.6h2.2V323h-2.6l-9.8-16.5V323z"/>
	<path id="XMLID_354_" class="st6" d="M563.9,315.8c0,3.8-1.6,7.7-6.8,7.7c-5.2,0-6.8-3.9-6.8-7.8c0-3.7,1.6-7.6,6.8-7.6
		C562.3,308.1,563.9,312,563.9,315.8L563.9,315.8z M557.2,321.6c2.9,0,4.4-2,4.4-5.8c0-3.7-1.5-5.7-4.4-5.7s-4.4,2-4.4,5.7
		C552.7,319.5,554.2,321.6,557.2,321.6L557.2,321.6z"/>
	<path id="XMLID_357_" class="st6" d="M586.1,308.6h2.5l-4.8,14.4h-2.2l-4.1-11.5l-4,11.5h-2.2l-4.7-14.4h2.5l3.5,11.7l3.9-11.4h2.2
		l4,11.4L586.1,308.6z"/>
	<path id="XMLID_359_" class="st6" d="M592.3,326.7l-1.6-0.2c0.8-2.1,1.4-5.4,1.6-7.3l2.2,0.2C594.2,321.5,593.2,324.9,592.3,326.7z
		"/>
	<path id="XMLID_361_" class="st6" d="M608.3,323H606v-19.2h2.3V323z"/>
	<path id="XMLID_363_" class="st6" d="M631.4,322.8l-1.9,0.4c-0.6-0.7-0.9-1.7-1-2.6c-0.8,1.7-2.7,2.7-4.6,2.7
		c-2.3,0-4.6-1.1-4.6-4.3c0-3.4,1.8-4.4,9-4.8v-1.2c0-1.7-0.3-2.8-2.9-2.8c-1.5,0-3,0.4-4.4,1.2l-0.5-1.9c1.3-0.7,3.3-1.2,5.2-1.2
		c3.7,0,4.8,1.6,4.8,4.7v5.8C630.3,320.5,630.7,322,631.4,322.8z M621.3,318.9c0,2.1,1.8,2.5,2.9,2.5c2.1,0,3.5-1.4,3.9-3v-2.5
		C622.9,316.2,621.3,316.7,621.3,318.9z"/>
	<path id="XMLID_366_" class="st6" d="M642.5,308.3c2.1,0,3.3,0.9,3.9,2.2c1.3-1.3,3.4-2.2,5.2-2.2c3.4,0,4.6,2.1,4.6,5.1v9.6H654
		v-9c0-1.9-0.6-3.8-3-3.8c-1.3,0-3.1,0.8-4.1,1.8c0.1,0.6,0.2,1.4,0.2,2.3v8.6h-2.2v-9c0-2-0.6-3.7-3-3.7c-1.3,0-3,0.8-4,1.9V323
		h-2.3v-11.5c0-0.9-0.1-2-0.3-2.8l2.1-0.3c0.2,0.6,0.4,1.5,0.5,2.1C638.8,309.3,640.7,308.3,642.5,308.3z"/>
	<path id="XMLID_368_" class="st6" d="M670.6,305.9h-2.5v-2.3h2.5V305.9z M670.5,323h-2.3v-14.4h2.3V323z"/>
	<path id="XMLID_371_" class="st6" d="M677.5,308.4c0.2,0.6,0.5,1.5,0.5,2.1c1.1-1.2,3.1-2.1,4.9-2.1c3.4,0,4.6,2.1,4.6,5.1v9.6
		h-2.2v-9c0-2-0.6-3.7-3-3.7c-1.5,0-3.2,0.8-4.2,1.9V323h-2.3v-11.5c0-0.9-0.1-2-0.3-2.8L677.5,308.4z"/>
	<path id="XMLID_373_" class="st6" d="M698.1,321.3v1.7l-1.2,0.1c-2.3,0.1-3.7-0.7-3.7-3.3v-9.2h-2.4v-1.8h2.4v-3.4l2.2-0.5v3.9h3.2
		v1.8h-3.2v8.5c0,1.8,0.5,2.3,1.9,2.3H698.1z"/>
	<path id="XMLID_375_" class="st6" d="M708.5,321.5c1.6,0,3.2-0.3,4.3-0.8l0.4,1.8c-1,0.5-2.9,1-4.9,1c-4.6,0-7.1-2.7-7.1-7.4
		c0-4.5,2.3-7.9,6.7-7.9c3.7,0,5.5,2.4,5.5,6.6v1.3h-10C703.3,319.9,705.5,321.5,708.5,321.5L708.5,321.5z M707.6,309.9
		c-2.4,0-3.8,2-4.1,4.4h7.8C711.3,311.4,710.2,309.9,707.6,309.9L707.6,309.9z"/>
	<path id="XMLID_378_" class="st6" d="M724.9,308.4l-0.1,2c-1.8,0-3.8,0.7-4.6,2.5V323h-2.3v-10.6c0-1.4-0.1-2.8-0.3-3.7l2-0.3
		c0.2,0.6,0.4,1.7,0.5,2.4C720.9,309.3,722.9,308.4,724.9,308.4z"/>
	<path id="XMLID_380_" class="st6" d="M732.7,313.8v1.9h-6v-1.9H732.7z"/>
	<path id="XMLID_382_" class="st6" d="M68.2,354.5c1.6,0,3.2-0.3,4.3-0.8l0.4,1.8c-1,0.5-2.9,1-4.9,1c-4.6,0-7.1-2.7-7.1-7.4
		c0-4.5,2.3-7.9,6.7-7.9c3.7,0,5.5,2.4,5.5,6.6v1.3h-10C63.1,352.9,65.2,354.5,68.2,354.5L68.2,354.5z M67.4,342.9
		c-2.4,0-3.8,2-4.1,4.4h7.8C71,344.4,70,342.9,67.4,342.9L67.4,342.9z"/>
	<path id="XMLID_385_" class="st6" d="M84.9,343.8c-0.9-0.4-2.2-0.8-3.4-0.8c-1,0-2.5,0.4-2.5,2.1c0,1.2,0.8,1.7,2.8,2.6
		c2.2,1,3.9,2,3.9,4.4c0,3.3-2.4,4.3-4.6,4.3c-1.5,0-3.6-0.4-4.9-0.9l0.5-1.9c1.2,0.5,2.9,0.9,4.1,0.9c1.4,0,2.6-0.5,2.6-2.3
		c0-1.3-1.1-2-3.3-2.9c-2.1-0.9-3.4-1.7-3.4-4c0-3.2,2.7-3.9,4.7-3.9c1.4,0,3,0.3,3.9,0.7L84.9,343.8z"/>
	<path id="XMLID_387_" class="st6" d="M95.3,354.3v1.7l-1.2,0.1c-2.3,0.1-3.7-0.7-3.7-3.3v-9.2h-2.4v-1.8h2.4v-3.4l2.2-0.5v3.9h3.2
		v1.8h-3.2v8.5c0,1.8,0.4,2.3,1.9,2.3H95.3z"/>
	<path id="XMLID_389_" class="st6" d="M105.7,354.5c1.6,0,3.2-0.3,4.3-0.8l0.4,1.8c-1,0.5-2.9,1-4.9,1c-4.6,0-7.1-2.7-7.1-7.4
		c0-4.5,2.3-7.9,6.7-7.9c3.7,0,5.5,2.4,5.5,6.6v1.3h-10C100.6,352.9,102.7,354.5,105.7,354.5L105.7,354.5z M104.9,342.9
		c-2.4,0-3.8,2-4.1,4.4h7.8C108.6,344.4,107.5,342.9,104.9,342.9L104.9,342.9z"/>
	<path id="XMLID_392_" class="st6" d="M119.8,356.3c-3.4,0-5.6-2.4-5.6-7.2c0-4.2,1.5-7.9,6-7.9c1.7,0,3.4,0.8,4.3,1.8v-6.9l2.2-0.3
		v15.8c0,1.5,0.1,3.1,0.6,4.2l-2,0.4c-0.4-0.7-0.6-1.6-0.6-2.4C124.1,354.8,122.6,356.3,119.8,356.3L119.8,356.3z M124.6,347.1
		c0-0.7,0-1.4-0.1-2c-0.6-0.9-2-1.9-3.9-1.9c-2.9,0-4.1,2.3-4.1,5.9c0,3,1,5.3,3.7,5.3c2.5,0,3.8-1.7,4.2-2.7
		c0.1-0.5,0.1-1.2,0.1-1.8V347.1z"/>
	<path id="XMLID_395_" class="st6" d="M141.2,338.9h-2.5v-2.3h2.5V338.9z M141.1,356h-2.3v-14.4h2.3V356z"/>
	<path id="XMLID_398_" class="st6" d="M148.1,341.4c0.2,0.6,0.4,1.5,0.5,2.1c1.1-1.2,3.1-2.1,4.9-2.1c3.4,0,4.6,2.1,4.6,5.1v9.6
		h-2.2v-9c0-2-0.6-3.7-3-3.7c-1.5,0-3.2,0.8-4.2,1.9V356h-2.3v-11.5c0-0.9-0.1-2-0.3-2.8L148.1,341.4z"/>
	<path id="XMLID_400_" class="st6" d="M187.8,341.6h2.5l-4.8,14.4h-2.2l-4.1-11.5l-4,11.5H173l-4.7-14.4h2.5l3.5,11.7l3.9-11.4h2.2
		l4,11.4L187.8,341.6z"/>
	<path id="XMLID_402_" class="st6" d="M200.1,354.5c1.6,0,3.2-0.3,4.3-0.8l0.4,1.8c-1,0.5-2.9,1-4.9,1c-4.6,0-7.1-2.7-7.1-7.4
		c0-4.5,2.3-7.9,6.7-7.9c3.7,0,5.5,2.4,5.5,6.6v1.3h-10C195,352.9,197.1,354.5,200.1,354.5L200.1,354.5z M199.3,342.9
		c-2.4,0-3.8,2-4.1,4.4h7.8C203,344.4,201.9,342.9,199.3,342.9L199.3,342.9z"/>
	<path id="XMLID_405_" class="st6" d="M209.5,356v-19.9l2.2-0.3v7.9c0.6-0.9,2.1-2.4,4.7-2.4c3.4,0,5.6,2.4,5.6,7.2
		c0,4.2-1.5,7.9-6,7.9c-1.7,0-3.6-0.9-4.4-1.8l-0.3,1.5H209.5z M211.6,350.5c0,0.7,0,1.5,0.1,2c0.6,0.9,2,1.9,3.9,1.9
		c2.9,0,4.1-2.3,4.1-5.9c0-3-1.1-5.3-3.7-5.3c-2.5,0-3.8,1.7-4.2,2.7c-0.1,0.4-0.1,1.2-0.1,1.8V350.5z"/>
	<path id="XMLID_408_" class="st6" d="M233.8,343.8c-0.9-0.4-2.2-0.8-3.4-0.8c-1,0-2.5,0.4-2.5,2.1c0,1.2,0.8,1.7,2.8,2.6
		c2.2,1,3.9,2,3.9,4.4c0,3.3-2.4,4.3-4.6,4.3c-1.5,0-3.6-0.4-4.9-0.9l0.5-1.9c1.2,0.5,2.9,0.9,4.1,0.9c1.4,0,2.6-0.5,2.6-2.3
		c0-1.3-1.1-2-3.3-2.9c-2.1-0.9-3.4-1.7-3.4-4c0-3.2,2.7-3.9,4.7-3.9c1.4,0,3,0.3,3.9,0.7L233.8,343.8z"/>
	<path id="XMLID_410_" class="st6" d="M241.2,338.9h-2.5v-2.3h2.5V338.9z M241.1,356h-2.3v-14.4h2.3V356z"/>
	<path id="XMLID_413_" class="st6" d="M251.7,354.3v1.7l-1.2,0.1c-2.3,0.1-3.7-0.7-3.7-3.3v-9.2h-2.4v-1.8h2.4v-3.4l2.2-0.5v3.9h3.2
		v1.8H249v8.5c0,1.8,0.4,2.3,1.9,2.3H251.7z"/>
	<path id="XMLID_415_" class="st6" d="M262.1,354.5c1.6,0,3.2-0.3,4.3-0.8l0.4,1.8c-1,0.5-2.9,1-4.9,1c-4.6,0-7.1-2.7-7.1-7.4
		c0-4.5,2.3-7.9,6.7-7.9c3.7,0,5.5,2.4,5.5,6.6v1.3h-10C257,352.9,259.1,354.5,262.1,354.5L262.1,354.5z M261.3,342.9
		c-2.4,0-3.8,2-4.1,4.4h7.8C264.9,344.4,263.9,342.9,261.3,342.9L261.3,342.9z"/>
	<path id="XMLID_418_" class="st6" d="M282.9,356.3c-3.4,0-5.6-2.4-5.6-7.2c0-4.2,1.5-7.9,6-7.9c1.7,0,3.4,0.8,4.3,1.8v-6.9l2.2-0.3
		v15.8c0,1.5,0.1,3.1,0.6,4.2l-2,0.4c-0.4-0.7-0.6-1.6-0.6-2.4C287.2,354.8,285.7,356.3,282.9,356.3L282.9,356.3z M287.8,347.1
		c0-0.7,0-1.4-0.1-2c-0.6-0.9-2-1.9-3.9-1.9c-2.9,0-4.1,2.3-4.1,5.9c0,3,1,5.3,3.7,5.3c2.5,0,3.8-1.7,4.2-2.7
		c0.1-0.5,0.1-1.2,0.1-1.8V347.1z"/>
	<path id="XMLID_421_" class="st6" d="M301.6,354.5c1.6,0,3.2-0.3,4.3-0.8l0.4,1.8c-1,0.5-2.9,1-4.9,1c-4.6,0-7.1-2.7-7.1-7.4
		c0-4.5,2.3-7.9,6.7-7.9c3.7,0,5.5,2.4,5.5,6.6v1.3h-10C296.5,352.9,298.6,354.5,301.6,354.5L301.6,354.5z M300.8,342.9
		c-2.4,0-3.8,2-4.1,4.4h7.8C304.4,344.4,303.4,342.9,300.8,342.9L300.8,342.9z"/>
	<path id="XMLID_452_" class="st6" d="M318.3,343.8c-0.9-0.4-2.2-0.8-3.4-0.8c-1,0-2.5,0.4-2.5,2.1c0,1.2,0.8,1.7,2.8,2.6
		c2.2,1,3.9,2,3.9,4.4c0,3.3-2.4,4.3-4.6,4.3c-1.5,0-3.6-0.4-4.9-0.9l0.5-1.9c1.2,0.5,2.9,0.9,4.1,0.9c1.4,0,2.6-0.5,2.6-2.3
		c0-1.3-1.1-2-3.3-2.9c-2.1-0.9-3.4-1.7-3.4-4c0-3.2,2.7-3.9,4.7-3.9c1.3,0,3,0.3,3.9,0.7L318.3,343.8z"/>
	<path id="XMLID_454_" class="st6" d="M325.7,338.9h-2.5v-2.3h2.5V338.9z M325.6,356h-2.3v-14.4h2.3V356z"/>
	<path id="XMLID_457_" class="st6" d="M336.2,360c3.2,0,4.2-2,4.2-4v-2.2c-0.6,1-2.2,2.5-4.7,2.5c-3.5,0-5.6-2.4-5.6-7.2
		c0-4.2,1.5-7.9,6-7.9c1.8,0,3.6,0.8,4.5,1.9c0-0.4,0.1-1.1,0.2-1.5h2c-0.1,0.6-0.2,1.9-0.2,2.7v12c0,3.8-2.8,5.6-6.4,5.6
		c-1.8,0-3.8-0.5-5.4-1.2l0.5-1.9C332.6,359.5,334.5,360,336.2,360z M340.4,347.1c0-0.7,0-1.4-0.1-2c-0.6-0.9-2-1.9-3.9-1.9
		c-2.9,0-4.1,2.3-4.1,5.9c0,3,1.1,5.3,3.7,5.3c2.5,0,3.8-1.7,4.2-2.7c0.1-0.5,0.1-1.2,0.1-1.8V347.1z"/>
	<path id="XMLID_460_" class="st6" d="M349.6,341.4c0.2,0.6,0.5,1.5,0.5,2.1c1.1-1.2,3.1-2.1,4.9-2.1c3.4,0,4.6,2.1,4.6,5.1v9.6
		h-2.2v-9c0-2-0.6-3.7-3-3.7c-1.5,0-3.2,0.8-4.2,1.9V356h-2.3v-11.5c0-0.9-0.1-2-0.3-2.8L349.6,341.4z"/>
	<path id="XMLID_462_" class="st6" d="M382.4,355.8l-1.9,0.4c-0.6-0.7-0.9-1.7-1-2.6c-0.8,1.7-2.7,2.7-4.6,2.7
		c-2.3,0-4.6-1.1-4.6-4.3c0-3.4,1.8-4.4,9-4.8v-1.2c0-1.7-0.3-2.8-2.9-2.8c-1.5,0-3,0.4-4.4,1.2l-0.5-1.9c1.3-0.7,3.3-1.2,5.2-1.2
		c3.7,0,4.8,1.6,4.8,4.7v5.8C381.3,353.5,381.7,355,382.4,355.8z M372.4,351.9c0,2.1,1.8,2.5,2.9,2.5c2.1,0,3.5-1.4,3.9-3v-2.5
		C373.9,349.2,372.4,349.7,372.4,351.9z"/>
	<path id="XMLID_465_" class="st6" d="M388.3,341.4c0.2,0.6,0.4,1.5,0.5,2.1c1.1-1.2,3.1-2.1,4.9-2.1c3.4,0,4.6,2.1,4.6,5.1v9.6H396
		v-9c0-2-0.6-3.7-3-3.7c-1.5,0-3.2,0.8-4.2,1.9V356h-2.3v-11.5c0-0.9-0.1-2-0.3-2.8L388.3,341.4z"/>
	<path id="XMLID_467_" class="st6" d="M408.2,356.3c-3.4,0-5.6-2.4-5.6-7.2c0-4.2,1.5-7.9,6-7.9c1.7,0,3.4,0.8,4.3,1.8v-6.9l2.2-0.3
		v15.8c0,1.5,0.1,3.1,0.6,4.2l-2,0.4c-0.4-0.7-0.6-1.6-0.6-2.4C412.5,354.8,411,356.3,408.2,356.3L408.2,356.3z M413,347.1
		c0-0.7,0-1.4-0.2-2c-0.6-0.9-2-1.9-3.9-1.9c-2.9,0-4.1,2.3-4.1,5.9c0,3,1,5.3,3.7,5.3c2.5,0,3.8-1.7,4.2-2.7
		c0.1-0.5,0.2-1.2,0.2-1.8V347.1z"/>
	<path id="XMLID_470_" class="st6" d="M431.7,356.4c-3.4,0-4.6-2.1-4.6-5.1v-9.7h2.2v9.1c0,2,0.6,3.7,3,3.7c1.5,0,3.2-0.8,4.2-1.9
		v-11h2.3v10.8c0,1.3,0.1,2.5,0.4,3.5l-2.1,0.3c-0.2-0.6-0.4-1.5-0.5-2C435.5,355.5,433.6,356.4,431.7,356.4z"/>
	<path id="XMLID_472_" class="st6" d="M451.6,343.8c-0.9-0.4-2.2-0.8-3.4-0.8c-1,0-2.5,0.4-2.5,2.1c0,1.2,0.8,1.7,2.8,2.6
		c2.2,1,3.9,2,3.9,4.4c0,3.3-2.4,4.3-4.6,4.3c-1.5,0-3.6-0.4-4.9-0.9l0.5-1.9c1.2,0.5,2.9,0.9,4.1,0.9c1.4,0,2.6-0.5,2.6-2.3
		c0-1.3-1.1-2-3.3-2.9c-2.1-0.9-3.4-1.7-3.4-4c0-3.2,2.7-3.9,4.7-3.9c1.3,0,3,0.3,3.9,0.7L451.6,343.8z"/>
	<path id="XMLID_474_" class="st6" d="M463,354.5c1.6,0,3.2-0.3,4.3-0.8l0.4,1.8c-1,0.5-2.9,1-4.9,1c-4.6,0-7.1-2.7-7.1-7.4
		c0-4.5,2.3-7.9,6.7-7.9c3.7,0,5.5,2.4,5.5,6.6v1.3h-10C457.8,352.9,460,354.5,463,354.5L463,354.5z M462.1,342.9
		c-2.4,0-3.8,2-4.1,4.4h7.8C465.8,344.4,464.7,342.9,462.1,342.9L462.1,342.9z"/>
	<path id="XMLID_477_" class="st6" d="M479.4,341.4l-0.1,2c-1.8,0-3.8,0.7-4.6,2.5V356h-2.3v-10.6c0-1.4-0.1-2.8-0.3-3.7l2-0.3
		c0.2,0.6,0.4,1.7,0.5,2.4C475.4,342.3,477.4,341.4,479.4,341.4z"/>
	<path id="XMLID_479_" class="st6" d="M495.5,354.5c1.6,0,3.2-0.3,4.3-0.8l0.4,1.8c-1,0.5-2.9,1-4.9,1c-4.6,0-7.1-2.7-7.1-7.4
		c0-4.5,2.3-7.9,6.7-7.9c3.7,0,5.5,2.4,5.5,6.6v1.3h-10C490.4,352.9,492.5,354.5,495.5,354.5L495.5,354.5z M494.7,342.9
		c-2.4,0-3.8,2-4.1,4.4h7.8C498.4,344.4,497.3,342.9,494.7,342.9L494.7,342.9z"/>
	<path id="XMLID_482_" class="st6" d="M503.2,341.6h2.6l3.7,5.7l3.7-5.7h2.6l-5,7.1l5.1,7.3h-2.7l-3.8-5.7l-3.7,5.7h-2.5l4.9-7.2
		L503.2,341.6z"/>
	<path id="XMLID_484_" class="st6" d="M526.4,341.2c3.4,0,5.6,2.4,5.6,7.2c0,4.2-1.5,7.9-6,7.9c-1.7,0-3.4-0.8-4.3-1.8v7.2h-2.2
		v-17.2c0-0.9-0.1-2-0.3-2.8l2-0.3c0.2,0.5,0.4,1.5,0.5,2.3C522.2,342.7,523.7,341.2,526.4,341.2L526.4,341.2z M521.5,350.5
		c0,0.7,0,1.5,0.1,2c0.6,0.9,2,1.9,3.9,1.9c2.9,0,4.1-2.3,4.1-5.9c0-3-1-5.3-3.7-5.3c-2.5,0-3.8,1.7-4.2,2.7
		c-0.1,0.4-0.1,1.2-0.1,1.8V350.5z"/>
	<path id="XMLID_487_" class="st6" d="M542.7,354.5c1.6,0,3.2-0.3,4.3-0.8l0.4,1.8c-1,0.5-2.9,1-4.9,1c-4.6,0-7.1-2.7-7.1-7.4
		c0-4.5,2.3-7.9,6.7-7.9c3.7,0,5.5,2.4,5.5,6.6v1.3h-10C537.6,352.9,539.7,354.5,542.7,354.5L542.7,354.5z M541.9,342.9
		c-2.4,0-3.8,2-4.1,4.4h7.8C545.6,344.4,544.5,342.9,541.9,342.9L541.9,342.9z"/>
	<path id="XMLID_490_" class="st6" d="M559.1,341.4l-0.1,2c-1.8,0-3.8,0.7-4.6,2.5V356h-2.3v-10.6c0-1.4-0.1-2.8-0.3-3.7l2-0.3
		c0.2,0.6,0.5,1.7,0.5,2.4C555.2,342.3,557.1,341.4,559.1,341.4z"/>
	<path id="XMLID_492_" class="st6" d="M564.5,338.9H562v-2.3h2.5V338.9z M564.4,356h-2.3v-14.4h2.3V356z"/>
	<path id="XMLID_495_" class="st6" d="M576.1,354.5c1.6,0,3.2-0.3,4.3-0.8l0.4,1.8c-1,0.5-2.9,1-4.9,1c-4.6,0-7.1-2.7-7.1-7.4
		c0-4.5,2.3-7.9,6.7-7.9c3.7,0,5.5,2.4,5.5,6.6v1.3h-10C570.9,352.9,573.1,354.5,576.1,354.5L576.1,354.5z M575.2,342.9
		c-2.4,0-3.8,2-4.1,4.4h7.8C578.9,344.4,577.8,342.9,575.2,342.9L575.2,342.9z"/>
	<path id="XMLID_498_" class="st6" d="M587.2,341.4c0.2,0.6,0.4,1.5,0.5,2.1c1.1-1.2,3.1-2.1,4.9-2.1c3.4,0,4.6,2.1,4.6,5.1v9.6H595
		v-9c0-2-0.6-3.7-3-3.7c-1.5,0-3.2,0.8-4.2,1.9V356h-2.3v-11.5c0-0.9-0.1-2-0.3-2.8L587.2,341.4z"/>
	<path id="XMLID_500_" class="st6" d="M601.5,349c0-4.2,1.7-7.8,6.9-7.8c1.3,0,2.5,0.2,3.4,0.5l-0.4,1.9c-0.9-0.4-2-0.5-2.9-0.5
		c-3.5,0-4.7,2.6-4.7,5.9c0,3.1,1.3,5.5,4.8,5.5c1,0,2.2-0.2,3-0.5l0.3,2c-0.8,0.3-2.1,0.5-3.5,0.5
		C603.1,356.4,601.5,352.8,601.5,349L601.5,349z"/>
	<path id="XMLID_502_" class="st6" d="M622.1,354.5c1.6,0,3.2-0.3,4.3-0.8l0.4,1.8c-1,0.5-2.9,1-4.9,1c-4.6,0-7.1-2.7-7.1-7.4
		c0-4.5,2.3-7.9,6.7-7.9c3.7,0,5.5,2.4,5.5,6.6v1.3h-10C616.9,352.9,619.1,354.5,622.1,354.5L622.1,354.5z M621.2,342.9
		c-2.4,0-3.8,2-4.1,4.4h7.8C624.9,344.4,623.8,342.9,621.2,342.9L621.2,342.9z"/>
	<path id="XMLID_505_" class="st6" d="M642.9,356.3c-3.4,0-5.6-2.4-5.6-7.2c0-4.2,1.5-7.9,6-7.9c1.7,0,3.4,0.8,4.3,1.8v-6.9l2.2-0.3
		v15.8c0,1.5,0.1,3.1,0.6,4.2l-2,0.4c-0.4-0.7-0.6-1.6-0.6-2.4C647.2,354.8,645.7,356.3,642.9,356.3L642.9,356.3z M647.7,347.1
		c0-0.7,0-1.4-0.2-2c-0.6-0.9-2-1.9-3.9-1.9c-2.9,0-4.1,2.3-4.1,5.9c0,3,1,5.3,3.7,5.3c2.5,0,3.8-1.7,4.2-2.7
		c0.1-0.5,0.2-1.2,0.2-1.8V347.1z"/>
	<path id="XMLID_508_" class="st6" d="M661.6,354.5c1.6,0,3.2-0.3,4.3-0.8l0.4,1.8c-1,0.5-2.9,1-4.9,1c-4.6,0-7.1-2.7-7.1-7.4
		c0-4.5,2.3-7.9,6.7-7.9c3.7,0,5.5,2.4,5.5,6.6v1.3h-10C656.4,352.9,658.6,354.5,661.6,354.5L661.6,354.5z M660.7,342.9
		c-2.4,0-3.8,2-4.1,4.4h7.8C664.4,344.4,663.3,342.9,660.7,342.9L660.7,342.9z"/>
	<path id="XMLID_511_" class="st6" d="M678.3,343.8c-0.9-0.4-2.2-0.8-3.4-0.8c-1,0-2.5,0.4-2.5,2.1c0,1.2,0.8,1.7,2.8,2.6
		c2.2,1,3.9,2,3.9,4.4c0,3.3-2.4,4.3-4.6,4.3c-1.5,0-3.6-0.4-4.9-0.9l0.5-1.9c1.2,0.5,2.9,0.9,4.1,0.9c1.4,0,2.6-0.5,2.6-2.3
		c0-1.3-1.1-2-3.3-2.9c-2.1-0.9-3.4-1.7-3.4-4c0-3.2,2.7-3.9,4.7-3.9c1.3,0,3,0.3,3.9,0.7L678.3,343.8z"/>
	<path id="XMLID_513_" class="st6" d="M685.7,338.9h-2.5v-2.3h2.5V338.9z M685.6,356h-2.3v-14.4h2.3V356z"/>
	<path id="XMLID_516_" class="st6" d="M696.1,360c3.2,0,4.2-2,4.2-4v-2.2c-0.7,1-2.2,2.5-4.7,2.5c-3.5,0-5.6-2.4-5.6-7.2
		c0-4.2,1.5-7.9,6-7.9c1.8,0,3.6,0.8,4.5,1.9c0-0.4,0.1-1.1,0.2-1.5h2c-0.1,0.6-0.2,1.9-0.2,2.7v12c0,3.8-2.8,5.6-6.4,5.6
		c-1.8,0-3.8-0.5-5.4-1.2l0.5-1.9C692.6,359.5,694.5,360,696.1,360z M700.4,347.1c0-0.7,0-1.4-0.1-2c-0.6-0.9-2-1.9-3.9-1.9
		c-2.9,0-4.1,2.3-4.1,5.9c0,3,1.1,5.3,3.7,5.3c2.5,0,3.8-1.7,4.2-2.7c0.1-0.5,0.1-1.2,0.1-1.8V347.1z"/>
	<path id="XMLID_519_" class="st6" d="M709.5,341.4c0.2,0.6,0.5,1.5,0.5,2.1c1.1-1.2,3.1-2.1,4.9-2.1c3.4,0,4.6,2.1,4.6,5.1v9.6
		h-2.2v-9c0-2-0.6-3.7-3-3.7c-1.5,0-3.2,0.8-4.2,1.9V356h-2.3v-11.5c0-0.9-0.1-2-0.3-2.8L709.5,341.4z"/>
	<path id="XMLID_521_" class="st6" d="M726.9,356h-2.5v-2.8h2.5V356z"/>
	<path id="XMLID_523_" class="st6" d="M741,356h-2.3v-19.2h2.3V356z"/>
	<path id="XMLID_525_" class="st6" d="M56.5,382c0-4.2,1.7-7.8,6.9-7.8c1.3,0,2.5,0.2,3.4,0.5l-0.4,1.9c-0.9-0.4-2-0.5-2.9-0.5
		c-3.5,0-4.7,2.6-4.7,5.9c0,3.1,1.3,5.5,4.8,5.5c1,0,2.2-0.2,3-0.5l0.3,2c-0.7,0.3-2.1,0.5-3.5,0.5C58.1,389.4,56.5,385.8,56.5,382
		L56.5,382z"/>
	<path id="XMLID_527_" class="st6" d="M81.5,388.8l-1.9,0.4c-0.6-0.7-0.9-1.7-1-2.6c-0.8,1.7-2.7,2.7-4.6,2.7
		c-2.3,0-4.6-1.1-4.6-4.3c0-3.4,1.7-4.4,9-4.8v-1.2c0-1.7-0.3-2.8-2.9-2.8c-1.5,0-3,0.4-4.4,1.2l-0.5-1.9c1.3-0.7,3.3-1.2,5.2-1.2
		c3.7,0,4.8,1.6,4.8,4.7v5.8C80.5,386.5,80.8,388,81.5,388.8z M71.5,384.9c0,2.1,1.8,2.5,2.9,2.5c2.1,0,3.5-1.4,3.9-3v-2.5
		C73,382.2,71.5,382.7,71.5,384.9z"/>
	<path id="XMLID_530_" class="st6" d="M87.4,374.4c0.2,0.6,0.4,1.5,0.5,2.1c1.1-1.2,3.1-2.1,4.9-2.1c3.4,0,4.6,2.1,4.6,5.1v9.6h-2.2
		v-9c0-2-0.6-3.7-3-3.7c-1.5,0-3.2,0.8-4.2,1.9V389h-2.3v-11.5c0-0.9-0.1-2-0.3-2.8L87.4,374.4z"/>
	<path id="XMLID_532_" class="st6" d="M114.1,389.3c-3.4,0-5.6-2.4-5.6-7.2c0-4.2,1.5-7.9,6-7.9c1.7,0,3.4,0.8,4.3,1.8v-6.9l2.2-0.3
		v15.8c0,1.5,0.1,3.1,0.6,4.2l-2,0.4c-0.4-0.7-0.6-1.6-0.6-2.4C118.4,387.8,116.9,389.3,114.1,389.3L114.1,389.3z M118.9,380.1
		c0-0.7,0-1.4-0.2-2c-0.6-0.9-2-1.9-3.9-1.9c-2.9,0-4.1,2.3-4.1,5.9c0,3,1,5.3,3.7,5.3c2.5,0,3.8-1.7,4.2-2.7
		c0.1-0.5,0.2-1.2,0.2-1.8V380.1z"/>
	<path id="XMLID_535_" class="st6" d="M132.7,387.5c1.6,0,3.2-0.3,4.3-0.8l0.4,1.8c-1,0.5-2.9,1-4.9,1c-4.6,0-7.1-2.7-7.1-7.4
		c0-4.5,2.3-7.9,6.7-7.9c3.7,0,5.5,2.4,5.5,6.6v1.3h-10C127.6,385.9,129.7,387.5,132.7,387.5L132.7,387.5z M131.9,375.9
		c-2.4,0-3.8,2-4.1,4.4h7.8C135.6,377.4,134.5,375.9,131.9,375.9L131.9,375.9z"/>
	<path id="XMLID_538_" class="st6" d="M149.5,376.8c-0.9-0.4-2.2-0.8-3.4-0.8c-1,0-2.5,0.4-2.5,2.1c0,1.2,0.8,1.7,2.8,2.6
		c2.2,1,3.9,2,3.9,4.4c0,3.3-2.4,4.3-4.6,4.3c-1.5,0-3.6-0.4-4.9-0.9l0.5-1.9c1.2,0.5,2.9,0.9,4.1,0.9c1.4,0,2.6-0.5,2.6-2.3
		c0-1.3-1.1-2-3.3-2.9c-2.1-0.9-3.4-1.7-3.4-4c0-3.2,2.7-3.9,4.7-3.9c1.4,0,3,0.3,3.9,0.7L149.5,376.8z"/>
	<path id="XMLID_540_" class="st6" d="M156.8,371.9h-2.5v-2.3h2.5V371.9z M156.7,389h-2.3v-14.4h2.3V389z"/>
	<path id="XMLID_543_" class="st6" d="M167.3,393c3.2,0,4.2-2,4.2-4v-2.2c-0.6,1-2.2,2.5-4.7,2.5c-3.5,0-5.6-2.4-5.6-7.2
		c0-4.2,1.5-7.9,6-7.9c1.8,0,3.6,0.8,4.5,1.9c0-0.4,0.1-1.1,0.2-1.5h2c-0.1,0.6-0.2,1.9-0.2,2.7v12c0,3.8-2.8,5.6-6.4,5.6
		c-1.8,0-3.8-0.5-5.4-1.2l0.5-1.9C163.7,392.5,165.7,393,167.3,393z M171.5,380.1c0-0.7,0-1.4-0.1-2c-0.6-0.9-2-1.9-3.9-1.9
		c-2.9,0-4.1,2.3-4.1,5.9c0,3,1.1,5.3,3.7,5.3c2.5,0,3.8-1.7,4.2-2.7c0.1-0.5,0.1-1.2,0.1-1.8V380.1z"/>
	<path id="XMLID_546_" class="st6" d="M180.7,374.4c0.2,0.6,0.4,1.5,0.5,2.1c1.1-1.2,3.1-2.1,4.9-2.1c3.4,0,4.6,2.1,4.6,5.1v9.6
		h-2.2v-9c0-2-0.6-3.7-3-3.7c-1.5,0-3.2,0.8-4.2,1.9V389H179v-11.5c0-0.9-0.1-2-0.3-2.8L180.7,374.4z"/>
	<path id="XMLID_548_" class="st6" d="M209.7,374.2c3.4,0,5.6,2.4,5.6,7.2c0,4.2-1.5,7.9-6,7.9c-1.7,0-3.4-0.8-4.3-1.8v7.2h-2.2
		v-17.2c0-0.9-0.1-2-0.3-2.8l2-0.3c0.2,0.5,0.4,1.5,0.5,2.3C205.6,375.7,207.1,374.2,209.7,374.2L209.7,374.2z M204.9,383.5
		c0,0.7,0,1.5,0.1,2c0.6,0.9,2,1.9,3.9,1.9c2.9,0,4.1-2.3,4.1-5.9c0-3-1-5.3-3.7-5.3c-2.5,0-3.8,1.7-4.2,2.7
		c-0.1,0.4-0.1,1.2-0.1,1.8V383.5z"/>
	<path id="XMLID_551_" class="st6" d="M226.8,374.4l-0.1,2c-1.8,0-3.8,0.7-4.6,2.5V389h-2.3v-10.6c0-1.4-0.1-2.8-0.3-3.7l2-0.3
		c0.2,0.6,0.4,1.7,0.5,2.4C222.8,375.3,224.8,374.4,226.8,374.4z"/>
	<path id="XMLID_553_" class="st6" d="M242.5,381.8c0,3.8-1.6,7.7-6.8,7.7c-5.2,0-6.8-3.9-6.8-7.8c0-3.7,1.6-7.6,6.8-7.6
		C240.9,374.1,242.5,378,242.5,381.8L242.5,381.8z M235.7,387.6c2.9,0,4.4-2,4.4-5.8c0-3.7-1.5-5.7-4.4-5.7s-4.4,2-4.4,5.7
		C231.3,385.5,232.8,387.6,235.7,387.6L235.7,387.6z"/>
	<path id="XMLID_556_" class="st6" d="M251.6,389.3c-3.4,0-5.6-2.4-5.6-7.2c0-4.2,1.5-7.9,6-7.9c1.7,0,3.4,0.8,4.3,1.8v-6.9l2.2-0.3
		v15.8c0,1.5,0.1,3.1,0.6,4.2l-2,0.4c-0.4-0.7-0.6-1.6-0.6-2.4C255.9,387.8,254.4,389.3,251.6,389.3L251.6,389.3z M256.4,380.1
		c0-0.7,0-1.4-0.1-2c-0.6-0.9-2-1.9-3.9-1.9c-2.9,0-4.1,2.3-4.1,5.9c0,3,1,5.3,3.7,5.3c2.5,0,3.8-1.7,4.2-2.7
		c0.1-0.5,0.1-1.2,0.1-1.8V380.1z"/>
	<path id="XMLID_559_" class="st6" d="M268.4,389.4c-3.4,0-4.6-2.1-4.6-5.1v-9.7h2.2v9.1c0,2,0.6,3.7,3,3.7c1.5,0,3.2-0.8,4.2-1.9
		v-11h2.3v10.8c0,1.3,0.1,2.5,0.4,3.5l-2.1,0.3c-0.2-0.6-0.4-1.5-0.4-2C272.1,388.5,270.2,389.4,268.4,389.4z"/>
	<path id="XMLID_561_" class="st6" d="M280,382c0-4.2,1.7-7.8,6.9-7.8c1.3,0,2.5,0.2,3.4,0.5l-0.4,1.9c-0.9-0.4-2-0.5-2.9-0.5
		c-3.5,0-4.7,2.6-4.7,5.9c0,3.1,1.3,5.5,4.8,5.5c1,0,2.2-0.2,3-0.5l0.3,2c-0.7,0.3-2.1,0.5-3.5,0.5C281.6,389.4,280,385.8,280,382
		L280,382z"/>
	<path id="XMLID_563_" class="st6" d="M299.5,387.3v1.7l-1.2,0.1c-2.3,0.1-3.7-0.7-3.7-3.3v-9.2h-2.4v-1.8h2.4v-3.4l2.2-0.5v3.9h3.2
		v1.8h-3.2v8.5c0,1.8,0.4,2.3,1.9,2.3H299.5z"/>
	<path id="XMLID_565_" class="st6" d="M310.9,376.8c-0.9-0.4-2.2-0.8-3.4-0.8c-1,0-2.5,0.4-2.5,2.1c0,1.2,0.8,1.7,2.8,2.6
		c2.2,1,3.9,2,3.9,4.4c0,3.3-2.4,4.3-4.6,4.3c-1.5,0-3.6-0.4-4.9-0.9l0.5-1.9c1.2,0.5,2.9,0.9,4.1,0.9c1.4,0,2.6-0.5,2.6-2.3
		c0-1.3-1.1-2-3.3-2.9c-2.1-0.9-3.4-1.7-3.4-4c0-3.2,2.7-3.9,4.7-3.9c1.4,0,3,0.3,3.9,0.7L310.9,376.8z"/>
	<path id="XMLID_567_" class="st6" d="M322.7,389v-19.9l2.2-0.3v7.9c0.6-0.9,2.1-2.4,4.7-2.4c3.4,0,5.6,2.4,5.6,7.2
		c0,4.2-1.5,7.9-6,7.9c-1.7,0-3.6-0.9-4.4-1.8l-0.3,1.5H322.7z M324.8,383.5c0,0.7,0,1.5,0.1,2c0.6,0.9,2,1.9,3.9,1.9
		c2.9,0,4.1-2.3,4.1-5.9c0-3-1.1-5.3-3.7-5.3c-2.5,0-3.8,1.7-4.2,2.7c-0.1,0.4-0.1,1.2-0.1,1.8V383.5z"/>
	<path id="XMLID_570_" class="st6" d="M348.2,374.6h2.5c-1.2,3.7-3.4,9.9-5,13.9c-1.3,3.2-2.6,5.4-3.7,6.5l-2.2-1
		c1.1-1,2.5-3,3.6-5.8l-5.7-13.6h2.5l4.4,11.1C345.9,382.2,347.3,377.7,348.2,374.6z"/>
	<path id="XMLID_572_" class="st7" d="M360.9,389v-19.2h4.5c4.6,0,7.7,1.3,7.7,5.6c0,4.5-2.9,6.3-6.6,6.3h-3.3v7.3H360.9z
		 M365.9,379.8c2.5,0,4.8-0.7,4.8-4.2c0-2.8-2-3.7-5.2-3.7h-2.3v7.9H365.9z"/>
	<path id="XMLID_575_" class="st7" d="M384.4,374.3c3.4,0,4.6,2.1,4.6,5.1v9.6h-2.2v-9c0-2-0.6-3.7-3-3.7c-1.5,0-3.3,0.8-4.2,1.9
		V389h-2.3v-19.9l2.3-0.3v7.7C380.7,375.2,382.5,374.3,384.4,374.3z"/>
	<path id="XMLID_577_" class="st7" d="M406.9,381.8c0,3.8-1.6,7.7-6.8,7.7c-5.2,0-6.8-3.9-6.8-7.8c0-3.7,1.6-7.6,6.8-7.6
		C405.3,374.1,406.9,378,406.9,381.8L406.9,381.8z M400.1,387.6c2.9,0,4.4-2,4.4-5.8c0-3.7-1.5-5.7-4.4-5.7s-4.4,2-4.4,5.7
		C395.7,385.5,397.2,387.6,400.1,387.6L400.1,387.6z"/>
	<path id="XMLID_580_" class="st7" d="M416.7,387.3v1.7l-1.2,0.1c-2.3,0.1-3.7-0.7-3.7-3.3v-9.2h-2.4v-1.8h2.4v-3.4l2.2-0.5v3.9h3.2
		v1.8H414v8.5c0,1.8,0.5,2.3,1.9,2.3H416.7z"/>
	<path id="XMLID_582_" class="st7" d="M433.4,381.8c0,3.8-1.6,7.7-6.8,7.7c-5.2,0-6.8-3.9-6.8-7.8c0-3.7,1.6-7.6,6.8-7.6
		C431.8,374.1,433.4,378,433.4,381.8L433.4,381.8z M426.6,387.6c2.9,0,4.4-2,4.4-5.8c0-3.7-1.5-5.7-4.4-5.7s-4.4,2-4.4,5.7
		C422.2,385.5,423.7,387.6,426.6,387.6L426.6,387.6z"/>
	<path id="XMLID_585_" class="st7" d="M445.2,376.8c-0.9-0.4-2.2-0.8-3.4-0.8c-1,0-2.5,0.4-2.5,2.1c0,1.2,0.8,1.7,2.8,2.6
		c2.2,1,3.9,2,3.9,4.4c0,3.3-2.4,4.3-4.6,4.3c-1.5,0-3.6-0.4-4.9-0.9l0.5-1.9c1.2,0.5,2.9,0.9,4.1,0.9c1.4,0,2.6-0.5,2.6-2.3
		c0-1.3-1.1-2-3.3-2.9c-2.1-0.9-3.4-1.7-3.4-4c0-3.2,2.7-3.9,4.7-3.9c1.3,0,3,0.3,3.9,0.7L445.2,376.8z"/>
	<path id="XMLID_587_" class="st7" d="M457.3,374.3c3.4,0,4.6,2.1,4.6,5.1v9.6h-2.2v-9c0-2-0.6-3.7-3-3.7c-1.5,0-3.3,0.8-4.2,1.9
		V389h-2.3v-19.9l2.3-0.3v7.7C453.6,375.2,455.4,374.3,457.3,374.3z"/>
	<path id="XMLID_589_" class="st7" d="M479.8,381.8c0,3.8-1.6,7.7-6.8,7.7c-5.2,0-6.8-3.9-6.8-7.8c0-3.7,1.6-7.6,6.8-7.6
		C478.2,374.1,479.8,378,479.8,381.8L479.8,381.8z M473,387.6c2.9,0,4.4-2,4.4-5.8c0-3.7-1.5-5.7-4.4-5.7s-4.4,2-4.4,5.7
		C468.6,385.5,470.1,387.6,473,387.6L473,387.6z"/>
	<path id="XMLID_592_" class="st7" d="M491.3,374.2c3.4,0,5.6,2.4,5.6,7.2c0,4.2-1.5,7.9-6,7.9c-1.7,0-3.4-0.8-4.3-1.8v7.2h-2.2
		v-17.2c0-0.9-0.1-2-0.3-2.8l2-0.3c0.2,0.5,0.4,1.5,0.5,2.3C487.1,375.7,488.6,374.2,491.3,374.2L491.3,374.2z M486.4,383.5
		c0,0.7,0,1.5,0.1,2c0.6,0.9,2,1.9,3.9,1.9c2.9,0,4.1-2.3,4.1-5.9c0-3-1-5.3-3.7-5.3c-2.5,0-3.8,1.7-4.2,2.7
		c-0.1,0.4-0.1,1.2-0.1,1.8V383.5z"/>
	<path id="XMLID_595_" class="st6" d="M518.9,388.8l-1.9,0.4c-0.6-0.7-0.9-1.7-1-2.6c-0.8,1.7-2.7,2.7-4.6,2.7
		c-2.3,0-4.6-1.1-4.6-4.3c0-3.4,1.8-4.4,9-4.8v-1.2c0-1.7-0.3-2.8-2.9-2.8c-1.5,0-3,0.4-4.4,1.2l-0.5-1.9c1.3-0.7,3.3-1.2,5.2-1.2
		c3.7,0,4.8,1.6,4.8,4.7v5.8C517.8,386.5,518.2,388,518.9,388.8z M508.8,384.9c0,2.1,1.8,2.5,2.9,2.5c2.1,0,3.5-1.4,3.9-3v-2.5
		C510.4,382.2,508.8,382.7,508.8,384.9z"/>
	<path id="XMLID_598_" class="st6" d="M524.7,374.4c0.2,0.6,0.5,1.5,0.5,2.1c1.1-1.2,3.1-2.1,4.9-2.1c3.4,0,4.6,2.1,4.6,5.1v9.6
		h-2.2v-9c0-2-0.6-3.7-3-3.7c-1.5,0-3.2,0.8-4.2,1.9V389H523v-11.5c0-0.9-0.1-2-0.3-2.8L524.7,374.4z"/>
	<path id="XMLID_600_" class="st6" d="M544.7,389.3c-3.4,0-5.6-2.4-5.6-7.2c0-4.2,1.5-7.9,6-7.9c1.7,0,3.4,0.8,4.3,1.8v-6.9l2.2-0.3
		v15.8c0,1.5,0.1,3.1,0.6,4.2l-2,0.4c-0.4-0.7-0.6-1.6-0.6-2.4C549,387.8,547.5,389.3,544.7,389.3L544.7,389.3z M549.5,380.1
		c0-0.7,0-1.4-0.2-2c-0.6-0.9-2-1.9-3.9-1.9c-2.9,0-4.1,2.3-4.1,5.9c0,3,1,5.3,3.7,5.3c2.5,0,3.8-1.7,4.2-2.7
		c0.1-0.5,0.2-1.2,0.2-1.8V380.1z"/>
	<path id="XMLID_603_" class="st6" d="M568.9,369.8h2.1l7.4,19.2h-2.5l-2.1-5.6H566l-2.1,5.6h-2.3L568.9,369.8z M573.3,381.5
		l-3.3-9.1l-3.4,9.1H573.3z"/>
	<path id="XMLID_606_" class="st6" d="M586.3,389.3c-3.4,0-5.6-2.4-5.6-7.2c0-4.2,1.5-7.9,6-7.9c1.7,0,3.4,0.8,4.3,1.8v-6.9l2.2-0.3
		v15.8c0,1.5,0.1,3.1,0.6,4.2l-2,0.4c-0.4-0.7-0.6-1.6-0.6-2.4C590.6,387.8,589.1,389.3,586.3,389.3L586.3,389.3z M591.1,380.1
		c0-0.7,0-1.4-0.2-2c-0.6-0.9-2-1.9-3.9-1.9c-2.9,0-4.1,2.3-4.1,5.9c0,3,1,5.3,3.7,5.3c2.5,0,3.8-1.7,4.2-2.7
		c0.1-0.5,0.2-1.2,0.2-1.8V380.1z"/>
	<path id="XMLID_609_" class="st6" d="M611.2,381.8c0,3.8-1.6,7.7-6.8,7.7c-5.2,0-6.8-3.9-6.8-7.8c0-3.7,1.6-7.6,6.8-7.6
		C609.7,374.1,611.2,378,611.2,381.8L611.2,381.8z M604.5,387.6c2.9,0,4.4-2,4.4-5.8c0-3.7-1.5-5.7-4.4-5.7s-4.4,2-4.4,5.7
		C600,385.5,601.5,387.6,604.5,387.6L604.5,387.6z"/>
	<path id="XMLID_612_" class="st6" d="M615.7,389v-19.9l2.2-0.3v7.9c0.6-0.9,2.1-2.4,4.7-2.4c3.4,0,5.6,2.4,5.6,7.2
		c0,4.2-1.5,7.9-6,7.9c-1.7,0-3.6-0.9-4.4-1.8l-0.3,1.5H615.7z M617.8,383.5c0,0.7,0,1.5,0.1,2c0.6,0.9,2,1.9,3.9,1.9
		c2.9,0,4.1-2.3,4.1-5.9c0-3-1.1-5.3-3.7-5.3c-2.5,0-3.8,1.7-4.2,2.7c-0.1,0.4-0.1,1.2-0.1,1.8V383.5z"/>
	<path id="XMLID_615_" class="st6" d="M639,387.5c1.6,0,3.2-0.3,4.3-0.8l0.4,1.8c-1,0.5-2.9,1-4.9,1c-4.6,0-7.1-2.7-7.1-7.4
		c0-4.5,2.3-7.9,6.7-7.9c3.7,0,5.5,2.4,5.5,6.6v1.3h-10C633.9,385.9,636,387.5,639,387.5L639,387.5z M638.2,375.9
		c-2.4,0-3.8,2-4.1,4.4h7.8C641.9,377.4,640.8,375.9,638.2,375.9L638.2,375.9z"/>
	<path id="XMLID_618_" class="st7" d="M657.7,389h-2.3v-19.2h2.3V389z"/>
	<path id="XMLID_620_" class="st7" d="M665.4,389h-2.3v-19.9l2.3-0.3V389z"/>
	<path id="XMLID_622_" class="st7" d="M673,389h-2.3v-19.9l2.3-0.3V389z"/>
	<path id="XMLID_624_" class="st7" d="M682.7,389.4c-3.4,0-4.6-2.1-4.6-5.1v-9.7h2.2v9.1c0,2,0.6,3.7,3,3.7c1.5,0,3.2-0.8,4.2-1.9
		v-11h2.3v10.8c0,1.3,0.1,2.5,0.4,3.5l-2.1,0.3c-0.2-0.6-0.4-1.5-0.5-2C686.5,388.5,684.6,389.4,682.7,389.4z"/>
	<path id="XMLID_626_" class="st7" d="M702.6,376.8c-0.9-0.4-2.2-0.8-3.4-0.8c-1,0-2.5,0.4-2.5,2.1c0,1.2,0.8,1.7,2.8,2.6
		c2.2,1,3.9,2,3.9,4.4c0,3.3-2.4,4.3-4.6,4.3c-1.5,0-3.6-0.4-4.9-0.9l0.5-1.9c1.2,0.5,2.9,0.9,4.1,0.9c1.4,0,2.6-0.5,2.6-2.3
		c0-1.3-1.1-2-3.3-2.9c-2.1-0.9-3.4-1.7-3.4-4c0-3.2,2.7-3.9,4.7-3.9c1.3,0,3,0.3,3.9,0.7L702.6,376.8z"/>
	<path id="XMLID_628_" class="st7" d="M713,387.3v1.7l-1.2,0.1c-2.3,0.1-3.7-0.7-3.7-3.3v-9.2h-2.4v-1.8h2.4v-3.4l2.2-0.5v3.9h3.2
		v1.8h-3.2v8.5c0,1.8,0.5,2.3,1.9,2.3H713z"/>
	<path id="XMLID_630_" class="st7" d="M724,374.4l-0.1,2c-1.8,0-3.8,0.7-4.6,2.5V389H717v-10.6c0-1.4-0.1-2.8-0.3-3.7l2-0.3
		c0.2,0.6,0.4,1.7,0.5,2.4C720.1,375.3,722,374.4,724,374.4z"/>
	<path id="XMLID_632_" class="st7" d="M737.9,388.8l-1.9,0.4c-0.6-0.7-0.9-1.7-1-2.6c-0.8,1.7-2.7,2.7-4.6,2.7
		c-2.3,0-4.6-1.1-4.6-4.3c0-3.4,1.8-4.4,9-4.8v-1.2c0-1.7-0.3-2.8-2.9-2.8c-1.5,0-3,0.4-4.4,1.2l-0.5-1.9c1.3-0.7,3.3-1.2,5.2-1.2
		c3.7,0,4.8,1.6,4.8,4.7v5.8C736.9,386.5,737.2,388,737.9,388.8z M727.9,384.9c0,2.1,1.8,2.5,2.9,2.5c2.1,0,3.5-1.4,3.9-3v-2.5
		C729.4,382.2,727.9,382.7,727.9,384.9z"/>
	<path id="XMLID_635_" class="st7" d="M746.8,379.8v1.9h-6v-1.9H746.8z"/>
	<path id="XMLID_637_" class="st7" d="M88,420.3v1.7l-1.2,0.1c-2.3,0.1-3.7-0.7-3.7-3.3v-9.2h-2.4v-1.8h2.4v-3.4l2.2-0.5v3.9h3.2
		v1.8h-3.2v8.5c0,1.8,0.4,2.3,1.9,2.3H88z"/>
	<path id="XMLID_639_" class="st7" d="M104.7,414.8c0,3.8-1.6,7.7-6.8,7.7c-5.2,0-6.8-3.9-6.8-7.8c0-3.7,1.6-7.6,6.8-7.6
		C103.1,407.1,104.7,411,104.7,414.8L104.7,414.8z M98,420.6c2.9,0,4.4-2,4.4-5.8c0-3.7-1.5-5.7-4.4-5.7s-4.4,2-4.4,5.7
		C93.5,418.5,95,420.6,98,420.6L98,420.6z"/>
	<path id="XMLID_642_" class="st7" d="M116.2,407.4l-0.1,2c-1.8,0-3.8,0.7-4.6,2.5V422h-2.3v-10.6c0-1.4-0.1-2.8-0.3-3.7l2-0.3
		c0.2,0.6,0.4,1.7,0.5,2.4C112.2,408.3,114.2,407.4,116.2,407.4z"/>
	<path id="XMLID_644_" class="st6" d="M136.8,421.8l-1.9,0.4c-0.6-0.7-0.9-1.7-1-2.6c-0.8,1.7-2.7,2.7-4.6,2.7
		c-2.3,0-4.6-1.1-4.6-4.3c0-3.4,1.7-4.4,9-4.8v-1.2c0-1.7-0.3-2.8-2.9-2.8c-1.5,0-3,0.4-4.4,1.2l-0.5-1.9c1.3-0.7,3.3-1.2,5.2-1.2
		c3.7,0,4.8,1.6,4.8,4.7v5.8C135.8,419.5,136.1,421,136.8,421.8z M126.8,417.9c0,2.1,1.8,2.5,2.9,2.5c2.1,0,3.5-1.4,3.9-3v-2.5
		C128.3,415.2,126.8,415.7,126.8,417.9z"/>
	<path id="XMLID_647_" class="st6" d="M142.7,407.4c0.2,0.6,0.4,1.5,0.5,2.1c1.1-1.2,3.1-2.1,4.9-2.1c3.4,0,4.6,2.1,4.6,5.1v9.6
		h-2.2v-9c0-2-0.6-3.7-3-3.7c-1.5,0-3.2,0.8-4.2,1.9V422H141v-11.5c0-0.9-0.1-2-0.3-2.8L142.7,407.4z"/>
	<path id="XMLID_649_" class="st6" d="M162.6,422.3c-3.4,0-5.6-2.4-5.6-7.2c0-4.2,1.5-7.9,6-7.9c1.7,0,3.4,0.8,4.3,1.8v-6.9l2.2-0.3
		v15.8c0,1.5,0.1,3.1,0.6,4.2l-2,0.4c-0.4-0.7-0.6-1.6-0.6-2.4C166.9,420.8,165.4,422.3,162.6,422.3L162.6,422.3z M167.5,413.1
		c0-0.7,0-1.4-0.1-2c-0.6-0.9-2-1.9-3.9-1.9c-2.9,0-4.1,2.3-4.1,5.9c0,3,1,5.3,3.7,5.3c2.5,0,3.8-1.7,4.2-2.7
		c0.1-0.5,0.1-1.2,0.1-1.8V413.1z"/>
	<path id="XMLID_652_" class="st6" d="M187,420.3v1.7l-1.2,0.1c-2.3,0.1-3.7-0.7-3.7-3.3v-9.2h-2.4v-1.8h2.4v-3.4l2.2-0.5v3.9h3.2
		v1.8h-3.2v8.5c0,1.8,0.4,2.3,1.9,2.3H187z"/>
	<path id="XMLID_654_" class="st6" d="M195.6,422.4c-3.4,0-4.6-2.1-4.6-5.1v-9.7h2.2v9.1c0,2,0.6,3.7,3,3.7c1.5,0,3.2-0.8,4.2-1.9
		v-11h2.3v10.8c0,1.3,0.1,2.5,0.4,3.5l-2.1,0.3c-0.2-0.6-0.4-1.5-0.4-2C199.3,421.5,197.4,422.4,195.6,422.4z"/>
	<path id="XMLID_656_" class="st6" d="M215.1,407.4l-0.1,2c-1.8,0-3.8,0.7-4.6,2.5V422h-2.3v-10.6c0-1.4-0.1-2.8-0.3-3.7l2-0.3
		c0.2,0.6,0.4,1.7,0.5,2.4C211.1,408.3,213.1,407.4,215.1,407.4z"/>
	<path id="XMLID_658_" class="st6" d="M219.9,407.4c0.2,0.6,0.4,1.5,0.5,2.1c1.1-1.2,3.1-2.1,4.9-2.1c3.4,0,4.6,2.1,4.6,5.1v9.6
		h-2.2v-9c0-2-0.6-3.7-3-3.7c-1.5,0-3.2,0.8-4.2,1.9V422h-2.3v-11.5c0-0.9-0.1-2-0.3-2.8L219.9,407.4z"/>
	<path id="XMLID_660_" class="st6" d="M247.2,420.3v1.7l-1.2,0.1c-2.3,0.1-3.7-0.7-3.7-3.3v-9.2h-2.4v-1.8h2.4v-3.4l2.2-0.5v3.9h3.2
		v1.8h-3.2v8.5c0,1.8,0.4,2.3,1.9,2.3H247.2z"/>
	<path id="XMLID_662_" class="st6" d="M258.3,407.3c3.4,0,4.6,2.1,4.6,5.1v9.6h-2.2v-9c0-2-0.6-3.7-3-3.7c-1.5,0-3.3,0.8-4.2,1.9
		V422h-2.3v-19.9l2.3-0.3v7.7C254.6,408.2,256.5,407.3,258.3,407.3z"/>
	<path id="XMLID_664_" class="st6" d="M274.5,420.5c1.6,0,3.2-0.3,4.3-0.8l0.4,1.8c-1,0.5-2.9,1-4.9,1c-4.6,0-7.1-2.7-7.1-7.4
		c0-4.5,2.3-7.9,6.7-7.9c3.7,0,5.5,2.4,5.5,6.6v1.3h-10C269.4,418.9,271.5,420.5,274.5,420.5L274.5,420.5z M273.7,408.9
		c-2.4,0-3.8,2-4.1,4.4h7.8C277.4,410.4,276.3,408.9,273.7,408.9L273.7,408.9z"/>
	<path id="XMLID_667_" class="st6" d="M290.9,407.3c2.1,0,3.3,0.9,3.9,2.2c1.3-1.3,3.4-2.2,5.2-2.2c3.4,0,4.6,2.1,4.6,5.1v9.6h-2.2
		v-9c0-1.9-0.6-3.8-3-3.8c-1.3,0-3.1,0.8-4.1,1.8c0.1,0.6,0.2,1.4,0.2,2.3v8.6h-2.2v-9c0-2-0.6-3.7-3-3.7c-1.3,0-3,0.8-4,1.9V422
		H284v-11.5c0-0.9-0.1-2-0.3-2.8l2.1-0.3c0.2,0.6,0.4,1.5,0.5,2.1C287.2,408.3,289.1,407.3,290.9,407.3z"/>
	<path id="XMLID_669_" class="st6" d="M319,404.9h-2.5v-2.3h2.5V404.9z M318.9,422h-2.3v-14.4h2.3V422z"/>
	<path id="XMLID_672_" class="st6" d="M325.9,407.4c0.2,0.6,0.4,1.5,0.5,2.1c1.1-1.2,3.1-2.1,4.9-2.1c3.4,0,4.6,2.1,4.6,5.1v9.6
		h-2.2v-9c0-2-0.6-3.7-3-3.7c-1.5,0-3.2,0.8-4.2,1.9V422h-2.3v-11.5c0-0.9-0.1-2-0.3-2.8L325.9,407.4z"/>
	<path id="XMLID_674_" class="st6" d="M346.5,420.3v1.7l-1.2,0.1c-2.3,0.1-3.7-0.7-3.7-3.3v-9.2h-2.4v-1.8h2.4v-3.4l2.2-0.5v3.9h3.2
		v1.8h-3.2v8.5c0,1.8,0.4,2.3,1.9,2.3H346.5z"/>
	<path id="XMLID_676_" class="st6" d="M363.2,414.8c0,3.8-1.6,7.7-6.8,7.7c-5.2,0-6.8-3.9-6.8-7.8c0-3.7,1.6-7.6,6.8-7.6
		C361.6,407.1,363.2,411,363.2,414.8L363.2,414.8z M356.4,420.6c2.9,0,4.4-2,4.4-5.8c0-3.7-1.5-5.7-4.4-5.7s-4.4,2-4.4,5.7
		C351.9,418.5,353.4,420.6,356.4,420.6L356.4,420.6z"/>
	<path id="XMLID_679_" class="st6" d="M374.3,422v-19.9l2.2-0.3v7.9c0.6-0.9,2.1-2.4,4.7-2.4c3.4,0,5.6,2.4,5.6,7.2
		c0,4.2-1.5,7.9-6,7.9c-1.7,0-3.6-0.9-4.4-1.8l-0.3,1.5H374.3z M376.5,416.5c0,0.7,0,1.5,0.1,2c0.6,0.9,2,1.9,3.9,1.9
		c2.9,0,4.1-2.3,4.1-5.9c0-3-1.1-5.3-3.7-5.3c-2.5,0-3.8,1.7-4.2,2.7c-0.1,0.4-0.1,1.2-0.1,1.8V416.5z"/>
	<path id="XMLID_682_" class="st6" d="M397.7,420.5c1.6,0,3.2-0.3,4.3-0.8l0.4,1.8c-1,0.5-2.9,1-4.9,1c-4.6,0-7.1-2.7-7.1-7.4
		c0-4.5,2.3-7.9,6.7-7.9c3.7,0,5.5,2.4,5.5,6.6v1.3h-10C392.6,418.9,394.7,420.5,397.7,420.5L397.7,420.5z M396.9,408.9
		c-2.4,0-3.8,2-4.1,4.4h7.8C400.5,410.4,399.5,408.9,396.9,408.9L396.9,408.9z"/>
	<path id="XMLID_685_" class="st6" d="M417.9,421.8l-1.9,0.4c-0.6-0.7-0.9-1.7-1-2.6c-0.8,1.7-2.7,2.7-4.6,2.7
		c-2.3,0-4.6-1.1-4.6-4.3c0-3.4,1.8-4.4,9-4.8v-1.2c0-1.7-0.3-2.8-2.9-2.8c-1.5,0-3,0.4-4.4,1.2l-0.5-1.9c1.3-0.7,3.3-1.2,5.2-1.2
		c3.7,0,4.8,1.6,4.8,4.7v5.8C416.9,419.5,417.2,421,417.9,421.8z M407.9,417.9c0,2.1,1.8,2.5,2.9,2.5c2.1,0,3.5-1.4,3.9-3v-2.5
		C409.4,415.2,407.9,415.7,407.9,417.9z"/>
	<path id="XMLID_688_" class="st6" d="M426.5,422.4c-3.4,0-4.6-2.1-4.6-5.1v-9.7h2.2v9.1c0,2,0.6,3.7,3,3.7c1.5,0,3.2-0.8,4.2-1.9
		v-11h2.3v10.8c0,1.3,0.1,2.5,0.4,3.5l-2.1,0.3c-0.2-0.6-0.4-1.5-0.5-2C430.3,421.5,428.4,422.4,426.5,422.4z"/>
	<path id="XMLID_690_" class="st6" d="M444.4,420.3v1.7l-1.2,0.1c-2.3,0.1-3.7-0.7-3.7-3.3v-9.2H437v-1.8h2.4v-3.4l2.2-0.5v3.9h3.2
		v1.8h-3.2v8.5c0,1.8,0.5,2.3,1.9,2.3H444.4z"/>
	<path id="XMLID_692_" class="st6" d="M450.8,404.9h-2.5v-2.3h2.5V404.9z M450.7,422h-2.3v-14.4h2.3V422z"/>
	<path id="XMLID_695_" class="st6" d="M453.9,409.5v-1.8h2.6V407c0-2.6,0.8-5.4,4.6-5.4c0.8,0,1.8,0.1,2.6,0.3l-0.4,1.9
		c-0.6-0.2-1.4-0.3-1.9-0.3c-1.9,0-2.7,0.8-2.7,3.5v0.6h3.5v1.8h-3.5V422h-2.2v-12.5H453.9z"/>
	<path id="XMLID_697_" class="st6" d="M469.7,422.4c-3.4,0-4.6-2.1-4.6-5.1v-9.7h2.2v9.1c0,2,0.6,3.7,3,3.7c1.5,0,3.2-0.8,4.2-1.9
		v-11h2.3v10.8c0,1.3,0.1,2.5,0.4,3.5l-2.1,0.3c-0.2-0.6-0.4-1.5-0.5-2C473.4,421.5,471.5,422.4,469.7,422.4z"/>
	<path id="XMLID_699_" class="st6" d="M484.4,422h-2.3v-19.9l2.3-0.3V422z"/>
	<path id="XMLID_701_" class="st6" d="M490,425.7l-1.6-0.2c0.8-2.1,1.4-5.4,1.6-7.3l2.2,0.2C491.9,420.5,490.9,423.9,490,425.7z"/>
	<path id="XMLID_703_" class="st6" d="M510.8,409.8c-0.9-0.4-2.2-0.8-3.4-0.8c-1,0-2.5,0.4-2.5,2.1c0,1.2,0.8,1.7,2.8,2.6
		c2.2,1,3.9,2,3.9,4.4c0,3.3-2.4,4.3-4.6,4.3c-1.5,0-3.6-0.4-4.9-0.9l0.5-1.9c1.2,0.5,2.9,0.9,4.1,0.9c1.4,0,2.6-0.5,2.6-2.3
		c0-1.3-1.1-2-3.3-2.9c-2.1-0.9-3.4-1.7-3.4-4c0-3.2,2.7-3.9,4.7-3.9c1.3,0,3,0.3,3.9,0.7L510.8,409.8z"/>
	<path id="XMLID_705_" class="st6" d="M522.2,420.5c1.6,0,3.2-0.3,4.3-0.8l0.4,1.8c-1,0.5-2.9,1-4.9,1c-4.6,0-7.1-2.7-7.1-7.4
		c0-4.5,2.3-7.9,6.7-7.9c3.7,0,5.5,2.4,5.5,6.6v1.3h-10C517.1,418.9,519.2,420.5,522.2,420.5L522.2,420.5z M521.4,408.9
		c-2.4,0-3.8,2-4.1,4.4h7.8C525,410.4,524,408.9,521.4,408.9L521.4,408.9z"/>
	<path id="XMLID_708_" class="st6" d="M538.6,407.3c2.1,0,3.3,0.9,3.9,2.2c1.3-1.3,3.4-2.2,5.2-2.2c3.4,0,4.6,2.1,4.6,5.1v9.6h-2.2
		v-9c0-1.9-0.6-3.8-3-3.8c-1.3,0-3.1,0.8-4.1,1.8c0.1,0.6,0.2,1.4,0.2,2.3v8.6h-2.2v-9c0-2-0.6-3.7-3-3.7c-1.3,0-3,0.8-4,1.9V422
		h-2.3v-11.5c0-0.9-0.1-2-0.3-2.8l2.1-0.3c0.2,0.6,0.4,1.5,0.5,2.1C534.9,408.3,536.8,407.3,538.6,407.3z"/>
	<path id="XMLID_710_" class="st6" d="M568.4,421.8l-1.9,0.4c-0.6-0.7-0.9-1.7-1-2.6c-0.8,1.7-2.7,2.7-4.6,2.7
		c-2.3,0-4.6-1.1-4.6-4.3c0-3.4,1.8-4.4,9-4.8v-1.2c0-1.7-0.3-2.8-2.9-2.8c-1.5,0-3,0.4-4.4,1.2l-0.5-1.9c1.3-0.7,3.3-1.2,5.2-1.2
		c3.7,0,4.8,1.6,4.8,4.7v5.8C567.3,419.5,567.7,421,568.4,421.8z M558.4,417.9c0,2.1,1.8,2.5,2.9,2.5c2.1,0,3.5-1.4,3.9-3v-2.5
		C559.9,415.2,558.4,415.7,558.4,417.9z"/>
	<path id="XMLID_713_" class="st6" d="M574.3,407.4c0.2,0.6,0.4,1.5,0.5,2.1c1.1-1.2,3.1-2.1,4.9-2.1c3.4,0,4.6,2.1,4.6,5.1v9.6H582
		v-9c0-2-0.6-3.7-3-3.7c-1.5,0-3.2,0.8-4.2,1.9V422h-2.3v-11.5c0-0.9-0.1-2-0.3-2.8L574.3,407.4z"/>
	<path id="XMLID_715_" class="st6" d="M594.9,420.3v1.7l-1.2,0.1c-2.3,0.1-3.7-0.7-3.7-3.3v-9.2h-2.4v-1.8h2.4v-3.4l2.2-0.5v3.9h3.2
		v1.8h-3.2v8.5c0,1.8,0.5,2.3,1.9,2.3H594.9z"/>
	<path id="XMLID_717_" class="st6" d="M601.2,404.9h-2.5v-2.3h2.5V404.9z M601.1,422h-2.3v-14.4h2.3V422z"/>
	<path id="XMLID_720_" class="st6" d="M605.5,415c0-4.2,1.7-7.8,6.9-7.8c1.3,0,2.5,0.2,3.4,0.5l-0.4,1.9c-0.9-0.4-2-0.5-2.9-0.5
		c-3.5,0-4.7,2.6-4.7,5.9c0,3.1,1.3,5.5,4.8,5.5c1,0,2.2-0.2,3-0.5l0.3,2c-0.8,0.3-2.1,0.5-3.5,0.5
		C607.1,422.4,605.5,418.8,605.5,415L605.5,415z"/>
	<path id="XMLID_722_" class="st7" d="M628.9,422h-2.3v-19.2h2.3v8.4h10.1v-8.4h2.3V422h-2.3v-8.8h-10.1V422z"/>
	<path id="XMLID_724_" class="st7" d="M650.4,422v-17.2h-5.8v-2h14v2h-5.9V422H650.4z"/>
	<path id="XMLID_726_" class="st7" d="M672.1,421.3h-2l-5.7-15.6l-0.7,16.3h-2.2l1-19.2h3l5.7,15.5l5.8-15.5h3.2l1,19.2h-2.3
		l-0.7-16.3L672.1,421.3z"/>
	<path id="XMLID_728_" class="st7" d="M688.6,420h8.5v2h-10.8v-19.2h2.3V420z"/>
	<path id="XMLID_730_" class="st6" d="M718,419.6c-1.3,1.8-3.5,2.8-5.6,2.8c-2.7,0-5.7-1.3-5.7-5.3c0-2.9,1.8-4.4,3.9-5.4
		c-1.5-1.8-2-3.3-2-4.8c0-2.2,1.4-4.4,4.8-4.4c3.3,0,4.4,2.3,4.4,4.3c0,2.5-1.4,4-4.2,5.4c1,1.2,2.5,2.9,4.2,4.4
		c0.7-1.1,1.3-2.9,1.6-4.7l2,0.6c-0.4,2.1-1.2,4.1-2.1,5.4c0.9,0.8,2.2,1.9,3.3,2.8l-1.4,1.7C720.1,421.5,719,420.5,718,419.6z
		 M708.9,417c0,1.9,1.1,3.4,3.6,3.4c1.6,0,3-0.8,4-2.2c-1.8-1.6-3.9-3.9-4.8-5.1C710,413.9,708.9,415,708.9,417z M715.8,406.9
		c0-1.4-0.8-2.7-2.5-2.7c-1.9,0-2.6,1.5-2.6,2.9c0,1.2,0.6,2.5,1.7,3.8C714.2,409.9,715.8,408.9,715.8,406.9L715.8,406.9z"/>
	<path id="XMLID_734_" class="st7" d="M70.1,445.6c0-5.3,1.9-10.2,8.9-10.2c1.7,0,3.5,0.4,4.8,0.8l-0.4,2.1
		c-1.2-0.5-2.8-0.8-4.3-0.8c-4.9,0-6.5,3.7-6.5,8.2c0,4.3,1.8,7.6,6.6,7.6c1.5,0,3.4-0.4,4.5-0.8l0.3,2.1c-1.1,0.4-3.1,0.8-4.9,0.8
		C72.2,455.4,70.1,451,70.1,445.6L70.1,445.6z"/>
	<path id="XMLID_736_" class="st7" d="M97.3,438.6c-1-0.5-2.7-1.1-4.1-1.1c-1.6,0-3.6,0.6-3.6,3c0,1.7,1.5,2.5,3.6,3.5
		c2.9,1.4,5.1,2.6,5.1,5.8c0,4-2.7,5.5-5.8,5.5c-1.9,0-4.4-0.5-6-1.2l0.6-2.1c1.5,0.7,3.6,1.2,5.3,1.2c1.7,0,3.5-0.7,3.5-3.3
		c0-1.8-1.4-2.8-4.1-4c-2.7-1.3-4.7-2.3-4.7-5.3c0-3.8,3-5.2,5.7-5.2c2,0,4,0.6,5,1.1L97.3,438.6z"/>
	<path id="XMLID_738_" class="st7" d="M111.9,438.6c-1-0.5-2.7-1.1-4.1-1.1c-1.6,0-3.6,0.6-3.6,3c0,1.7,1.5,2.5,3.6,3.5
		c2.9,1.4,5.1,2.6,5.1,5.8c0,4-2.7,5.5-5.8,5.5c-1.9,0-4.4-0.5-6-1.2l0.6-2.1c1.5,0.7,3.6,1.2,5.3,1.2c1.7,0,3.5-0.7,3.5-3.3
		c0-1.8-1.4-2.8-4.1-4c-2.7-1.3-4.7-2.3-4.7-5.3c0-3.8,3-5.2,5.7-5.2c2,0,4,0.6,5,1.1L111.9,438.6z"/>
	<path id="XMLID_740_" class="st6" d="M119.2,455h-2.5v-2.8h2.5V455z"/>
	<path id="XMLID_742_" class="st6" d="M141.3,454.3h-2l-5.7-15.6l-0.7,16.3h-2.2l1-19.2h3l5.7,15.5l5.8-15.5h3.2l1,19.2h-2.3
		l-0.7-16.3L141.3,454.3z"/>
	<path id="XMLID_744_" class="st6" d="M161.8,453.5c1.6,0,3.2-0.3,4.3-0.8l0.4,1.8c-1,0.5-2.9,1-4.9,1c-4.6,0-7.1-2.7-7.1-7.4
		c0-4.5,2.3-7.9,6.7-7.9c3.7,0,5.5,2.4,5.5,6.6v1.3h-10C156.6,451.9,158.8,453.5,161.8,453.5L161.8,453.5z M160.9,441.9
		c-2.4,0-3.8,2-4.1,4.4h7.8C164.6,443.4,163.5,441.9,160.9,441.9L160.9,441.9z"/>
	<path id="XMLID_747_" class="st6" d="M182,454.8l-1.9,0.4c-0.6-0.7-0.9-1.7-1-2.6c-0.8,1.7-2.7,2.7-4.6,2.7c-2.3,0-4.6-1.1-4.6-4.3
		c0-3.4,1.7-4.4,9-4.8v-1.2c0-1.7-0.3-2.8-2.9-2.8c-1.5,0-3,0.4-4.4,1.2l-0.5-1.9c1.3-0.7,3.3-1.2,5.2-1.2c3.7,0,4.8,1.6,4.8,4.7
		v5.8C180.9,452.5,181.3,454,182,454.8z M172,450.9c0,2.1,1.8,2.5,2.9,2.5c2.1,0,3.5-1.4,3.9-3v-2.5
		C173.5,448.2,172,448.7,172,450.9z"/>
	<path id="XMLID_750_" class="st6" d="M187.9,440.4c0.2,0.6,0.4,1.5,0.5,2.1c1.1-1.2,3.1-2.1,4.9-2.1c3.4,0,4.6,2.1,4.6,5.1v9.6
		h-2.2v-9c0-2-0.6-3.7-3-3.7c-1.5,0-3.2,0.8-4.2,1.9V455h-2.3v-11.5c0-0.9-0.1-2-0.3-2.8L187.9,440.4z"/>
	<path id="XMLID_752_" class="st6" d="M220.8,440.6h2.5l-4.8,14.4h-2.2l-4.1-11.5l-4,11.5H206l-4.7-14.4h2.5l3.5,11.7l3.9-11.4h2.2
		l4,11.4L220.8,440.6z"/>
	<path id="XMLID_754_" class="st6" d="M233.9,440.3c3.4,0,4.6,2.1,4.6,5.1v9.6h-2.2v-9c0-2-0.6-3.7-3-3.7c-1.5,0-3.3,0.8-4.2,1.9
		V455h-2.3v-19.9l2.3-0.3v7.7C230.1,441.2,232,440.3,233.9,440.3z"/>
	<path id="XMLID_756_" class="st6" d="M246,437.9h-2.5v-2.3h2.5V437.9z M245.9,455h-2.3v-14.4h2.3V455z"/>
	<path id="XMLID_759_" class="st6" d="M253.5,455h-2.3v-19.9l2.3-0.3V455z"/>
	<path id="XMLID_761_" class="st6" d="M265.1,453.5c1.6,0,3.2-0.3,4.3-0.8l0.4,1.8c-1,0.5-2.9,1-4.9,1c-4.6,0-7.1-2.7-7.1-7.4
		c0-4.5,2.3-7.9,6.7-7.9c3.7,0,5.5,2.4,5.5,6.6v1.3h-10C260,451.9,262.1,453.5,265.1,453.5L265.1,453.5z M264.3,441.9
		c-2.4,0-3.8,2-4.1,4.4h7.8C267.9,443.4,266.9,441.9,264.3,441.9L264.3,441.9z"/>
	<path id="XMLID_764_" class="st6" d="M274.8,458.7l-1.6-0.2c0.8-2.1,1.4-5.4,1.6-7.3l2.2,0.2C276.7,453.5,275.7,456.9,274.8,458.7z
		"/>
	<path id="XMLID_766_" class="st6" d="M290.8,455h-2.3v-19.2h2.3V455z"/>
	<path id="XMLID_768_" class="st6" d="M302.1,448c0-4.2,1.7-7.8,6.9-7.8c1.3,0,2.5,0.2,3.4,0.5l-0.4,1.9c-0.9-0.4-2-0.5-2.9-0.5
		c-3.5,0-4.7,2.6-4.7,5.9c0,3.1,1.3,5.5,4.8,5.5c1,0,2.2-0.2,3-0.5l0.3,2c-0.7,0.3-2.1,0.5-3.5,0.5
		C303.7,455.4,302.1,451.8,302.1,448L302.1,448z"/>
	<path id="XMLID_770_" class="st6" d="M327.1,454.8l-1.9,0.4c-0.6-0.7-0.9-1.7-1-2.6c-0.8,1.7-2.7,2.7-4.6,2.7
		c-2.3,0-4.6-1.1-4.6-4.3c0-3.4,1.7-4.4,9-4.8v-1.2c0-1.7-0.3-2.8-2.9-2.8c-1.5,0-3,0.4-4.4,1.2l-0.5-1.9c1.3-0.7,3.3-1.2,5.2-1.2
		c3.7,0,4.8,1.6,4.8,4.7v5.8C326,452.5,326.4,454,327.1,454.8z M317.1,450.9c0,2.1,1.8,2.5,2.9,2.5c2.1,0,3.5-1.4,3.9-3v-2.5
		C318.6,448.2,317.1,448.7,317.1,450.9z"/>
	<path id="XMLID_773_" class="st6" d="M333,440.4c0.2,0.6,0.4,1.5,0.5,2.1c1.1-1.2,3.1-2.1,4.9-2.1c3.4,0,4.6,2.1,4.6,5.1v9.6h-2.2
		v-9c0-2-0.6-3.7-3-3.7c-1.5,0-3.2,0.8-4.2,1.9V455h-2.3v-11.5c0-0.9-0.1-2-0.3-2.8L333,440.4z"/>
	<path id="XMLID_775_" class="st6" d="M365.8,454.8l-1.9,0.4c-0.6-0.7-0.9-1.7-1-2.6c-0.8,1.7-2.7,2.7-4.6,2.7
		c-2.3,0-4.6-1.1-4.6-4.3c0-3.4,1.8-4.4,9-4.8v-1.2c0-1.7-0.3-2.8-2.9-2.8c-1.5,0-3,0.4-4.4,1.2l-0.5-1.9c1.3-0.7,3.3-1.2,5.2-1.2
		c3.7,0,4.8,1.6,4.8,4.7v5.8C364.7,452.5,365.1,454,365.8,454.8z M355.8,450.9c0,2.1,1.8,2.5,2.9,2.5c2.1,0,3.5-1.4,3.9-3v-2.5
		C357.3,448.2,355.8,448.7,355.8,450.9z"/>
	<path id="XMLID_778_" class="st6" d="M372.2,455h-2.3v-19.9l2.3-0.3V455z"/>
	<path id="XMLID_780_" class="st6" d="M384.8,442.8c-0.9-0.4-2.2-0.8-3.4-0.8c-1,0-2.5,0.4-2.5,2.1c0,1.2,0.8,1.7,2.8,2.6
		c2.2,1,3.9,2,3.9,4.4c0,3.3-2.4,4.3-4.6,4.3c-1.5,0-3.6-0.4-4.9-0.9l0.5-1.9c1.2,0.5,2.9,0.9,4.1,0.9c1.4,0,2.6-0.5,2.6-2.3
		c0-1.3-1.1-2-3.3-2.9c-2.1-0.9-3.4-1.7-3.4-4c0-3.2,2.7-3.9,4.7-3.9c1.3,0,3,0.3,3.9,0.7L384.8,442.8z"/>
	<path id="XMLID_782_" class="st6" d="M402.5,447.8c0,3.8-1.6,7.7-6.8,7.7c-5.2,0-6.8-3.9-6.8-7.8c0-3.7,1.6-7.6,6.8-7.6
		C400.9,440.1,402.5,444,402.5,447.8L402.5,447.8z M395.8,453.6c2.9,0,4.4-2,4.4-5.8c0-3.7-1.5-5.7-4.4-5.7s-4.4,2-4.4,5.7
		C391.3,451.5,392.8,453.6,395.8,453.6L395.8,453.6z"/>
	<path id="XMLID_785_" class="st6" d="M418.2,455.4c-3.4,0-4.6-2.1-4.6-5.1v-9.7h2.2v9.1c0,2,0.6,3.7,3,3.7c1.5,0,3.2-0.8,4.2-1.9
		v-11h2.3v10.8c0,1.3,0.1,2.5,0.4,3.5l-2.1,0.3c-0.2-0.6-0.4-1.5-0.5-2C421.9,454.5,420,455.4,418.2,455.4z"/>
	<path id="XMLID_787_" class="st6" d="M438,442.8c-0.9-0.4-2.2-0.8-3.4-0.8c-1,0-2.5,0.4-2.5,2.1c0,1.2,0.8,1.7,2.8,2.6
		c2.2,1,3.9,2,3.9,4.4c0,3.3-2.4,4.3-4.6,4.3c-1.5,0-3.6-0.4-4.9-0.9l0.5-1.9c1.2,0.5,2.9,0.9,4.1,0.9c1.4,0,2.6-0.5,2.6-2.3
		c0-1.3-1.1-2-3.3-2.9c-2.1-0.9-3.4-1.7-3.4-4c0-3.2,2.7-3.9,4.7-3.9c1.3,0,3,0.3,3.9,0.7L438,442.8z"/>
	<path id="XMLID_789_" class="st6" d="M449.4,453.5c1.6,0,3.2-0.3,4.3-0.8l0.4,1.8c-1,0.5-2.9,1-4.9,1c-4.6,0-7.1-2.7-7.1-7.4
		c0-4.5,2.3-7.9,6.7-7.9c3.7,0,5.5,2.4,5.5,6.6v1.3h-10C444.3,451.9,446.4,453.5,449.4,453.5L449.4,453.5z M448.6,441.9
		c-2.4,0-3.8,2-4.1,4.4h7.8C452.3,443.4,451.2,441.9,448.6,441.9L448.6,441.9z"/>
	<path id="XMLID_792_" class="st7" d="M466,435.8h2.3v16.6c0,3.5-1.8,5.6-4.4,6.7l-1.1-1.7c2.5-1,3.2-2.5,3.2-5.5V435.8z"/>
	<path id="XMLID_794_" class="st7" d="M483.1,438.6c-1-0.5-2.7-1.1-4.1-1.1c-1.6,0-3.6,0.6-3.6,3c0,1.7,1.5,2.5,3.6,3.5
		c2.9,1.4,5.1,2.6,5.1,5.8c0,4-2.7,5.5-5.8,5.5c-2,0-4.4-0.5-6-1.2l0.6-2.1c1.5,0.7,3.6,1.2,5.3,1.2c1.7,0,3.5-0.7,3.5-3.3
		c0-1.8-1.4-2.8-4.1-4c-2.7-1.3-4.7-2.3-4.7-5.3c0-3.8,3-5.2,5.7-5.2c2,0,4,0.6,5,1.1L483.1,438.6z"/>
	<path id="XMLID_796_" class="st6" d="M507.2,453.3v1.7l-1.2,0.1c-2.3,0.1-3.7-0.7-3.7-3.3v-9.2h-2.4v-1.8h2.4v-3.4l2.2-0.5v3.9h3.2
		v1.8h-3.2v8.5c0,1.8,0.5,2.3,1.9,2.3H507.2z"/>
	<path id="XMLID_798_" class="st6" d="M523.9,447.8c0,3.8-1.6,7.7-6.8,7.7c-5.2,0-6.8-3.9-6.8-7.8c0-3.7,1.6-7.6,6.8-7.6
		C522.4,440.1,523.9,444,523.9,447.8L523.9,447.8z M517.2,453.6c2.9,0,4.4-2,4.4-5.8c0-3.7-1.5-5.7-4.4-5.7s-4.4,2-4.4,5.7
		C512.7,451.5,514.2,453.6,517.2,453.6L517.2,453.6z"/>
	<path id="XMLID_801_" class="st6" d="M539.8,455.3c-3.4,0-5.6-2.4-5.6-7.2c0-4.2,1.5-7.9,6-7.9c1.7,0,3.4,0.8,4.3,1.8v-6.9l2.2-0.3
		v15.8c0,1.5,0.1,3.1,0.6,4.2l-2,0.4c-0.4-0.7-0.6-1.6-0.6-2.4C544.1,453.8,542.6,455.3,539.8,455.3L539.8,455.3z M544.7,446.1
		c0-0.7,0-1.4-0.2-2c-0.6-0.9-2-1.9-3.9-1.9c-2.9,0-4.1,2.3-4.1,5.9c0,3,1,5.3,3.7,5.3c2.5,0,3.8-1.7,4.2-2.7
		c0.1-0.5,0.2-1.2,0.2-1.8V446.1z"/>
	<path id="XMLID_804_" class="st6" d="M564.8,447.8c0,3.8-1.6,7.7-6.8,7.7c-5.2,0-6.8-3.9-6.8-7.8c0-3.7,1.6-7.6,6.8-7.6
		C563.2,440.1,564.8,444,564.8,447.8L564.8,447.8z M558,453.6c2.9,0,4.4-2,4.4-5.8c0-3.7-1.5-5.7-4.4-5.7s-4.4,2-4.4,5.7
		C553.6,451.5,555.1,453.6,558,453.6L558,453.6z"/>
	<path id="XMLID_807_" class="st6" d="M583.3,442.8c-0.9-0.4-2.2-0.8-3.4-0.8c-1,0-2.5,0.4-2.5,2.1c0,1.2,0.8,1.7,2.8,2.6
		c2.2,1,3.9,2,3.9,4.4c0,3.3-2.4,4.3-4.6,4.3c-1.5,0-3.6-0.4-4.9-0.9l0.5-1.9c1.2,0.5,2.9,0.9,4.1,0.9c1.4,0,2.6-0.5,2.6-2.3
		c0-1.3-1.1-2-3.3-2.9c-2.1-0.9-3.4-1.7-3.4-4c0-3.2,2.7-3.9,4.7-3.9c1.3,0,3,0.3,3.9,0.7L583.3,442.8z"/>
	<path id="XMLID_809_" class="st6" d="M601,447.8c0,3.8-1.6,7.7-6.8,7.7c-5.2,0-6.8-3.9-6.8-7.8c0-3.7,1.6-7.6,6.8-7.6
		C599.4,440.1,601,444,601,447.8L601,447.8z M594.3,453.6c2.9,0,4.4-2,4.4-5.8c0-3.7-1.5-5.7-4.4-5.7s-4.4,2-4.4,5.7
		C589.8,451.5,591.3,453.6,594.3,453.6L594.3,453.6z"/>
	<path id="XMLID_812_" class="st6" d="M612.5,440.3c2.1,0,3.3,0.9,3.9,2.2c1.3-1.3,3.4-2.2,5.2-2.2c3.4,0,4.6,2.1,4.6,5.1v9.6H624
		v-9c0-1.9-0.6-3.8-3-3.8c-1.3,0-3.1,0.8-4.1,1.8c0.1,0.6,0.2,1.4,0.2,2.3v8.6h-2.2v-9c0-2-0.6-3.7-3-3.7c-1.3,0-3,0.8-4,1.9V455
		h-2.3v-11.5c0-0.9-0.1-2-0.3-2.8l2.1-0.3c0.2,0.6,0.4,1.5,0.5,2.1C608.8,441.3,610.7,440.3,612.5,440.3z"/>
	<path id="XMLID_814_" class="st6" d="M637.8,453.5c1.6,0,3.2-0.3,4.3-0.8l0.4,1.8c-1,0.5-2.9,1-4.9,1c-4.6,0-7.1-2.7-7.1-7.4
		c0-4.5,2.3-7.9,6.7-7.9c3.7,0,5.5,2.4,5.5,6.6v1.3h-10C632.7,451.9,634.8,453.5,637.8,453.5L637.8,453.5z M637,441.9
		c-2.4,0-3.8,2-4.1,4.4h7.8C640.6,443.4,639.6,441.9,637,441.9L637,441.9z"/>
	<path id="XMLID_817_" class="st6" d="M656.3,437.9h-2.5v-2.3h2.5V437.9z M656.2,455h-2.3v-14.4h2.3V455z"/>
	<path id="XMLID_820_" class="st6" d="M663.2,440.4c0.2,0.6,0.4,1.5,0.5,2.1c1.1-1.2,3.1-2.1,4.9-2.1c3.4,0,4.6,2.1,4.6,5.1v9.6
		h-2.2v-9c0-2-0.6-3.7-3-3.7c-1.5,0-3.2,0.8-4.2,1.9V455h-2.3v-11.5c0-0.9-0.1-2-0.3-2.8L663.2,440.4z"/>
	<path id="XMLID_822_" class="st6" d="M683.8,453.3v1.7l-1.2,0.1c-2.3,0.1-3.7-0.7-3.7-3.3v-9.2h-2.4v-1.8h2.4v-3.4l2.2-0.5v3.9h3.2
		v1.8H681v8.5c0,1.8,0.5,2.3,1.9,2.3H683.8z"/>
	<path id="XMLID_824_" class="st6" d="M694.2,453.5c1.6,0,3.2-0.3,4.3-0.8l0.4,1.8c-1,0.5-2.9,1-4.9,1c-4.6,0-7.1-2.7-7.1-7.4
		c0-4.5,2.3-7.9,6.7-7.9c3.7,0,5.5,2.4,5.5,6.6v1.3h-10C689,451.9,691.2,453.5,694.2,453.5L694.2,453.5z M693.3,441.9
		c-2.4,0-3.8,2-4.1,4.4h7.8C697,443.4,695.9,441.9,693.3,441.9L693.3,441.9z"/>
	<path id="XMLID_827_" class="st6" d="M710.6,440.4l-0.1,2c-1.8,0-3.8,0.7-4.6,2.5V455h-2.3v-10.6c0-1.4-0.1-2.8-0.3-3.7l2-0.3
		c0.2,0.6,0.5,1.7,0.5,2.4C706.6,441.3,708.6,440.4,710.6,440.4z"/>
	<path id="XMLID_829_" class="st6" d="M724.5,454.8l-1.9,0.4c-0.6-0.7-0.9-1.7-1-2.6c-0.8,1.7-2.7,2.7-4.6,2.7
		c-2.3,0-4.6-1.1-4.6-4.3c0-3.4,1.8-4.4,9-4.8v-1.2c0-1.7-0.3-2.8-2.9-2.8c-1.5,0-3,0.4-4.4,1.2l-0.5-1.9c1.3-0.7,3.3-1.2,5.2-1.2
		c3.7,0,4.8,1.6,4.8,4.7v5.8C723.4,452.5,723.8,454,724.5,454.8z M714.4,450.9c0,2.1,1.8,2.5,2.9,2.5c2.1,0,3.5-1.4,3.9-3v-2.5
		C716,448.2,714.4,448.7,714.4,450.9z"/>
	<path id="XMLID_832_" class="st6" d="M733.4,445.8v1.9h-6v-1.9H733.4z"/>
	<path id="XMLID_834_" class="st6" d="M88.7,486.3v1.7l-1.2,0.1c-2.3,0.1-3.7-0.7-3.7-3.3v-9.2h-2.4v-1.8h2.4v-3.4l2.2-0.5v3.9h3.2
		v1.8H86v8.5c0,1.8,0.4,2.3,1.9,2.3H88.7z"/>
	<path id="XMLID_836_" class="st6" d="M95.1,470.9h-2.5v-2.3h2.5V470.9z M95,488h-2.3v-14.4H95V488z"/>
	<path id="XMLID_839_" class="st6" d="M109.2,473.6h2.4L106,488h-2.1l-5.6-14.4h2.4l4.3,11.6L109.2,473.6z"/>
	<path id="XMLID_841_" class="st6" d="M121.3,486.5c1.6,0,3.2-0.3,4.3-0.8l0.4,1.8c-1,0.5-2.9,1-4.9,1c-4.6,0-7.1-2.7-7.1-7.4
		c0-4.5,2.3-7.9,6.7-7.9c3.7,0,5.5,2.4,5.5,6.6v1.3h-10C116.1,484.9,118.3,486.5,121.3,486.5L121.3,486.5z M120.4,474.9
		c-2.4,0-3.8,2-4.1,4.4h7.8C124.1,476.4,123,474.9,120.4,474.9L120.4,474.9z"/>
	<path id="XMLID_844_" class="st6" d="M148.3,487.8l-1.9,0.4c-0.6-0.7-0.9-1.7-1-2.6c-0.8,1.7-2.7,2.7-4.6,2.7
		c-2.3,0-4.6-1.1-4.6-4.3c0-3.4,1.7-4.4,9-4.8v-1.2c0-1.7-0.3-2.8-2.9-2.8c-1.5,0-3,0.4-4.4,1.2l-0.5-1.9c1.3-0.7,3.3-1.2,5.2-1.2
		c3.7,0,4.8,1.6,4.8,4.7v5.8C147.2,485.5,147.6,487,148.3,487.8z M138.2,483.9c0,2.1,1.8,2.5,2.9,2.5c2.1,0,3.5-1.4,3.9-3v-2.5
		C139.8,481.2,138.2,481.7,138.2,483.9z"/>
	<path id="XMLID_847_" class="st6" d="M151.5,481c0-4.2,1.7-7.8,6.9-7.8c1.3,0,2.5,0.2,3.4,0.5l-0.4,1.9c-0.9-0.4-2-0.5-2.9-0.5
		c-3.5,0-4.7,2.6-4.7,5.9c0,3.1,1.3,5.5,4.8,5.5c1,0,2.2-0.2,3-0.5l0.3,2c-0.7,0.3-2.1,0.5-3.5,0.5
		C153.1,488.4,151.5,484.8,151.5,481L151.5,481z"/>
	<path id="XMLID_849_" class="st6" d="M171,486.3v1.7l-1.2,0.1c-2.3,0.1-3.7-0.7-3.7-3.3v-9.2h-2.4v-1.8h2.4v-3.4l2.2-0.5v3.9h3.2
		v1.8h-3.2v8.5c0,1.8,0.4,2.3,1.9,2.3H171z"/>
	<path id="XMLID_851_" class="st6" d="M177.4,470.9h-2.5v-2.3h2.5V470.9z M177.3,488H175v-14.4h2.3V488z"/>
	<path id="XMLID_854_" class="st6" d="M195.2,480.8c0,3.8-1.6,7.7-6.8,7.7c-5.2,0-6.8-3.9-6.8-7.8c0-3.7,1.6-7.6,6.8-7.6
		C193.6,473.1,195.2,477,195.2,480.8L195.2,480.8z M188.5,486.6c2.9,0,4.4-2,4.4-5.8c0-3.7-1.5-5.7-4.4-5.7s-4.4,2-4.4,5.7
		C184,484.5,185.5,486.6,188.5,486.6L188.5,486.6z"/>
	<path id="XMLID_857_" class="st6" d="M201.4,473.4c0.2,0.6,0.4,1.5,0.5,2.1c1.1-1.2,3.1-2.1,4.9-2.1c3.4,0,4.6,2.1,4.6,5.1v9.6
		h-2.2v-9c0-2-0.6-3.7-3-3.7c-1.5,0-3.2,0.8-4.2,1.9V488h-2.3v-11.5c0-0.9-0.1-2-0.3-2.8L201.4,473.4z"/>
	<path id="XMLID_859_" class="st6" d="M224,475.8c-0.9-0.4-2.2-0.8-3.4-0.8c-1,0-2.5,0.4-2.5,2.1c0,1.2,0.8,1.7,2.8,2.6
		c2.2,1,3.9,2,3.9,4.4c0,3.3-2.4,4.3-4.6,4.3c-1.5,0-3.6-0.4-4.9-0.9l0.5-1.9c1.2,0.5,2.9,0.9,4.1,0.9c1.4,0,2.6-0.5,2.6-2.3
		c0-1.3-1.1-2-3.3-2.9c-2.1-0.9-3.4-1.7-3.4-4c0-3.2,2.7-3.9,4.7-3.9c1.4,0,3,0.3,3.9,0.7L224,475.8z"/>
	<path id="XMLID_861_" class="st6" d="M237.8,488h-2.5v-2.8h2.5V488z"/>
	<path id="XMLID_863_" class="st6" d="M261.4,468.8h2.1L271,488h-2.5l-2.1-5.6h-7.8l-2.1,5.6H254L261.4,468.8z M265.8,480.5
		l-3.3-9.1l-3.4,9.1H265.8z"/>
	<path id="XMLID_866_" class="st6" d="M276.3,488h-2.3v-19.9l2.3-0.3V488z"/>
	<path id="XMLID_868_" class="st6" d="M294.3,480.8c0,3.8-1.6,7.7-6.8,7.7c-5.2,0-6.8-3.9-6.8-7.8c0-3.7,1.6-7.6,6.8-7.6
		C292.7,473.1,294.3,477,294.3,480.8L294.3,480.8z M287.5,486.6c2.9,0,4.4-2,4.4-5.8c0-3.7-1.5-5.7-4.4-5.7s-4.4,2-4.4,5.7
		C283.1,484.5,284.6,486.6,287.5,486.6L287.5,486.6z"/>
	<path id="XMLID_871_" class="st6" d="M300.5,473.4c0.2,0.6,0.4,1.5,0.5,2.1c1.1-1.2,3.1-2.1,4.9-2.1c3.4,0,4.6,2.1,4.6,5.1v9.6
		h-2.2v-9c0-2-0.6-3.7-3-3.7c-1.5,0-3.2,0.8-4.2,1.9V488h-2.3v-11.5c0-0.9-0.1-2-0.3-2.8L300.5,473.4z"/>
	<path id="XMLID_873_" class="st6" d="M321,492c3.2,0,4.2-2,4.2-4v-2.2c-0.6,1-2.2,2.5-4.7,2.5c-3.5,0-5.6-2.4-5.6-7.2
		c0-4.2,1.5-7.9,6-7.9c1.8,0,3.6,0.8,4.5,1.9c0-0.4,0.1-1.1,0.2-1.5h2c-0.1,0.6-0.2,1.9-0.2,2.7v12c0,3.8-2.8,5.6-6.4,5.6
		c-1.8,0-3.8-0.5-5.4-1.2l0.5-1.9C317.4,491.5,319.4,492,321,492z M325.2,479.1c0-0.7,0-1.4-0.1-2c-0.6-0.9-2-1.9-3.9-1.9
		c-2.9,0-4.1,2.3-4.1,5.9c0,3,1.1,5.3,3.7,5.3c2.5,0,3.8-1.7,4.2-2.7c0.1-0.5,0.1-1.2,0.1-1.8V479.1z"/>
	<path id="XMLID_876_" class="st6" d="M357.2,473.6h2.5l-4.8,14.4h-2.2l-4.1-11.5l-4,11.5h-2.2l-4.7-14.4h2.5l3.5,11.7l3.9-11.4h2.2
		l4,11.4L357.2,473.6z"/>
	<path id="XMLID_878_" class="st6" d="M365.4,470.9h-2.5v-2.3h2.5V470.9z M365.3,488h-2.3v-14.4h2.3V488z"/>
	<path id="XMLID_881_" class="st6" d="M376,486.3v1.7l-1.2,0.1c-2.3,0.1-3.7-0.7-3.7-3.3v-9.2h-2.4v-1.8h2.4v-3.4l2.2-0.5v3.9h3.2
		v1.8h-3.2v8.5c0,1.8,0.5,2.3,1.9,2.3H376z"/>
	<path id="XMLID_883_" class="st6" d="M387.1,473.3c3.4,0,4.6,2.1,4.6,5.1v9.6h-2.2v-9c0-2-0.6-3.7-3-3.7c-1.5,0-3.3,0.8-4.2,1.9
		V488H380v-19.9l2.3-0.3v7.7C383.4,474.2,385.2,473.3,387.1,473.3z"/>
	<path id="XMLID_885_" class="st6" d="M409,486.3v1.7l-1.2,0.1c-2.3,0.1-3.7-0.7-3.7-3.3v-9.2h-2.4v-1.8h2.4v-3.4l2.2-0.5v3.9h3.2
		v1.8h-3.2v8.5c0,1.8,0.5,2.3,1.9,2.3H409z"/>
	<path id="XMLID_887_" class="st6" d="M420.2,473.3c3.4,0,4.6,2.1,4.6,5.1v9.6h-2.2v-9c0-2-0.6-3.7-3-3.7c-1.5,0-3.3,0.8-4.2,1.9
		V488h-2.3v-19.9l2.3-0.3v7.7C416.4,474.2,418.3,473.3,420.2,473.3z"/>
	<path id="XMLID_889_" class="st6" d="M436.4,486.5c1.6,0,3.2-0.3,4.3-0.8l0.4,1.8c-1,0.5-2.9,1-4.9,1c-4.6,0-7.1-2.7-7.1-7.4
		c0-4.5,2.3-7.9,6.7-7.9c3.7,0,5.5,2.4,5.5,6.6v1.3h-10C431.2,484.9,433.4,486.5,436.4,486.5L436.4,486.5z M435.5,474.9
		c-2.4,0-3.8,2-4.1,4.4h7.8C439.2,476.4,438.1,474.9,435.5,474.9L435.5,474.9z"/>
	<path id="XMLID_892_" class="st6" d="M457.8,492c3.2,0,4.2-2,4.2-4v-2.2c-0.7,1-2.2,2.5-4.7,2.5c-3.5,0-5.6-2.4-5.6-7.2
		c0-4.2,1.5-7.9,6-7.9c1.8,0,3.6,0.8,4.5,1.9c0-0.4,0.1-1.1,0.2-1.5h2c-0.1,0.6-0.2,1.9-0.2,2.7v12c0,3.8-2.8,5.6-6.4,5.6
		c-1.8,0-3.8-0.5-5.4-1.2l0.5-1.9C454.2,491.5,456.2,492,457.8,492z M462,479.1c0-0.7,0-1.4-0.1-2c-0.6-0.9-2-1.9-3.9-1.9
		c-2.9,0-4.1,2.3-4.1,5.9c0,3,1.1,5.3,3.7,5.3c2.5,0,3.8-1.7,4.2-2.7c0.1-0.5,0.1-1.2,0.1-1.8V479.1z"/>
	<path id="XMLID_895_" class="st6" d="M476.5,473.4l-0.1,2c-1.8,0-3.8,0.7-4.6,2.5V488h-2.3v-10.6c0-1.4-0.1-2.8-0.3-3.7l2-0.3
		c0.2,0.6,0.5,1.7,0.5,2.4C472.5,474.3,474.5,473.4,476.5,473.4z"/>
	<path id="XMLID_897_" class="st6" d="M492.2,480.8c0,3.8-1.6,7.7-6.8,7.7c-5.2,0-6.8-3.9-6.8-7.8c0-3.7,1.6-7.6,6.8-7.6
		C490.6,473.1,492.2,477,492.2,480.8L492.2,480.8z M485.5,486.6c2.9,0,4.4-2,4.4-5.8c0-3.7-1.5-5.7-4.4-5.7s-4.4,2-4.4,5.7
		C481,484.5,482.5,486.6,485.5,486.6L485.5,486.6z"/>
	<path id="XMLID_900_" class="st6" d="M514.4,473.6h2.5l-4.8,14.4h-2.2l-4.1-11.5l-4,11.5h-2.2l-4.7-14.4h2.5l3.5,11.7l3.9-11.4h2.2
		l4,11.4L514.4,473.6z"/>
	<path id="XMLID_902_" class="st6" d="M525.7,486.3v1.7l-1.2,0.1c-2.3,0.1-3.7-0.7-3.7-3.3v-9.2h-2.4v-1.8h2.4v-3.4l2.2-0.5v3.9h3.2
		v1.8H523v8.5c0,1.8,0.5,2.3,1.9,2.3H525.7z"/>
	<path id="XMLID_904_" class="st6" d="M536.8,473.3c3.4,0,4.6,2.1,4.6,5.1v9.6h-2.2v-9c0-2-0.6-3.7-3-3.7c-1.5,0-3.3,0.8-4.2,1.9
		V488h-2.3v-19.9l2.3-0.3v7.7C533.1,474.2,535,473.3,536.8,473.3z"/>
	<path id="XMLID_906_" class="st6" d="M566.1,480.8c0,3.8-1.6,7.7-6.8,7.7c-5.2,0-6.8-3.9-6.8-7.8c0-3.7,1.6-7.6,6.8-7.6
		C564.5,473.1,566.1,477,566.1,480.8L566.1,480.8z M559.3,486.6c2.9,0,4.4-2,4.4-5.8c0-3.7-1.5-5.7-4.4-5.7s-4.4,2-4.4,5.7
		C554.8,484.5,556.3,486.6,559.3,486.6L559.3,486.6z"/>
	<path id="XMLID_909_" class="st6" d="M568.5,475.5v-1.8h2.6V473c0-2.6,0.8-5.4,4.6-5.4c0.8,0,1.8,0.1,2.6,0.3l-0.4,1.9
		c-0.6-0.2-1.4-0.3-1.9-0.3c-1.9,0-2.7,0.8-2.7,3.5v0.6h3.5v1.8h-3.5V488h-2.2v-12.5H568.5z"/>
	<path id="XMLID_911_" class="st6" d="M593.5,473.3c2.1,0,3.3,0.9,3.9,2.2c1.3-1.3,3.4-2.2,5.2-2.2c3.4,0,4.6,2.1,4.6,5.1v9.6H605
		v-9c0-1.9-0.6-3.8-3-3.8c-1.3,0-3.1,0.8-4.1,1.8c0.1,0.6,0.2,1.4,0.2,2.3v8.6h-2.2v-9c0-2-0.6-3.7-3-3.7c-1.3,0-3,0.8-4,1.9V488
		h-2.3v-11.5c0-0.9-0.1-2-0.3-2.8l2.1-0.3c0.2,0.6,0.4,1.5,0.5,2.1C589.8,474.3,591.7,473.3,593.5,473.3z"/>
	<path id="XMLID_913_" class="st6" d="M621,473.6h2.5c-1.2,3.7-3.4,9.9-5,13.9c-1.3,3.2-2.6,5.4-3.7,6.5l-2.2-1c1.1-1,2.5-3,3.6-5.8
		l-5.7-13.6h2.5l4.4,11.1C618.7,481.2,620.1,476.7,621,473.6z"/>
	<path id="XMLID_915_" class="st6" d="M634.1,475.8c-0.9-0.4-2.2-0.8-3.4-0.8c-1,0-2.5,0.4-2.5,2.1c0,1.2,0.8,1.7,2.8,2.6
		c2.2,1,3.9,2,3.9,4.4c0,3.3-2.4,4.3-4.6,4.3c-1.5,0-3.6-0.4-4.9-0.9l0.5-1.9c1.2,0.5,2.9,0.9,4.1,0.9c1.4,0,2.6-0.5,2.6-2.3
		c0-1.3-1.1-2-3.3-2.9c-2.1-0.9-3.4-1.7-3.4-4c0-3.2,2.7-3.9,4.7-3.9c1.3,0,3,0.3,3.9,0.7L634.1,475.8z"/>
	<path id="XMLID_917_" class="st6" d="M645.5,486.5c1.6,0,3.2-0.3,4.3-0.8l0.4,1.8c-1,0.5-2.9,1-4.9,1c-4.6,0-7.1-2.7-7.1-7.4
		c0-4.5,2.3-7.9,6.7-7.9c3.7,0,5.5,2.4,5.5,6.6v1.3h-10C640.4,484.9,642.5,486.5,645.5,486.5L645.5,486.5z M644.7,474.9
		c-2.4,0-3.8,2-4.1,4.4h7.8C648.4,476.4,647.3,474.9,644.7,474.9L644.7,474.9z"/>
	<path id="XMLID_920_" class="st6" d="M657.2,488h-2.3v-19.9l2.3-0.3V488z"/>
	<path id="XMLID_922_" class="st6" d="M660.5,475.5v-1.8h2.6V473c0-2.6,0.8-5.4,4.6-5.4c0.8,0,1.8,0.1,2.6,0.3l-0.4,1.9
		c-0.6-0.2-1.4-0.3-1.9-0.3c-1.9,0-2.7,0.8-2.7,3.5v0.6h3.5v1.8h-3.5V488h-2.2v-12.5H660.5z"/>
	<path id="XMLID_924_" class="st6" d="M672.1,490.4l-1.6-0.2c0.7-1.9,1.3-4.7,1.5-6.4l2.2,0.2C673.9,485.9,672.9,488.8,672.1,490.4z
		"/>
	<path id="XMLID_926_" class="st6" d="M691.7,473.3c2.1,0,3.3,0.9,3.9,2.2c1.3-1.3,3.4-2.2,5.2-2.2c3.4,0,4.6,2.1,4.6,5.1v9.6h-2.2
		v-9c0-1.9-0.6-3.8-3-3.8c-1.3,0-3.1,0.8-4.1,1.8c0.1,0.6,0.2,1.4,0.2,2.3v8.6H694v-9c0-2-0.6-3.7-3-3.7c-1.3,0-3,0.8-4,1.9V488
		h-2.3v-11.5c0-0.9-0.1-2-0.3-2.8l2.1-0.3c0.2,0.6,0.4,1.5,0.5,2.1C688,474.3,689.9,473.3,691.7,473.3z"/>
	<path id="XMLID_928_" class="st6" d="M719.2,473.6h2.5c-1.2,3.7-3.4,9.9-5,13.9c-1.3,3.2-2.6,5.4-3.7,6.5l-2.2-1
		c1.1-1,2.5-3,3.6-5.8l-5.7-13.6h2.5l4.4,11.1C716.9,481.2,718.3,476.7,719.2,473.6z"/>
	<path id="XMLID_930_" class="st6" d="M77.8,508.8c-0.9-0.4-2.2-0.8-3.4-0.8c-1,0-2.5,0.4-2.5,2.1c0,1.2,0.8,1.7,2.8,2.6
		c2.2,1,3.9,2,3.9,4.4c0,3.3-2.4,4.3-4.6,4.3c-1.5,0-3.6-0.4-4.9-0.9l0.5-1.9c1.2,0.5,2.9,0.9,4.1,0.9c1.4,0,2.6-0.5,2.6-2.3
		c0-1.3-1.1-2-3.3-2.9c-2.1-0.9-3.4-1.7-3.4-4c0-3.2,2.7-3.9,4.7-3.9c1.4,0,3,0.3,3.9,0.7L77.8,508.8z"/>
	<path id="XMLID_932_" class="st6" d="M89.2,519.5c1.6,0,3.2-0.3,4.3-0.8l0.4,1.8c-1,0.5-2.9,1-4.9,1c-4.6,0-7.1-2.7-7.1-7.4
		c0-4.5,2.3-7.9,6.7-7.9c3.7,0,5.5,2.4,5.5,6.6v1.3h-10C84.1,517.9,86.2,519.5,89.2,519.5L89.2,519.5z M88.4,507.9
		c-2.4,0-3.8,2-4.1,4.4h7.8C92,509.4,91,507.9,88.4,507.9L88.4,507.9z"/>
	<path id="XMLID_935_" class="st6" d="M100.3,506.4c0.2,0.6,0.4,1.5,0.5,2.1c1.1-1.2,3.1-2.1,4.9-2.1c3.4,0,4.6,2.1,4.6,5.1v9.6
		h-2.2v-9c0-2-0.6-3.7-3-3.7c-1.5,0-3.2,0.8-4.2,1.9V521h-2.3v-11.5c0-0.9-0.1-2-0.3-2.8L100.3,506.4z"/>
	<path id="XMLID_937_" class="st6" d="M122.9,508.8c-0.9-0.4-2.2-0.8-3.4-0.8c-1,0-2.5,0.4-2.5,2.1c0,1.2,0.8,1.7,2.8,2.6
		c2.2,1,3.9,2,3.9,4.4c0,3.3-2.4,4.3-4.6,4.3c-1.5,0-3.6-0.4-4.9-0.9l0.5-1.9c1.2,0.5,2.9,0.9,4.1,0.9c1.4,0,2.6-0.5,2.6-2.3
		c0-1.3-1.1-2-3.3-2.9c-2.1-0.9-3.4-1.7-3.4-4c0-3.2,2.7-3.9,4.7-3.9c1.3,0,3,0.3,3.9,0.7L122.9,508.8z"/>
	<path id="XMLID_939_" class="st6" d="M134.3,519.5c1.6,0,3.2-0.3,4.3-0.8l0.4,1.8c-1,0.5-2.9,1-4.9,1c-4.6,0-7.1-2.7-7.1-7.4
		c0-4.5,2.3-7.9,6.7-7.9c3.7,0,5.5,2.4,5.5,6.6v1.3h-10C129.2,517.9,131.3,519.5,134.3,519.5L134.3,519.5z M133.5,507.9
		c-2.4,0-3.8,2-4.1,4.4h7.8C137.1,509.4,136.1,507.9,133.5,507.9L133.5,507.9z"/>
	<path id="XMLID_942_" class="st6" d="M163.1,513.8c0,3.8-1.6,7.7-6.8,7.7c-5.2,0-6.8-3.9-6.8-7.8c0-3.7,1.6-7.6,6.8-7.6
		C161.5,506.1,163.1,510,163.1,513.8L163.1,513.8z M156.3,519.6c2.9,0,4.4-2,4.4-5.8c0-3.7-1.5-5.7-4.4-5.7s-4.4,2-4.4,5.7
		C151.9,517.5,153.4,519.6,156.3,519.6L156.3,519.6z"/>
	<path id="XMLID_945_" class="st6" d="M165.5,508.5v-1.8h2.6V506c0-2.6,0.8-5.4,4.6-5.4c0.8,0,1.8,0.1,2.6,0.3l-0.4,1.9
		c-0.6-0.2-1.4-0.3-1.9-0.3c-1.9,0-2.7,0.8-2.7,3.5v0.6h3.5v1.8h-3.5V521h-2.2v-12.5H165.5z"/>
	<path id="XMLID_947_" class="st6" d="M194.4,520.8l-1.9,0.4c-0.6-0.7-0.9-1.7-1-2.6c-0.8,1.7-2.7,2.7-4.6,2.7
		c-2.3,0-4.6-1.1-4.6-4.3c0-3.4,1.7-4.4,9-4.8v-1.2c0-1.7-0.3-2.8-2.9-2.8c-1.5,0-3,0.4-4.4,1.2l-0.5-1.9c1.3-0.7,3.3-1.2,5.2-1.2
		c3.7,0,4.8,1.6,4.8,4.7v5.8C193.3,518.5,193.7,520,194.4,520.8z M184.3,516.9c0,2.1,1.8,2.5,2.9,2.5c2.1,0,3.5-1.4,3.9-3v-2.5
		C185.9,514.2,184.3,514.7,184.3,516.9z"/>
	<path id="XMLID_950_" class="st6" d="M204.9,519.5c1.6,0,3.2-0.3,4.3-0.8l0.4,1.8c-1,0.5-2.9,1-4.9,1c-4.6,0-7.1-2.7-7.1-7.4
		c0-4.5,2.3-7.9,6.7-7.9c3.7,0,5.5,2.4,5.5,6.6v1.3h-10C199.7,517.9,201.9,519.5,204.9,519.5L204.9,519.5z M204,507.9
		c-2.4,0-3.8,2-4.1,4.4h7.8C207.7,509.4,206.6,507.9,204,507.9L204,507.9z"/>
	<path id="XMLID_953_" class="st6" d="M221.6,508.8c-0.9-0.4-2.2-0.8-3.4-0.8c-1,0-2.5,0.4-2.5,2.1c0,1.2,0.8,1.7,2.8,2.6
		c2.2,1,3.9,2,3.9,4.4c0,3.3-2.4,4.3-4.6,4.3c-1.5,0-3.6-0.4-4.9-0.9l0.5-1.9c1.2,0.5,2.9,0.9,4.1,0.9c1.4,0,2.6-0.5,2.6-2.3
		c0-1.3-1.1-2-3.3-2.9c-2.1-0.9-3.4-1.7-3.4-4c0-3.2,2.7-3.9,4.7-3.9c1.4,0,3,0.3,3.9,0.7L221.6,508.8z"/>
	<path id="XMLID_955_" class="st6" d="M232,519.3v1.7l-1.2,0.1c-2.3,0.1-3.7-0.7-3.7-3.3v-9.2h-2.4v-1.8h2.4v-3.4l2.2-0.5v3.9h3.2
		v1.8h-3.2v8.5c0,1.8,0.4,2.3,1.9,2.3H232z"/>
	<path id="XMLID_957_" class="st6" d="M243.1,506.3c3.4,0,4.6,2.1,4.6,5.1v9.6h-2.2v-9c0-2-0.6-3.7-3-3.7c-1.5,0-3.3,0.8-4.2,1.9
		V521H236v-19.9l2.3-0.3v7.7C239.4,507.2,241.3,506.3,243.1,506.3z"/>
	<path id="XMLID_959_" class="st6" d="M259.3,519.5c1.6,0,3.2-0.3,4.3-0.8l0.4,1.8c-1,0.5-2.9,1-4.9,1c-4.6,0-7.1-2.7-7.1-7.4
		c0-4.5,2.3-7.9,6.7-7.9c3.7,0,5.5,2.4,5.5,6.6v1.3h-10C254.2,517.9,256.3,519.5,259.3,519.5L259.3,519.5z M258.5,507.9
		c-2.4,0-3.8,2-4.1,4.4h7.8C262.2,509.4,261.1,507.9,258.5,507.9L258.5,507.9z"/>
	<path id="XMLID_962_" class="st6" d="M274.1,519.3v1.7l-1.2,0.1c-2.3,0.1-3.7-0.7-3.7-3.3v-9.2h-2.4v-1.8h2.4v-3.4l2.2-0.5v3.9h3.2
		v1.8h-3.2v8.5c0,1.8,0.4,2.3,1.9,2.3H274.1z"/>
	<path id="XMLID_964_" class="st6" d="M280.4,503.9h-2.5v-2.3h2.5V503.9z M280.3,521h-2.3v-14.4h2.3V521z"/>
	<path id="XMLID_967_" class="st6" d="M284.7,514c0-4.2,1.7-7.8,6.9-7.8c1.3,0,2.5,0.2,3.4,0.5l-0.4,1.9c-0.9-0.4-2-0.5-2.9-0.5
		c-3.5,0-4.7,2.6-4.7,5.9c0,3.1,1.3,5.5,4.8,5.5c1,0,2.2-0.2,3-0.5l0.3,2c-0.7,0.3-2.1,0.5-3.5,0.5
		C286.3,521.4,284.7,517.8,284.7,514L284.7,514z"/>
	<path id="XMLID_969_" class="st6" d="M306.2,508.8c-0.9-0.4-2.2-0.8-3.4-0.8c-1,0-2.5,0.4-2.5,2.1c0,1.2,0.8,1.7,2.8,2.6
		c2.2,1,3.9,2,3.9,4.4c0,3.3-2.4,4.3-4.6,4.3c-1.5,0-3.6-0.4-4.9-0.9l0.5-1.9c1.2,0.5,2.9,0.9,4.1,0.9c1.4,0,2.6-0.5,2.6-2.3
		c0-1.3-1.1-2-3.3-2.9c-2.1-0.9-3.4-1.7-3.4-4c0-3.2,2.7-3.9,4.7-3.9c1.3,0,3,0.3,3.9,0.7L306.2,508.8z"/>
	<path id="XMLID_971_" class="st6" d="M328.9,520.8l-1.9,0.4c-0.6-0.7-0.9-1.7-1-2.6c-0.8,1.7-2.7,2.7-4.6,2.7
		c-2.3,0-4.6-1.1-4.6-4.3c0-3.4,1.7-4.4,9-4.8v-1.2c0-1.7-0.3-2.8-2.9-2.8c-1.5,0-3,0.4-4.4,1.2l-0.5-1.9c1.3-0.7,3.3-1.2,5.2-1.2
		c3.7,0,4.8,1.6,4.8,4.7v5.8C327.8,518.5,328.2,520,328.9,520.8z M318.8,516.9c0,2.1,1.8,2.5,2.9,2.5c2.1,0,3.5-1.4,3.9-3v-2.5
		C320.4,514.2,318.8,514.7,318.8,516.9z"/>
	<path id="XMLID_974_" class="st6" d="M334.7,506.4c0.2,0.6,0.4,1.5,0.5,2.1c1.1-1.2,3.1-2.1,4.9-2.1c3.4,0,4.6,2.1,4.6,5.1v9.6
		h-2.2v-9c0-2-0.6-3.7-3-3.7c-1.5,0-3.2,0.8-4.2,1.9V521H333v-11.5c0-0.9-0.1-2-0.3-2.8L334.7,506.4z"/>
	<path id="XMLID_976_" class="st6" d="M354.6,521.3c-3.4,0-5.6-2.4-5.6-7.2c0-4.2,1.5-7.9,6-7.9c1.7,0,3.4,0.8,4.3,1.8v-6.9l2.2-0.3
		v15.8c0,1.5,0.1,3.1,0.6,4.2l-2,0.4c-0.4-0.7-0.6-1.6-0.6-2.4C358.9,519.8,357.4,521.3,354.6,521.3L354.6,521.3z M359.5,512.1
		c0-0.7,0-1.4-0.2-2c-0.6-0.9-2-1.9-3.9-1.9c-2.9,0-4.1,2.3-4.1,5.9c0,3,1,5.3,3.7,5.3c2.5,0,3.8-1.7,4.2-2.7
		c0.1-0.5,0.2-1.2,0.2-1.8V512.1z"/>
	<path id="XMLID_979_" class="st6" d="M381,508.8c-0.9-0.4-2.2-0.8-3.4-0.8c-1,0-2.5,0.4-2.5,2.1c0,1.2,0.8,1.7,2.8,2.6
		c2.2,1,3.9,2,3.9,4.4c0,3.3-2.4,4.3-4.6,4.3c-1.5,0-3.6-0.4-4.9-0.9l0.5-1.9c1.2,0.5,2.9,0.9,4.1,0.9c1.4,0,2.6-0.5,2.6-2.3
		c0-1.3-1.1-2-3.3-2.9c-2.1-0.9-3.4-1.7-3.4-4c0-3.2,2.7-3.9,4.7-3.9c1.3,0,3,0.3,3.9,0.7L381,508.8z"/>
	<path id="XMLID_981_" class="st6" d="M397.4,521h-2.7l-6.3-7.2v7.2H386v-19.9l2.3-0.3v12.8l6.1-6.9h2.7l-6.4,6.9L397.4,521z"/>
	<path id="XMLID_983_" class="st6" d="M402.9,503.9h-2.5v-2.3h2.5V503.9z M402.8,521h-2.3v-14.4h2.3V521z"/>
	<path id="XMLID_986_" class="st6" d="M410.3,521H408v-19.9l2.3-0.3V521z"/>
	<path id="XMLID_988_" class="st6" d="M417.8,521h-2.3v-19.9l2.3-0.3V521z"/>
	<path id="XMLID_990_" class="st6" d="M432.2,503.9h-2.5v-2.3h2.5V503.9z M432.1,521h-2.3v-14.4h2.3V521z"/>
	<path id="XMLID_993_" class="st6" d="M444.7,508.8c-0.9-0.4-2.2-0.8-3.4-0.8c-1,0-2.5,0.4-2.5,2.1c0,1.2,0.8,1.7,2.8,2.6
		c2.2,1,3.9,2,3.9,4.4c0,3.3-2.4,4.3-4.6,4.3c-1.5,0-3.6-0.4-4.9-0.9l0.5-1.9c1.2,0.5,2.9,0.9,4.1,0.9c1.4,0,2.6-0.5,2.6-2.3
		c0-1.3-1.1-2-3.3-2.9c-2.1-0.9-3.4-1.7-3.4-4c0-3.2,2.7-3.9,4.7-3.9c1.3,0,3,0.3,3.9,0.7L444.7,508.8z"/>
	<path id="XMLID_995_" class="st6" d="M455.6,514c0-4.2,1.7-7.8,6.9-7.8c1.3,0,2.5,0.2,3.4,0.5l-0.4,1.9c-0.9-0.4-2-0.5-2.9-0.5
		c-3.5,0-4.7,2.6-4.7,5.9c0,3.1,1.3,5.5,4.8,5.5c1,0,2.2-0.2,3-0.5l0.3,2c-0.8,0.3-2.1,0.5-3.5,0.5
		C457.2,521.4,455.6,517.8,455.6,514L455.6,514z"/>
	<path id="XMLID_997_" class="st6" d="M476.9,506.3c3.4,0,4.6,2.1,4.6,5.1v9.6h-2.2v-9c0-2-0.6-3.7-3-3.7c-1.5,0-3.3,0.8-4.2,1.9
		V521h-2.3v-19.9l2.3-0.3v7.7C473.1,507.2,475,506.3,476.9,506.3z"/>
	<path id="XMLID_999_" class="st6" d="M497.6,520.8l-1.9,0.4c-0.6-0.7-0.9-1.7-1-2.6c-0.8,1.7-2.7,2.7-4.6,2.7
		c-2.3,0-4.6-1.1-4.6-4.3c0-3.4,1.8-4.4,9-4.8v-1.2c0-1.7-0.3-2.8-2.9-2.8c-1.5,0-3,0.4-4.4,1.2l-0.5-1.9c1.3-0.7,3.3-1.2,5.2-1.2
		c3.7,0,4.8,1.6,4.8,4.7v5.8C496.5,518.5,496.9,520,497.6,520.8z M487.5,516.9c0,2.1,1.8,2.5,2.9,2.5c2.1,0,3.5-1.4,3.9-3v-2.5
		C489.1,514.2,487.5,514.7,487.5,516.9z"/>
	<path id="XMLID_1002_" class="st6" d="M503.4,506.4c0.2,0.6,0.5,1.5,0.5,2.1c1.1-1.2,3.1-2.1,4.9-2.1c3.4,0,4.6,2.1,4.6,5.1v9.6
		h-2.2v-9c0-2-0.6-3.7-3-3.7c-1.5,0-3.2,0.8-4.2,1.9V521h-2.3v-11.5c0-0.9-0.1-2-0.3-2.8L503.4,506.4z"/>
	<path id="XMLID_1004_" class="st6" d="M524,525c3.2,0,4.2-2,4.2-4v-2.2c-0.7,1-2.2,2.5-4.7,2.5c-3.5,0-5.6-2.4-5.6-7.2
		c0-4.2,1.5-7.9,6-7.9c1.8,0,3.6,0.8,4.5,1.9c0-0.4,0.1-1.1,0.2-1.5h2c-0.1,0.6-0.2,1.9-0.2,2.7v12c0,3.8-2.8,5.6-6.4,5.6
		c-1.8,0-3.8-0.5-5.4-1.2l0.5-1.9C520.4,524.5,522.3,525,524,525z M528.2,512.1c0-0.7,0-1.4-0.1-2c-0.6-0.9-2-1.9-3.9-1.9
		c-2.9,0-4.1,2.3-4.1,5.9c0,3,1.1,5.3,3.7,5.3c2.5,0,3.8-1.7,4.2-2.7c0.1-0.5,0.1-1.2,0.1-1.8V512.1z"/>
	<path id="XMLID_1007_" class="st6" d="M538,503.9h-2.5v-2.3h2.5V503.9z M537.9,521h-2.3v-14.4h2.3V521z"/>
	<path id="XMLID_1010_" class="st6" d="M544.9,506.4c0.2,0.6,0.5,1.5,0.5,2.1c1.1-1.2,3.1-2.1,4.9-2.1c3.4,0,4.6,2.1,4.6,5.1v9.6
		h-2.2v-9c0-2-0.6-3.7-3-3.7c-1.5,0-3.2,0.8-4.2,1.9V521h-2.3v-11.5c0-0.9-0.1-2-0.3-2.8L544.9,506.4z"/>
	<path id="XMLID_1012_" class="st6" d="M565.4,525c3.2,0,4.2-2,4.2-4v-2.2c-0.7,1-2.2,2.5-4.7,2.5c-3.5,0-5.6-2.4-5.6-7.2
		c0-4.2,1.5-7.9,6-7.9c1.8,0,3.6,0.8,4.5,1.9c0-0.4,0.1-1.1,0.2-1.5h2c-0.1,0.6-0.2,1.9-0.2,2.7v12c0,3.8-2.8,5.6-6.4,5.6
		c-1.8,0-3.8-0.5-5.4-1.2l0.5-1.9C561.8,524.5,563.8,525,565.4,525z M569.6,512.1c0-0.7,0-1.4-0.1-2c-0.6-0.9-2-1.9-3.9-1.9
		c-2.9,0-4.1,2.3-4.1,5.9c0,3,1.1,5.3,3.7,5.3c2.5,0,3.8-1.7,4.2-2.7c0.1-0.5,0.1-1.2,0.1-1.8V512.1z"/>
	<path id="XMLID_1015_" class="st6" d="M582.9,514c0-4.2,1.7-7.8,6.9-7.8c1.3,0,2.5,0.2,3.4,0.5l-0.4,1.9c-0.9-0.4-2-0.5-2.9-0.5
		c-3.5,0-4.7,2.6-4.7,5.9c0,3.1,1.3,5.5,4.8,5.5c1,0,2.2-0.2,3-0.5l0.3,2c-0.8,0.3-2.1,0.5-3.5,0.5
		C584.5,521.4,582.9,517.8,582.9,514L582.9,514z"/>
	<path id="XMLID_1017_" class="st6" d="M609.8,513.8c0,3.8-1.6,7.7-6.8,7.7c-5.2,0-6.8-3.9-6.8-7.8c0-3.7,1.6-7.6,6.8-7.6
		C608.2,506.1,609.8,510,609.8,513.8L609.8,513.8z M603,519.6c2.9,0,4.4-2,4.4-5.8c0-3.7-1.5-5.7-4.4-5.7s-4.4,2-4.4,5.7
		C598.5,517.5,600,519.6,603,519.6L603,519.6z"/>
	<path id="XMLID_1020_" class="st6" d="M615.9,506.4c0.2,0.6,0.4,1.5,0.5,2.1c1.1-1.2,3.1-2.1,4.9-2.1c3.4,0,4.6,2.1,4.6,5.1v9.6
		h-2.2v-9c0-2-0.6-3.7-3-3.7c-1.5,0-3.2,0.8-4.2,1.9V521h-2.3v-11.5c0-0.9-0.1-2-0.3-2.8L615.9,506.4z"/>
	<path id="XMLID_1022_" class="st6" d="M638.5,508.8c-0.9-0.4-2.2-0.8-3.4-0.8c-1,0-2.5,0.4-2.5,2.1c0,1.2,0.8,1.7,2.8,2.6
		c2.2,1,3.9,2,3.9,4.4c0,3.3-2.4,4.3-4.6,4.3c-1.5,0-3.6-0.4-4.9-0.9l0.5-1.9c1.2,0.5,2.9,0.9,4.1,0.9c1.4,0,2.6-0.5,2.6-2.3
		c0-1.3-1.1-2-3.3-2.9c-2.1-0.9-3.4-1.7-3.4-4c0-3.2,2.7-3.9,4.7-3.9c1.3,0,3,0.3,3.9,0.7L638.5,508.8z"/>
	<path id="XMLID_1024_" class="st6" d="M648.9,519.3v1.7l-1.2,0.1c-2.3,0.1-3.7-0.7-3.7-3.3v-9.2h-2.4v-1.8h2.4v-3.4l2.2-0.5v3.9
		h3.2v1.8h-3.2v8.5c0,1.8,0.5,2.3,1.9,2.3H648.9z"/>
	<path id="XMLID_1026_" class="st6" d="M663.8,520.8l-1.9,0.4c-0.6-0.7-0.9-1.7-1-2.6c-0.8,1.7-2.7,2.7-4.6,2.7
		c-2.3,0-4.6-1.1-4.6-4.3c0-3.4,1.8-4.4,9-4.8v-1.2c0-1.7-0.3-2.8-2.9-2.8c-1.5,0-3,0.4-4.4,1.2l-0.5-1.9c1.3-0.7,3.3-1.2,5.2-1.2
		c3.7,0,4.8,1.6,4.8,4.7v5.8C662.7,518.5,663.1,520,663.8,520.8z M653.8,516.9c0,2.1,1.8,2.5,2.9,2.5c2.1,0,3.5-1.4,3.9-3v-2.5
		C655.3,514.2,653.8,514.7,653.8,516.9z"/>
	<path id="XMLID_1029_" class="st6" d="M669.7,506.4c0.2,0.6,0.5,1.5,0.5,2.1c1.1-1.2,3.1-2.1,4.9-2.1c3.4,0,4.6,2.1,4.6,5.1v9.6
		h-2.2v-9c0-2-0.6-3.7-3-3.7c-1.5,0-3.2,0.8-4.2,1.9V521H668v-11.5c0-0.9-0.1-2-0.3-2.8L669.7,506.4z"/>
	<path id="XMLID_1031_" class="st6" d="M690.3,519.3v1.7l-1.2,0.1c-2.3,0.1-3.7-0.7-3.7-3.3v-9.2h-2.4v-1.8h2.4v-3.4l2.2-0.5v3.9
		h3.2v1.8h-3.2v8.5c0,1.8,0.5,2.3,1.9,2.3H690.3z"/>
	<path id="XMLID_1033_" class="st6" d="M696.6,521h-2.3v-19.9l2.3-0.3V521z"/>
	<path id="XMLID_1035_" class="st6" d="M710.4,506.6h2.5c-1.2,3.7-3.4,9.9-5,13.9c-1.3,3.2-2.6,5.4-3.7,6.5l-2.2-1
		c1.1-1,2.5-3,3.6-5.8l-5.7-13.6h2.5l4.4,11.1C708.1,514.2,709.5,509.7,710.4,506.6z"/>
	<path id="XMLID_1037_" class="st6" d="M718.2,521h-2.5v-2.8h2.5V521z"/>
	<path id="XMLID_1039_" class="st6" d="M732.4,521h-2.3v-19.2h2.3V521z"/>
	<path id="XMLID_1041_" class="st6" d="M79,554v-19.9l2.2-0.3v7.9c0.6-0.9,2.1-2.4,4.7-2.4c3.4,0,5.6,2.4,5.6,7.2
		c0,4.2-1.5,7.9-6,7.9c-1.7,0-3.6-0.9-4.4-1.8l-0.3,1.5H79z M81.1,548.5c0,0.7,0,1.5,0.1,2c0.6,0.9,2,2,3.9,2c2.9,0,4.1-2.3,4.1-5.9
		c0-3-1.1-5.3-3.7-5.3c-2.5,0-3.8,1.7-4.2,2.7c-0.1,0.5-0.1,1.2-0.1,1.8V548.5z"/>
	<path id="XMLID_1044_" class="st6" d="M102.3,552.5c1.6,0,3.2-0.3,4.3-0.8l0.4,1.8c-1,0.5-2.9,1-4.9,1c-4.6,0-7.1-2.8-7.1-7.4
		c0-4.5,2.3-7.9,6.7-7.9c3.7,0,5.5,2.4,5.5,6.6v1.3h-10C97.2,550.9,99.3,552.5,102.3,552.5L102.3,552.5z M101.5,540.9
		c-2.4,0-3.8,2-4.1,4.4h7.8C105.2,542.4,104.1,540.9,101.5,540.9L101.5,540.9z"/>
	<path id="XMLID_1047_" class="st6" d="M114,554h-2.3v-19.9l2.3-0.3V554z"/>
	<path id="XMLID_1049_" class="st6" d="M121.6,536.9h-2.5v-2.3h2.5V536.9z M121.5,554h-2.3v-14.4h2.3V554z"/>
	<path id="XMLID_1052_" class="st6" d="M133.1,552.5c1.6,0,3.2-0.3,4.3-0.8l0.4,1.8c-1,0.5-2.9,1-4.9,1c-4.6,0-7.1-2.8-7.1-7.4
		c0-4.5,2.3-7.9,6.7-7.9c3.7,0,5.5,2.4,5.5,6.6v1.3h-10C128,550.9,130.1,552.5,133.1,552.5L133.1,552.5z M132.3,540.9
		c-2.4,0-3.8,2-4.1,4.4h7.8C136,542.4,134.9,540.9,132.3,540.9L132.3,540.9z"/>
	<path id="XMLID_1055_" class="st6" d="M151.4,539.6h2.4l-5.6,14.4h-2.1l-5.6-14.4h2.4l4.3,11.6L151.4,539.6z"/>
	<path id="XMLID_1057_" class="st6" d="M163.5,552.5c1.6,0,3.2-0.3,4.3-0.8l0.4,1.8c-1,0.5-2.9,1-4.9,1c-4.6,0-7.1-2.8-7.1-7.4
		c0-4.5,2.3-7.9,6.7-7.9c3.7,0,5.5,2.4,5.5,6.6v1.3h-10C158.4,550.9,160.5,552.5,163.5,552.5L163.5,552.5z M162.7,540.9
		c-2.4,0-3.8,2-4.1,4.4h7.8C166.4,542.4,165.3,540.9,162.7,540.9L162.7,540.9z"/>
	<path id="XMLID_1060_" class="st6" d="M182.2,554h-2.3v-19.2h2.3V554z"/>
	<path id="XMLID_1062_" class="st6" d="M205.2,553.8l-1.9,0.4c-0.6-0.7-0.9-1.7-1-2.6c-0.8,1.8-2.7,2.7-4.6,2.7
		c-2.3,0-4.6-1.2-4.6-4.3c0-3.4,1.7-4.4,9-4.8v-1.2c0-1.7-0.3-2.8-2.9-2.8c-1.5,0-3,0.4-4.4,1.2l-0.5-1.9c1.3-0.7,3.3-1.2,5.2-1.2
		c3.7,0,4.8,1.6,4.8,4.7v5.8C204.2,551.5,204.5,553,205.2,553.8z M195.2,549.9c0,2.2,1.8,2.5,2.9,2.5c2.1,0,3.5-1.4,3.9-3v-2.5
		C196.8,547.2,195.2,547.7,195.2,549.9z"/>
	<path id="XMLID_1065_" class="st6" d="M216.4,539.3c2.1,0,3.3,0.9,3.9,2.2c1.3-1.3,3.4-2.2,5.2-2.2c3.4,0,4.6,2.1,4.6,5.1v9.6h-2.2
		v-9c0-1.9-0.6-3.8-3-3.8c-1.3,0-3.1,0.8-4.1,1.8c0.1,0.6,0.2,1.4,0.2,2.3v8.6h-2.2v-9c0-2-0.6-3.7-3-3.7c-1.3,0-3,0.8-4,1.9V554
		h-2.3v-11.5c0-0.9-0.1-2-0.3-2.8l2.1-0.3c0.2,0.6,0.4,1.5,0.5,2.1C212.7,540.3,214.6,539.3,216.4,539.3z"/>
	<path id="XMLID_1067_" class="st6" d="M246.8,554.3c-3.4,0-5.6-2.4-5.6-7.2c0-4.2,1.5-7.9,6-7.9c1.7,0,3.4,0.8,4.3,1.8v-6.9
		l2.2-0.3v15.8c0,1.5,0.1,3.1,0.6,4.2l-2,0.4c-0.4-0.7-0.6-1.6-0.6-2.4C251.1,552.8,249.6,554.3,246.8,554.3L246.8,554.3z
		 M251.6,545.1c0-0.7,0-1.4-0.2-2c-0.6-0.9-2-1.9-3.9-1.9c-2.9,0-4.1,2.3-4.1,5.9c0,3,1,5.3,3.7,5.3c2.5,0,3.8-1.7,4.2-2.7
		c0.1-0.4,0.2-1.2,0.2-1.8V545.1z"/>
	<path id="XMLID_1070_" class="st6" d="M261.4,536.9h-2.5v-2.3h2.5V536.9z M261.3,554h-2.3v-14.4h2.3V554z"/>
	<path id="XMLID_1073_" class="st6" d="M264.6,541.5v-1.8h2.6V539c0-2.6,0.8-5.4,4.6-5.4c0.8,0,1.8,0.1,2.6,0.3l-0.4,1.9
		c-0.6-0.2-1.4-0.3-1.9-0.3c-1.9,0-2.7,0.8-2.7,3.5v0.6h3.5v1.8h-3.5V554h-2.2v-12.5H264.6z"/>
	<path id="XMLID_1075_" class="st6" d="M273.9,541.5v-1.8h2.6V539c0-2.6,0.8-5.4,4.6-5.4c0.8,0,1.8,0.1,2.6,0.3l-0.4,1.9
		c-0.6-0.2-1.4-0.3-1.9-0.3c-1.9,0-2.7,0.8-2.7,3.5v0.6h3.5v1.8h-3.5V554h-2.2v-12.5H273.9z"/>
	<path id="XMLID_1077_" class="st6" d="M291.4,552.5c1.6,0,3.2-0.3,4.3-0.8l0.4,1.8c-1,0.5-2.9,1-4.9,1c-4.6,0-7.1-2.8-7.1-7.4
		c0-4.5,2.3-7.9,6.7-7.9c3.7,0,5.5,2.4,5.5,6.6v1.3h-10C286.3,550.9,288.4,552.5,291.4,552.5L291.4,552.5z M290.6,540.9
		c-2.4,0-3.8,2-4.1,4.4h7.8C294.3,542.4,293.2,540.9,290.6,540.9L290.6,540.9z"/>
	<path id="XMLID_1080_" class="st6" d="M307.8,539.4l-0.1,2c-1.8,0-3.8,0.7-4.6,2.5V554h-2.3v-10.6c0-1.4-0.1-2.8-0.3-3.7l2-0.3
		c0.2,0.6,0.4,1.7,0.5,2.4C303.9,540.3,305.8,539.4,307.8,539.4z"/>
	<path id="XMLID_1082_" class="st6" d="M317.3,552.5c1.6,0,3.2-0.3,4.3-0.8l0.4,1.8c-1,0.5-2.9,1-4.9,1c-4.6,0-7.1-2.8-7.1-7.4
		c0-4.5,2.3-7.9,6.7-7.9c3.7,0,5.5,2.4,5.5,6.6v1.3h-10C312.1,550.9,314.3,552.5,317.3,552.5L317.3,552.5z M316.4,540.9
		c-2.4,0-3.8,2-4.1,4.4h7.8C320.1,542.4,319,540.9,316.4,540.9L316.4,540.9z"/>
	<path id="XMLID_1085_" class="st6" d="M328.4,539.4c0.2,0.6,0.4,1.5,0.5,2.1c1.1-1.2,3.1-2.2,4.9-2.2c3.4,0,4.6,2.1,4.6,5.1v9.6
		h-2.2v-9c0-2-0.6-3.7-3-3.7c-1.5,0-3.2,0.8-4.2,1.9V554h-2.3v-11.5c0-0.9-0.1-2-0.3-2.8L328.4,539.4z"/>
	<path id="XMLID_1087_" class="st6" d="M349,552.3v1.7l-1.2,0.1c-2.3,0.2-3.7-0.7-3.7-3.3v-9.2h-2.4v-1.8h2.4v-3.4l2.2-0.6v3.9h3.2
		v1.8h-3.2v8.5c0,1.8,0.4,2.3,1.9,2.3H349z"/>
	<path id="XMLID_1089_" class="st6" d="M357.8,541.5v-1.8h2.6V539c0-2.6,0.8-5.4,4.6-5.4c0.8,0,1.8,0.1,2.6,0.3l-0.4,1.9
		c-0.6-0.2-1.4-0.3-1.9-0.3c-1.9,0-2.7,0.8-2.7,3.5v0.6h3.5v1.8h-3.5V554h-2.2v-12.5H357.8z"/>
	<path id="XMLID_1091_" class="st6" d="M376,539.4l-0.1,2c-1.8,0-3.8,0.7-4.6,2.5V554h-2.3v-10.6c0-1.4-0.1-2.8-0.3-3.7l2-0.3
		c0.2,0.6,0.5,1.7,0.5,2.4C372.1,540.3,374,539.4,376,539.4z"/>
	<path id="XMLID_1093_" class="st6" d="M391.8,546.8c0,3.8-1.6,7.7-6.8,7.7c-5.2,0-6.8-3.9-6.8-7.8c0-3.7,1.6-7.6,6.8-7.6
		C390.2,539.1,391.8,543,391.8,546.8L391.8,546.8z M385,552.6c2.9,0,4.4-2,4.4-5.8c0-3.7-1.5-5.7-4.4-5.7s-4.4,2-4.4,5.7
		C380.5,550.5,382,552.6,385,552.6L385,552.6z"/>
	<path id="XMLID_1096_" class="st6" d="M403.2,539.3c2.1,0,3.3,0.9,3.9,2.2c1.3-1.3,3.4-2.2,5.2-2.2c3.4,0,4.6,2.1,4.6,5.1v9.6h-2.2
		v-9c0-1.9-0.6-3.8-3-3.8c-1.3,0-3.1,0.8-4.1,1.8c0.1,0.6,0.2,1.4,0.2,2.3v8.6h-2.2v-9c0-2-0.6-3.7-3-3.7c-1.3,0-3,0.8-4,1.9V554
		h-2.3v-11.5c0-0.9-0.1-2-0.3-2.8l2.1-0.3c0.2,0.6,0.4,1.5,0.5,2.1C399.5,540.3,401.4,539.3,403.2,539.3z"/>
	<path id="XMLID_1098_" class="st6" d="M437.5,539.6h2.5c-1.2,3.7-3.4,9.9-5,13.9c-1.3,3.2-2.6,5.4-3.7,6.5l-2.2-1
		c1.1-1,2.5-3,3.6-5.8l-5.7-13.6h2.5l4.4,11.1C435.1,547.2,436.6,542.7,437.5,539.6z"/>
	<path id="XMLID_1100_" class="st6" d="M449.6,552.5c1.6,0,3.2-0.3,4.3-0.8l0.4,1.8c-1,0.5-2.9,1-4.9,1c-4.6,0-7.1-2.8-7.1-7.4
		c0-4.5,2.3-7.9,6.7-7.9c3.7,0,5.5,2.4,5.5,6.6v1.3h-10C444.5,550.9,446.6,552.5,449.6,552.5L449.6,552.5z M448.8,540.9
		c-2.4,0-3.8,2-4.1,4.4h7.8C452.4,542.4,451.4,540.9,448.8,540.9L448.8,540.9z"/>
	<path id="XMLID_1103_" class="st6" d="M466.3,541.8c-0.9-0.4-2.2-0.8-3.4-0.8c-1,0-2.5,0.4-2.5,2.1c0,1.2,0.8,1.7,2.8,2.6
		c2.2,1,3.9,2,3.9,4.4c0,3.3-2.4,4.3-4.6,4.3c-1.5,0-3.6-0.4-4.9-0.9l0.5-1.9c1.2,0.5,2.9,0.9,4.1,0.9c1.4,0,2.6-0.5,2.6-2.3
		c0-1.3-1.1-2-3.3-2.9c-2.1-0.9-3.4-1.7-3.4-4c0-3.2,2.7-3.9,4.7-3.9c1.3,0,3,0.3,3.9,0.7L466.3,541.8z"/>
	<path id="XMLID_1105_" class="st6" d="M476.7,552.3v1.7l-1.2,0.1c-2.3,0.2-3.7-0.7-3.7-3.3v-9.2h-2.4v-1.8h2.4v-3.4l2.2-0.6v3.9
		h3.2v1.8H474v8.5c0,1.8,0.5,2.3,1.9,2.3H476.7z"/>
	<path id="XMLID_1107_" class="st6" d="M487.1,552.5c1.6,0,3.2-0.3,4.3-0.8l0.4,1.8c-1,0.5-2.9,1-4.9,1c-4.6,0-7.1-2.8-7.1-7.4
		c0-4.5,2.3-7.9,6.7-7.9c3.7,0,5.5,2.4,5.5,6.6v1.3h-10C482,550.9,484.1,552.5,487.1,552.5L487.1,552.5z M486.3,540.9
		c-2.4,0-3.8,2-4.1,4.4h7.8C490,542.4,488.9,540.9,486.3,540.9L486.3,540.9z"/>
	<path id="XMLID_1110_" class="st6" d="M503.5,539.4l-0.1,2c-1.8,0-3.8,0.7-4.6,2.5V554h-2.3v-10.6c0-1.4-0.1-2.8-0.3-3.7l2-0.3
		c0.2,0.6,0.4,1.7,0.5,2.4C499.6,540.3,501.5,539.4,503.5,539.4z"/>
	<path id="XMLID_1112_" class="st6" d="M511.3,554.3c-3.4,0-5.6-2.4-5.6-7.2c0-4.2,1.5-7.9,6-7.9c1.7,0,3.4,0.8,4.3,1.8v-6.9
		l2.2-0.3v15.8c0,1.5,0.1,3.1,0.6,4.2l-2,0.4c-0.4-0.7-0.6-1.6-0.6-2.4C515.6,552.8,514.1,554.3,511.3,554.3L511.3,554.3z
		 M516.1,545.1c0-0.7,0-1.4-0.2-2c-0.6-0.9-2-1.9-3.9-1.9c-2.9,0-4.1,2.3-4.1,5.9c0,3,1,5.3,3.7,5.3c2.5,0,3.8-1.7,4.2-2.7
		c0.1-0.4,0.2-1.2,0.2-1.8V545.1z"/>
	<path id="XMLID_1115_" class="st6" d="M534.4,553.8l-1.9,0.4c-0.6-0.7-0.9-1.7-1-2.6c-0.8,1.8-2.7,2.7-4.6,2.7
		c-2.3,0-4.6-1.2-4.6-4.3c0-3.4,1.8-4.4,9-4.8v-1.2c0-1.7-0.3-2.8-2.9-2.8c-1.5,0-3,0.4-4.4,1.2l-0.5-1.9c1.3-0.7,3.3-1.2,5.2-1.2
		c3.7,0,4.8,1.6,4.8,4.7v5.8C533.4,551.5,533.7,553,534.4,553.8z M524.4,549.9c0,2.2,1.8,2.5,2.9,2.5c2.1,0,3.5-1.4,3.9-3v-2.5
		C525.9,547.2,524.4,547.7,524.4,549.9z"/>
	<path id="XMLID_1118_" class="st6" d="M547.1,539.6h2.5c-1.2,3.7-3.4,9.9-5,13.9c-1.3,3.2-2.6,5.4-3.7,6.5l-2.2-1
		c1.1-1,2.5-3,3.6-5.8l-5.7-13.6h2.5l4.4,11.1C544.8,547.2,546.2,542.7,547.1,539.6z"/>
	<path id="XMLID_1120_" class="st6" d="M570.5,553.8l-1.9,0.4c-0.6-0.7-0.9-1.7-1-2.6c-0.8,1.8-2.7,2.7-4.6,2.7
		c-2.3,0-4.6-1.2-4.6-4.3c0-3.4,1.8-4.4,9-4.8v-1.2c0-1.7-0.3-2.8-2.9-2.8c-1.5,0-3,0.4-4.4,1.2l-0.5-1.9c1.3-0.7,3.3-1.2,5.2-1.2
		c3.7,0,4.8,1.6,4.8,4.7v5.8C569.4,551.5,569.8,553,570.5,553.8z M560.4,549.9c0,2.2,1.8,2.5,2.9,2.5c2.1,0,3.5-1.4,3.9-3v-2.5
		C562,547.2,560.4,547.7,560.4,549.9z"/>
	<path id="XMLID_1123_" class="st6" d="M581.9,541.8c-0.9-0.4-2.2-0.8-3.4-0.8c-1,0-2.5,0.4-2.5,2.1c0,1.2,0.8,1.7,2.8,2.6
		c2.2,1,3.9,2,3.9,4.4c0,3.3-2.4,4.3-4.6,4.3c-1.5,0-3.6-0.4-4.9-0.9l0.5-1.9c1.2,0.5,2.9,0.9,4.1,0.9c1.4,0,2.6-0.5,2.6-2.3
		c0-1.3-1.1-2-3.3-2.9c-2.1-0.9-3.4-1.7-3.4-4c0-3.2,2.7-3.9,4.7-3.9c1.3,0,3,0.3,3.9,0.7L581.9,541.8z"/>
	<path id="XMLID_1125_" class="st6" d="M611.4,539.6h2.5l-4.8,14.4h-2.2l-4.1-11.5l-4,11.5h-2.2l-4.7-14.4h2.5l3.5,11.7l3.9-11.4
		h2.2l4,11.4L611.4,539.6z"/>
	<path id="XMLID_1127_" class="st6" d="M623.7,552.5c1.6,0,3.2-0.3,4.3-0.8l0.4,1.8c-1,0.5-2.9,1-4.9,1c-4.6,0-7.1-2.8-7.1-7.4
		c0-4.5,2.3-7.9,6.7-7.9c3.7,0,5.5,2.4,5.5,6.6v1.3h-10C618.6,550.9,620.7,552.5,623.7,552.5L623.7,552.5z M622.9,540.9
		c-2.4,0-3.8,2-4.1,4.4h7.8C626.6,542.4,625.5,540.9,622.9,540.9L622.9,540.9z"/>
	<path id="XMLID_1130_" class="st6" d="M635.4,554h-2.3v-19.9l2.3-0.3V554z"/>
	<path id="XMLID_1132_" class="st6" d="M642.9,554h-2.3v-19.9l2.3-0.3V554z"/>
	<path id="XMLID_1134_" class="st6" d="M665.8,553.8l-1.9,0.4c-0.6-0.7-0.9-1.7-1-2.6c-0.8,1.8-2.7,2.7-4.6,2.7
		c-2.3,0-4.6-1.2-4.6-4.3c0-3.4,1.8-4.4,9-4.8v-1.2c0-1.7-0.3-2.8-2.9-2.8c-1.5,0-3,0.4-4.4,1.2l-0.5-1.9c1.3-0.7,3.3-1.2,5.2-1.2
		c3.7,0,4.8,1.6,4.8,4.7v5.8C664.8,551.5,665.1,553,665.8,553.8z M655.8,549.9c0,2.2,1.8,2.5,2.9,2.5c2.1,0,3.5-1.4,3.9-3v-2.5
		C657.3,547.2,655.8,547.7,655.8,549.9z"/>
	<path id="XMLID_1137_" class="st6" d="M677.3,541.8c-0.9-0.4-2.2-0.8-3.4-0.8c-1,0-2.5,0.4-2.5,2.1c0,1.2,0.8,1.7,2.8,2.6
		c2.2,1,3.9,2,3.9,4.4c0,3.3-2.4,4.3-4.6,4.3c-1.5,0-3.6-0.4-4.9-0.9l0.5-1.9c1.2,0.5,2.9,0.9,4.1,0.9c1.4,0,2.6-0.5,2.6-2.3
		c0-1.3-1.1-2-3.3-2.9c-2.1-0.9-3.4-1.7-3.4-4c0-3.2,2.7-3.9,4.7-3.9c1.3,0,3,0.3,3.9,0.7L677.3,541.8z"/>
	<path id="XMLID_1139_" class="st6" d="M696.1,539.3c2.1,0,3.3,0.9,3.9,2.2c1.3-1.3,3.4-2.2,5.2-2.2c3.4,0,4.6,2.1,4.6,5.1v9.6h-2.2
		v-9c0-1.9-0.6-3.8-3-3.8c-1.3,0-3.1,0.8-4.1,1.8c0.1,0.6,0.2,1.4,0.2,2.3v8.6h-2.2v-9c0-2-0.6-3.7-3-3.7c-1.3,0-3,0.8-4,1.9V554
		h-2.3v-11.5c0-0.9-0.1-2-0.3-2.8l2.1-0.3c0.2,0.6,0.4,1.5,0.5,2.1C692.4,540.3,694.3,539.3,696.1,539.3z"/>
	<path id="XMLID_1141_" class="st6" d="M723.6,539.6h2.5c-1.2,3.7-3.4,9.9-5,13.9c-1.3,3.2-2.6,5.4-3.7,6.5l-2.2-1
		c1.1-1,2.5-3,3.6-5.8l-5.7-13.6h2.5l4.4,11.1C721.3,547.2,722.7,542.7,723.6,539.6z"/>
	<path id="XMLID_1143_" class="st6" d="M263,585.3v1.7l-1.2,0.1c-2.3,0.2-3.7-0.7-3.7-3.3v-9.2h-2.4v-1.8h2.4v-3.4l2.2-0.5v3.9h3.2
		v1.8h-3.2v8.5c0,1.8,0.4,2.3,1.9,2.3H263z"/>
	<path id="XMLID_1145_" class="st6" d="M273.4,585.5c1.6,0,3.2-0.3,4.3-0.8l0.4,1.8c-1,0.5-2.9,1-4.9,1c-4.6,0-7.1-2.8-7.1-7.4
		c0-4.5,2.3-7.9,6.7-7.9c3.7,0,5.5,2.4,5.5,6.6v1.3h-10C268.3,583.9,270.4,585.5,273.4,585.5L273.4,585.5z M272.6,573.9
		c-2.4,0-3.8,2-4.1,4.4h7.8C276.3,575.4,275.2,573.9,272.6,573.9L272.6,573.9z"/>
	<path id="XMLID_1148_" class="st6" d="M281.9,580c0-4.2,1.7-7.8,6.9-7.8c1.3,0,2.5,0.2,3.4,0.5l-0.4,2c-0.9-0.4-2-0.5-2.9-0.5
		c-3.5,0-4.7,2.6-4.7,5.9c0,3.1,1.3,5.5,4.8,5.5c1,0,2.2-0.2,3-0.5l0.3,2c-0.7,0.3-2.1,0.5-3.5,0.5
		C283.5,587.4,281.9,583.8,281.9,580L281.9,580z"/>
	<path id="XMLID_1150_" class="st6" d="M303.2,572.3c3.4,0,4.6,2.1,4.6,5.1v9.6h-2.2v-9c0-2-0.6-3.7-3-3.7c-1.5,0-3.3,0.8-4.2,1.9
		V587h-2.3v-19.9l2.3-0.3v7.7C299.5,573.2,301.3,572.3,303.2,572.3z"/>
	<path id="XMLID_1152_" class="st6" d="M314.8,572.4c0.2,0.6,0.4,1.5,0.5,2.1c1.1-1.2,3.1-2.2,4.9-2.2c3.4,0,4.6,2.1,4.6,5.1v9.6
		h-2.2v-9c0-2-0.6-3.7-3-3.7c-1.5,0-3.2,0.8-4.2,1.9V587h-2.3v-11.5c0-0.9-0.1-2-0.3-2.8L314.8,572.4z"/>
	<path id="XMLID_1154_" class="st6" d="M342.7,579.8c0,3.8-1.6,7.7-6.8,7.7c-5.2,0-6.8-3.9-6.8-7.8c0-3.7,1.6-7.6,6.8-7.6
		C341.1,572.1,342.7,576,342.7,579.8L342.7,579.8z M335.9,585.6c2.9,0,4.4-2,4.4-5.8c0-3.7-1.5-5.7-4.4-5.7s-4.4,2-4.4,5.7
		C331.4,583.5,332.9,585.6,335.9,585.6L335.9,585.6z"/>
	<path id="XMLID_1157_" class="st6" d="M349.4,587h-2.3v-19.9l2.3-0.3V587z"/>
	<path id="XMLID_1159_" class="st6" d="M367.3,579.8c0,3.8-1.6,7.7-6.8,7.7c-5.2,0-6.8-3.9-6.8-7.8c0-3.7,1.6-7.6,6.8-7.6
		C365.7,572.1,367.3,576,367.3,579.8L367.3,579.8z M360.6,585.6c2.9,0,4.4-2,4.4-5.8c0-3.7-1.5-5.7-4.4-5.7s-4.4,2-4.4,5.7
		C356.1,583.5,357.6,585.6,360.6,585.6L360.6,585.6z"/>
	<path id="XMLID_1162_" class="st6" d="M377.1,591c3.2,0,4.2-2,4.2-4v-2.2c-0.7,1-2.2,2.5-4.7,2.5c-3.5,0-5.6-2.4-5.6-7.2
		c0-4.2,1.5-7.9,6-7.9c1.8,0,3.6,0.8,4.5,1.9c0-0.4,0.1-1.1,0.2-1.5h2c-0.1,0.7-0.2,1.9-0.2,2.7v12c0,3.8-2.8,5.6-6.4,5.6
		c-1.8,0-3.8-0.5-5.4-1.2l0.5-1.9C373.5,590.5,375.4,591,377.1,591z M381.3,578.1c0-0.7,0-1.4-0.1-2c-0.6-0.9-2-1.9-3.9-1.9
		c-2.9,0-4.1,2.3-4.1,5.9c0,3,1.1,5.3,3.7,5.3c2.5,0,3.8-1.7,4.2-2.7c0.1-0.4,0.1-1.2,0.1-1.8V578.1z"/>
	<path id="XMLID_1165_" class="st6" d="M397.3,572.6h2.5c-1.2,3.7-3.4,9.9-5,13.9c-1.3,3.2-2.6,5.4-3.7,6.5l-2.2-1
		c1.1-1,2.5-3,3.6-5.8l-5.7-13.6h2.5l4.4,11.1C394.9,580.2,396.4,575.7,397.3,572.6z"/>
	<path id="XMLID_1167_" class="st6" d="M420.6,586.8l-1.9,0.4c-0.6-0.7-0.9-1.7-1-2.6c-0.8,1.8-2.7,2.7-4.6,2.7
		c-2.3,0-4.6-1.2-4.6-4.3c0-3.4,1.8-4.4,9-4.8v-1.2c0-1.7-0.3-2.8-2.9-2.8c-1.5,0-3,0.5-4.4,1.2l-0.5-1.9c1.3-0.7,3.3-1.2,5.2-1.2
		c3.7,0,4.8,1.6,4.8,4.7v5.8C419.6,584.5,419.9,586,420.6,586.8z M410.6,582.9c0,2.1,1.8,2.5,2.9,2.5c2.1,0,3.5-1.4,3.9-3v-2.5
		C412.1,580.2,410.6,580.7,410.6,582.9z"/>
	<path id="XMLID_1170_" class="st6" d="M426.5,572.4c0.2,0.6,0.4,1.5,0.5,2.1c1.1-1.2,3.1-2.2,4.9-2.2c3.4,0,4.6,2.1,4.6,5.1v9.6
		h-2.2v-9c0-2-0.6-3.7-3-3.7c-1.5,0-3.2,0.8-4.2,1.9V587h-2.3v-11.5c0-0.9-0.1-2-0.3-2.8L426.5,572.4z"/>
	<path id="XMLID_1172_" class="st6" d="M446.4,587.3c-3.4,0-5.6-2.4-5.6-7.2c0-4.2,1.5-7.9,6-7.9c1.7,0,3.4,0.8,4.3,1.8v-6.9
		l2.2-0.3v15.8c0,1.5,0.1,3.1,0.6,4.2l-2,0.4c-0.4-0.7-0.6-1.6-0.6-2.4C450.7,585.8,449.2,587.3,446.4,587.3L446.4,587.3z
		 M451.3,578.1c0-0.7,0-1.4-0.2-2c-0.6-0.9-2-1.9-3.9-1.9c-2.9,0-4.1,2.3-4.1,5.9c0,3,1,5.3,3.7,5.3c2.5,0,3.8-1.7,4.2-2.7
		c0.1-0.4,0.2-1.2,0.2-1.8V578.1z"/>
	<path id="XMLID_1175_" class="st6" d="M476.3,586.8l-1.9,0.4c-0.6-0.7-0.9-1.7-1-2.6c-0.8,1.8-2.7,2.7-4.6,2.7
		c-2.3,0-4.6-1.2-4.6-4.3c0-3.4,1.8-4.4,9-4.8v-1.2c0-1.7-0.3-2.8-2.9-2.8c-1.5,0-3,0.5-4.4,1.2l-0.5-1.9c1.3-0.7,3.3-1.2,5.2-1.2
		c3.7,0,4.8,1.6,4.8,4.7v5.8C475.3,584.5,475.6,586,476.3,586.8z M466.3,582.9c0,2.1,1.8,2.5,2.9,2.5c2.1,0,3.5-1.4,3.9-3v-2.5
		C467.8,580.2,466.3,580.7,466.3,582.9z"/>
	<path id="XMLID_1178_" class="st6" d="M480.4,587v-19.9l2.2-0.3v7.9c0.6-0.9,2.1-2.4,4.7-2.4c3.4,0,5.6,2.4,5.6,7.2
		c0,4.2-1.5,7.9-6,7.9c-1.7,0-3.6-0.9-4.4-1.8l-0.3,1.5H480.4z M482.6,581.5c0,0.7,0,1.5,0.1,2c0.6,0.9,2,2,3.9,2
		c2.9,0,4.1-2.3,4.1-5.9c0-3-1.1-5.3-3.7-5.3c-2.5,0-3.8,1.7-4.2,2.7c-0.1,0.4-0.1,1.2-0.1,1.8V581.5z"/>
	<path id="XMLID_1181_" class="st6" d="M499.8,569.9h-2.5v-2.3h2.5V569.9z M499.7,587h-2.3v-14.4h2.3V587z"/>
	<path id="XMLID_1184_" class="st6" d="M507.2,587h-2.3v-19.9l2.3-0.3V587z"/>
	<path id="XMLID_1186_" class="st6" d="M514.8,569.9h-2.5v-2.3h2.5V569.9z M514.7,587h-2.3v-14.4h2.3V587z"/>
	<path id="XMLID_1189_" class="st6" d="M525.3,585.3v1.7l-1.2,0.1c-2.3,0.2-3.7-0.7-3.7-3.3v-9.2H518v-1.8h2.4v-3.4l2.2-0.5v3.9h3.2
		v1.8h-3.2v8.5c0,1.8,0.5,2.3,1.9,2.3H525.3z"/>
	<path id="XMLID_1191_" class="st6" d="M537.9,572.6h2.5c-1.2,3.7-3.4,9.9-5,13.9c-1.3,3.2-2.6,5.4-3.7,6.5l-2.2-1
		c1.1-1,2.5-3,3.6-5.8l-5.7-13.6h2.5l4.4,11.1C535.6,580.2,537,575.7,537.9,572.6z"/>
	<path id="XMLID_1193_" class="st6" d="M545.8,587h-2.5v-2.8h2.5V587z"/>
</g>
<line id="XMLID_95_" class="st8" x1="379.3" y1="272.1" x2="406.7" y2="220.9"/>
</svg>
