<?xml version="1.0" encoding="utf-8"?>
<!-- Generator: Adobe Illustrator 19.0.0, SVG Export Plug-In . SVG Version: 6.00 Build 0)  -->
<svg version="1.1" id="图层_1" xmlns="http://www.w3.org/2000/svg" xmlns:xlink="http://www.w3.org/1999/xlink" x="0px" y="0px"
	 viewBox="-211 163.5 856.5 475.5" style="enable-background:new -211 163.5 856.5 475.5;" xml:space="preserve">
<style type="text/css">
	.st0{opacity:8.000000e-02;fill:none;stroke:#000000;stroke-miterlimit:10;enable-background:new    ;}
	.st1{opacity:8.000000e-02;fill:#FFFFFF;stroke:#000000;stroke-miterlimit:10;enable-background:new    ;}
</style>
<line class="st0" x1="643.5" y1="648" x2="598.3" y2="648"/>
<line class="st0" x1="306.1" y1="163.5" x2="399.1" y2="163.5"/>
<polygon class="st1" points="6.7,456.2 -19.7,548.9 -17.2,551.2 24.7,501 "/>
<polygon class="st1" points="293,411 297.8,421 301.3,417.5 "/>
<polygon class="st1" points="24.7,501 78.9,635.9 128.7,587 92.4,419.8 "/>
<polygon class="st1" points="-17.2,551.2 76.8,638 78.9,635.9 24.7,501 "/>
<polygon class="st1" points="175.6,320 92.4,419.8 128.7,587 297.8,421 293,411 "/>
<polygon class="st1" points="297.8,421 348,523.5 379.7,478.4 301.3,417.5 "/>
<polygon class="st1" points="483.6,330.9 643.5,648 645.5,648 645.5,357.5 569.5,208.9 "/>
<polygon class="st1" points="416.4,426.3 476.4,553.4 598.3,648 643.5,648 483.6,330.9 "/>
<polygon class="st1" points="377.2,343.1 301.3,417.5 379.7,478.4 416.4,426.3 "/>
<polygon class="st1" points="379.7,478.4 476.4,553.4 416.4,426.3 "/>
<polygon class="st1" points="81.5,642.4 78.9,635.9 76.8,638 "/>
<polygon class="st1" points="-100.1,474.6 -49.8,590.2 -22,556.9 -19.7,548.9 "/>
<polygon class="st1" points="-22,556.9 -17.2,551.2 -19.7,548.9 "/>
<polygon class="st1" points="92.4,419.8 59.8,269.9 6.7,456.2 24.7,501 "/>
<polygon class="st1" points="-38.7,615.5 -22,556.9 -49.8,590.2 "/>
<polygon class="st1" points="49.4,222 59.8,269.9 69.1,237.3 "/>
<polygon class="st1" points="645.5,357.5 645.5,163.5 601.5,163.5 569.5,208.9 "/>
<polygon class="st1" points="301.3,417.5 377.2,343.1 297.4,174 221.5,264.9 293,411 "/>
<polygon class="st1" points="221.5,264.9 175.6,320 293,411 "/>
<polygon class="st1" points="569.5,208.9 550.9,172.5 452.4,269.2 483.6,330.9 "/>
<polygon class="st1" points="483.6,330.9 452.4,269.2 377.2,343.1 416.4,426.3 "/>
<polygon class="st1" points="175.6,320 69.1,237.3 59.8,269.9 92.4,419.8 "/>
<polygon class="st1" points="-17.2,551.2 -22,556.9 -38.7,615.5 -24.6,648 66.6,648 76.8,638 "/>
<polygon class="st1" points="76.8,638 66.6,648 83.8,648 81.5,642.4 "/>
<polygon class="st1" points="-48,648 -24.6,648 -38.7,615.5 "/>
<polygon class="st1" points="83.8,648 87.5,648 81.5,642.4 "/>
<polygon class="st1" points="-49.8,590.2 -98,648 -48,648 -38.7,615.5 "/>
<polygon class="st1" points="379.7,478.4 348,523.5 408.8,648 521,648 476.4,553.4 "/>
<polygon class="st1" points="-100.1,474.6 -217,366.6 -217,648 -98,648 -49.8,590.2 "/>
<polygon class="st1" points="476.4,553.4 521,648 598.3,648 "/>
<polygon class="st1" points="260.3,648 408.8,648 348,523.5 "/>
<polygon class="st1" points="78.9,635.9 81.5,642.4 87.5,648 142,648 128.7,587 "/>
<polygon class="st1" points="297.8,421 128.7,587 142,648 260.3,648 348,523.5 "/>
<polygon class="st1" points="569.5,208.9 601.5,163.5 560.1,163.5 550.9,172.5 "/>
<polygon class="st1" points="-217,206.3 -217,366.6 -100.1,474.6 "/>
<polygon class="st1" points="377.2,343.1 452.4,269.2 399.1,163.5 306.1,163.5 297.4,174 "/>
<polygon class="st1" points="297.4,174 292.4,163.5 172,163.5 221.5,264.9 "/>
<polygon class="st1" points="550.9,172.5 546.4,163.5 399.1,163.5 452.4,269.2 "/>
<polygon class="st1" points="560.1,163.5 546.4,163.5 550.9,172.5 "/>
<polygon class="st1" points="306.1,163.5 292.4,163.5 297.4,174 "/>
<polygon class="st1" points="59.8,269.9 49.4,222 -26,163.5 -111,163.5 6.7,456.2 "/>
<polygon class="st1" points="-19.7,548.9 6.7,456.2 -111,163.5 -217,163.5 -217,206.3 -100.1,474.6 "/>
<polygon class="st1" points="36.7,163.5 -26,163.5 49.4,222 "/>
<polygon class="st1" points="175.6,320 221.5,264.9 172,163.5 90.1,163.5 69.1,237.3 "/>
<polygon class="st1" points="69.1,237.3 90.1,163.5 36.7,163.5 49.4,222 "/>
</svg>
