<?xml version="1.0" encoding="utf-8"?>
<!-- Generator: Adobe Illustrator 19.0.0, SVG Export Plug-In . SVG Version: 6.00 Build 0)  -->
<svg version="1.1" id="图层_1" xmlns="http://www.w3.org/2000/svg" xmlns:xlink="http://www.w3.org/1999/xlink" x="0px" y="0px"
	 viewBox="130 183.4 856.5 475.5" style="enable-background:new 130 183.4 856.5 475.5;" xml:space="preserve">
<style type="text/css">
	.st0{fill:#191919;}
	.st1{fill:none;}
	.st2{fill:#0F0F0F;}
	.st3{fill:#333333;}
	.st4{fill:#262626;}
	.st5{fill:#070707;}
	.st6{fill:#282828;}
	.st7{fill:#1C1C1C;}
</style>
<rect x="131.3" y="181.7" class="st0" width="860.5" height="482.9"/>
<line class="st1" x1="990.7" y1="664.5" x2="945.5" y2="664.5"/>
<line class="st1" x1="653.2" y1="180" x2="746.2" y2="180"/>
<polygon class="st2" points="396.5,238.5 327.5,565.4 330,567.7 371.8,517.5 "/>
<polygon class="st3" points="640.2,427.5 645,437.5 648.5,434 "/>
<polygon class="st2" points="371.8,517.5 426,652.4 475.8,603.5 439.5,436.3 "/>
<polygon class="st2" points="330,567.7 424,654.5 426,652.4 371.8,517.5 "/>
<polygon class="st0" points="522.8,336.5 439.5,436.3 475.8,603.5 645,437.5 640.2,427.5 "/>
<polygon class="st2" points="645,437.5 695.2,540 727,494.9 648.5,434 "/>
<polygon class="st4" points="830.8,347.4 990.7,664.5 992.7,664.5 992.7,374 916.7,225.4 "/>
<polygon class="st5" points="763.5,442.8 823.5,569.9 945.5,664.5 990.7,664.5 830.8,347.4 "/>
<polygon class="st5" points="727,494.9 823.5,569.9 763.5,442.8 "/>
<polygon class="st6" points="428.6,658.9 426,652.4 424,654.5 "/>
<polygon class="st0" points="247,491.1 297.3,606.7 325.1,573.4 327.5,565.4 "/>
<polygon class="st3" points="325.1,573.4 330,567.7 327.5,565.4 "/>
<polygon class="st2" points="439.5,436.3 396.5,238.5 346.6,474.8 431,664.5 "/>
<polygon class="st0" points="396.5,238.5 401.8,262.5 416.2,253.8 "/>
<polygon class="st5" points="992.7,374 992.7,180 948.7,180 916.7,225.4 "/>
<polygon class="st4" points="648.5,434 724.5,359.6 644.5,190.5 568.7,281.4 640.2,427.5 "/>
<polygon class="st5" points="568.7,281.4 522.8,336.5 640.2,427.5 "/>
<polygon class="st0" points="522.8,336.5 416.2,253.8 401.8,262.5 439.5,436.3 "/>
<polygon class="st5" points="424,654.5 413.8,664.5 431,664.5 428.6,658.9 "/>
<polygon class="st5" points="431,664.5 434.6,664.5 428.6,658.9 "/>
<polygon class="st5" points="727,494.9 695.2,540 756,664.5 868.2,664.5 823.5,569.9 "/>
<polygon class="st0" points="247,491.1 130.1,383.1 130.1,664.5 249.1,664.5 297.3,606.7 "/>
<polygon class="st2" points="823.5,569.9 868.2,664.5 945.5,664.5 "/>
<polygon class="st5" points="607.5,664.5 756,664.5 695.2,540 "/>
<polygon class="st2" points="426,652.4 428.6,658.9 434.6,664.5 489.1,664.5 475.8,603.5 "/>
<polygon class="st0" points="645,437.5 475.8,603.5 489.1,664.5 607.5,664.5 695.2,540 "/>
<polygon class="st4" points="130.1,222.8 130.1,383.1 247,491.1 "/>
<polygon class="st5" points="650,432.5 799.5,285.7 746.2,185.4 713.3,183.4 "/>
<polygon class="st7" points="639.5,182.4 519.2,180 568.7,281.4 "/>
<polygon class="st5" points="898,189 893.5,180 746.2,186.4 799.5,285.7 "/>
<polygon class="st5" points="907.2,180 893.5,180 898,189 "/>
<line class="st0" x1="657" y1="181" x2="639.5" y2="183.4"/>
<polygon class="st2" points="396.5,238.5 396.5,238.5 321.1,180 236.1,180 247,491.1 "/>
<polygon class="st5" points="327.3,566.4 292,421.1 236,181 130,181 130,223.8 246.9,492.1 "/>
<polygon class="st7" points="383.8,180 321.1,180 396.5,238.5 "/>
<polygon class="st7" points="522.8,336.5 568.7,281.4 519.2,180 437.2,180 416.2,253.8 "/>
<polygon class="st7" points="416.2,253.8 437.2,180 383.8,180 396.5,238.5 "/>
</svg>
