<?xml version="1.0" encoding="utf-8"?>
<!-- Generator: Adobe Illustrator 19.0.0, SVG Export Plug-In . SVG Version: 6.00 Build 0)  -->
<svg version="1.1" id="图层_2" xmlns="http://www.w3.org/2000/svg" xmlns:xlink="http://www.w3.org/1999/xlink" x="0px" y="0px"
	 viewBox="0 0 813 432" style="enable-background:new 0 0 813 432;" xml:space="preserve">
<style type="text/css">
	.st0{fill:none;}
	.st1{fill:#545556;}
	.st2{fill:#A4A4A5;}
	.st3{fill:#303030;}
	.st4{fill:#292A2D;}
	.st5{fill:#3D3E3F;}
	.st6{fill:#3D78F7;}
</style>
<path id="XMLID_424_" class="st0" d="M513.9,141.1c-15.4,0-24.9,9.2-24.9,32.2v0.1c0,24.4,10.7,33,24.8,33
	c14.5,0,24.8-8.9,24.8-33.1C538.7,150.3,529.2,141.1,513.9,141.1z"/>
<path id="XMLID_425_" class="st0" d="M195.7,141.1c-15.4,0-24.7,9.2-24.7,32.2v0.1c0,24.4,10.4,33,24.5,33
	c14.5,0,24.8-8.9,24.8-33.1C220.4,150.3,210.9,141.1,195.7,141.1z"/>
<path id="XMLID_426_" class="st0" d="M279.4,143H272v26h14.9c7.2-1,11.8-5.6,11.8-13.6C298.6,144.7,290.4,143,279.4,143z"/>
<path id="XMLID_427_" class="st0" d="M118.2,136.7c0-12.6-8.8-18.7-26.1-18.7H82v4.1l23.7,34.3C113.8,154.1,118.2,148.5,118.2,136.7
	z"/>
<path id="XMLID_428_" class="st0" d="M102.9,177.5l32.7,22l-17.5-25.1C113.4,176.2,108.3,177.2,102.9,177.5z"/>
<path id="XMLID_429_" class="st0" d="M82,158h11.4c4.7,0,8.9-0.5,12.3-1.5L82,122.1V158z"/>
<path id="XMLID_430_" class="st0" d="M721.7,141.1c-15.4,0-24.7,9.2-24.7,32.2v0.1c0,24.4,10.4,33,24.5,33
	c14.5,0,24.8-8.9,24.8-33.1C746.4,150.3,736.9,141.1,721.7,141.1z"/>
<path id="XMLID_431_" class="st1" d="M82,122.1V118h10.1c17.3,0,26.1,6,26.1,18.7c0,11.8-4.5,17.4-12.6,19.8l12.6,18
	c14.1-5.4,24.3-17.8,24.3-39.4c0-14-5-23.2-13.3-29.2l-50.3,12L82,122.1z"/>
<polygon id="XMLID_432_" class="st2" points="64.1,97 58,97 58,122.8 78.8,117.9 "/>
<path id="XMLID_433_" class="st3" d="M58,220h24v-42h17.8c1.1,0,2.2-0.3,3.2-0.3l-45-30.6V220z"/>
<path id="XMLID_434_" class="st4" d="M129.2,105.9C120,99.4,106.6,97,91.3,97H64.1l14.6,20.9L129.2,105.9z"/>
<path id="XMLID_435_" class="st5" d="M105.5,156.5c-3.4,1-7.5,1.5-12.2,1.5H82v-35.9l-3.1-4.3l-20.9,5v24.3l45,30.3
	c5.4-0.3,10.5-1.2,15.2-3L105.5,156.5z"/>
<path id="XMLID_438_" d="M195.5,125.5c-33.7,0-43.5,25.6-43.5,47.9v0.1c0,24.2,11,48.7,43.6,48.7c34,0,43.7-26.2,43.7-48.7
	C239.3,151,229.4,125.5,195.5,125.5z M195.5,206.4c-14.2,0-24.5-8.6-24.5-33v-0.1c0-22.9,9.3-32.2,24.7-32.2
	c15.2,0,24.7,9.2,24.7,32.2C220.4,197.5,210.1,206.4,195.5,206.4z"/>
<rect id="XMLID_439_" x="640" y="128" width="18" height="92"/>
<path id="XMLID_442_" d="M513.8,125.5c-33.7,0-43.8,25.6-43.8,47.9v0.1c0,24.2,11.3,48.7,43.9,48.7c34,0,43.7-26.2,43.7-48.7
	C557.6,151,547.6,125.5,513.8,125.5z M513.8,206.4c-14.2,0-24.8-8.6-24.8-33v-0.1c0-22.9,9.6-32.2,24.9-32.2
	c15.2,0,24.7,9.2,24.7,32.2C538.7,197.5,528.3,206.4,513.8,206.4z"/>
<path id="XMLID_445_" d="M716.2,125.5c-33.7,0-43.2,25.6-43.2,47.9v0.1c0,24.2,10.7,48.7,43.3,48.7c34,0,43.7-26.2,43.7-48.7
	C760,151,750,125.5,716.2,125.5z M716.2,206.4c-14.2,0-24.2-8.6-24.2-33v-0.1c0-22.9,9-32.2,24.4-32.2c15.2,0,24.7,9.2,24.7,32.2
	C741.1,197.5,730.8,206.4,716.2,206.4z"/>
<polygon id="XMLID_446_" points="591,128 573,128 573,220 626,220 626,204 591,204 "/>
<polygon id="XMLID_447_" points="408,220 425,220 425,182 455,182 455,167 425,167 425,143 458,143 458,128 408,128 "/>
<path id="XMLID_450_" d="M300.8,176.2c9-3,15.4-9.8,15.4-22.7c0-22-17.3-25.5-38.6-25.5H255v92h17v-37h10.7c6.6,0,9.7,3.3,14.2,12.9
	c3.1,6.8,7.6,18.1,9.6,24.1h19.1c-4-10-11.5-26.7-15-33.8C308.7,182.3,305.7,178.4,300.8,176.2z M286.9,169H272v-26h7.4
	c10.9,0,19.2,1.7,19.2,12.4C298.6,163.4,294.1,168,286.9,169z"/>
<polygon id="XMLID_451_" points="328,143 353,143 353,220 370,220 370,143 395,143 395,128 328,128 "/>
<g id="XMLID_1_">
	<path id="XMLID_6_" class="st6" d="M208.5,268.3v-10.8h2.8c2.6,0,4.4,0.7,4.4,3.2c0,2.6-1.7,3.6-3.7,3.6h-1.7v3.9H208.5z
		 M211.5,263c1.4,0,2.4-0.4,2.4-2.1c0-1.3-0.9-1.9-2.6-1.9h-1.1v3.9H211.5z"/>
	<path id="XMLID_9_" class="st6" d="M225.8,262.9c0-2.8,1.2-5.6,5-5.6s5,2.8,5,5.6c0,2.7-1.2,5.7-5,5.7
		C227.3,268.6,225.8,266.1,225.8,262.9L225.8,262.9z M227.6,262.9c0,3.1,1.4,4.1,3.2,4.1c1.9,0,3.2-1.1,3.2-4.2
		c0-2.7-1.1-4.1-3.2-4.1C228.7,258.8,227.6,260.2,227.6,262.9L227.6,262.9z"/>
	<path id="XMLID_12_" class="st6" d="M251.9,259.5c-0.6-0.3-1.5-0.6-2.2-0.6c-0.8,0-1.8,0.3-1.8,1.4c0,0.8,0.8,1.2,1.8,1.7
		c1.6,0.8,2.9,1.5,2.9,3.3c0,2.4-1.6,3.2-3.4,3.2c-1.2,0-2.6-0.3-3.4-0.7l0.4-1.6c0.8,0.4,2,0.7,2.9,0.7c0.8,0,1.7-0.3,1.7-1.5
		c0-0.9-0.7-1.4-2.1-2c-1.5-0.7-2.6-1.3-2.6-3c0-2.4,1.9-3,3.3-3c1.2,0,2.3,0.3,2.9,0.6L251.9,259.5z"/>
	<path id="XMLID_14_" class="st6" d="M265.1,268.3v-9.3H262v-1.5h7.8v1.5h-3.1v9.3H265.1z"/>
	<path id="XMLID_16_" class="st6" d="M281.6,262.1h3.7v1.4h-3.7v3.3h4.5v1.5h-6.1v-10.8h5.8v1.5h-4.1V262.1z"/>
	<path id="XMLID_18_" class="st6" d="M301.6,265.6c-0.5-1.2-1-1.7-1.8-1.7h-1.5v4.4h-1.6v-10.8h2.6c2.4,0,4.3,0.4,4.3,2.9
		c0,1.6-0.9,2.4-1.9,2.7c0.6,0.3,1,0.7,1.3,1.4c0.4,0.9,1.2,2.6,1.6,3.7h-1.8C302.5,267.6,302,266.4,301.6,265.6z M301.8,260.7
		c0-1.3-1-1.7-2.4-1.7h-1.1v3.5h2C301.1,262.4,301.8,261.8,301.8,260.7z"/>
	<path id="XMLID_21_" class="st6" d="M329.9,257.6c3.8,0,5.6,1.6,5.6,5.4c0,3.3-1.3,5.4-5.7,5.4h-2.9v-10.8H329.9z M333.7,262.9
		c0-2.6-1.1-3.9-3.8-3.9h-1.3v7.8h1.3C332.5,266.8,333.7,265.5,333.7,262.9L333.7,262.9z"/>
	<path id="XMLID_24_" class="st6" d="M348,262.1h3.7v1.4H348v3.3h4.5v1.5h-6.1v-10.8h5.8v1.5H348V262.1z"/>
	<path id="XMLID_26_" class="st6" d="M368.3,259.5c-0.6-0.3-1.5-0.6-2.2-0.6c-0.8,0-1.8,0.3-1.8,1.4c0,0.8,0.8,1.2,1.8,1.7
		c1.6,0.8,2.9,1.5,2.9,3.3c0,2.4-1.6,3.2-3.4,3.2c-1.2,0-2.6-0.3-3.4-0.7l0.4-1.6c0.8,0.4,2,0.7,2.9,0.7c0.8,0,1.7-0.3,1.7-1.5
		c0-0.9-0.7-1.4-2.1-2c-1.5-0.7-2.6-1.3-2.6-3c0-2.4,1.9-3,3.3-3c1.2,0,2.3,0.3,2.9,0.6L368.3,259.5z"/>
	<path id="XMLID_28_" class="st6" d="M381.5,268.3h-1.7v-10.8h1.7V268.3z"/>
	<path id="XMLID_30_" class="st6" d="M399.2,263.8h-2.3v-1.4h3.9v5.6c-0.7,0.3-2,0.5-3.2,0.5c-4.1,0-5.3-2.5-5.3-5.4
		c0-3,1.1-5.7,5.2-5.7c0.9,0,1.9,0.2,2.5,0.4l-0.3,1.6c-0.6-0.3-1.4-0.4-2.2-0.4c-2.5,0-3.4,1.7-3.4,4.2c0,2.4,1,3.9,3.5,3.9
		c0.5,0,1.1-0.1,1.5-0.2V263.8z"/>
	<path id="XMLID_32_" class="st6" d="M413.2,268.3h-1.6v-10.8h2.3l4.6,8.1v-8.1h1.6v10.8h-2l-4.9-8.8V268.3z"/>
</g>
<g id="XMLID_2_">
	<path id="XMLID_5_" class="st1" d="M437.8,268.9h-1.2l5.4-12.4h1.2L437.8,268.9z"/>
	<path id="XMLID_35_" class="st1" d="M458.4,259.4c0-1-0.7-1.5-1.7-1.5c-0.9,0-1.8,0.3-2.6,0.7l-0.3-1.5c0.8-0.4,2-0.7,3.1-0.7
		c1.7,0,3.3,0.7,3.3,3c0,1.4-0.7,2.6-2.3,4.2c-0.9,1-1.8,1.7-2.4,2.3h4.9v1.5h-7v-1.4c0.8-0.7,1.8-1.6,2.8-2.7
		C457.6,261.5,458.4,260.4,458.4,259.4L458.4,259.4z"/>
	<path id="XMLID_37_" class="st1" d="M478.5,262c0,3.2-1.1,5.6-3.8,5.6c-2.7,0-3.8-2.4-3.8-5.6c0-3.2,1.1-5.6,3.8-5.6
		C477.3,256.3,478.5,258.7,478.5,262L478.5,262z M472.6,262c0,3.1,0.8,4.1,2,4.1c1.2,0,2.1-1,2.1-4.1c0-3.1-0.9-4.2-2.1-4.2
		C473.4,257.8,472.6,258.8,472.6,262L472.6,262z"/>
	<path id="XMLID_40_" class="st1" d="M490,259.2l-0.3-1.3c0.9-0.3,2.2-0.9,2.8-1.4h1.3v10.8h-1.7v-9
		C491.6,258.6,490.8,258.9,490,259.2z"/>
	<path id="XMLID_42_" class="st1" d="M511.9,259.4c0-1-0.7-1.5-1.7-1.5c-0.9,0-1.8,0.3-2.6,0.7l-0.4-1.5c0.8-0.4,2-0.7,3.1-0.7
		c1.7,0,3.3,0.7,3.3,3c0,1.4-0.7,2.6-2.3,4.2c-0.9,1-1.8,1.7-2.4,2.3h4.9v1.5h-7v-1.4c0.8-0.7,1.8-1.6,2.8-2.7
		C511.1,261.5,511.9,260.4,511.9,259.4L511.9,259.4z"/>
	<path id="XMLID_45_" class="st1" d="M526.4,267.3h-1.8v-2h1.8V267.3z"/>
	<path id="XMLID_47_" class="st1" d="M544.4,262c0,3.2-1.1,5.6-3.8,5.6c-2.7,0-3.8-2.4-3.8-5.6c0-3.2,1.1-5.6,3.8-5.6
		C543.3,256.3,544.4,258.7,544.4,262L544.4,262z M538.6,262c0,3.1,0.8,4.1,2,4.1c1.2,0,2.1-1,2.1-4.1c0-3.1-0.9-4.2-2.1-4.2
		C539.4,257.8,538.6,258.8,538.6,262L538.6,262z"/>
	<path id="XMLID_50_" class="st1" d="M559,260.5c2.2,0,3.2,1.4,3.2,3.2c0,2-1,3.9-3.7,3.9c-2.1,0-3.7-1.4-3.7-4.5
		c0-3.9,2.2-6.5,6.2-6.7l0.3,1.4c-2.7,0.1-4.3,1.6-4.7,3.8C557,261,558,260.5,559,260.5L559,260.5z M558.6,266.1c1.3,0,2-0.9,2-2.3
		c0-1.2-0.6-2-1.9-2c-1,0-1.9,0.6-2.2,1.2C556.4,264.7,557.1,266.1,558.6,266.1z"/>
	<path id="XMLID_53_" class="st1" d="M573.2,268.9H572l5.4-12.4h1.2L573.2,268.9z"/>
</g>
</svg>
