<?xml version="1.0" encoding="utf-8"?>
<!-- Generator: Adobe Illustrator 19.0.0, SVG Export Plug-In . SVG Version: 6.00 Build 0)  -->
<svg version="1.1" id="图层_2" xmlns="http://www.w3.org/2000/svg" xmlns:xlink="http://www.w3.org/1999/xlink" x="0px" y="0px"
	 viewBox="109 204.9 813 432" style="enable-background:new 109 204.9 813 432;" xml:space="preserve">
<style type="text/css">
	.st0{fill:none;}
	.st1{fill:#545556;}
	.st2{fill:#A4A4A5;}
	.st3{fill:#303030;}
	.st4{fill:#292A2D;}
	.st5{fill:#3D3E3F;}
	.st6{fill:#3D78F7;}
</style>
<path id="XMLID_424_" class="st0" d="M622.9,362c-15.4,0-24.9,9.2-24.9,32.2v0.1c0,24.4,10.7,33,24.8,33c14.5,0,24.8-8.9,24.8-33.1
	C647.7,371.2,638.2,362,622.9,362z"/>
<path id="XMLID_425_" class="st0" d="M304.7,362c-15.4,0-24.7,9.2-24.7,32.2v0.1c0,24.4,10.4,33,24.5,33c14.5,0,24.8-8.9,24.8-33.1
	C329.4,371.2,319.9,362,304.7,362z"/>
<path id="XMLID_426_" class="st0" d="M388.4,363.9H381v26h14.9c7.2-1,11.8-5.6,11.8-13.6C407.6,365.6,399.4,363.9,388.4,363.9z"/>
<path id="XMLID_427_" class="st0" d="M227.2,357.6c0-12.6-8.8-18.7-26.1-18.7H191v4.1l23.7,34.3C222.8,375,227.2,369.4,227.2,357.6z
	"/>
<path id="XMLID_428_" class="st0" d="M211.9,398.4l32.7,22l-17.5-25.1C222.4,397.1,217.3,398.1,211.9,398.4z"/>
<path id="XMLID_429_" class="st0" d="M191,378.9h11.4c4.7,0,8.9-0.5,12.3-1.5L191,343V378.9z"/>
<path id="XMLID_430_" class="st0" d="M830.7,362c-15.4,0-24.7,9.2-24.7,32.2v0.1c0,24.4,10.4,33,24.5,33c14.5,0,24.8-8.9,24.8-33.1
	C855.4,371.2,845.9,362,830.7,362z"/>
<path id="XMLID_431_" class="st1" d="M191,343v-4.1h10.1c17.3,0,26.1,6,26.1,18.7c0,11.8-4.5,17.4-12.6,19.8l12.6,18
	c14.1-5.4,24.3-17.8,24.3-39.4c0-14-5-23.2-13.3-29.2l-50.3,12L191,343z"/>
<polygon id="XMLID_432_" class="st2" points="173.1,317.9 167,317.9 167,343.7 187.8,338.8 "/>
<path id="XMLID_433_" class="st3" d="M167,440.9h24v-42h17.8c1.1,0,2.2-0.3,3.2-0.3L167,368V440.9z"/>
<path id="XMLID_434_" class="st4" d="M238.2,326.8c-9.2-6.5-22.6-8.9-37.9-8.9h-27.2l14.6,20.9L238.2,326.8z"/>
<path id="XMLID_435_" class="st5" d="M214.5,377.4c-3.4,1-7.5,1.5-12.2,1.5H191V343l-3.1-4.3l-20.9,5V368l45,30.3
	c5.4-0.3,10.5-1.2,15.2-3L214.5,377.4z"/>
<path id="XMLID_438_" d="M304.5,346.4c-33.7,0-43.5,25.6-43.5,47.9v0.1c0,24.2,11,48.7,43.6,48.7c34,0,43.7-26.2,43.7-48.7
	S338.4,346.4,304.5,346.4z M304.5,427.3c-14.2,0-24.5-8.6-24.5-33v-0.1c0-22.9,9.3-32.2,24.7-32.2c15.2,0,24.7,9.2,24.7,32.2
	C329.4,418.4,319.1,427.3,304.5,427.3z"/>
<rect id="XMLID_439_" x="749" y="348.9" width="18" height="92"/>
<path id="XMLID_442_" d="M622.8,346.4c-33.7,0-43.8,25.6-43.8,47.9v0.1c0,24.2,11.3,48.7,43.9,48.7c34,0,43.7-26.2,43.7-48.7
	C666.6,371.9,656.6,346.4,622.8,346.4z M622.8,427.3c-14.2,0-24.8-8.6-24.8-33v-0.1c0-22.9,9.6-32.2,24.9-32.2
	c15.2,0,24.7,9.2,24.7,32.2C647.7,418.4,637.3,427.3,622.8,427.3z"/>
<path id="XMLID_445_" d="M825.2,346.4c-33.7,0-43.2,25.6-43.2,47.9v0.1c0,24.2,10.7,48.7,43.3,48.7c34,0,43.7-26.2,43.7-48.7
	S859,346.4,825.2,346.4z M825.2,427.3c-14.2,0-24.2-8.6-24.2-33v-0.1c0-22.9,9-32.2,24.4-32.2c15.2,0,24.7,9.2,24.7,32.2
	C850.1,418.4,839.8,427.3,825.2,427.3z"/>
<polygon id="XMLID_446_" points="700,348.9 682,348.9 682,440.9 735,440.9 735,424.9 700,424.9 "/>
<polygon id="XMLID_447_" points="517,440.9 534,440.9 534,402.9 564,402.9 564,387.9 534,387.9 534,363.9 567,363.9 567,348.9 
	517,348.9 "/>
<path id="XMLID_450_" d="M409.8,397.1c9-3,15.4-9.8,15.4-22.7c0-22-17.3-25.5-38.6-25.5H364v92h17v-37h10.7c6.6,0,9.7,3.3,14.2,12.9
	c3.1,6.8,7.6,18.1,9.6,24.1h19.1c-4-10-11.5-26.7-15-33.8C417.7,403.2,414.7,399.3,409.8,397.1z M395.9,389.9H381v-26h7.4
	c10.9,0,19.2,1.7,19.2,12.4C407.6,384.3,403.1,388.9,395.9,389.9z"/>
<polygon id="XMLID_451_" points="437,363.9 462,363.9 462,440.9 479,440.9 479,363.9 504,363.9 504,348.9 437,348.9 "/>
<g id="XMLID_1_">
	<path id="XMLID_6_" class="st6" d="M360,476.5h1.8l-4.1,10.8h-1.5l-4.1-10.8h1.9l3,8.6L360,476.5z"/>
	<path id="XMLID_8_" class="st6" d="M373.7,487.2H372v-10.8h1.7V487.2z"/>
	<path id="XMLID_10_" class="st6" d="M400.2,476.5c3.8,0,5.6,1.6,5.6,5.4c0,3.3-1.3,5.4-5.7,5.4h-2.9v-10.8L400.2,476.5L400.2,476.5
		z M403.9,481.8c0-2.6-1.1-3.9-3.8-3.9h-1.3v7.8h1.3C402.7,485.7,403.9,484.4,403.9,481.8L403.9,481.8z"/>
	<path id="XMLID_13_" class="st6" d="M418.3,481h3.7v1.4h-3.7v3.3h4.5v1.5h-6.1v-10.8h5.8v1.5h-4.1L418.3,481L418.3,481z"/>
	<path id="XMLID_15_" class="st6" d="M438.6,478.4c-0.6-0.3-1.5-0.6-2.2-0.6c-0.8,0-1.8,0.3-1.8,1.4c0,0.8,0.8,1.2,1.8,1.7
		c1.6,0.8,2.9,1.5,2.9,3.3c0,2.4-1.6,3.2-3.4,3.2c-1.2,0-2.6-0.3-3.4-0.7l0.4-1.6c0.8,0.4,2,0.7,2.9,0.7c0.8,0,1.7-0.3,1.7-1.5
		c0-0.9-0.7-1.4-2.1-2c-1.5-0.7-2.6-1.3-2.6-3c0-2.4,1.9-3,3.3-3c1.2,0,2.3,0.3,2.9,0.6L438.6,478.4z"/>
	<path id="XMLID_17_" class="st6" d="M451.7,487.2H450v-10.8h1.7V487.2z"/>
	<path id="XMLID_19_" class="st6" d="M469.4,482.7h-2.3v-1.4h3.9v5.6c-0.7,0.3-2,0.5-3.2,0.5c-4.1,0-5.3-2.5-5.3-5.4
		c0-3,1.1-5.7,5.2-5.7c0.9,0,1.9,0.2,2.5,0.4l-0.3,1.6c-0.6-0.3-1.4-0.4-2.2-0.4c-2.5,0-3.4,1.7-3.4,4.2c0,2.4,1,3.9,3.5,3.9
		c0.5,0,1.1-0.1,1.5-0.2L469.4,482.7L469.4,482.7z"/>
	<path id="XMLID_21_" class="st6" d="M483.5,487.2h-1.6v-10.8h2.3l4.6,8.1v-8.1h1.6v10.8h-2l-4.9-8.8V487.2z"/>
</g>
<g id="XMLID_2_">
	<path id="XMLID_5_" class="st1" d="M523.8,488.8h-1.2l5.4-12.4h1.2L523.8,488.8z"/>
	<path id="XMLID_24_" class="st1" d="M544.4,479.3c0-1-0.7-1.5-1.7-1.5c-0.9,0-1.8,0.3-2.6,0.7l-0.3-1.5c0.8-0.4,2-0.7,3.1-0.7
		c1.7,0,3.3,0.7,3.3,3c0,1.4-0.7,2.6-2.3,4.2c-0.9,1-1.8,1.7-2.4,2.3h4.9v1.5h-7v-1.4c0.8-0.7,1.8-1.6,2.8-2.7
		C543.6,481.4,544.4,480.3,544.4,479.3L544.4,479.3z"/>
	<path id="XMLID_26_" class="st1" d="M564.5,481.9c0,3.2-1.1,5.6-3.8,5.6s-3.8-2.4-3.8-5.6s1.1-5.6,3.8-5.6
		C563.3,476.2,564.5,478.6,564.5,481.9L564.5,481.9z M558.6,481.9c0,3.1,0.8,4.1,2,4.1c1.2,0,2.1-1,2.1-4.1s-0.9-4.2-2.1-4.2
		C559.4,477.7,558.6,478.7,558.6,481.9L558.6,481.9z"/>
	<path id="XMLID_29_" class="st1" d="M576,479.1l-0.3-1.3c0.9-0.3,2.2-0.9,2.8-1.4h1.3v10.8h-1.7v-9
		C577.6,478.5,576.8,478.8,576,479.1z"/>
	<path id="XMLID_31_" class="st1" d="M593.8,479.1l-0.3-1.3c0.9-0.3,2.2-0.9,2.8-1.4h1.3v10.8h-1.7v-9
		C595.4,478.5,594.6,478.8,593.8,479.1z"/>
	<path id="XMLID_33_" class="st1" d="M612.4,487.2h-1.8v-2h1.8V487.2z"/>
	<path id="XMLID_35_" class="st1" d="M632,487.2h-2.2l-2.7-4.1l-2.7,4.1h-2.1l3.9-5.4l-3.7-5.3h2.1l2.7,4l2.6-4h2.1l-3.7,5.2
		L632,487.2z"/>
	<path id="XMLID_37_" class="st1" d="M650.9,487.2h-2.2l-2.7-4.1l-2.7,4.1h-2.1l3.9-5.4l-3.7-5.3h2.1l2.7,4l2.6-4h2.1l-3.7,5.2
		L650.9,487.2z"/>
	<path id="XMLID_39_" class="st1" d="M661.4,488.8h-1.2l5.4-12.4h1.2L661.4,488.8z"/>
</g>
</svg>
