<?xml version="1.0" encoding="utf-8"?>
<!-- Generator: Adobe Illustrator 19.0.0, SVG Export Plug-In . SVG Version: 6.00 Build 0)  -->
<svg version="1.1" id="图层_2" xmlns="http://www.w3.org/2000/svg" xmlns:xlink="http://www.w3.org/1999/xlink" x="0px" y="0px"
	 viewBox="109 204.9 813 432" style="enable-background:new 109 204.9 813 432;" xml:space="preserve">
<style type="text/css">
	.st0{fill:none;}
	.st1{fill:#545556;}
	.st2{fill:#A4A4A5;}
	.st3{fill:#303030;}
	.st4{fill:#292A2D;}
	.st5{fill:#3D3E3F;}
	.st6{fill:#3D78F7;}
</style>
<path id="XMLID_424_" class="st0" d="M622.9,359c-15.4,0-24.9,9.2-24.9,32.2v0.1c0,24.4,10.7,33,24.8,33c14.5,0,24.8-8.9,24.8-33.1
	C647.7,368.2,638.2,359,622.9,359z"/>
<path id="XMLID_425_" class="st0" d="M304.7,359c-15.4,0-24.7,9.2-24.7,32.2v0.1c0,24.4,10.4,33,24.5,33c14.5,0,24.8-8.9,24.8-33.1
	C329.4,368.2,319.9,359,304.7,359z"/>
<path id="XMLID_426_" class="st0" d="M388.4,360.9H381v26h14.9c7.2-1,11.8-5.6,11.8-13.6C407.6,362.6,399.4,360.9,388.4,360.9z"/>
<path id="XMLID_427_" class="st0" d="M227.2,354.6c0-12.6-8.8-18.7-26.1-18.7H191v4.1l23.7,34.3C222.8,372,227.2,366.4,227.2,354.6z
	"/>
<path id="XMLID_428_" class="st0" d="M211.9,395.4l32.7,22l-17.5-25.1C222.4,394.1,217.3,395.1,211.9,395.4z"/>
<path id="XMLID_429_" class="st0" d="M191,375.9h11.4c4.7,0,8.9-0.5,12.3-1.5L191,340V375.9z"/>
<path id="XMLID_430_" class="st0" d="M830.7,359c-15.4,0-24.7,9.2-24.7,32.2v0.1c0,24.4,10.4,33,24.5,33c14.5,0,24.8-8.9,24.8-33.1
	C855.4,368.2,845.9,359,830.7,359z"/>
<path id="XMLID_431_" class="st1" d="M191,340v-4.1h10.1c17.3,0,26.1,6,26.1,18.7c0,11.8-4.5,17.4-12.6,19.8l12.6,18
	c14.1-5.4,24.3-17.8,24.3-39.4c0-14-5-23.2-13.3-29.2l-50.3,12L191,340z"/>
<polygon id="XMLID_432_" class="st2" points="173.1,314.9 167,314.9 167,340.7 187.8,335.8 "/>
<path id="XMLID_433_" class="st3" d="M167,437.9h24v-42h17.8c1.1,0,2.2-0.3,3.2-0.3L167,365V437.9z"/>
<path id="XMLID_434_" class="st4" d="M238.2,323.8c-9.2-6.5-22.6-8.9-37.9-8.9h-27.2l14.6,20.9L238.2,323.8z"/>
<path id="XMLID_435_" class="st5" d="M214.5,374.4c-3.4,1-7.5,1.5-12.2,1.5H191V340l-3.1-4.3l-20.9,5V365l45,30.3
	c5.4-0.3,10.5-1.2,15.2-3L214.5,374.4z"/>
<path id="XMLID_438_" d="M304.5,343.4c-33.7,0-43.5,25.6-43.5,47.9v0.1c0,24.2,11,48.7,43.6,48.7c34,0,43.7-26.2,43.7-48.7
	S338.4,343.4,304.5,343.4z M304.5,424.3c-14.2,0-24.5-8.6-24.5-33v-0.1c0-22.9,9.3-32.2,24.7-32.2c15.2,0,24.7,9.2,24.7,32.2
	C329.4,415.4,319.1,424.3,304.5,424.3z"/>
<rect id="XMLID_439_" x="749" y="345.9" width="18" height="92"/>
<path id="XMLID_442_" d="M622.8,343.4c-33.7,0-43.8,25.6-43.8,47.9v0.1c0,24.2,11.3,48.7,43.9,48.7c34,0,43.7-26.2,43.7-48.7
	C666.6,368.9,656.6,343.4,622.8,343.4z M622.8,424.3c-14.2,0-24.8-8.6-24.8-33v-0.1c0-22.9,9.6-32.2,24.9-32.2
	c15.2,0,24.7,9.2,24.7,32.2C647.7,415.4,637.3,424.3,622.8,424.3z"/>
<path id="XMLID_445_" d="M825.2,343.4c-33.7,0-43.2,25.6-43.2,47.9v0.1c0,24.2,10.7,48.7,43.3,48.7c34,0,43.7-26.2,43.7-48.7
	S859,343.4,825.2,343.4z M825.2,424.3c-14.2,0-24.2-8.6-24.2-33v-0.1c0-22.9,9-32.2,24.4-32.2c15.2,0,24.7,9.2,24.7,32.2
	C850.1,415.4,839.8,424.3,825.2,424.3z"/>
<polygon id="XMLID_446_" points="700,345.9 682,345.9 682,437.9 735,437.9 735,421.9 700,421.9 "/>
<polygon id="XMLID_447_" points="517,437.9 534,437.9 534,399.9 564,399.9 564,384.9 534,384.9 534,360.9 567,360.9 567,345.9 
	517,345.9 "/>
<path id="XMLID_450_" d="M409.8,394.1c9-3,15.4-9.8,15.4-22.7c0-22-17.3-25.5-38.6-25.5H364v92h17v-37h10.7c6.6,0,9.7,3.3,14.2,12.9
	c3.1,6.8,7.6,18.1,9.6,24.1h19.1c-4-10-11.5-26.7-15-33.8C417.7,400.2,414.7,396.3,409.8,394.1z M395.9,386.9H381v-26h7.4
	c10.9,0,19.2,1.7,19.2,12.4C407.6,381.3,403.1,385.9,395.9,386.9z"/>
<polygon id="XMLID_451_" points="437,360.9 462,360.9 462,437.9 479,437.9 479,360.9 504,360.9 504,345.9 437,345.9 "/>
<g id="XMLID_1_">
	<path id="XMLID_6_" class="st6" d="M317.5,486.2v-10.8h2.8c2.6,0,4.4,0.7,4.4,3.2c0,2.6-1.7,3.6-3.7,3.6h-1.7v3.9L317.5,486.2
		L317.5,486.2z M320.5,480.9c1.4,0,2.4-0.4,2.4-2.1c0-1.3-0.9-1.9-2.6-1.9h-1.1v3.9h1.3V480.9z"/>
	<path id="XMLID_9_" class="st6" d="M334.8,480.8c0-2.8,1.2-5.6,5-5.6c3.8,0,5,2.8,5,5.6c0,2.7-1.2,5.7-5,5.7
		C336.3,486.5,334.8,484,334.8,480.8L334.8,480.8z M336.6,480.8c0,3.1,1.4,4.1,3.2,4.1c1.9,0,3.2-1.1,3.2-4.2c0-2.7-1.1-4.1-3.2-4.1
		C337.7,476.7,336.6,478.1,336.6,480.8L336.6,480.8z"/>
	<path id="XMLID_12_" class="st6" d="M360.9,477.4c-0.6-0.3-1.5-0.6-2.2-0.6c-0.8,0-1.8,0.3-1.8,1.4c0,0.8,0.8,1.2,1.8,1.7
		c1.6,0.8,2.9,1.5,2.9,3.3c0,2.4-1.6,3.2-3.4,3.2c-1.2,0-2.6-0.3-3.4-0.7l0.4-1.6c0.8,0.4,2,0.7,2.9,0.7c0.8,0,1.7-0.3,1.7-1.5
		c0-0.9-0.7-1.4-2.1-2c-1.5-0.7-2.6-1.3-2.6-3c0-2.4,1.9-3,3.3-3c1.2,0,2.3,0.3,2.9,0.6L360.9,477.4z"/>
	<path id="XMLID_14_" class="st6" d="M374.1,486.2v-9.3H371v-1.5h7.8v1.5h-3.1v9.3H374.1z"/>
	<path id="XMLID_16_" class="st6" d="M390.6,480h3.7v1.4h-3.7v3.3h4.5v1.5H389v-10.8h5.8v1.5h-4.1L390.6,480L390.6,480z"/>
	<path id="XMLID_18_" class="st6" d="M410.6,483.5c-0.5-1.2-1-1.7-1.8-1.7h-1.5v4.4h-1.6v-10.8h2.6c2.4,0,4.3,0.4,4.3,2.9
		c0,1.6-0.9,2.4-1.9,2.7c0.6,0.3,1,0.7,1.3,1.4c0.4,0.9,1.2,2.6,1.6,3.7h-1.8C411.5,485.5,411,484.3,410.6,483.5z M410.8,478.6
		c0-1.3-1-1.7-2.4-1.7h-1.1v3.5h2C410.1,480.3,410.8,479.7,410.8,478.6z"/>
	<path id="XMLID_21_" class="st6" d="M438.9,475.5c3.8,0,5.6,1.6,5.6,5.4c0,3.3-1.3,5.4-5.7,5.4h-2.9v-10.8H438.9z M442.7,480.8
		c0-2.6-1.1-3.9-3.8-3.9h-1.3v7.8h1.3C441.5,484.7,442.7,483.4,442.7,480.8L442.7,480.8z"/>
	<path id="XMLID_24_" class="st6" d="M457,480h3.7v1.4H457v3.3h4.5v1.5h-6.1v-10.8h5.8v1.5H457V480z"/>
	<path id="XMLID_26_" class="st6" d="M477.3,477.4c-0.6-0.3-1.5-0.6-2.2-0.6c-0.8,0-1.8,0.3-1.8,1.4c0,0.8,0.8,1.2,1.8,1.7
		c1.6,0.8,2.9,1.5,2.9,3.3c0,2.4-1.6,3.2-3.4,3.2c-1.2,0-2.6-0.3-3.4-0.7l0.4-1.6c0.8,0.4,2,0.7,2.9,0.7c0.8,0,1.7-0.3,1.7-1.5
		c0-0.9-0.7-1.4-2.1-2c-1.5-0.7-2.6-1.3-2.6-3c0-2.4,1.9-3,3.3-3c1.2,0,2.3,0.3,2.9,0.6L477.3,477.4z"/>
	<path id="XMLID_28_" class="st6" d="M490.5,486.2h-1.7v-10.8h1.7V486.2z"/>
	<path id="XMLID_30_" class="st6" d="M508.2,481.7h-2.3v-1.4h3.9v5.6c-0.7,0.3-2,0.5-3.2,0.5c-4.1,0-5.3-2.5-5.3-5.4
		c0-3,1.1-5.7,5.2-5.7c0.9,0,1.9,0.2,2.5,0.4l-0.3,1.6c-0.6-0.3-1.4-0.4-2.2-0.4c-2.5,0-3.4,1.7-3.4,4.2c0,2.4,1,3.9,3.5,3.9
		c0.5,0,1.1-0.1,1.5-0.2L508.2,481.7L508.2,481.7z"/>
	<path id="XMLID_32_" class="st6" d="M522.2,486.2h-1.6v-10.8h2.3l4.6,8.1v-8.1h1.6v10.8h-2l-4.9-8.8V486.2z"/>
</g>
<g id="XMLID_2_">
	<path id="XMLID_5_" class="st1" d="M546.8,486.8h-1.2l5.4-12.4h1.2L546.8,486.8z"/>
	<path id="XMLID_35_" class="st1" d="M567.4,477.3c0-1-0.7-1.5-1.7-1.5c-0.9,0-1.8,0.3-2.6,0.7l-0.3-1.5c0.8-0.4,2-0.7,3.1-0.7
		c1.7,0,3.3,0.7,3.3,3c0,1.4-0.7,2.6-2.3,4.2c-0.9,1-1.8,1.7-2.4,2.3h4.9v1.5h-7v-1.4c0.8-0.7,1.8-1.6,2.8-2.7
		C566.6,479.4,567.4,478.3,567.4,477.3L567.4,477.3z"/>
	<path id="XMLID_37_" class="st1" d="M587.5,479.9c0,3.2-1.1,5.6-3.8,5.6s-3.8-2.4-3.8-5.6s1.1-5.6,3.8-5.6
		C586.3,474.2,587.5,476.6,587.5,479.9L587.5,479.9z M581.6,479.9c0,3.1,0.8,4.1,2,4.1c1.2,0,2.1-1,2.1-4.1s-0.9-4.2-2.1-4.2
		C582.4,475.7,581.6,476.7,581.6,479.9L581.6,479.9z"/>
	<path id="XMLID_40_" class="st1" d="M599,477.1l-0.3-1.3c0.9-0.3,2.2-0.9,2.8-1.4h1.3v10.8h-1.7v-9
		C600.6,476.5,599.8,476.8,599,477.1z"/>
	<path id="XMLID_42_" class="st1" d="M620.9,477.3c0-1-0.7-1.5-1.7-1.5c-0.9,0-1.8,0.3-2.6,0.7l-0.4-1.5c0.8-0.4,2-0.7,3.1-0.7
		c1.7,0,3.3,0.7,3.3,3c0,1.4-0.7,2.6-2.3,4.2c-0.9,1-1.8,1.7-2.4,2.3h4.9v1.5h-7v-1.4c0.8-0.7,1.8-1.6,2.8-2.7
		C620.1,479.4,620.9,478.3,620.9,477.3L620.9,477.3z"/>
	<path id="XMLID_45_" class="st1" d="M635.4,485.2h-1.8v-2h1.8V485.2z"/>
	<path id="XMLID_47_" class="st1" d="M653.4,479.9c0,3.2-1.1,5.6-3.8,5.6s-3.8-2.4-3.8-5.6s1.1-5.6,3.8-5.6
		C652.3,474.2,653.4,476.6,653.4,479.9L653.4,479.9z M647.6,479.9c0,3.1,0.8,4.1,2,4.1s2.1-1,2.1-4.1s-0.9-4.2-2.1-4.2
		S647.6,476.7,647.6,479.9L647.6,479.9z"/>
	<path id="XMLID_50_" class="st1" d="M668,478.4c2.2,0,3.2,1.4,3.2,3.2c0,2-1,3.9-3.7,3.9c-2.1,0-3.7-1.4-3.7-4.5
		c0-3.9,2.2-6.5,6.2-6.7l0.3,1.4c-2.7,0.1-4.3,1.6-4.7,3.8C666,478.9,667,478.4,668,478.4L668,478.4z M667.6,484c1.3,0,2-0.9,2-2.3
		c0-1.2-0.6-2-1.9-2c-1,0-1.9,0.6-2.2,1.2C665.4,482.6,666.1,484,667.6,484z"/>
	<path id="XMLID_53_" class="st1" d="M682.2,486.8H681l5.4-12.4h1.2L682.2,486.8z"/>
</g>
</svg>
