<?xml version="1.0" encoding="utf-8"?>
<!-- Generator: Adobe Illustrator 19.0.0, SVG Export Plug-In . SVG Version: 6.00 Build 0)  -->
<svg version="1.1" id="图层_2" xmlns="http://www.w3.org/2000/svg" xmlns:xlink="http://www.w3.org/1999/xlink" x="0px" y="0px"
	 viewBox="109 204.9 813 432" style="enable-background:new 109 204.9 813 432;" xml:space="preserve">
<style type="text/css">
	.st0{fill:none;}
	.st1{fill:#545556;}
	.st2{fill:#A4A4A5;}
	.st3{fill:#303030;}
	.st4{fill:#292A2D;}
	.st5{fill:#3D3E3F;}
	.st6{fill:#3D78F7;}
</style>
<path id="XMLID_424_" class="st0" d="M622.9,364c-15.4,0-24.9,9.2-24.9,32.2v0.1c0,24.4,10.7,33,24.8,33c14.5,0,24.8-8.9,24.8-33.1
	C647.7,373.2,638.2,364,622.9,364z"/>
<path id="XMLID_425_" class="st0" d="M304.7,364c-15.4,0-24.7,9.2-24.7,32.2v0.1c0,24.4,10.4,33,24.5,33c14.5,0,24.8-8.9,24.8-33.1
	C329.4,373.2,319.9,364,304.7,364z"/>
<path id="XMLID_426_" class="st0" d="M388.4,365.9H381v26h14.9c7.2-1,11.8-5.6,11.8-13.6C407.6,367.6,399.4,365.9,388.4,365.9z"/>
<path id="XMLID_427_" class="st0" d="M227.2,359.6c0-12.6-8.8-18.7-26.1-18.7H191v4.1l23.7,34.3C222.8,377,227.2,371.4,227.2,359.6z
	"/>
<path id="XMLID_428_" class="st0" d="M211.9,400.4l32.7,22l-17.5-25.1C222.4,399.1,217.3,400.1,211.9,400.4z"/>
<path id="XMLID_429_" class="st0" d="M191,380.9h11.4c4.7,0,8.9-0.5,12.3-1.5L191,345V380.9z"/>
<path id="XMLID_430_" class="st0" d="M830.7,364c-15.4,0-24.7,9.2-24.7,32.2v0.1c0,24.4,10.4,33,24.5,33c14.5,0,24.8-8.9,24.8-33.1
	C855.4,373.2,845.9,364,830.7,364z"/>
<path id="XMLID_431_" class="st1" d="M191,345v-4.1h10.1c17.3,0,26.1,6,26.1,18.7c0,11.8-4.5,17.4-12.6,19.8l12.6,18
	c14.1-5.4,24.3-17.8,24.3-39.4c0-14-5-23.2-13.3-29.2l-50.3,12L191,345z"/>
<polygon id="XMLID_432_" class="st2" points="173.1,319.9 167,319.9 167,345.7 187.8,340.8 "/>
<path id="XMLID_433_" class="st3" d="M167,442.9h24v-42h17.8c1.1,0,2.2-0.3,3.2-0.3L167,370V442.9z"/>
<path id="XMLID_434_" class="st4" d="M238.2,328.8c-9.2-6.5-22.6-8.9-37.9-8.9h-27.2l14.6,20.9L238.2,328.8z"/>
<path id="XMLID_435_" class="st5" d="M214.5,379.4c-3.4,1-7.5,1.5-12.2,1.5H191V345l-3.1-4.3l-20.9,5V370l45,30.3
	c5.4-0.3,10.5-1.2,15.2-3L214.5,379.4z"/>
<path id="XMLID_438_" d="M304.5,348.4c-33.7,0-43.5,25.6-43.5,47.9v0.1c0,24.2,11,48.7,43.6,48.7c34,0,43.7-26.2,43.7-48.7
	S338.4,348.4,304.5,348.4z M304.5,429.3c-14.2,0-24.5-8.6-24.5-33v-0.1c0-22.9,9.3-32.2,24.7-32.2c15.2,0,24.7,9.2,24.7,32.2
	C329.4,420.4,319.1,429.3,304.5,429.3z"/>
<rect id="XMLID_439_" x="749" y="350.9" width="18" height="92"/>
<path id="XMLID_442_" d="M622.8,348.4c-33.7,0-43.8,25.6-43.8,47.9v0.1c0,24.2,11.3,48.7,43.9,48.7c34,0,43.7-26.2,43.7-48.7
	C666.6,373.9,656.6,348.4,622.8,348.4z M622.8,429.3c-14.2,0-24.8-8.6-24.8-33v-0.1c0-22.9,9.6-32.2,24.9-32.2
	c15.2,0,24.7,9.2,24.7,32.2C647.7,420.4,637.3,429.3,622.8,429.3z"/>
<path id="XMLID_445_" d="M825.2,348.4c-33.7,0-43.2,25.6-43.2,47.9v0.1c0,24.2,10.7,48.7,43.3,48.7c34,0,43.7-26.2,43.7-48.7
	S859,348.4,825.2,348.4z M825.2,429.3c-14.2,0-24.2-8.6-24.2-33v-0.1c0-22.9,9-32.2,24.4-32.2c15.2,0,24.7,9.2,24.7,32.2
	C850.1,420.4,839.8,429.3,825.2,429.3z"/>
<polygon id="XMLID_446_" points="700,350.9 682,350.9 682,442.9 735,442.9 735,426.9 700,426.9 "/>
<polygon id="XMLID_447_" points="517,442.9 534,442.9 534,404.9 564,404.9 564,389.9 534,389.9 534,365.9 567,365.9 567,350.9 
	517,350.9 "/>
<path id="XMLID_450_" d="M409.8,399.1c9-3,15.4-9.8,15.4-22.7c0-22-17.3-25.5-38.6-25.5H364v92h17v-37h10.7c6.6,0,9.7,3.3,14.2,12.9
	c3.1,6.8,7.6,18.1,9.6,24.1h19.1c-4-10-11.5-26.7-15-33.8C417.7,405.2,414.7,401.3,409.8,399.1z M395.9,391.9H381v-26h7.4
	c10.9,0,19.2,1.7,19.2,12.4C407.6,386.3,403.1,390.9,395.9,391.9z"/>
<polygon id="XMLID_451_" points="437,365.9 462,365.9 462,442.9 479,442.9 479,365.9 504,365.9 504,350.9 437,350.9 "/>
<g id="XMLID_26_">
	<path id="XMLID_27_" class="st6" d="M357.6,489.5c-2.4,0-4.2-1.3-4.2-3.7v-7.3h1.7v6.7c0,1.6,0.6,2.8,2.5,2.8c2,0,2.5-1.2,2.5-2.8
		v-6.7h1.7v7.3C361.9,488.2,360.1,489.5,357.6,489.5L357.6,489.5z"/>
	<path id="XMLID_29_" class="st6" d="M374.9,489.2h-1.7v-10.8h1.7V489.2z"/>
	<path id="XMLID_31_" class="st6" d="M401.4,478.5c3.8,0,5.6,1.6,5.6,5.4c0,3.3-1.3,5.4-5.7,5.4h-2.9v-10.8L401.4,478.5L401.4,478.5
		z M405.2,483.8c0-2.6-1.1-3.9-3.8-3.9h-1.3v7.8h1.3C404,487.7,405.2,486.4,405.2,483.8L405.2,483.8z"/>
	<path id="XMLID_34_" class="st6" d="M419.5,483h3.7v1.4h-3.7v3.3h4.5v1.5h-6.1v-10.8h5.8v1.5h-4.1L419.5,483L419.5,483z"/>
	<path id="XMLID_36_" class="st6" d="M439.8,480.4c-0.6-0.3-1.5-0.6-2.2-0.6c-0.8,0-1.8,0.3-1.8,1.4c0,0.8,0.8,1.2,1.8,1.7
		c1.6,0.8,2.9,1.5,2.9,3.3c0,2.4-1.6,3.2-3.4,3.2c-1.2,0-2.6-0.3-3.4-0.7l0.4-1.6c0.8,0.4,2,0.7,2.9,0.7c0.8,0,1.7-0.3,1.7-1.5
		c0-0.9-0.7-1.4-2.1-2c-1.5-0.7-2.6-1.3-2.6-3c0-2.4,1.9-3,3.3-3c1.2,0,2.3,0.3,2.9,0.6L439.8,480.4z"/>
	<path id="XMLID_38_" class="st6" d="M453,489.2h-1.7v-10.8h1.7V489.2z"/>
	<path id="XMLID_40_" class="st6" d="M470.7,484.7h-2.3v-1.4h3.9v5.6c-0.7,0.3-2,0.5-3.2,0.5c-4.1,0-5.3-2.5-5.3-5.4
		c0-3,1.1-5.7,5.2-5.7c0.9,0,1.9,0.2,2.5,0.4l-0.3,1.6c-0.6-0.3-1.4-0.4-2.2-0.4c-2.5,0-3.4,1.7-3.4,4.2c0,2.4,1,3.9,3.5,3.9
		c0.5,0,1.1-0.1,1.5-0.2L470.7,484.7L470.7,484.7z"/>
	<path id="XMLID_42_" class="st6" d="M484.7,489.2h-1.6v-10.8h2.3l4.6,8.1v-8.1h1.6v10.8h-2l-4.9-8.8V489.2z"/>
</g>
<g id="XMLID_1_">
	<path id="XMLID_6_" class="st1" d="M523.8,490.8h-1.2l5.4-12.4h1.2L523.8,490.8z"/>
	<path id="XMLID_8_" class="st1" d="M544.4,481.3c0-1-0.7-1.5-1.7-1.5c-0.9,0-1.8,0.3-2.6,0.7l-0.3-1.5c0.8-0.4,2-0.7,3.1-0.7
		c1.7,0,3.3,0.7,3.3,3c0,1.4-0.7,2.6-2.3,4.2c-0.9,1-1.8,1.7-2.4,2.3h4.9v1.5h-7v-1.4c0.8-0.7,1.8-1.6,2.8-2.7
		C543.6,483.4,544.4,482.3,544.4,481.3L544.4,481.3z"/>
	<path id="XMLID_10_" class="st1" d="M564.5,483.9c0,3.2-1.1,5.6-3.8,5.6s-3.8-2.4-3.8-5.6s1.1-5.6,3.8-5.6
		C563.3,478.2,564.5,480.6,564.5,483.9L564.5,483.9z M558.6,483.9c0,3.1,0.8,4.1,2,4.1c1.2,0,2.1-1,2.1-4.1s-0.9-4.2-2.1-4.2
		C559.4,479.7,558.6,480.7,558.6,483.9L558.6,483.9z"/>
	<path id="XMLID_13_" class="st1" d="M576,481.1l-0.3-1.3c0.9-0.3,2.2-0.9,2.8-1.4h1.3v10.8h-1.7v-9
		C577.6,480.5,576.8,480.8,576,481.1z"/>
	<path id="XMLID_15_" class="st1" d="M596.5,482.5c1.8,0,3.2,0.9,3.2,3.2c0,2.6-1.7,3.7-4,3.7c-0.7,0-1.9-0.1-2.6-0.4l0.2-1.5
		c0.7,0.2,1.7,0.4,2.4,0.4c1.2,0,2.4-0.5,2.4-2.2c0-1.3-0.9-1.8-1.9-1.8c-0.7,0-1.4,0.2-2,0.6l-0.9-0.4l0.6-5.7h5.5v1.5h-4.2l-0.3,3
		C595.3,482.7,596,482.5,596.5,482.5z"/>
	<path id="XMLID_17_" class="st1" d="M612.4,489.2h-1.8v-2h1.8V489.2z"/>
	<path id="XMLID_19_" class="st1" d="M624.1,481.1l-0.3-1.3c0.9-0.3,2.2-0.9,2.8-1.4h1.3v10.8h-1.7v-9
		C625.7,480.5,624.9,480.8,624.1,481.1z"/>
	<path id="XMLID_21_" class="st1" d="M648.3,483.9c0,3.2-1.1,5.6-3.8,5.6s-3.8-2.4-3.8-5.6s1.1-5.6,3.8-5.6S648.3,480.6,648.3,483.9
		L648.3,483.9z M642.4,483.9c0,3.1,0.8,4.1,2,4.1s2.1-1,2.1-4.1s-0.9-4.2-2.1-4.2C643.3,479.7,642.4,480.7,642.4,483.9L642.4,483.9z
		"/>
	<path id="XMLID_24_" class="st1" d="M659.2,490.8H658l5.4-12.4h1.2L659.2,490.8z"/>
</g>
</svg>
