<?xml version="1.0" encoding="utf-8"?>
<!-- Generator: Adobe Illustrator 19.0.0, SVG Export Plug-In . SVG Version: 6.00 Build 0)  -->
<svg version="1.1" id="图层_2" xmlns="http://www.w3.org/2000/svg" xmlns:xlink="http://www.w3.org/1999/xlink" x="0px" y="0px"
	 viewBox="109 204.9 813 432" style="enable-background:new 109 204.9 813 432;" xml:space="preserve">
<style type="text/css">
	.st0{fill:none;}
	.st1{fill:#545556;}
	.st2{fill:#A4A4A5;}
	.st3{fill:#303030;}
	.st4{fill:#292A2D;}
	.st5{fill:#3D3E3F;}
	.st6{fill:#3D78F7;}
</style>
<path id="XMLID_424_" class="st0" d="M622.9,358c-15.4,0-24.9,9.2-24.9,32.2v0.1c0,24.4,10.7,33,24.8,33c14.5,0,24.8-8.9,24.8-33.1
	C647.7,367.2,638.2,358,622.9,358z"/>
<path id="XMLID_425_" class="st0" d="M304.7,358c-15.4,0-24.7,9.2-24.7,32.2v0.1c0,24.4,10.4,33,24.5,33c14.5,0,24.8-8.9,24.8-33.1
	C329.4,367.2,319.9,358,304.7,358z"/>
<path id="XMLID_426_" class="st0" d="M388.4,359.9H381v26h14.9c7.2-1,11.8-5.6,11.8-13.6C407.6,361.6,399.4,359.9,388.4,359.9z"/>
<path id="XMLID_427_" class="st0" d="M227.2,353.6c0-12.6-8.8-18.7-26.1-18.7H191v4.1l23.7,34.3C222.8,371,227.2,365.4,227.2,353.6z
	"/>
<path id="XMLID_428_" class="st0" d="M211.9,394.4l32.7,22l-17.5-25.1C222.4,393.1,217.3,394.1,211.9,394.4z"/>
<path id="XMLID_429_" class="st0" d="M191,374.9h11.4c4.7,0,8.9-0.5,12.3-1.5L191,339V374.9z"/>
<path id="XMLID_430_" class="st0" d="M830.7,358c-15.4,0-24.7,9.2-24.7,32.2v0.1c0,24.4,10.4,33,24.5,33c14.5,0,24.8-8.9,24.8-33.1
	C855.4,367.2,845.9,358,830.7,358z"/>
<path id="XMLID_431_" class="st1" d="M191,339v-4.1h10.1c17.3,0,26.1,6,26.1,18.7c0,11.8-4.5,17.4-12.6,19.8l12.6,18
	c14.1-5.4,24.3-17.8,24.3-39.4c0-14-5-23.2-13.3-29.2l-50.3,12L191,339z"/>
<polygon id="XMLID_432_" class="st2" points="173.1,313.9 167,313.9 167,339.7 187.8,334.8 "/>
<path id="XMLID_433_" class="st3" d="M167,436.9h24v-42h17.8c1.1,0,2.2-0.3,3.2-0.3L167,364V436.9z"/>
<path id="XMLID_434_" class="st4" d="M238.2,322.8c-9.2-6.5-22.6-8.9-37.9-8.9h-27.2l14.6,20.9L238.2,322.8z"/>
<path id="XMLID_435_" class="st5" d="M214.5,373.4c-3.4,1-7.5,1.5-12.2,1.5H191V339l-3.1-4.3l-20.9,5V364l45,30.3
	c5.4-0.3,10.5-1.2,15.2-3L214.5,373.4z"/>
<path id="XMLID_438_" d="M304.5,342.4c-33.7,0-43.5,25.6-43.5,47.9v0.1c0,24.2,11,48.7,43.6,48.7c34,0,43.7-26.2,43.7-48.7
	S338.4,342.4,304.5,342.4z M304.5,423.3c-14.2,0-24.5-8.6-24.5-33v-0.1c0-22.9,9.3-32.2,24.7-32.2c15.2,0,24.7,9.2,24.7,32.2
	C329.4,414.4,319.1,423.3,304.5,423.3z"/>
<rect id="XMLID_439_" x="749" y="344.9" width="18" height="92"/>
<path id="XMLID_442_" d="M622.8,342.4c-33.7,0-43.8,25.6-43.8,47.9v0.1c0,24.2,11.3,48.7,43.9,48.7c34,0,43.7-26.2,43.7-48.7
	C666.6,367.9,656.6,342.4,622.8,342.4z M622.8,423.3c-14.2,0-24.8-8.6-24.8-33v-0.1c0-22.9,9.6-32.2,24.9-32.2
	c15.2,0,24.7,9.2,24.7,32.2C647.7,414.4,637.3,423.3,622.8,423.3z"/>
<path id="XMLID_445_" d="M825.2,342.4c-33.7,0-43.2,25.6-43.2,47.9v0.1c0,24.2,10.7,48.7,43.3,48.7c34,0,43.7-26.2,43.7-48.7
	S859,342.4,825.2,342.4z M825.2,423.3c-14.2,0-24.2-8.6-24.2-33v-0.1c0-22.9,9-32.2,24.4-32.2c15.2,0,24.7,9.2,24.7,32.2
	C850.1,414.4,839.8,423.3,825.2,423.3z"/>
<polygon id="XMLID_446_" points="700,344.9 682,344.9 682,436.9 735,436.9 735,420.9 700,420.9 "/>
<polygon id="XMLID_447_" points="517,436.9 534,436.9 534,398.9 564,398.9 564,383.9 534,383.9 534,359.9 567,359.9 567,344.9 
	517,344.9 "/>
<path id="XMLID_450_" d="M409.8,393.1c9-3,15.4-9.8,15.4-22.7c0-22-17.3-25.5-38.6-25.5H364v92h17v-37h10.7c6.6,0,9.7,3.3,14.2,12.9
	c3.1,6.8,7.6,18.1,9.6,24.1h19.1c-4-10-11.5-26.7-15-33.8C417.7,399.2,414.7,395.3,409.8,393.1z M395.9,385.9H381v-26h7.4
	c10.9,0,19.2,1.7,19.2,12.4C407.6,380.3,403.1,384.9,395.9,385.9z"/>
<polygon id="XMLID_451_" points="437,359.9 462,359.9 462,436.9 479,436.9 479,359.9 504,359.9 504,344.9 437,344.9 "/>
<g id="XMLID_25_">
	<path id="XMLID_26_" class="st6" d="M347.9,472.5h1.8l-2.7,10.8h-1.6l-2.3-8l-2.2,8h-1.6l-2.9-10.8h1.8l2,8.3l2.1-8.1h1.7l2.2,8.1
		L347.9,472.5z"/>
	<path id="XMLID_28_" class="st6" d="M361.6,477h3.7v1.4h-3.7v3.3h4.5v1.5H360v-10.8h5.8v1.5h-4.1v3.1H361.6z"/>
	<path id="XMLID_30_" class="st6" d="M383.7,480.2c0,2.2-1.6,3-3.8,3h-3.3v-10.8h3.1c1.8,0,3.6,0.5,3.6,2.6c0,1.3-0.7,2-1.7,2.4
		C382.6,477.6,383.7,478.3,383.7,480.2L383.7,480.2z M381.7,475.4c0-1.1-0.8-1.5-2.1-1.5h-1.2v3.1h1.9
		C381,476.9,381.7,476.4,381.7,475.4L381.7,475.4z M378.3,481.8h1.5c1.2,0,2.2-0.3,2.2-1.8c0-1.2-0.8-1.7-2.2-1.7h-1.5V481.8z"/>
	<path id="XMLID_34_" class="st6" d="M409.8,472.5c3.8,0,5.6,1.6,5.6,5.4c0,3.3-1.3,5.4-5.7,5.4h-2.9v-10.8L409.8,472.5L409.8,472.5
		z M413.6,477.8c0-2.6-1.1-3.9-3.8-3.9h-1.3v7.8h1.3C412.4,481.7,413.6,480.4,413.6,477.8L413.6,477.8z"/>
	<path id="XMLID_37_" class="st6" d="M427.9,477h3.7v1.4h-3.7v3.3h4.5v1.5h-6.1v-10.8h5.8v1.5H428L427.9,477L427.9,477z"/>
	<path id="XMLID_39_" class="st6" d="M448.2,474.4c-0.6-0.3-1.5-0.6-2.2-0.6c-0.8,0-1.8,0.3-1.8,1.4c0,0.8,0.8,1.2,1.8,1.7
		c1.6,0.8,2.9,1.5,2.9,3.3c0,2.4-1.6,3.2-3.4,3.2c-1.2,0-2.6-0.3-3.4-0.7l0.4-1.6c0.8,0.4,2,0.7,2.9,0.7c0.8,0,1.7-0.3,1.7-1.5
		c0-0.9-0.7-1.4-2.1-2c-1.5-0.7-2.6-1.3-2.6-3c0-2.4,1.9-3,3.3-3c1.2,0,2.3,0.3,2.9,0.6L448.2,474.4z"/>
	<path id="XMLID_41_" class="st6" d="M461.4,483.2h-1.7v-10.8h1.7V483.2z"/>
	<path id="XMLID_44_" class="st6" d="M479,478.7h-2.3v-1.4h3.9v5.6c-0.7,0.3-2,0.5-3.2,0.5c-4.1,0-5.3-2.5-5.3-5.4
		c0-3,1.1-5.7,5.2-5.7c0.9,0,1.9,0.2,2.5,0.4l-0.3,1.6c-0.6-0.3-1.4-0.4-2.2-0.4c-2.5,0-3.4,1.7-3.4,4.2c0,2.4,1,3.9,3.5,3.9
		c0.5,0,1.1-0.1,1.5-0.2L479,478.7L479,478.7z"/>
	<path id="XMLID_46_" class="st6" d="M493.1,483.2h-1.6v-10.8h2.3l4.6,8.1v-8.1h1.6v10.8h-2l-4.9-8.8V483.2z"/>
</g>
<g id="XMLID_1_">
	<path id="XMLID_6_" class="st1" d="M526.8,484.8h-1.2l5.4-12.4h1.2L526.8,484.8z"/>
	<path id="XMLID_8_" class="st1" d="M547.4,475.3c0-1-0.7-1.5-1.7-1.5c-0.9,0-1.8,0.3-2.6,0.7l-0.3-1.5c0.8-0.4,2-0.7,3.1-0.7
		c1.7,0,3.3,0.7,3.3,3c0,1.4-0.7,2.6-2.3,4.2c-0.9,1-1.8,1.7-2.4,2.3h4.9v1.5h-7v-1.4c0.8-0.7,1.8-1.6,2.8-2.7
		C546.6,477.4,547.4,476.3,547.4,475.3L547.4,475.3z"/>
	<path id="XMLID_10_" class="st1" d="M567.5,477.9c0,3.2-1.1,5.6-3.8,5.6s-3.8-2.4-3.8-5.6s1.1-5.6,3.8-5.6
		C566.3,472.2,567.5,474.6,567.5,477.9L567.5,477.9z M561.6,477.9c0,3.1,0.8,4.1,2,4.1c1.2,0,2.1-1,2.1-4.1s-0.9-4.2-2.1-4.2
		C562.4,473.7,561.6,474.7,561.6,477.9L561.6,477.9z"/>
	<path id="XMLID_13_" class="st1" d="M579,475.1l-0.3-1.3c0.9-0.3,2.2-0.9,2.8-1.4h1.3v10.8h-1.7v-9
		C580.6,474.5,579.8,474.8,579,475.1z"/>
	<path id="XMLID_15_" class="st1" d="M600.9,475.3c0-1-0.7-1.5-1.7-1.5c-0.9,0-1.8,0.3-2.6,0.7l-0.4-1.5c0.8-0.4,2-0.7,3.1-0.7
		c1.7,0,3.3,0.7,3.3,3c0,1.4-0.7,2.6-2.3,4.2c-0.9,1-1.8,1.7-2.4,2.3h4.9v1.5h-7v-1.4c0.8-0.7,1.8-1.6,2.8-2.7
		C600.1,477.4,600.9,476.3,600.9,475.3L600.9,475.3z"/>
	<path id="XMLID_17_" class="st1" d="M615.4,483.2h-1.8v-2h1.8V483.2z"/>
	<path id="XMLID_19_" class="st1" d="M635,483.2h-2.2l-2.7-4.1l-2.7,4.1h-2.1l3.9-5.4l-3.7-5.3h2.1l2.7,4l2.6-4h2.1l-3.7,5.2
		L635,483.2z"/>
	<path id="XMLID_21_" class="st1" d="M653.9,483.2h-2.2l-2.7-4.1l-2.7,4.1h-2.1l3.9-5.4l-3.7-5.3h2.1l2.7,4l2.6-4h2.1l-3.7,5.2
		L653.9,483.2z"/>
	<path id="XMLID_23_" class="st1" d="M664.4,484.8h-1.2l5.4-12.4h1.2L664.4,484.8z"/>
</g>
</svg>
