<?xml version="1.0" encoding="utf-8"?>
<!-- Generator: Adobe Illustrator 19.0.0, SVG Export Plug-In . SVG Version: 6.00 Build 0)  -->
<svg version="1.1" id="图层_1" xmlns="http://www.w3.org/2000/svg" xmlns:xlink="http://www.w3.org/1999/xlink" x="0px" y="0px"
	 viewBox="130 183.4 856.5 475.5" style="enable-background:new 130 183.4 856.5 475.5;" xml:space="preserve">
<style type="text/css">
	.st0{fill:none;stroke:#000000;stroke-miterlimit:10;enable-background:new    ;}
	.st1{fill:#FFFFFF;stroke:#000000;stroke-miterlimit:10;enable-background:new    ;}
</style>
<line class="st0" x1="987.4" y1="664.9" x2="942.2" y2="664.9"/>
<line class="st0" x1="650" y1="180.4" x2="743" y2="180.4"/>
<polygon class="st1" points="350.6,473.1 324.2,565.8 326.7,568.1 368.6,517.9 "/>
<polygon class="st1" points="636.9,427.9 641.8,437.9 645.2,434.4 "/>
<polygon class="st1" points="368.6,517.9 422.8,652.8 472.6,603.9 436.3,436.7 "/>
<polygon class="st1" points="326.7,568.1 420.8,654.9 422.8,652.8 368.6,517.9 "/>
<polygon class="st1" points="519.5,336.9 436.3,436.7 472.6,603.9 641.8,437.9 636.9,427.9 "/>
<polygon class="st1" points="641.8,437.9 691.9,540.4 723.7,495.3 645.2,434.4 "/>
<polygon class="st1" points="827.5,347.8 987.4,664.9 989.4,664.9 989.4,374.4 913.4,225.8 "/>
<polygon class="st1" points="760.3,443.2 820.3,570.3 942.2,664.9 987.4,664.9 827.5,347.8 "/>
<polygon class="st1" points="721.2,360 645.2,434.4 723.7,495.3 760.3,443.2 "/>
<polygon class="st1" points="723.7,495.3 820.3,570.3 760.3,443.2 "/>
<polygon class="st1" points="425.4,659.3 422.8,652.8 420.8,654.9 "/>
<polygon class="st1" points="243.8,491.5 294.1,607.1 321.9,573.8 324.2,565.8 "/>
<polygon class="st1" points="321.9,573.8 326.7,568.1 324.2,565.8 "/>
<polygon class="st1" points="436.3,436.7 403.7,286.8 350.6,473.1 368.6,517.9 "/>
<polygon class="st1" points="305.2,632.4 321.9,573.8 294.1,607.1 "/>
<polygon class="st1" points="393.3,238.9 403.7,286.8 413,254.2 "/>
<polygon class="st1" points="989.4,374.4 989.4,180.4 945.4,180.4 913.4,225.8 "/>
<polygon class="st1" points="645.2,434.4 721.2,360 641.3,190.9 565.4,281.8 636.9,427.9 "/>
<polygon class="st1" points="565.4,281.8 519.5,336.9 636.9,427.9 "/>
<polygon class="st1" points="913.4,225.8 894.8,189.4 796.3,286.1 827.5,347.8 "/>
<polygon class="st1" points="827.5,347.8 796.3,286.1 721.2,360 760.3,443.2 "/>
<polygon class="st1" points="519.5,336.9 413,254.2 403.7,286.8 436.3,436.7 "/>
<polygon class="st1" points="326.7,568.1 321.9,573.8 305.2,632.4 319.3,664.9 410.5,664.9 420.8,654.9 "/>
<polygon class="st1" points="420.8,654.9 410.5,664.9 427.8,664.9 425.4,659.3 "/>
<polygon class="st1" points="295.9,664.9 319.3,664.9 305.2,632.4 "/>
<polygon class="st1" points="427.8,664.9 431.4,664.9 425.4,659.3 "/>
<polygon class="st1" points="294.1,607.1 245.9,664.9 295.9,664.9 305.2,632.4 "/>
<polygon class="st1" points="723.7,495.3 691.9,540.4 752.8,664.9 864.9,664.9 820.3,570.3 "/>
<polygon class="st1" points="243.8,491.5 126.9,383.5 126.9,664.9 245.9,664.9 294.1,607.1 "/>
<polygon class="st1" points="820.3,570.3 864.9,664.9 942.2,664.9 "/>
<polygon class="st1" points="604.2,664.9 752.8,664.9 691.9,540.4 "/>
<polygon class="st1" points="422.8,652.8 425.4,659.3 431.4,664.9 485.9,664.9 472.6,603.9 "/>
<polygon class="st1" points="641.8,437.9 472.6,603.9 485.9,664.9 604.2,664.9 691.9,540.4 "/>
<polygon class="st1" points="913.4,225.8 945.4,180.4 904,180.4 894.8,189.4 "/>
<polygon class="st1" points="126.9,223.2 126.9,383.5 243.8,491.5 "/>
<polygon class="st1" points="721.2,360 796.3,286.1 743,180.4 650,180.4 641.3,190.9 "/>
<polygon class="st1" points="641.3,190.9 636.3,180.4 515.9,180.4 565.4,281.8 "/>
<polygon class="st1" points="894.8,189.4 890.3,180.4 743,180.4 796.3,286.1 "/>
<polygon class="st1" points="904,180.4 890.3,180.4 894.8,189.4 "/>
<polygon class="st1" points="650,180.4 636.3,180.4 641.3,190.9 "/>
<polygon class="st1" points="403.7,286.8 393.3,238.9 317.9,180.4 232.9,180.4 350.6,473.1 "/>
<polygon class="st1" points="324.2,565.8 350.6,473.1 232.9,180.4 126.9,180.4 126.9,223.2 243.8,491.5 "/>
<polygon class="st1" points="380.6,180.4 317.9,180.4 393.3,238.9 "/>
<polygon class="st1" points="519.5,336.9 565.4,281.8 515.9,180.4 434,180.4 413,254.2 "/>
<polygon class="st1" points="413,254.2 434,180.4 380.6,180.4 393.3,238.9 "/>
</svg>
