<?xml version="1.0" encoding="utf-8"?>
<!-- Generator: Adobe Illustrator 19.0.0, SVG Export Plug-In . SVG Version: 6.00 Build 0)  -->
<svg version="1.1" id="图层_2" xmlns="http://www.w3.org/2000/svg" xmlns:xlink="http://www.w3.org/1999/xlink" x="0px" y="0px"
	 viewBox="0 0 813 432" style="enable-background:new 0 0 813 432;" xml:space="preserve">
<style type="text/css">
	.st0{fill:none;}
	.st1{fill:#545556;}
	.st2{fill:#A4A4A5;}
	.st3{fill:#303030;}
	.st4{fill:#292A2D;}
	.st5{fill:#3D3E3F;}
	.st6{fill:#3D78F7;}
</style>
<path id="XMLID_424_" class="st0" d="M513.9,161.1c-15.4,0-24.9,9.2-24.9,32.2v0.1c0,24.4,10.7,33,24.8,33
	c14.5,0,24.8-8.9,24.8-33.1C538.7,170.3,529.2,161.1,513.9,161.1z"/>
<path id="XMLID_425_" class="st0" d="M195.7,161.1c-15.4,0-24.7,9.2-24.7,32.2v0.1c0,24.4,10.4,33,24.5,33
	c14.5,0,24.8-8.9,24.8-33.1C220.4,170.3,210.9,161.1,195.7,161.1z"/>
<path id="XMLID_426_" class="st0" d="M279.4,163H272v26h14.9c7.2-1,11.8-5.6,11.8-13.6C298.6,164.7,290.4,163,279.4,163z"/>
<path id="XMLID_427_" class="st0" d="M118.2,156.7c0-12.6-8.8-18.7-26.1-18.7H82v4.1l23.7,34.3C113.8,174.1,118.2,168.5,118.2,156.7
	z"/>
<path id="XMLID_428_" class="st0" d="M102.9,197.5l32.7,22l-17.5-25.1C113.4,196.2,108.3,197.2,102.9,197.5z"/>
<path id="XMLID_429_" class="st0" d="M82,178h11.4c4.7,0,8.9-0.5,12.3-1.5L82,142.1V178z"/>
<path id="XMLID_430_" class="st0" d="M721.7,161.1c-15.4,0-24.7,9.2-24.7,32.2v0.1c0,24.4,10.4,33,24.5,33
	c14.5,0,24.8-8.9,24.8-33.1C746.4,170.3,736.9,161.1,721.7,161.1z"/>
<path id="XMLID_431_" class="st1" d="M82,142.1V138h10.1c17.3,0,26.1,6,26.1,18.7c0,11.8-4.5,17.4-12.6,19.8l12.6,18
	c14.1-5.4,24.3-17.8,24.3-39.4c0-14-5-23.2-13.3-29.2l-50.3,12L82,142.1z"/>
<polygon id="XMLID_432_" class="st2" points="64.1,117 58,117 58,142.8 78.8,137.9 "/>
<path id="XMLID_433_" class="st3" d="M58,240h24v-42h17.8c1.1,0,2.2-0.3,3.2-0.3l-45-30.6V240z"/>
<path id="XMLID_434_" class="st4" d="M129.2,125.9c-9.2-6.5-22.6-8.9-37.9-8.9H64.1l14.6,20.9L129.2,125.9z"/>
<path id="XMLID_435_" class="st5" d="M105.5,176.5c-3.4,1-7.5,1.5-12.2,1.5H82v-35.9l-3.1-4.3l-20.9,5v24.3l45,30.3
	c5.4-0.3,10.5-1.2,15.2-3L105.5,176.5z"/>
<path id="XMLID_438_" d="M195.5,145.5c-33.7,0-43.5,25.6-43.5,47.9v0.1c0,24.2,11,48.7,43.6,48.7c34,0,43.7-26.2,43.7-48.7
	C239.3,171,229.4,145.5,195.5,145.5z M195.5,226.4c-14.2,0-24.5-8.6-24.5-33v-0.1c0-22.9,9.3-32.2,24.7-32.2
	c15.2,0,24.7,9.2,24.7,32.2C220.4,217.5,210.1,226.4,195.5,226.4z"/>
<rect id="XMLID_439_" x="640" y="148" width="18" height="92"/>
<path id="XMLID_442_" d="M513.8,145.5c-33.7,0-43.8,25.6-43.8,47.9v0.1c0,24.2,11.3,48.7,43.9,48.7c34,0,43.7-26.2,43.7-48.7
	C557.6,171,547.6,145.5,513.8,145.5z M513.8,226.4c-14.2,0-24.8-8.6-24.8-33v-0.1c0-22.9,9.6-32.2,24.9-32.2
	c15.2,0,24.7,9.2,24.7,32.2C538.7,217.5,528.3,226.4,513.8,226.4z"/>
<path id="XMLID_445_" d="M716.2,145.5c-33.7,0-43.2,25.6-43.2,47.9v0.1c0,24.2,10.7,48.7,43.3,48.7c34,0,43.7-26.2,43.7-48.7
	C760,171,750,145.5,716.2,145.5z M716.2,226.4c-14.2,0-24.2-8.6-24.2-33v-0.1c0-22.9,9-32.2,24.4-32.2c15.2,0,24.7,9.2,24.7,32.2
	C741.1,217.5,730.8,226.4,716.2,226.4z"/>
<polygon id="XMLID_446_" points="591,148 573,148 573,240 626,240 626,224 591,224 "/>
<polygon id="XMLID_447_" points="408,240 425,240 425,202 455,202 455,187 425,187 425,163 458,163 458,148 408,148 "/>
<path id="XMLID_450_" d="M300.8,196.2c9-3,15.4-9.8,15.4-22.7c0-22-17.3-25.5-38.6-25.5H255v92h17v-37h10.7c6.6,0,9.7,3.3,14.2,12.9
	c3.1,6.8,7.6,18.1,9.6,24.1h19.1c-4-10-11.5-26.7-15-33.8C308.7,202.3,305.7,198.4,300.8,196.2z M286.9,189H272v-26h7.4
	c10.9,0,19.2,1.7,19.2,12.4C298.6,183.4,294.1,188,286.9,189z"/>
<polygon id="XMLID_451_" points="328,163 353,163 353,240 370,240 370,163 395,163 395,148 328,148 "/>
<g id="XMLID_27_">
	<path id="XMLID_28_" class="st6" d="M257.6,280.6c-2.4,0-4.2-1.3-4.2-3.7v-7.3h1.7v6.7c0,1.6,0.6,2.8,2.5,2.8c2,0,2.5-1.2,2.5-2.8
		v-6.7h1.7v7.3C261.9,279.3,260.1,280.6,257.6,280.6L257.6,280.6z"/>
	<path id="XMLID_30_" class="st6" d="M274.9,280.3h-1.7v-10.8h1.7V280.3z"/>
	<path id="XMLID_32_" class="st6" d="M301.4,269.6c3.8,0,5.6,1.6,5.6,5.4c0,3.3-1.3,5.4-5.7,5.4h-2.9v-10.8H301.4z M305.2,274.9
		c0-2.6-1.1-3.9-3.8-3.9h-1.3v7.8h1.3C304,278.8,305.2,277.5,305.2,274.9L305.2,274.9z"/>
	<path id="XMLID_35_" class="st6" d="M319.5,274.1h3.7v1.4h-3.7v3.3h4.5v1.5h-6.1v-10.8h5.8v1.5h-4.1V274.1z"/>
	<path id="XMLID_37_" class="st6" d="M339.8,271.5c-0.6-0.3-1.5-0.6-2.2-0.6c-0.8,0-1.8,0.3-1.8,1.4c0,0.8,0.8,1.2,1.8,1.7
		c1.6,0.8,2.9,1.5,2.9,3.3c0,2.4-1.6,3.2-3.4,3.2c-1.2,0-2.6-0.3-3.4-0.7l0.4-1.6c0.8,0.4,2,0.7,2.9,0.7c0.8,0,1.7-0.3,1.7-1.5
		c0-0.9-0.7-1.4-2.1-2c-1.5-0.7-2.6-1.3-2.6-3c0-2.4,1.9-3,3.3-3c1.2,0,2.3,0.3,2.9,0.6L339.8,271.5z"/>
	<path id="XMLID_39_" class="st6" d="M353,280.3h-1.7v-10.8h1.7V280.3z"/>
	<path id="XMLID_41_" class="st6" d="M370.7,275.8h-2.3v-1.4h3.9v5.6c-0.7,0.3-2,0.5-3.2,0.5c-4.1,0-5.3-2.5-5.3-5.4
		c0-3,1.1-5.7,5.2-5.7c0.9,0,1.9,0.2,2.5,0.4l-0.3,1.6c-0.6-0.3-1.4-0.4-2.2-0.4c-2.5,0-3.4,1.7-3.4,4.2c0,2.4,1,3.9,3.5,3.9
		c0.5,0,1.1-0.1,1.5-0.2V275.8z"/>
	<path id="XMLID_44_" class="st6" d="M384.7,280.3h-1.6v-10.8h2.3l4.6,8.1v-8.1h1.6v10.8h-2l-4.9-8.8V280.3z"/>
</g>
<g id="XMLID_1_">
	<path id="XMLID_2_" class="st1" d="M416.8,280.9h-1.2l5.4-12.4h1.2L416.8,280.9z"/>
	<path id="XMLID_6_" class="st1" d="M437.4,271.4c0-1-0.7-1.5-1.7-1.5c-0.9,0-1.8,0.3-2.6,0.7l-0.3-1.5c0.8-0.4,2-0.7,3.1-0.7
		c1.7,0,3.3,0.7,3.3,3c0,1.4-0.7,2.6-2.3,4.2c-0.9,1-1.8,1.7-2.4,2.3h4.9v1.5h-7v-1.4c0.8-0.7,1.8-1.6,2.8-2.7
		C436.6,273.5,437.4,272.4,437.4,271.4L437.4,271.4z"/>
	<path id="XMLID_8_" class="st1" d="M457.5,274c0,3.2-1.1,5.6-3.8,5.6c-2.7,0-3.8-2.4-3.8-5.6c0-3.2,1.1-5.6,3.8-5.6
		C456.3,268.3,457.5,270.7,457.5,274L457.5,274z M451.6,274c0,3.1,0.8,4.1,2,4.1c1.2,0,2.1-1,2.1-4.1c0-3.1-0.9-4.2-2.1-4.2
		C452.4,269.8,451.6,270.8,451.6,274L451.6,274z"/>
	<path id="XMLID_11_" class="st1" d="M469,271.2l-0.3-1.3c0.9-0.3,2.2-0.9,2.8-1.4h1.3v10.8h-1.7v-9
		C470.6,270.6,469.8,270.9,469,271.2z"/>
	<path id="XMLID_13_" class="st1" d="M492,275.7h1.4v1.4H492v2.3h-1.6v-2.3h-5v-1.2l4.9-7.3h1.7V275.7z M490.4,275.7v-5.1l-3.4,5.1
		H490.4z"/>
	<path id="XMLID_16_" class="st1" d="M505.4,279.3h-1.8v-2h1.8V279.3z"/>
	<path id="XMLID_20_" class="st1" d="M517.1,271.2l-0.3-1.3c0.9-0.3,2.2-0.9,2.8-1.4h1.3v10.8h-1.7v-9
		C518.7,270.6,517.9,270.9,517.1,271.2z"/>
	<path id="XMLID_22_" class="st1" d="M541.3,274c0,3.2-1.1,5.6-3.8,5.6s-3.8-2.4-3.8-5.6c0-3.2,1.1-5.6,3.8-5.6
		S541.3,270.7,541.3,274L541.3,274z M535.4,274c0,3.1,0.8,4.1,2,4.1c1.2,0,2.1-1,2.1-4.1c0-3.1-0.9-4.2-2.1-4.2
		C536.3,269.8,535.4,270.8,535.4,274L535.4,274z"/>
	<path id="XMLID_25_" class="st1" d="M552.2,280.9H551l5.4-12.4h1.2L552.2,280.9z"/>
</g>
</svg>
