<?xml version="1.0" encoding="utf-8"?>
<!-- Generator: Adobe Illustrator 19.0.0, SVG Export Plug-In . SVG Version: 6.00 Build 0)  -->
<svg version="1.1" id="图层_1" xmlns="http://www.w3.org/2000/svg" xmlns:xlink="http://www.w3.org/1999/xlink" x="0px" y="0px"
	 viewBox="144 168 900 457" style="enable-background:new 144 168 900 457;" xml:space="preserve">
<style type="text/css">
	.st0{display:none;}
	.st1{display:inline;opacity:8.000000e-02;fill:none;stroke:#000000;stroke-miterlimit:10;enable-background:new    ;}
	.st2{display:inline;opacity:8.000000e-02;fill:#FFFFFF;stroke:#000000;stroke-miterlimit:10;enable-background:new    ;}
	.st3{fill:#FFFFFF;}
	.st4{opacity:0.69;}
	.st5{fill:none;}
	.st6{fill:#8AB4FF;}
	.st7{fill:#2C9BFF;}
	.st8{fill:#3265BF;}
	.st9{fill:#3D78F7;}
</style>
<g id="图层_1_1_" class="st0">
	<line class="st1" x1="787.5" y1="816" x2="742.3" y2="816"/>
	<line class="st1" x1="450.1" y1="331.5" x2="543.1" y2="331.5"/>
	<polygon class="st2" points="150.7,624.2 124.3,716.9 126.8,719.2 168.7,669 	"/>
	<polygon class="st2" points="437,579 441.8,589 445.3,585.5 	"/>
	<polygon class="st2" points="168.7,669 222.9,803.9 272.7,755 236.4,587.8 	"/>
	<polygon class="st2" points="126.8,719.2 220.8,806 222.9,803.9 168.7,669 	"/>
	<polygon class="st2" points="319.6,488 236.4,587.8 272.7,755 441.8,589 437,579 	"/>
	<polygon class="st2" points="441.8,589 492,691.5 523.7,646.4 445.3,585.5 	"/>
	<polygon class="st2" points="627.6,498.9 787.5,816 789.5,816 789.5,525.5 713.5,376.9 	"/>
	<polygon class="st2" points="560.4,594.3 620.4,721.4 742.3,816 787.5,816 627.6,498.9 	"/>
	<polygon class="st2" points="521.2,511.1 445.3,585.5 523.7,646.4 560.4,594.3 	"/>
	<polygon class="st2" points="523.7,646.4 620.4,721.4 560.4,594.3 	"/>
	<polygon class="st2" points="225.5,810.4 222.9,803.9 220.8,806 	"/>
	<polygon class="st2" points="43.9,642.6 94.2,758.2 122,724.9 124.3,716.9 	"/>
	<polygon class="st2" points="122,724.9 126.8,719.2 124.3,716.9 	"/>
	<polygon class="st2" points="236.4,587.8 203.8,437.9 150.7,624.2 168.7,669 	"/>
	<polygon class="st2" points="105.3,783.5 122,724.9 94.2,758.2 	"/>
	<polygon class="st2" points="193.4,390 203.8,437.9 213.1,405.3 	"/>
	<polygon class="st2" points="789.5,525.5 789.5,331.5 745.5,331.5 713.5,376.9 	"/>
	<polygon class="st2" points="445.3,585.5 521.2,511.1 441.4,342 365.5,432.9 437,579 	"/>
	<polygon class="st2" points="365.5,432.9 319.6,488 437,579 	"/>
	<polygon class="st2" points="713.5,376.9 694.9,340.5 596.4,437.2 627.6,498.9 	"/>
	<polygon class="st2" points="627.6,498.9 596.4,437.2 521.2,511.1 560.4,594.3 	"/>
	<polygon class="st2" points="319.6,488 213.1,405.3 203.8,437.9 236.4,587.8 	"/>
	<polygon class="st2" points="126.8,719.2 122,724.9 105.3,783.5 119.4,816 210.6,816 220.8,806 	"/>
	<polygon class="st2" points="220.8,806 210.6,816 227.8,816 225.5,810.4 	"/>
	<polygon class="st2" points="96,816 119.4,816 105.3,783.5 	"/>
	<polygon class="st2" points="227.8,816 231.5,816 225.5,810.4 	"/>
	<polygon class="st2" points="94.2,758.2 46,816 96,816 105.3,783.5 	"/>
	<polygon class="st2" points="523.7,646.4 492,691.5 552.8,816 665,816 620.4,721.4 	"/>
	<polygon class="st2" points="43.9,642.6 -73,534.6 -73,816 46,816 94.2,758.2 	"/>
	<polygon class="st2" points="620.4,721.4 665,816 742.3,816 	"/>
	<polygon class="st2" points="404.3,816 552.8,816 492,691.5 	"/>
	<polygon class="st2" points="222.9,803.9 225.5,810.4 231.5,816 286,816 272.7,755 	"/>
	<polygon class="st2" points="441.8,589 272.7,755 286,816 404.3,816 492,691.5 	"/>
	<polygon class="st2" points="713.5,376.9 745.5,331.5 704.1,331.5 694.9,340.5 	"/>
	<polygon class="st2" points="-73,374.3 -73,534.6 43.9,642.6 	"/>
	<polygon class="st2" points="521.2,511.1 596.4,437.2 543.1,331.5 450.1,331.5 441.4,342 	"/>
	<polygon class="st2" points="441.4,342 436.4,331.5 316,331.5 365.5,432.9 	"/>
	<polygon class="st2" points="694.9,340.5 690.4,331.5 543.1,331.5 596.4,437.2 	"/>
	<polygon class="st2" points="704.1,331.5 690.4,331.5 694.9,340.5 	"/>
	<polygon class="st2" points="450.1,331.5 436.4,331.5 441.4,342 	"/>
	<polygon class="st2" points="203.8,437.9 193.4,390 118,331.5 33,331.5 150.7,624.2 	"/>
	<polygon class="st2" points="124.3,716.9 150.7,624.2 33,331.5 -73,331.5 -73,374.3 43.9,642.6 	"/>
	<polygon class="st2" points="180.7,331.5 118,331.5 193.4,390 	"/>
	<polygon class="st2" points="319.6,488 365.5,432.9 316,331.5 234.1,331.5 213.1,405.3 	"/>
	<polygon class="st2" points="213.1,405.3 234.1,331.5 180.7,331.5 193.4,390 	"/>
</g>
<path class="st3" d="M143.4,166.5v460h901.2v-460H143.4z M686.1,326.7l-15.6,51.7L655,430l-4.1,13.6h-28.2l-5.2-17.1l-13.2-43
	l-11.4-37.1L579,392.9l-3.1,10.3l-2.6,8.7l-3.1,10.3l-6.4,21.5h-28.4l-3.3-10.2l-4.9-15.3l-17.5-54.7l-14.9-46.4h31.8l19.9,74.5
	l5.1,19.1l3.7-12.4l8.4-28.4l15.6-52.7h16.3h11.9l4,13.1l12.3,39.9l12.5,40.6l12-50.3l2.1-8.7l8.3-34.5h30.4L686.1,326.7z"/>
<g class="st4">
	<g>
		<line class="st5" x1="648.3" y1="360.5" x2="650.4" y2="351.8"/>
		<line class="st5" x1="611.5" y1="330.3" x2="623.8" y2="370.2"/>
		<line class="st5" x1="576" y1="403.4" x2="573.4" y2="412.1"/>
		<line class="st5" x1="573.4" y1="412.1" x2="570.3" y2="422.4"/>
		<polygon class="st3" points="607.5,317.2 595.6,317.2 611.5,330.3 		"/>
		<polygon class="st3" points="526.7,317.2 494.9,317.2 509.8,363.7 546.6,391.7 		"/>
		<polygon class="st3" points="622.7,443.8 650.9,443.8 655,430.3 617.5,426.8 		"/>
		<polygon class="st3" points="689.1,317.2 658.7,317.2 650.4,351.8 686.1,327 		"/>
		<polygon class="st3" points="568.6,408.5 573.4,412.1 576,403.4 		"/>
		<polygon class="st3" points="670.5,378.7 686.1,327 650.4,351.8 648.3,360.5 		"/>
		<polygon class="st3" points="527.3,418.4 532.2,433.7 551.1,420.6 		"/>
		<polygon class="st3" points="636.3,410.8 623.8,370.2 604.3,383.8 617.5,426.8 655,430.3 670.5,378.7 648.3,360.5 		"/>
		<polygon class="st3" points="568.6,408.5 551.1,420.6 570.3,422.4 573.4,412.1 		"/>
		<polygon class="st3" points="532.2,433.7 535.5,443.8 563.9,443.8 570.3,422.4 551.1,420.6 		"/>
		<polygon class="st3" points="568.6,408.5 555.4,398.4 551.7,410.8 546.6,391.7 509.8,363.7 527.3,418.4 551.1,420.6 		"/>
		<polygon class="st3" points="592.9,346.6 604.3,383.8 623.8,370.2 611.5,330.3 595.6,317.2 579.3,317.2 563.7,370 579,393.1 		"/>
		<polygon class="st3" points="576,403.4 579,393.1 563.7,370 555.4,398.4 568.6,408.5 		"/>
	</g>
	<g>
		<line class="st5" x1="648.3" y1="360.5" x2="650.4" y2="351.8"/>
		<line class="st5" x1="611.5" y1="330.3" x2="623.8" y2="370.2"/>
		<line class="st5" x1="576" y1="403.4" x2="573.4" y2="412.1"/>
		<line class="st5" x1="573.4" y1="412.1" x2="570.3" y2="422.4"/>
		<polygon class="st6" points="607.5,317.2 595.6,317.2 611.5,330.3 		"/>
		<polygon class="st6" points="526.7,317.2 494.9,317.2 509.8,363.7 546.6,391.7 		"/>
		<polygon class="st7" points="622.7,443.8 650.9,443.8 655,430.3 617.5,426.8 		"/>
		<polygon class="st6" points="689.1,317.2 658.7,317.2 650.4,351.8 686.1,327 		"/>
		<polygon class="st8" points="568.6,408.5 573.4,412.1 576,403.4 		"/>
		<polygon class="st7" points="670.5,378.7 686.1,327 650.4,351.8 648.3,360.5 		"/>
		<polygon class="st6" points="527.3,418.4 532.2,433.7 551.1,420.6 		"/>
		<polygon class="st6" points="636.3,410.8 623.8,370.2 604.3,383.8 617.5,426.8 655,430.3 670.5,378.7 648.3,360.5 		"/>
		<polygon class="st9" points="568.6,408.5 551.1,420.6 570.3,422.4 573.4,412.1 		"/>
		<polygon class="st7" points="532.2,433.7 535.5,443.8 563.9,443.8 570.3,422.4 551.1,420.6 		"/>
		<polygon class="st7" points="568.6,408.5 555.4,398.4 551.7,410.8 546.6,391.7 509.8,363.7 527.3,418.4 551.1,420.6 		"/>
		<polygon class="st7" points="592.9,346.6 604.3,383.8 623.8,370.2 611.5,330.3 595.6,317.2 579.3,317.2 563.7,370 579,393.1 		"/>
		<polygon class="st6" points="576,403.4 579,393.1 563.7,370 555.4,398.4 568.6,408.5 		"/>
	</g>
</g>
</svg>
