<?xml version="1.0" encoding="utf-8"?>
<!-- Generator: Adobe Illustrator 19.0.0, SVG Export Plug-In . SVG Version: 6.00 Build 0)  -->
<svg version="1.1" xmlns="http://www.w3.org/2000/svg" xmlns:xlink="http://www.w3.org/1999/xlink" x="0px" y="0px"
	 viewBox="-232.8 163.5 900 457" style="enable-background:new -232.8 163.5 900 457;" xml:space="preserve">
<style type="text/css">
	.st0{display:none;}
	.st1{display:inline;opacity:8.000000e-02;fill:none;stroke:#000000;stroke-miterlimit:10;enable-background:new    ;}
	.st2{display:inline;opacity:8.000000e-02;fill:#FFFFFF;stroke:#000000;stroke-miterlimit:10;enable-background:new    ;}
	.st3{fill:#FFFFFF;}
	.st4{opacity:0.7;}
	.st5{fill:#535353;}
	.st6{fill:#8AB4FF;}
	.st7{fill:#3265BF;}
	.st8{fill:#3D78F7;}
</style>
<g id="图层_1" class="st0">
	<line class="st1" x1="643.5" y1="648" x2="598.3" y2="648"/>
	<line class="st1" x1="306.1" y1="163.5" x2="399.1" y2="163.5"/>
	<polygon class="st2" points="6.7,456.2 -19.7,548.9 -17.2,551.2 24.7,501 	"/>
	<polygon class="st2" points="293,411 297.8,421 301.3,417.5 	"/>
	<polygon class="st2" points="24.7,501 78.9,635.9 128.7,587 92.4,419.8 	"/>
	<polygon class="st2" points="-17.2,551.2 76.8,638 78.9,635.9 24.7,501 	"/>
	<polygon class="st2" points="175.6,320 92.4,419.8 128.7,587 297.8,421 293,411 	"/>
	<polygon class="st2" points="297.8,421 348,523.5 379.7,478.4 301.3,417.5 	"/>
	<polygon class="st2" points="483.6,330.9 643.5,648 645.5,648 645.5,357.5 569.5,208.9 	"/>
	<polygon class="st2" points="416.4,426.3 476.4,553.4 598.3,648 643.5,648 483.6,330.9 	"/>
	<polygon class="st2" points="377.2,343.1 301.3,417.5 379.7,478.4 416.4,426.3 	"/>
	<polygon class="st2" points="379.7,478.4 476.4,553.4 416.4,426.3 	"/>
	<polygon class="st2" points="81.5,642.4 78.9,635.9 76.8,638 	"/>
	<polygon class="st2" points="-100.1,474.6 -49.8,590.2 -22,556.9 -19.7,548.9 	"/>
	<polygon class="st2" points="-22,556.9 -17.2,551.2 -19.7,548.9 	"/>
	<polygon class="st2" points="92.4,419.8 59.8,269.9 6.7,456.2 24.7,501 	"/>
	<polygon class="st2" points="-38.7,615.5 -22,556.9 -49.8,590.2 	"/>
	<polygon class="st2" points="49.4,222 59.8,269.9 69.1,237.3 	"/>
	<polygon class="st2" points="645.5,357.5 645.5,163.5 601.5,163.5 569.5,208.9 	"/>
	<polygon class="st2" points="301.3,417.5 377.2,343.1 297.4,174 221.5,264.9 293,411 	"/>
	<polygon class="st2" points="221.5,264.9 175.6,320 293,411 	"/>
	<polygon class="st2" points="569.5,208.9 550.9,172.5 452.4,269.2 483.6,330.9 	"/>
	<polygon class="st2" points="483.6,330.9 452.4,269.2 377.2,343.1 416.4,426.3 	"/>
	<polygon class="st2" points="175.6,320 69.1,237.3 59.8,269.9 92.4,419.8 	"/>
	<polygon class="st2" points="-17.2,551.2 -22,556.9 -38.7,615.5 -24.6,648 66.6,648 76.8,638 	"/>
	<polygon class="st2" points="76.8,638 66.6,648 83.8,648 81.5,642.4 	"/>
	<polygon class="st2" points="-48,648 -24.6,648 -38.7,615.5 	"/>
	<polygon class="st2" points="83.8,648 87.5,648 81.5,642.4 	"/>
	<polygon class="st2" points="-49.8,590.2 -98,648 -48,648 -38.7,615.5 	"/>
	<polygon class="st2" points="379.7,478.4 348,523.5 408.8,648 521,648 476.4,553.4 	"/>
	<polygon class="st2" points="-100.1,474.6 -217,366.6 -217,648 -98,648 -49.8,590.2 	"/>
	<polygon class="st2" points="476.4,553.4 521,648 598.3,648 	"/>
	<polygon class="st2" points="260.3,648 408.8,648 348,523.5 	"/>
	<polygon class="st2" points="78.9,635.9 81.5,642.4 87.5,648 142,648 128.7,587 	"/>
	<polygon class="st2" points="297.8,421 128.7,587 142,648 260.3,648 348,523.5 	"/>
	<polygon class="st2" points="569.5,208.9 601.5,163.5 560.1,163.5 550.9,172.5 	"/>
	<polygon class="st2" points="-217,206.3 -217,366.6 -100.1,474.6 	"/>
	<polygon class="st2" points="377.2,343.1 452.4,269.2 399.1,163.5 306.1,163.5 297.4,174 	"/>
	<polygon class="st2" points="297.4,174 292.4,163.5 172,163.5 221.5,264.9 	"/>
	<polygon class="st2" points="550.9,172.5 546.4,163.5 399.1,163.5 452.4,269.2 	"/>
	<polygon class="st2" points="560.1,163.5 546.4,163.5 550.9,172.5 	"/>
	<polygon class="st2" points="306.1,163.5 292.4,163.5 297.4,174 	"/>
	<polygon class="st2" points="59.8,269.9 49.4,222 -26,163.5 -111,163.5 6.7,456.2 	"/>
	<polygon class="st2" points="-19.7,548.9 6.7,456.2 -111,163.5 -217,163.5 -217,206.3 -100.1,474.6 	"/>
	<polygon class="st2" points="36.7,163.5 -26,163.5 49.4,222 	"/>
	<polygon class="st2" points="175.6,320 221.5,264.9 172,163.5 90.1,163.5 69.1,237.3 	"/>
	<polygon class="st2" points="69.1,237.3 90.1,163.5 36.7,163.5 49.4,222 	"/>
</g>
<g id="图层_2">
	<path class="st3" d="M-233,163.5v460h901.2v-460H-233z M309.7,323.7l-15.6,51.7L278.6,427l-4.1,13.6h-28.2l-5.2-17.1l-13.2-43
		l-11.4-37.1l-13.9,46.5l-3.1,10.3l-2.6,8.7l-3.1,10.3l-6.4,21.5h-28.4l-3.3-10.2l-4.9-15.3l-17.5-54.7l-14.9-46.4h31.8l19.9,74.5
		l5.1,19.1l3.7-12.4l8.4-28.4l15.6-52.7h16.3h11.9l4,13.1l12.3,39.9l12.5,40.6l12-50.3l2.1-8.7l8.3-34.5h30.4L309.7,323.7z"/>
	<g class="st4">
		<g>
			<line class="st3" x1="271.9" y1="357.5" x2="274" y2="348.8"/>
			<line class="st3" x1="235.1" y1="327.3" x2="247.4" y2="367.2"/>
			<line class="st3" x1="199.6" y1="400.4" x2="197" y2="409.1"/>
			<line class="st3" x1="197" y1="409.1" x2="193.9" y2="419.4"/>
			<polygon class="st3" points="231.1,314.2 219.2,314.2 235.1,327.3 			"/>
			<polygon class="st3" points="150.3,314.2 118.5,314.2 133.4,360.7 170.2,388.7 			"/>
			<polygon class="st3" points="246.3,440.8 274.5,440.8 278.6,427.3 241.1,423.8 			"/>
			<polygon class="st3" points="312.7,314.2 282.3,314.2 274,348.8 309.7,324 			"/>
			<polygon class="st3" points="192.2,405.5 197,409.1 199.6,400.4 			"/>
			<polygon class="st3" points="294.1,375.7 309.7,324 274,348.8 271.9,357.5 			"/>
			<polygon class="st3" points="150.9,415.4 155.8,430.7 174.7,417.6 			"/>
			<polygon class="st3" points="259.9,407.8 247.4,367.2 227.9,380.8 241.1,423.8 278.6,427.3 294.1,375.7 271.9,357.5 			"/>
			<polygon class="st3" points="192.2,405.5 174.7,417.6 193.9,419.4 197,409.1 			"/>
			<polygon class="st3" points="155.8,430.7 159.1,440.8 187.5,440.8 193.9,419.4 174.7,417.6 			"/>
			<polygon class="st3" points="192.2,405.5 179,395.4 175.3,407.8 170.2,388.7 133.4,360.7 150.9,415.4 174.7,417.6 			"/>
			<polygon class="st3" points="216.5,343.6 227.9,380.8 247.4,367.2 235.1,327.3 219.2,314.2 202.9,314.2 187.3,367 202.6,390.1 
							"/>
			<polygon class="st3" points="199.6,400.4 202.6,390.1 187.3,367 179,395.4 192.2,405.5 			"/>
		</g>
		<g>
			<line class="st5" x1="271.9" y1="357.5" x2="274" y2="348.8"/>
			<line class="st5" x1="235.1" y1="327.3" x2="247.4" y2="367.2"/>
			<line class="st5" x1="199.6" y1="400.4" x2="197" y2="409.1"/>
			<line class="st5" x1="197" y1="409.1" x2="193.9" y2="419.4"/>
			<polygon class="st6" points="231.1,314.2 219.2,314.2 235.1,327.3 			"/>
			<polygon class="st6" points="150.3,314.2 118.5,314.2 133.4,360.7 170.2,388.7 			"/>
			<polygon class="st7" points="246.3,440.8 274.5,440.8 278.6,427.3 241.1,423.8 			"/>
			<polygon class="st6" points="312.7,314.2 282.3,314.2 274,348.8 309.7,324 			"/>
			<polygon class="st7" points="192.2,405.5 197,409.1 199.6,400.4 			"/>
			<polygon class="st8" points="294.1,375.7 309.7,324 274,348.8 271.9,357.5 			"/>
			<polygon class="st6" points="150.9,415.4 155.8,430.7 174.7,417.6 			"/>
			<polygon class="st6" points="259.9,407.8 247.4,367.2 227.9,380.8 241.1,423.8 278.6,427.3 294.1,375.7 271.9,357.5 			"/>
			<polygon class="st7" points="192.2,405.5 174.7,417.6 193.9,419.4 197,409.1 			"/>
			<polygon class="st8" points="155.8,430.7 159.1,440.8 187.5,440.8 193.9,419.4 174.7,417.6 			"/>
			<polygon class="st8" points="192.2,405.5 179,395.4 175.3,407.8 170.2,388.7 133.4,360.7 150.9,415.4 174.7,417.6 			"/>
			<polygon class="st7" points="216.5,343.6 227.9,380.8 247.4,367.2 235.1,327.3 219.2,314.2 202.9,314.2 187.3,367 202.6,390.1 
							"/>
			<polygon class="st6" points="199.6,400.4 202.6,390.1 187.3,367 179,395.4 192.2,405.5 			"/>
		</g>
	</g>
</g>
</svg>
