<?xml version="1.0" encoding="utf-8"?>
<!-- Generator: Adobe Illustrator 19.0.0, SVG Export Plug-In . SVG Version: 6.00 Build 0)  -->
<svg version="1.1" id="图层_2" xmlns="http://www.w3.org/2000/svg" xmlns:xlink="http://www.w3.org/1999/xlink" x="0px" y="0px"
	 viewBox="0 0 813 432" style="enable-background:new 0 0 813 432;" xml:space="preserve">
<style type="text/css">
	.st0{fill:#3D78F7;}
	.st1{fill:none;}
	.st2{fill:#545556;}
	.st3{fill:#A4A4A5;}
	.st4{fill:#303030;}
	.st5{fill:#292A2D;}
	.st6{fill:#3D3E3F;}
	.st7{fill:#232323;}
	.st8{font-family:'AxisStd-Light-83pv-RKSJ-H';}
	.st9{font-size:14px;}
	.st10{letter-spacing:1;}
</style>
<g id="XMLID_4_">
	<path id="XMLID_392_" class="st0" d="M57.4,214.2v-11.3h2.9c2.7,0,4.6,0.8,4.6,3.4c0,2.7-1.8,3.8-3.9,3.8h-1.8v4.1H57.4z
		 M60.5,208.6c1.5,0,2.5-0.4,2.5-2.2c0-1.4-1-2-2.7-2h-1.1v4.1H60.5z"/>
	<path id="XMLID_389_" class="st0" d="M72.1,211.3c-0.6-1.3-1-1.8-1.9-1.8h-1.6v4.6h-1.7v-11.3h2.7c2.5,0,4.5,0.5,4.5,3.1
		c0,1.7-0.9,2.5-2,2.9c0.6,0.3,1.1,0.8,1.4,1.5c0.4,0.9,1.2,2.7,1.7,3.9h-1.9C73,213.4,72.5,212.2,72.1,211.3z M72.3,206.1
		c0-1.4-1.1-1.7-2.6-1.7h-1.2v3.7h2.1C71.6,208,72.3,207.4,72.3,206.1z"/>
	<path id="XMLID_387_" class="st0" d="M78.5,207.6h3.8v1.5h-3.8v3.5h4.7v1.6h-6.5v-11.3h6.1v1.6h-4.4V207.6z"/>
	<path id="XMLID_385_" class="st0" d="M90.6,204.9c-0.6-0.3-1.6-0.6-2.3-0.6c-0.8,0-1.9,0.3-1.9,1.5c0,0.9,0.8,1.3,1.9,1.8
		c1.7,0.8,3,1.5,3,3.5c0,2.5-1.7,3.3-3.5,3.3c-1.2,0-2.7-0.3-3.6-0.7l0.5-1.6c0.9,0.4,2.1,0.7,3,0.7c0.9,0,1.8-0.4,1.8-1.6
		c0-0.9-0.7-1.5-2.2-2.1c-1.6-0.7-2.7-1.4-2.7-3.2c0-2.5,2-3.2,3.5-3.2c1.2,0,2.4,0.3,3,0.6L90.6,204.9z"/>
	<path id="XMLID_383_" class="st0" d="M95.1,207.6H99v1.5h-3.8v3.5h4.7v1.6h-6.5v-11.3h6.1v1.6h-4.4V207.6z"/>
	<path id="XMLID_381_" class="st0" d="M103.4,214.2h-1.7v-11.3h2.4l4.8,8.5v-8.5h1.7v11.3h-2.1l-5.2-9.2V214.2z"/>
	<path id="XMLID_379_" class="st0" d="M115,214.2v-9.7h-3.2v-1.6h8.2v1.6h-3.2v9.7H115z"/>
	<path id="XMLID_376_" class="st0" d="M124.4,202.9h1.6l4.4,11.3h-2l-1.1-3h-4.4l-1.1,3H120L124.4,202.9z M126.9,209.8l-1.7-4.9
		l-1.8,4.9H126.9z"/>
	<path id="XMLID_374_" class="st0" d="M133.5,214.2v-9.7h-3.2v-1.6h8.2v1.6h-3.2v9.7H133.5z"/>
	<path id="XMLID_372_" class="st0" d="M141.7,214.2h-1.8v-11.3h1.8V214.2z"/>
	<path id="XMLID_369_" class="st0" d="M143.9,208.5c0-2.9,1.3-5.9,5.3-5.9c4,0,5.3,3,5.3,5.9c0,2.8-1.2,6-5.3,6
		C145.5,214.5,143.9,211.8,143.9,208.5L143.9,208.5z M145.8,208.5c0,3.2,1.5,4.4,3.4,4.4c2,0,3.4-1.2,3.4-4.4c0-2.9-1.2-4.3-3.4-4.3
		C147,204.2,145.8,205.6,145.8,208.5L145.8,208.5z"/>
	<path id="XMLID_367_" class="st0" d="M158.3,214.2h-1.7v-11.3h2.4l4.8,8.5v-8.5h1.7v11.3h-2.1l-5.2-9.2V214.2z"/>
	<path id="XMLID_365_" class="st0" d="M175.5,215.9h-1.3l5.7-13h1.3L175.5,215.9z"/>
	<path id="XMLID_363_" class="st0" d="M194.3,214.4c-2.5,0-4.5-1.3-4.5-3.9v-7.6h1.8v7c0,1.7,0.6,3,2.7,3c2.1,0,2.7-1.3,2.7-3v-7
		h1.8v7.6C198.8,213.1,196.9,214.4,194.3,214.4L194.3,214.4z"/>
	<path id="XMLID_361_" class="st0" d="M203.3,214.2h-1.8v-11.3h1.8V214.2z"/>
	<path id="XMLID_341_" class="st0" d="M212.7,202.9c4,0,5.9,1.7,5.9,5.6c0,3.4-1.4,5.7-5.9,5.7h-3v-11.3H212.7z M216.6,208.5
		c0-2.7-1.2-4-4-4h-1.3v8.1h1.3C215.4,212.6,216.6,211.3,216.6,208.5L216.6,208.5z"/>
	<path id="XMLID_339_" class="st0" d="M222.5,207.6h3.8v1.5h-3.8v3.5h4.7v1.6h-6.5v-11.3h6.1v1.6h-4.4V207.6z"/>
	<path id="XMLID_337_" class="st0" d="M234.6,204.9c-0.6-0.3-1.6-0.6-2.3-0.6c-0.8,0-1.9,0.3-1.9,1.5c0,0.9,0.8,1.3,1.9,1.8
		c1.7,0.8,3,1.5,3,3.5c0,2.5-1.7,3.3-3.5,3.3c-1.2,0-2.7-0.3-3.6-0.7l0.5-1.6c0.9,0.4,2.1,0.7,3,0.7c0.9,0,1.8-0.4,1.8-1.6
		c0-0.9-0.7-1.5-2.2-2.1c-1.6-0.7-2.7-1.4-2.7-3.2c0-2.5,2-3.2,3.5-3.2c1.2,0,2.4,0.3,3,0.6L234.6,204.9z"/>
	<path id="XMLID_335_" class="st0" d="M239.2,214.2h-1.8v-11.3h1.8V214.2z"/>
	<path id="XMLID_333_" class="st0" d="M248.6,209.5h-2.4v-1.5h4v5.9c-0.8,0.3-2.1,0.5-3.3,0.5c-4.3,0-5.5-2.7-5.5-5.7
		c0-3.1,1.1-6,5.5-6c1,0,2,0.2,2.7,0.4l-0.3,1.6c-0.7-0.3-1.5-0.4-2.3-0.4c-2.6,0-3.6,1.8-3.6,4.4c0,2.5,1,4.1,3.6,4.1
		c0.5,0,1.2-0.1,1.6-0.2V209.5z"/>
	<path id="XMLID_331_" class="st0" d="M254.2,214.2h-1.7v-11.3h2.4l4.8,8.5v-8.5h1.7v11.3h-2.1l-5.2-9.2V214.2z"/>
	<path id="XMLID_329_" class="st0" d="M271.4,215.9h-1.3l5.7-13h1.3L271.4,215.9z"/>
	<path id="XMLID_327_" class="st0" d="M296.9,202.9h1.9l-2.9,11.3h-1.7l-2.4-8.4l-2.3,8.4h-1.7l-3-11.3h1.9l2.1,8.7l2.2-8.5h1.7
		l2.3,8.5L296.9,202.9z"/>
	<path id="XMLID_322_" class="st0" d="M302,207.6h3.8v1.5H302v3.5h4.7v1.6h-6.5v-11.3h6.1v1.6H302V207.6z"/>
	<path id="XMLID_317_" class="st0" d="M316.1,211c0,2.3-1.7,3.2-4,3.2h-3.5v-11.3h3.3c1.9,0,3.8,0.5,3.8,2.8c0,1.3-0.7,2.1-1.7,2.5
		C314.8,208.3,316.1,209,316.1,211L316.1,211z M313.9,206c0-1.1-0.8-1.6-2.3-1.6h-1.3v3.3h2C313.2,207.5,313.9,207,313.9,206
		L313.9,206z M310.4,212.7h1.6c1.2,0,2.3-0.3,2.3-1.9c0-1.2-0.8-1.8-2.3-1.8h-1.5V212.7z"/>
	<path id="XMLID_314_" class="st0" d="M325,202.9c4,0,5.9,1.7,5.9,5.6c0,3.4-1.4,5.7-5.9,5.7h-3v-11.3H325z M329,208.5
		c0-2.7-1.2-4-4-4h-1.3v8.1h1.3C327.7,212.6,329,211.3,329,208.5L329,208.5z"/>
	<path id="XMLID_312_" class="st0" d="M334.8,207.6h3.8v1.5h-3.8v3.5h4.7v1.6h-6.5v-11.3h6.1v1.6h-4.4V207.6z"/>
	<path id="XMLID_310_" class="st0" d="M347,204.9c-0.6-0.3-1.6-0.6-2.3-0.6c-0.8,0-1.9,0.3-1.9,1.5c0,0.9,0.8,1.3,1.9,1.8
		c1.7,0.8,3,1.5,3,3.5c0,2.5-1.7,3.3-3.5,3.3c-1.2,0-2.7-0.3-3.6-0.7l0.5-1.6c0.9,0.4,2.1,0.7,3,0.7c0.9,0,1.8-0.4,1.8-1.6
		c0-0.9-0.7-1.5-2.2-2.1c-1.6-0.7-2.7-1.4-2.7-3.2c0-2.5,2-3.2,3.5-3.2c1.2,0,2.4,0.3,3,0.6L347,204.9z"/>
	<path id="XMLID_308_" class="st0" d="M351.6,214.2h-1.8v-11.3h1.8V214.2z"/>
	<path id="XMLID_306_" class="st0" d="M360.9,209.5h-2.4v-1.5h4v5.9c-0.8,0.3-2.1,0.5-3.3,0.5c-4.3,0-5.5-2.7-5.5-5.7
		c0-3.1,1.1-6,5.5-6c1,0,2,0.2,2.7,0.4l-0.3,1.6c-0.7-0.3-1.5-0.4-2.3-0.4c-2.6,0-3.6,1.8-3.6,4.4c0,2.5,1,4.1,3.6,4.1
		c0.5,0,1.2-0.1,1.6-0.2V209.5z"/>
	<path id="XMLID_304_" class="st0" d="M366.5,214.2h-1.7v-11.3h2.4l4.8,8.5v-8.5h1.7v11.3h-2.1l-5.2-9.2V214.2z"/>
	<path id="XMLID_302_" class="st0" d="M383.7,215.9h-1.3l5.7-13h1.3L383.7,215.9z"/>
	<path id="XMLID_300_" class="st0" d="M403.6,214.2h-1.8v-11.3h1.8V214.2z"/>
	<path id="XMLID_298_" class="st0" d="M408.1,212.6h4.6v1.6h-6.4v-11.3h1.8V212.6z"/>
	<path id="XMLID_296_" class="st0" d="M416.1,212.6h4.6v1.6h-6.4v-11.3h1.8V212.6z"/>
	<path id="XMLID_294_" class="st0" d="M426.5,214.4c-2.5,0-4.5-1.3-4.5-3.9v-7.6h1.8v7c0,1.7,0.6,3,2.7,3c2.1,0,2.7-1.3,2.7-3v-7
		h1.8v7.6C431.1,213.1,429.1,214.4,426.5,214.4L426.5,214.4z"/>
	<path id="XMLID_292_" class="st0" d="M439.2,204.9c-0.6-0.3-1.6-0.6-2.3-0.6c-0.8,0-1.9,0.3-1.9,1.5c0,0.9,0.8,1.3,1.9,1.8
		c1.7,0.8,3,1.5,3,3.5c0,2.5-1.7,3.3-3.5,3.3c-1.2,0-2.7-0.3-3.6-0.7l0.5-1.6c0.9,0.4,2.1,0.7,3,0.7c0.9,0,1.8-0.4,1.8-1.6
		c0-0.9-0.7-1.5-2.2-2.1c-1.6-0.7-2.7-1.4-2.7-3.2c0-2.5,2-3.2,3.5-3.2c1.2,0,2.4,0.3,3,0.6L439.2,204.9z"/>
	<path id="XMLID_290_" class="st0" d="M443.8,214.2v-9.7h-3.2v-1.6h8.2v1.6h-3.2v9.7H443.8z"/>
	<path id="XMLID_287_" class="st0" d="M455.4,211.3c-0.6-1.3-1-1.8-1.9-1.8h-1.6v4.6h-1.7v-11.3h2.7c2.5,0,4.5,0.5,4.5,3.1
		c0,1.7-0.9,2.5-2,2.9c0.6,0.3,1.1,0.8,1.4,1.5c0.4,0.9,1.2,2.7,1.7,3.9h-1.9C456.2,213.4,455.7,212.2,455.4,211.3z M455.6,206.1
		c0-1.4-1.1-1.7-2.6-1.7h-1.2v3.7h2.1C454.8,208,455.6,207.4,455.6,206.1z"/>
	<path id="XMLID_284_" class="st0" d="M462.9,202.9h1.6l4.4,11.3h-2l-1.1-3h-4.4l-1.1,3h-1.8L462.9,202.9z M465.4,209.8l-1.7-4.9
		l-1.8,4.9H465.4z"/>
	<path id="XMLID_282_" class="st0" d="M472,214.2v-9.7h-3.2v-1.6h8.2v1.6h-3.2v9.7H472z"/>
	<path id="XMLID_280_" class="st0" d="M480.2,214.2h-1.8v-11.3h1.8V214.2z"/>
	<path id="XMLID_277_" class="st0" d="M482.4,208.5c0-2.9,1.3-5.9,5.3-5.9c4,0,5.3,3,5.3,5.9c0,2.8-1.2,6-5.3,6
		C484,214.5,482.4,211.8,482.4,208.5L482.4,208.5z M484.3,208.5c0,3.2,1.5,4.4,3.4,4.4c2,0,3.4-1.2,3.4-4.4c0-2.9-1.2-4.3-3.4-4.3
		C485.5,204.2,484.3,205.6,484.3,208.5L484.3,208.5z"/>
	<path id="XMLID_275_" class="st0" d="M496.8,214.2h-1.7v-11.3h2.4l4.8,8.5v-8.5h1.7v11.3H502l-5.2-9.2V214.2z"/>
	<path id="XMLID_273_" class="st0" d="M514,215.9h-1.3l5.7-13h1.3L514,215.9z"/>
	<path id="XMLID_270_" class="st0" d="M528.5,214.2v-11.3h2.9c2.7,0,4.6,0.8,4.6,3.4c0,2.7-1.8,3.8-3.9,3.8h-1.8v4.1H528.5z
		 M531.6,208.6c1.5,0,2.5-0.4,2.5-2.2c0-1.4-1-2-2.7-2h-1.1v4.1H531.6z"/>
	<path id="XMLID_267_" class="st0" d="M543.2,211.3c-0.6-1.3-1-1.8-1.9-1.8h-1.6v4.6H538v-11.3h2.7c2.5,0,4.5,0.5,4.5,3.1
		c0,1.7-0.9,2.5-2,2.9c0.6,0.3,1.1,0.8,1.4,1.5c0.4,0.9,1.2,2.7,1.7,3.9h-1.9C544.1,213.4,543.6,212.2,543.2,211.3z M543.4,206.1
		c0-1.4-1.1-1.7-2.6-1.7h-1.2v3.7h2.1C542.7,208,543.4,207.4,543.4,206.1z"/>
	<path id="XMLID_264_" class="st0" d="M547.3,208.5c0-2.9,1.3-5.9,5.3-5.9c4,0,5.3,3,5.3,5.9c0,2.8-1.2,6-5.3,6
		C548.9,214.5,547.3,211.8,547.3,208.5L547.3,208.5z M549.2,208.5c0,3.2,1.5,4.4,3.4,4.4c2,0,3.4-1.2,3.4-4.4c0-2.9-1.2-4.3-3.4-4.3
		C550.4,204.2,549.2,205.6,549.2,208.5L549.2,208.5z"/>
	<path id="XMLID_262_" class="st0" d="M561.9,214.2v-9.7h-3.2v-1.6h8.2v1.6h-3.2v9.7H561.9z"/>
	<path id="XMLID_259_" class="st0" d="M567.7,208.5c0-2.9,1.3-5.9,5.3-5.9c4,0,5.3,3,5.3,5.9c0,2.8-1.2,6-5.3,6
		C569.3,214.5,567.7,211.8,567.7,208.5L567.7,208.5z M569.6,208.5c0,3.2,1.5,4.4,3.4,4.4c2,0,3.4-1.2,3.4-4.4c0-2.9-1.2-4.3-3.4-4.3
		C570.8,204.2,569.6,205.6,569.6,208.5L569.6,208.5z"/>
	<path id="XMLID_257_" class="st0" d="M582.3,214.2v-9.7h-3.2v-1.6h8.2v1.6h-3.2v9.7H582.3z"/>
	<path id="XMLID_255_" class="st0" d="M587.3,202.9h2.2l3,4.9l2.9-4.9h2.1l-4.2,6.3v5h-1.8v-5L587.3,202.9z"/>
	<path id="XMLID_252_" class="st0" d="M598.8,214.2v-11.3h2.9c2.7,0,4.6,0.8,4.6,3.4c0,2.7-1.8,3.8-3.9,3.8h-1.8v4.1H598.8z
		 M601.9,208.6c1.5,0,2.5-0.4,2.5-2.2c0-1.4-1-2-2.7-2h-1.1v4.1H601.9z"/>
	<path id="XMLID_250_" class="st0" d="M610,207.6h3.8v1.5H610v3.5h4.7v1.6h-6.5v-11.3h6.1v1.6H610V207.6z"/>
	<path id="XMLID_248_" class="st0" d="M624,215.9h-1.3l5.7-13h1.3L624,215.9z"/>
	<path id="XMLID_246_" class="st0" d="M645.4,202.9h1.9l-4.3,11.3h-1.6l-4.3-11.3h2l3.2,9.1L645.4,202.9z"/>
	<path id="XMLID_244_" class="st0" d="M650.5,214.2h-1.8v-11.3h1.8V214.2z"/>
	<path id="XMLID_242_" class="st0" d="M658.7,204.9c-0.6-0.3-1.6-0.6-2.3-0.6c-0.8,0-1.9,0.3-1.9,1.5c0,0.9,0.8,1.3,1.9,1.8
		c1.7,0.8,3,1.5,3,3.5c0,2.5-1.7,3.3-3.5,3.3c-1.2,0-2.7-0.3-3.6-0.7l0.5-1.6c0.9,0.4,2.1,0.7,3,0.7c0.9,0,1.8-0.4,1.8-1.6
		c0-0.9-0.7-1.5-2.2-2.1c-1.6-0.7-2.7-1.4-2.7-3.2c0-2.5,2-3.2,3.5-3.2c1.2,0,2.4,0.3,3,0.6L658.7,204.9z"/>
	<path id="XMLID_240_" class="st0" d="M665.8,214.4c-2.5,0-4.5-1.3-4.5-3.9v-7.6h1.8v7c0,1.7,0.6,3,2.7,3c2.1,0,2.7-1.3,2.7-3v-7
		h1.8v7.6C670.3,213.1,668.4,214.4,665.8,214.4L665.8,214.4z"/>
	<path id="XMLID_204_" class="st0" d="M675.9,202.9h1.6l4.4,11.3h-2l-1.1-3h-4.4l-1.1,3h-1.8L675.9,202.9z M678.4,209.8l-1.7-4.9
		l-1.8,4.9H678.4z"/>
	<path id="XMLID_202_" class="st0" d="M685,212.6h4.6v1.6h-6.4v-11.3h1.8V212.6z"/>
	<path id="XMLID_200_" class="st0" d="M696.6,214.2h-1.8v-11.3h1.8V214.2z"/>
	<path id="XMLID_197_" class="st0" d="M702.4,202.9c4,0,5.9,1.7,5.9,5.6c0,3.4-1.4,5.7-5.9,5.7h-3v-11.3H702.4z M706.4,208.5
		c0-2.7-1.2-4-4-4h-1.3v8.1h1.3C705.1,212.6,706.4,211.3,706.4,208.5L706.4,208.5z"/>
	<path id="XMLID_195_" class="st0" d="M712.2,207.6h3.8v1.5h-3.8v3.5h4.7v1.6h-6.5v-11.3h6.1v1.6h-4.4V207.6z"/>
	<path id="XMLID_193_" class="st0" d="M720.5,214.2h-1.7v-11.3h2.4l4.8,8.5v-8.5h1.7v11.3h-2.1l-5.2-9.2V214.2z"/>
	<path id="XMLID_191_" class="st0" d="M732.1,214.2v-9.7h-3.2v-1.6h8.2v1.6h-3.2v9.7H732.1z"/>
	<path id="XMLID_189_" class="st0" d="M740.3,214.2h-1.8v-11.3h1.8V214.2z"/>
	<path id="XMLID_170_" class="st0" d="M744.9,214.2v-9.7h-3.2v-1.6h8.2v1.6h-3.2v9.7H744.9z"/>
	<path id="XMLID_165_" class="st0" d="M749.8,202.9h2.2l3,4.9l2.9-4.9h2.1l-4.2,6.3v5H754v-5L749.8,202.9z"/>
</g>
<path id="XMLID_424_" class="st1" d="M513.9,101.1c-15.4,0-24.9,9.2-24.9,32.2v0.1c0,24.4,10.7,33,24.8,33
	c14.5,0,24.8-8.9,24.8-33.1C538.7,110.3,529.2,101.1,513.9,101.1z"/>
<path id="XMLID_425_" class="st1" d="M195.7,101.1c-15.4,0-24.7,9.2-24.7,32.2v0.1c0,24.4,10.4,33,24.5,33
	c14.5,0,24.8-8.9,24.8-33.1C220.4,110.3,210.9,101.1,195.7,101.1z"/>
<path id="XMLID_426_" class="st1" d="M279.4,103H272v26h14.9c7.2-1,11.8-5.6,11.8-13.6C298.6,104.7,290.4,103,279.4,103z"/>
<path id="XMLID_427_" class="st1" d="M118.2,96.7c0-12.6-8.8-18.7-26.1-18.7H82v4.1l23.7,34.3C113.8,114.1,118.2,108.5,118.2,96.7z"
	/>
<path id="XMLID_428_" class="st1" d="M102.9,137.5l32.7,22l-17.5-25.1C113.4,136.2,108.3,137.2,102.9,137.5z"/>
<path id="XMLID_429_" class="st1" d="M82,118h11.4c4.7,0,8.9-0.5,12.3-1.5L82,82.1V118z"/>
<path id="XMLID_430_" class="st1" d="M721.7,101.1c-15.4,0-24.7,9.2-24.7,32.2v0.1c0,24.4,10.4,33,24.5,33
	c14.5,0,24.8-8.9,24.8-33.1C746.4,110.3,736.9,101.1,721.7,101.1z"/>
<path id="XMLID_431_" class="st2" d="M82,82.1V78h10.1c17.3,0,26.1,6,26.1,18.7c0,11.8-4.5,17.4-12.6,19.8l12.6,18
	c14.1-5.4,24.3-17.8,24.3-39.4c0-14-5-23.2-13.3-29.2l-50.3,12L82,82.1z"/>
<polygon id="XMLID_432_" class="st3" points="64.1,57 58,57 58,82.8 78.8,77.9 "/>
<path id="XMLID_433_" class="st4" d="M58,180h24v-42h17.8c1.1,0,2.2-0.3,3.2-0.3l-45-30.6V180z"/>
<path id="XMLID_434_" class="st5" d="M129.2,65.9C120,59.4,106.6,57,91.3,57H64.1l14.6,20.9L129.2,65.9z"/>
<path id="XMLID_435_" class="st6" d="M105.5,116.5c-3.4,1-7.5,1.5-12.2,1.5H82V82.1l-3.1-4.3l-20.9,5v24.3l45,30.3
	c5.4-0.3,10.5-1.2,15.2-3L105.5,116.5z"/>
<path id="XMLID_438_" d="M195.5,85.5c-33.7,0-43.5,25.6-43.5,47.9v0.1c0,24.2,11,48.7,43.6,48.7c34,0,43.7-26.2,43.7-48.7
	C239.3,111,229.4,85.5,195.5,85.5z M195.5,166.4c-14.2,0-24.5-8.6-24.5-33v-0.1c0-22.9,9.3-32.2,24.7-32.2
	c15.2,0,24.7,9.2,24.7,32.2C220.4,157.5,210.1,166.4,195.5,166.4z"/>
<rect id="XMLID_439_" x="640" y="88" width="18" height="92"/>
<path id="XMLID_442_" d="M513.8,85.5c-33.7,0-43.8,25.6-43.8,47.9v0.1c0,24.2,11.3,48.7,43.9,48.7c34,0,43.7-26.2,43.7-48.7
	C557.6,111,547.6,85.5,513.8,85.5z M513.8,166.4c-14.2,0-24.8-8.6-24.8-33v-0.1c0-22.9,9.6-32.2,24.9-32.2
	c15.2,0,24.7,9.2,24.7,32.2C538.7,157.5,528.3,166.4,513.8,166.4z"/>
<path id="XMLID_445_" d="M716.2,85.5c-33.7,0-43.2,25.6-43.2,47.9v0.1c0,24.2,10.7,48.7,43.3,48.7c34,0,43.7-26.2,43.7-48.7
	C760,111,750,85.5,716.2,85.5z M716.2,166.4c-14.2,0-24.2-8.6-24.2-33v-0.1c0-22.9,9-32.2,24.4-32.2c15.2,0,24.7,9.2,24.7,32.2
	C741.1,157.5,730.8,166.4,716.2,166.4z"/>
<polygon id="XMLID_446_" points="591,88 573,88 573,180 626,180 626,164 591,164 "/>
<polygon id="XMLID_447_" points="408,180 425,180 425,142 455,142 455,127 425,127 425,103 458,103 458,88 408,88 "/>
<path id="XMLID_450_" d="M300.8,136.2c9-3,15.4-9.8,15.4-22.7c0-22-17.3-25.5-38.6-25.5H255v92h17v-37h10.7c6.6,0,9.7,3.3,14.2,12.9
	c3.1,6.8,7.6,18.1,9.6,24.1h19.1c-4-10-11.5-26.7-15-33.8C308.7,142.3,305.7,138.4,300.8,136.2z M286.9,129H272v-26h7.4
	c10.9,0,19.2,1.7,19.2,12.4C298.6,123.4,294.1,128,286.9,129z"/>
<polygon id="XMLID_451_" points="328,103 353,103 353,180 370,180 370,103 395,103 395,88 328,88 "/>
<rect id="XMLID_43_" x="54" y="256" class="st1" width="711" height="161"/>
<text id="XMLID_44_" transform="matrix(1 0 0 1 54 268.3203)"><tspan x="0" y="0" class="st7 st8 st9">My</tspan><tspan x="21.5" y="0" class="st7 st8 st9"> </tspan><tspan x="24.7" y="0" class="st7 st8 st9">specialty</tspan><tspan x="87.3" y="0" class="st7 st8 st9"> </tspan><tspan x="90.4" y="0" class="st7 st8 st9">was</tspan><tspan x="118.8" y="0" class="st7 st8 st9"> </tspan><tspan x="121.9" y="0" class="st7 st8 st9">ad</tspan><tspan x="139.8" y="0" class="st7 st8 st9"> </tspan><tspan x="143" y="0" class="st7 st8 st9">design</tspan><tspan x="191.4" y="0" class="st7 st8 st9"> </tspan><tspan x="194.6" y="0" class="st7 st8 st9">before.</tspan><tspan x="245.8" y="0" class="st7 st8 st9">  </tspan><tspan x="252.1" y="0" class="st7 st8 st9">Now,</tspan><tspan x="289.6" y="0" class="st7 st8 st9"> </tspan><tspan x="292.8" y="0" class="st7 st8 st9">I</tspan><tspan x="297" y="0" class="st7 st8 st9"> </tspan><tspan x="300.2" y="0" class="st7 st8 st9">am</tspan><tspan x="323.2" y="0" class="st7 st8 st9"> </tspan><tspan x="326.4" y="0" class="st7 st8 st9">interested</tspan><tspan x="399" y="0" class="st7 st8 st9"> </tspan><tspan x="402.2" y="0" class="st7 st8 st9">in</tspan><tspan x="415.8" y="0" class="st7 st8 st9"> </tspan><tspan x="419" y="0" class="st7 st8 st9">website</tspan><tspan x="475.5" y="0" class="st7 st8 st9"> </tspan><tspan x="478.7" y="0" class="st7 st8 st9">front-end</tspan><tspan x="546.3" y="0" class="st7 st8 st9"> </tspan><tspan x="549.4" y="0" class="st7 st8 st9">development</tspan><tspan x="646.4" y="0" class="st7 st8 st9"> </tspan><tspan x="649.5" y="0" class="st7 st8 st9">and</tspan><tspan x="676.9" y="0" class="st7 st8 st9"> </tspan><tspan x="680.1" y="0" class="st7 st8 st9">user </tspan><tspan x="0" y="20" class="st7 st8 st9">experience</tspan><tspan x="79.8" y="20" class="st7 st8 st9 st10"> </tspan><tspan x="85.1" y="20" class="st7 st8 st9">design.</tspan><tspan x="137.4" y="20" class="st7 st8 st9 st10"> </tspan><tspan x="142.7" y="20" class="st7 st8 st9">I</tspan><tspan x="147" y="20" class="st7 st8 st9 st10"> </tspan><tspan x="152.3" y="20" class="st7 st8 st9">can</tspan><tspan x="177.7" y="20" class="st7 st8 st9 st10"> </tspan><tspan x="183" y="20" class="st7 st8 st9">design</tspan><tspan x="231.5" y="20" class="st7 st8 st9 st10"> </tspan><tspan x="236.8" y="20" class="st7 st8 st9">products</tspan><tspan x="300.2" y="20" class="st7 st8 st9 st10"> </tspan><tspan x="305.5" y="20" class="st7 st8 st9">by</tspan><tspan x="322.9" y="20" class="st7 st8 st9 st10"> </tspan><tspan x="328.2" y="20" class="st7 st8 st9">Photoshop</tspan><tspan x="406.7" y="20" class="st7 st8 st9 st10"> </tspan><tspan x="412.1" y="20" class="st7 st8 st9">and</tspan><tspan x="439.5" y="20" class="st7 st8 st9 st10"> </tspan><tspan x="444.8" y="20" class="st7 st8 st9">Adobe</tspan><tspan x="492.1" y="20" class="st7 st8 st9 st10"> </tspan><tspan x="497.5" y="20" class="st7 st8 st9">Illustrator</tspan><tspan x="565.9" y="20" class="st7 st8 st9 st10"> </tspan><tspan x="571.2" y="20" class="st7 st8 st9">and</tspan><tspan x="598.6" y="20" class="st7 st8 st9 st10"> </tspan><tspan x="604" y="20" class="st7 st8 st9">turn</tspan><tspan x="633.8" y="20" class="st7 st8 st9 st10"> </tspan><tspan x="639.1" y="20" class="st7 st8 st9">them</tspan><tspan x="677.3" y="20" class="st7 st8 st9 st10"> </tspan><tspan x="682.6" y="20" class="st7 st8 st9">into </tspan><tspan x="0" y="40" class="st7 st8 st9">beautiful,</tspan><tspan x="68.1" y="40" class="st7 st8 st9"> </tspan><tspan x="71.9" y="40" class="st7 st8 st9">semantic</tspan><tspan x="137.1" y="40" class="st7 st8 st9"> </tspan><tspan x="141" y="40" class="st0 st8 st9">HTML</tspan><tspan x="182.5" y="40" class="st7 st8 st9"> </tspan><tspan x="186.4" y="40" class="st7 st8 st9">&amp;</tspan><tspan x="196.6" y="40" class="st7 st8 st9"> </tspan><tspan x="200.4" y="40" class="st0 st8 st9">CSS</tspan><tspan x="226.3" y="40" class="st7 st8 st9">.</tspan><tspan x="230.1" y="40" class="st7 st8 st9"> </tspan><tspan x="234" y="40" class="st7 st8 st9">Meanwhile,</tspan><tspan x="317.9" y="40" class="st7 st8 st9"> </tspan><tspan x="321.8" y="40" class="st7 st8 st9">I</tspan><tspan x="326" y="40" class="st7 st8 st9"> </tspan><tspan x="329.9" y="40" class="st7 st8 st9">can</tspan><tspan x="355.3" y="40" class="st7 st8 st9"> </tspan><tspan x="359.2" y="40" class="st7 st8 st9">also</tspan><tspan x="388.2" y="40" class="st7 st8 st9"> </tspan><tspan x="392" y="40" class="st7 st8 st9">use</tspan><tspan x="417.4" y="40" class="st7 st8 st9"> </tspan><tspan x="421.3" y="40" class="st0 st8 st9">JS</tspan><tspan x="433.8" y="40" class="st7 st8 st9"> </tspan><tspan x="437.7" y="40" class="st7 st8 st9">and</tspan><tspan x="465.1" y="40" class="st7 st8 st9"> </tspan><tspan x="468.9" y="40" class="st0 st8 st9">PHP</tspan><tspan x="498.7" y="40" class="st7 st8 st9"> </tspan><tspan x="502.6" y="40" class="st7 st8 st9">to</tspan><tspan x="517.3" y="40" class="st7 st8 st9"> </tspan><tspan x="521.2" y="40" class="st7 st8 st9">do</tspan><tspan x="540.2" y="40" class="st7 st8 st9"> </tspan><tspan x="544.1" y="40" class="st7 st8 st9">some</tspan><tspan x="584.2" y="40" class="st7 st8 st9"> </tspan><tspan x="588" y="40" class="st7 st8 st9">interative</tspan><tspan x="656" y="40" class="st7 st8 st9"> </tspan><tspan x="659.8" y="40" class="st7 st8 st9">actions </tspan><tspan x="0" y="60" class="st7 st8 st9">.</tspan><tspan x="3.8" y="60" class="st7 st8 st9">  </tspan><tspan x="11.2" y="60" class="st7 st8 st9">Along</tspan><tspan x="53.8" y="60" class="st7 st8 st9"> </tspan><tspan x="57.5" y="60" class="st7 st8 st9">with</tspan><tspan x="89.3" y="60" class="st7 st8 st9"> </tspan><tspan x="93.1" y="60" class="st7 st8 st9">the</tspan><tspan x="116.6" y="60" class="st7 st8 st9"> </tspan><tspan x="120.3" y="60" class="st7 st8 st9">growth</tspan><tspan x="172.7" y="60" class="st7 st8 st9"> </tspan><tspan x="176.4" y="60" class="st7 st8 st9">of</tspan><tspan x="191" y="60" class="st7 st8 st9"> </tspan><tspan x="194.7" y="60" class="st7 st8 st9">myself，my</tspan><tspan x="278.9" y="60" class="st7 st8 st9"> </tspan><tspan x="282.6" y="60" class="st7 st8 st9">sense</tspan><tspan x="323.8" y="60" class="st7 st8 st9"> </tspan><tspan x="327.6" y="60" class="st7 st8 st9">of</tspan><tspan x="342.1" y="60" class="st7 st8 st9"> </tspan><tspan x="345.9" y="60" class="st7 st8 st9">aesthetics</tspan><tspan x="417.3" y="60" class="st7 st8 st9"> </tspan><tspan x="421" y="60" class="st7 st8 st9">and</tspan><tspan x="448.5" y="60" class="st7 st8 st9"> </tspan><tspan x="452.2" y="60" class="st7 st8 st9">skill</tspan><tspan x="479.4" y="60" class="st7 st8 st9"> </tspan><tspan x="483.1" y="60" class="st7 st8 st9">is</tspan><tspan x="494.2" y="60" class="st7 st8 st9"> </tspan><tspan x="497.9" y="60" class="st7 st8 st9">changing</tspan><tspan x="565.4" y="60" class="st7 st8 st9"> </tspan><tspan x="569.2" y="60" class="st7 st8 st9">constantly.</tspan><tspan x="646.7" y="60" class="st7 st8 st9"> </tspan><tspan x="650.5" y="60" class="st7 st8 st9">I</tspan><tspan x="654.7" y="60" class="st7 st8 st9"> </tspan><tspan x="658.4" y="60" class="st7 st8 st9">believe </tspan><tspan x="118.6" y="80" class="st7 st8 st9">I am different from yesterday as well as my technology and ability.</tspan></text>
</svg>
