<?xml version="1.0" encoding="utf-8"?>
<!-- Generator: Adobe Illustrator 19.0.0, SVG Export Plug-In . SVG Version: 6.00 Build 0)  -->
<svg version="1.1" id="图层_1" xmlns="http://www.w3.org/2000/svg" xmlns:xlink="http://www.w3.org/1999/xlink" x="0px" y="0px"
	 viewBox="-339 233 601 335" style="enable-background:new -339 233 601 335;" xml:space="preserve">
<style type="text/css">
	.st0{fill:none;}
	.st1{fill:#CECECE;}
	.st2{fill:#FFFFFF;}
	.st3{fill:#AFAFAF;}
	.st4{fill:#BCBCBC;}
	.st5{font-family:'AxisStd-Medium-83pv-RKSJ-H';}
	.st6{font-size:13px;}
	.st7{letter-spacing:2;}
	.st8{letter-spacing:1;}
</style>
<path id="XMLID_123_" class="st0" d="M-172,307.7L-172,307.7c0-5.6-3.5-6.7-9.8-6.7h-4.2v13h7.8C-174.4,314-172,311.6-172,307.7z"/>
<path id="XMLID_124_" class="st0" d="M-117.3,300.1c-8.6,0-14.7,4.8-14.7,19.8v0.1c0,15.2,6.1,20.5,14.7,20.5s14.9-5.3,14.9-20.6
	C-102.4,304.9-108.6,300.1-117.3,300.1z"/>
<polygon id="XMLID_125_" class="st0" points="-253.8,321 -235.1,321 -244.4,293 "/>
<line id="XMLID_1_" class="st0" x1="-266.9" y1="313.9" x2="-260.3" y2="296.7"/>
<path id="XMLID_127_" class="st0" d="M-181,324h-5v16h6.2c5.5,0,9.4-1.8,9.4-8.3C-170.3,327.3-173,324-181,324z"/>
<polygon id="XMLID_128_" class="st1" points="-209.2,351 -206.5,351 -231.9,284.8 -241.8,289 "/>
<path id="XMLID_131_" class="st2" d="M-111.5,288.1c-23.2,0-29.5,17.7-29.5,31.9v0.1c0,14.6,6.3,32.6,29.5,32.6s29.5-18,29.5-32.6
	C-82,305.8-88.3,288.1-111.5,288.1z M-111.3,340.4c-8.6,0-14.7-5.3-14.7-20.5v-0.1c0-15,6-19.8,14.7-19.8s14.9,4.8,14.9,19.8
	C-96.4,335.2-102.7,340.4-111.3,340.4z"/>
<polygon id="XMLID_132_" class="st2" points="-231.9,284.7 -235.9,274 -249.6,274 -241.8,288.8 "/>
<polygon id="XMLID_150_" class="st1" points="-281.1,351 -263.8,351 -258,334 -253,334 -266.9,313.9 "/>
<path id="XMLID_153_" class="st2" d="M-162.6,318c4.4-1.8,7.9-5.9,7.9-12.5c0-13.2-11-15.5-21.2-15.5H-195v61h20
	c11.4,0,23-3.6,23-17.8v-0.1C-152,322.4-159,318.8-162.6,318z M-182,301h4.2c6.2,0,9.8,1.1,9.8,6.6v0.1c0,3.9-2.4,6.3-6.2,6.3h-7.8
	V301z M-175.8,340h-6.2v-16h5c8,0,10.6,3.3,10.6,7.7C-166.3,338.2-170.2,340-175.8,340z"/>
<polygon id="XMLID_155_" class="st3" points="-249.6,274 -251.7,274 -260.3,296.6 -241.8,288.8 "/>
<path id="XMLID_158_" class="st4" d="M-253,334h21.6l6,17h16.2l-32.6-62l-18.5,7.8l-6.6,17.2 M-253.8,321l9.4-28l9.3,28H-253.8z"/>
<path id="XMLID_159_" class="st2" d="M-34,326c0,9-2.6,14.6-12,14.6s-12-5.5-12-14.6v-36h-13v40.8c0,15.8,12.2,21.2,24.8,21.2h0.1
	c13,0,26.1-5.4,26.1-21.2V290h-14V326z"/>
<polygon id="XMLID_160_" class="st2" points="-8,290 -8,301 7,301 7,351 21,351 21,301 36,301 36,290 "/>
<rect id="XMLID_15_" x="-281" y="379" class="st0" width="485" height="203"/>
<text id="XMLID_19_" transform="matrix(1 0 0 1 -281 390.4399)"><tspan x="0" y="0" class="st2 st5 st6">Hi，I’m</tspan><tspan x="58.4" y="0" class="st2 st5 st6"> </tspan><tspan x="62" y="0" class="st2 st5 st6">KASYOO,</tspan><tspan x="123.6" y="0" class="st2 st5 st6"> </tspan><tspan x="127.2" y="0" class="st2 st5 st6">24</tspan><tspan x="144.8" y="0" class="st2 st5 st6"> </tspan><tspan x="148.4" y="0" class="st2 st5 st6">years</tspan><tspan x="183.6" y="0" class="st2 st5 st6"> </tspan><tspan x="187.2" y="0" class="st2 st5 st6">old,</tspan><tspan x="212.7" y="0" class="st2 st5 st6"> </tspan><tspan x="216.3" y="0" class="st2 st5 st6">come</tspan><tspan x="253.5" y="0" class="st2 st5 st6"> </tspan><tspan x="257.1" y="0" class="st2 st5 st6">from</tspan><tspan x="289.7" y="0" class="st2 st5 st6"> </tspan><tspan x="293.3" y="0" class="st2 st5 st6">china.</tspan><tspan x="333.2" y="0" class="st2 st5 st6"> </tspan><tspan x="336.8" y="0" class="st2 st5 st6">Now,</tspan><tspan x="372.4" y="0" class="st2 st5 st6"> </tspan><tspan x="376.1" y="0" class="st2 st5 st6">I’m</tspan><tspan x="406.8" y="0" class="st2 st5 st6"> </tspan><tspan x="410.4" y="0" class="st2 st5 st6">studying</tspan><tspan x="468.6" y="0" class="st2 st5 st6"> </tspan><tspan x="472.2" y="0" class="st2 st5 st6">in </tspan><tspan x="0" y="20" class="st2 st5 st6">TOHOKU</tspan><tspan x="60.2" y="20" class="st2 st5 st6"> </tspan><tspan x="64.3" y="20" class="st2 st5 st6">university</tspan><tspan x="130" y="20" class="st2 st5 st6"> </tspan><tspan x="134" y="20" class="st2 st5 st6">for</tspan><tspan x="153.2" y="20" class="st2 st5 st6"> </tspan><tspan x="157.3" y="20" class="st2 st5 st6">graduate</tspan><tspan x="217.8" y="20" class="st2 st5 st6"> </tspan><tspan x="221.8" y="20" class="st2 st5 st6">studies</tspan><tspan x="269.4" y="20" class="st2 st5 st6"> </tspan><tspan x="273.5" y="20" class="st2 st5 st6">at</tspan><tspan x="286.3" y="20" class="st2 st5 st6"> </tspan><tspan x="290.4" y="20" class="st2 st5 st6">cognitive</tspan><tspan x="352.6" y="20" class="st2 st5 st6"> </tspan><tspan x="356.6" y="20" class="st2 st5 st6">psychology.</tspan><tspan x="437" y="20" class="st2 st5 st6"> </tspan><tspan x="441.1" y="20" class="st2 st5 st6">And</tspan><tspan x="468.1" y="20" class="st2 st5 st6"> </tspan><tspan x="472.2" y="20" class="st2 st5 st6">in </tspan><tspan x="0" y="40" class="st2 st5 st6">china,</tspan><tspan x="40" y="40" class="st2 st5 st6 st7"> </tspan><tspan x="45.7" y="40" class="st2 st5 st6">I</tspan><tspan x="50" y="40" class="st2 st5 st6 st7"> </tspan><tspan x="55.7" y="40" class="st2 st5 st6">was</tspan><tspan x="82.4" y="40" class="st2 st5 st6 st7"> </tspan><tspan x="88.1" y="40" class="st2 st5 st6">majoyed</tspan><tspan x="146.7" y="40" class="st2 st5 st6 st7"> </tspan><tspan x="152.4" y="40" class="st2 st5 st6">in</tspan><tspan x="165.2" y="40" class="st2 st5 st6 st7"> </tspan><tspan x="170.9" y="40" class="st2 st5 st6">advertising</tspan><tspan x="245.7" y="40" class="st2 st5 st6 st7"> </tspan><tspan x="251.4" y="40" class="st2 st5 st6">design.</tspan><tspan x="300.1" y="40" class="st2 st5 st6 st7"> </tspan><tspan x="305.8" y="40" class="st2 st5 st6">And</tspan><tspan x="332.9" y="40" class="st2 st5 st6 st7"> </tspan><tspan x="338.6" y="40" class="st2 st5 st6">when</tspan><tspan x="376.8" y="40" class="st2 st5 st6 st7"> </tspan><tspan x="382.4" y="40" class="st2 st5 st6">I</tspan><tspan x="386.8" y="40" class="st2 st5 st6 st7"> </tspan><tspan x="392.5" y="40" class="st2 st5 st6">was</tspan><tspan x="419.2" y="40" class="st2 st5 st6 st7"> </tspan><tspan x="424.9" y="40" class="st2 st5 st6">a</tspan><tspan x="432.7" y="40" class="st2 st5 st6 st7"> </tspan><tspan x="438.4" y="40" class="st2 st5 st6">sopho</tspan><tspan x="480.2" y="40" class="st2 st5 st6">-</tspan><tspan x="0" y="60" class="st2 st5 st6">more,</tspan><tspan x="39.4" y="60" class="st2 st5 st6 st8"> </tspan><tspan x="44.6" y="60" class="st2 st5 st6">I</tspan><tspan x="48.9" y="60" class="st2 st5 st6 st8"> </tspan><tspan x="54.1" y="60" class="st2 st5 st6">found</tspan><tspan x="94.4" y="60" class="st2 st5 st6 st8"> </tspan><tspan x="99.5" y="60" class="st2 st5 st6">interactive</tspan><tspan x="170.2" y="60" class="st2 st5 st6 st8"> </tspan><tspan x="175.4" y="60" class="st2 st5 st6">design</tspan><tspan x="220.4" y="60" class="st2 st5 st6 st8"> </tspan><tspan x="225.5" y="60" class="st2 st5 st6">of</tspan><tspan x="239.4" y="60" class="st2 st5 st6 st8"> </tspan><tspan x="244.5" y="60" class="st2 st5 st6">the</tspan><tspan x="266.4" y="60" class="st2 st5 st6 st8"> </tspan><tspan x="271.6" y="60" class="st2 st5 st6">website</tspan><tspan x="324.5" y="60" class="st2 st5 st6 st8"> </tspan><tspan x="329.7" y="60" class="st2 st5 st6">was</tspan><tspan x="356.4" y="60" class="st2 st5 st6 st8"> </tspan><tspan x="361.5" y="60" class="st2 st5 st6">so</tspan><tspan x="376.9" y="60" class="st2 st5 st6 st8"> </tspan><tspan x="382" y="60" class="st2 st5 st6">interesting</tspan><tspan x="454.4" y="60" class="st2 st5 st6 st8"> </tspan><tspan x="459.6" y="60" class="st2 st5 st6">and </tspan><tspan x="0" y="80" class="st2 st5 st6">fascinating</tspan><tspan x="73.3" y="80" class="st2 st5 st6"> </tspan><tspan x="77.7" y="80" class="st2 st5 st6">that</tspan><tspan x="104.2" y="80" class="st2 st5 st6"> </tspan><tspan x="108.6" y="80" class="st2 st5 st6">cannot</tspan><tspan x="154.8" y="80" class="st2 st5 st6"> </tspan><tspan x="159.2" y="80" class="st2 st5 st6">help</tspan><tspan x="189" y="80" class="st2 st5 st6"> </tspan><tspan x="193.3" y="80" class="st2 st5 st6">learning</tspan><tspan x="249" y="80" class="st2 st5 st6"> </tspan><tspan x="253.4" y="80" class="st2 st5 st6">it.</tspan><tspan x="266.2" y="80" class="st2 st5 st6"> </tspan><tspan x="270.6" y="80" class="st2 st5 st6">And</tspan><tspan x="297.6" y="80" class="st2 st5 st6"> </tspan><tspan x="302" y="80" class="st2 st5 st6">this</tspan><tspan x="326.2" y="80" class="st2 st5 st6"> </tspan><tspan x="330.6" y="80" class="st2 st5 st6">is</tspan><tspan x="341" y="80" class="st2 st5 st6"> </tspan><tspan x="345.4" y="80" class="st2 st5 st6">why</tspan><tspan x="374.2" y="80" class="st2 st5 st6"> </tspan><tspan x="378.6" y="80" class="st2 st5 st6">I</tspan><tspan x="382.9" y="80" class="st2 st5 st6"> </tspan><tspan x="387.3" y="80" class="st2 st5 st6">come</tspan><tspan x="424.6" y="80" class="st2 st5 st6"> </tspan><tspan x="429" y="80" class="st2 st5 st6">to</tspan><tspan x="442.9" y="80" class="st2 st5 st6"> </tspan><tspan x="447.3" y="80" class="st2 st5 st6">Japan </tspan><tspan x="0" y="100" class="st2 st5 st6">for</tspan><tspan x="19.2" y="100" class="st2 st5 st6"> </tspan><tspan x="22.2" y="100" class="st2 st5 st6">a</tspan><tspan x="30" y="100" class="st2 st5 st6"> </tspan><tspan x="33" y="100" class="st2 st5 st6">master</tspan><tspan x="79" y="100" class="st2 st5 st6"> </tspan><tspan x="82" y="100" class="st2 st5 st6">about</tspan><tspan x="121.4" y="100" class="st2 st5 st6"> </tspan><tspan x="124.4" y="100" class="st2 st5 st6">cognitive</tspan><tspan x="186.6" y="100" class="st2 st5 st6"> </tspan><tspan x="189.6" y="100" class="st2 st5 st6">psychology.</tspan><tspan x="270" y="100" class="st2 st5 st6"> </tspan><tspan x="273" y="100" class="st2 st5 st6">I</tspan><tspan x="277.4" y="100" class="st2 st5 st6"> </tspan><tspan x="280.4" y="100" class="st2 st5 st6">always</tspan><tspan x="326.4" y="100" class="st2 st5 st6"> </tspan><tspan x="329.5" y="100" class="st2 st5 st6">appreciate</tspan><tspan x="400.2" y="100" class="st2 st5 st6"> </tspan><tspan x="403.2" y="100" class="st2 st5 st6">a</tspan><tspan x="411" y="100" class="st2 st5 st6"> </tspan><tspan x="414" y="100" class="st2 st5 st6">clean,</tspan><tspan x="453.4" y="100" class="st2 st5 st6"> </tspan><tspan x="456.4" y="100" class="st2 st5 st6">well </tspan><tspan x="0" y="120" class="st2 st5 st6">designed user interface.</tspan></text>
</svg>
