<?xml version="1.0" encoding="utf-8"?>
<!-- Generator: Adobe Illustrator 19.0.0, SVG Export Plug-In . SVG Version: 6.00 Build 0)  -->
<svg version="1.1" id="图层_1" xmlns="http://www.w3.org/2000/svg" xmlns:xlink="http://www.w3.org/1999/xlink" x="0px" y="0px"
	 viewBox="0 0 601 335" style="enable-background:new 0 0 601 335;" xml:space="preserve">
<style type="text/css">
	.st0{fill:#232323;}
	.st1{fill:#FFFFFF;}
	.st2{fill:none;}
	.st3{fill:#545556;}
	.st4{fill:#292A2D;}
	.st5{fill:#303030;}
	.st6{fill:#A4A4A5;}
	.st7{fill:#3D3E3F;}
</style>
<g id="XMLID_2_">
	<path id="XMLID_4_" class="st0" d="M52.6,168.3h-0.9v-10.8h0.9v4.9h6.2v-4.9h0.9v10.8h-0.9v-5.1h-6.2V168.3z"/>
	<path id="XMLID_6_" class="st0" d="M63.9,158.5h-1v-1h1V158.5z M63.8,168.3H63v-8h0.9V168.3z"/>
	<path id="XMLID_9_" class="st0" d="M67,169.7l-0.6-0.1c0.4-1,0.7-2.5,0.8-3.4l0.9,0.1C67.9,167.2,67.4,168.8,67,169.7z"/>
	<path id="XMLID_11_" class="st0" d="M75.3,168.3h-0.9v-10.8h0.9V168.3z"/>
	<path id="XMLID_13_" class="st0" d="M78.9,159.8l-0.6-0.1c0.3-0.9,0.6-2.1,0.7-2.8l0.8,0.1C79.7,157.8,79.2,159,78.9,159.8z"/>
	<path id="XMLID_15_" class="st0" d="M88.3,160.2c1.1,0,1.9,0.5,2.2,1.3c0.8-0.8,2-1.3,3.1-1.3c1.7,0,2.5,1,2.5,2.9v5.2h-0.9v-5
		c0-1.2-0.3-2.4-1.9-2.4c-0.9,0-2,0.5-2.7,1.2c0.1,0.4,0.1,0.8,0.1,1.3v4.9h-0.8v-5c0-1.2-0.3-2.4-1.9-2.4c-0.9,0-2,0.5-2.6,1.3v6.2
		h-0.9v-6.5c0-0.5-0.1-1-0.2-1.5l0.8-0.1c0.1,0.4,0.2,0.9,0.3,1.3C86.1,160.7,87.3,160.2,88.3,160.2z"/>
	<path id="XMLID_17_" class="st0" d="M111.3,168.3h-1.2l-5.2-5.4v5.4H104v-10.8h0.9v5.2l5.1-5.2h1.1l-5.3,5.2L111.3,168.3z"/>
	<path id="XMLID_20_" class="st0" d="M116.1,157.6h0.8l4.2,10.8h-1l-1.3-3.5h-4.7l-1.3,3.5h-0.9L116.1,157.6z M118.5,164.1l-2.1-5.6
		l-2.1,5.6H118.5z"/>
	<path id="XMLID_23_" class="st0" d="M128.1,158.8c-0.5-0.3-1.6-0.7-2.4-0.7c-1,0-2.3,0.4-2.3,2c0,1.1,0.9,1.6,2.3,2.2
		c1.7,0.8,2.9,1.5,2.9,3.2c0,2.1-1.4,3-3.1,3c-1,0-2.4-0.3-3.3-0.7l0.2-0.8c0.9,0.4,2.1,0.7,3.1,0.7c1.1,0,2.3-0.5,2.3-2.2
		c0-1.2-0.9-1.8-2.5-2.5c-1.6-0.7-2.6-1.3-2.6-2.9c0-2,1.5-2.8,3.1-2.8c1.1,0,2.2,0.4,2.8,0.7L128.1,158.8z"/>
	<path id="XMLID_25_" class="st0" d="M129.8,157.6h1.1l3.4,4.9l3.4-4.9h1l-4,5.6v5.1h-0.9v-5.1L129.8,157.6z"/>
	<path id="XMLID_27_" class="st0" d="M140.1,162.9c0-3.1,1.4-5.6,4.9-5.6c3.5,0,4.9,2.5,4.9,5.6c0,2.9-1.2,5.6-4.9,5.6
		C142.2,168.6,140.1,166.8,140.1,162.9L140.1,162.9z M141.1,162.9c0,3.5,1.8,4.8,4,4.8c2.3,0,4-1.4,4-4.9c0-2.9-1.2-4.8-4-4.8
		C142.2,158.1,141.1,160.1,141.1,162.9L141.1,162.9z"/>
	<path id="XMLID_30_" class="st0" d="M152.3,162.9c0-3.1,1.4-5.6,4.9-5.6c3.5,0,4.9,2.5,4.9,5.6c0,2.9-1.2,5.6-4.9,5.6
		C154.3,168.6,152.3,166.8,152.3,162.9L152.3,162.9z M153.2,162.9c0,3.5,1.8,4.8,4,4.8c2.3,0,4-1.4,4-4.9c0-2.9-1.2-4.8-4-4.8
		C154.4,158.1,153.2,160.1,153.2,162.9L153.2,162.9z"/>
	<path id="XMLID_33_" class="st0" d="M164.7,170.4l-0.6-0.1c0.5-1.2,0.8-2.9,0.9-3.9l0.9,0.1C165.8,167.6,165.2,169.4,164.7,170.4z"
		/>
	<path id="XMLID_35_" class="st0" d="M178.4,160.2c0-1.2-0.7-2-2.1-2c-0.9,0-1.9,0.3-2.8,0.8l-0.2-0.8c0.9-0.5,2-0.8,3-0.8
		c1.7,0,3,0.9,3,2.8c0,1.2-0.6,2.5-2.6,4.8c-1.1,1.2-1.9,2-2.5,2.6h5.5v0.8H173v-0.7c0.7-0.7,1.5-1.4,2.8-2.9
		C177.8,162.4,178.4,161.2,178.4,160.2L178.4,160.2z"/>
	<path id="XMLID_37_" class="st0" d="M187.7,164.9h1.8v0.7h-1.8v2.7h-0.8v-2.7h-5.2v-0.7l5.1-7.4h0.9V164.9z M186.9,164.9v-6.2
		l-4.3,6.2H186.9z"/>
	<path id="XMLID_41_" class="st0" d="M201.3,160.3h0.9c-0.7,2.1-1.9,5.4-2.8,7.7c-0.8,1.9-1.5,3.1-2.1,3.6l-0.8-0.4
		c0.6-0.5,1.4-1.7,2.1-3.3l-3.3-7.6h1l2.7,6.7C199.8,164.8,200.7,162.1,201.3,160.3z"/>
	<path id="XMLID_43_" class="st0" d="M207.7,167.8c1,0,1.8-0.2,2.5-0.5l0.2,0.7c-0.6,0.3-1.6,0.5-2.7,0.5c-2.3,0-3.8-1.3-3.8-4.1
		c0-2.6,1.3-4.4,3.6-4.4c1.9,0,3.1,1.2,3.1,3.7v0.5h-5.8C204.5,166.8,205.9,167.8,207.7,167.8L207.7,167.8z M207.3,160.7
		c-1.4,0-2.4,1.2-2.6,2.8h5C209.7,161.7,208.9,160.7,207.3,160.7L207.3,160.7z"/>
	<path id="XMLID_46_" class="st0" d="M219,168.3l-0.7,0.2c-0.4-0.4-0.6-1.1-0.6-1.6c-0.4,1.1-1.6,1.7-2.7,1.7
		c-1.3,0-2.6-0.7-2.6-2.4c0-1.8,0.9-2.4,5.2-2.7v-0.8c0-1.1-0.2-1.8-1.8-1.8c-0.9,0-1.8,0.3-2.5,0.7l-0.2-0.7
		c0.7-0.4,1.8-0.7,2.8-0.7c2,0,2.5,1,2.5,2.5v3.3C218.4,166.9,218.6,167.8,219,168.3z M213.2,166.1c0,1.4,1.2,1.7,1.9,1.7
		c1.4,0,2.2-0.9,2.5-1.9v-1.7C214.2,164.4,213.2,164.7,213.2,166.1z"/>
	<path id="XMLID_49_" class="st0" d="M225.2,160.2l0,0.8c-1.1,0-2.2,0.5-2.7,1.6v5.8h-0.9v-5.8c0-0.9-0.1-1.7-0.2-2.2l0.8-0.1
		c0.2,0.4,0.3,1,0.3,1.5C223,160.7,224.1,160.2,225.2,160.2z"/>
	<path id="XMLID_51_" class="st0" d="M231.1,161.3c-0.5-0.3-1.3-0.5-2-0.5c-0.6,0-1.6,0.3-1.6,1.4c0,0.8,0.5,1.1,1.7,1.6
		c1.3,0.5,2.3,1.1,2.3,2.4c0,1.8-1.3,2.3-2.5,2.3c-0.8,0-2-0.2-2.7-0.5l0.2-0.7c0.7,0.3,1.6,0.5,2.4,0.5c0.9,0,1.7-0.3,1.7-1.5
		c0-0.9-0.7-1.3-2-1.8c-1.2-0.5-2-0.9-2-2.2c0-1.6,1.4-2.1,2.5-2.1c0.8,0,1.7,0.2,2.2,0.5L231.1,161.3z"/>
	<path id="XMLID_53_" class="st0" d="M245.6,164.3c0,2.2-0.9,4.3-3.7,4.3s-3.7-2.1-3.7-4.3c0-2.2,0.9-4.2,3.7-4.2
		S245.6,162.1,245.6,164.3L245.6,164.3z M241.9,167.8c1.9,0,2.8-1.3,2.8-3.6c0-2.2-0.9-3.5-2.8-3.5c-1.9,0-2.8,1.3-2.8,3.5
		C239.1,166.5,240,167.8,241.9,167.8L241.9,167.8z"/>
	<path id="XMLID_56_" class="st0" d="M249.2,168.3h-0.9v-11.2l0.9-0.1V168.3z"/>
	<path id="XMLID_58_" class="st0" d="M255,168.5c-1.7,0-3.1-1.2-3.1-3.9c0-2.3,0.8-4.4,3.3-4.4c1,0,2,0.5,2.6,1.1v-4.1l0.8-0.1v9.1
		c0,0.7,0.1,1.6,0.3,2.2l-0.8,0.2c-0.2-0.4-0.3-1-0.3-1.5C257.6,167.5,256.7,168.5,255,168.5L255,168.5z M257.9,163
		c0-0.3,0-0.7-0.1-1c-0.4-0.5-1.2-1.2-2.4-1.2c-1.8,0-2.6,1.3-2.6,3.7c0,1.8,0.7,3.2,2.3,3.2c1.6,0,2.4-1.2,2.7-1.7
		c0-0.2,0.1-0.6,0.1-0.9V163z"/>
	<path id="XMLID_61_" class="st0" d="M261.8,170.4l-0.6-0.1c0.5-1.2,0.8-2.9,0.9-3.9l0.9,0.1C262.9,167.6,262.3,169.4,261.8,170.4z"
		/>
	<path id="XMLID_63_" class="st0" d="M269.9,164.4c0-2.5,1-4.4,3.8-4.4c0.7,0,1.3,0.1,1.9,0.3l-0.2,0.8c-0.5-0.2-1.1-0.3-1.7-0.3
		c-2.2,0-2.9,1.7-2.9,3.6c0,1.8,0.7,3.4,2.9,3.4c0.6,0,1.3-0.1,1.7-0.3l0.1,0.8c-0.5,0.2-1.2,0.3-1.9,0.3
		C270.8,168.6,269.9,166.6,269.9,164.4L269.9,164.4z"/>
	<path id="XMLID_65_" class="st0" d="M284.7,164.3c0,2.2-0.9,4.3-3.7,4.3s-3.7-2.1-3.7-4.3c0-2.2,0.9-4.2,3.7-4.2
		S284.7,162.1,284.7,164.3L284.7,164.3z M281.1,167.8c1.9,0,2.8-1.3,2.8-3.6c0-2.2-0.9-3.5-2.8-3.5c-1.9,0-2.8,1.3-2.8,3.5
		C278.3,166.5,279.2,167.8,281.1,167.8L281.1,167.8z"/>
	<path id="XMLID_68_" class="st0" d="M291.2,160.2c1.1,0,1.9,0.5,2.2,1.3c0.8-0.8,2-1.3,3.1-1.3c1.7,0,2.5,1,2.5,2.9v5.2h-0.9v-5
		c0-1.2-0.3-2.4-1.9-2.4c-0.9,0-2,0.5-2.7,1.2c0.1,0.4,0.1,0.8,0.1,1.3v4.9h-0.8v-5c0-1.2-0.3-2.4-1.9-2.4c-0.9,0-2,0.5-2.6,1.3v6.2
		h-0.9v-6.5c0-0.5-0.1-1-0.2-1.5l0.8-0.1c0.1,0.4,0.2,0.9,0.3,1.3C289.1,160.7,290.2,160.2,291.2,160.2z"/>
	<path id="XMLID_70_" class="st0" d="M305.6,167.8c1,0,1.8-0.2,2.5-0.5l0.2,0.7c-0.6,0.3-1.6,0.5-2.7,0.5c-2.3,0-3.8-1.3-3.8-4.1
		c0-2.6,1.3-4.4,3.6-4.4c1.9,0,3.1,1.2,3.1,3.7v0.5h-5.8C302.4,166.8,303.8,167.8,305.6,167.8L305.6,167.8z M305.2,160.7
		c-1.4,0-2.4,1.2-2.6,2.8h5C307.5,161.7,306.8,160.7,305.2,160.7L305.2,160.7z"/>
	<path id="XMLID_73_" class="st0" d="M314.5,161.1v-0.7h1.5v-0.4c0-1.6,0.4-3,2.4-3c0.3,0,0.9,0.1,1.4,0.2l-0.1,0.7
		c-0.4-0.1-0.9-0.2-1.1-0.2c-1.1,0-1.6,0.5-1.6,2.3v0.4h2.1v0.7h-2.1v7.3H316v-7.3H314.5z"/>
	<path id="XMLID_75_" class="st0" d="M324.4,160.2l0,0.8c-1.1,0-2.2,0.5-2.7,1.6v5.8h-0.9v-5.8c0-0.9-0.1-1.7-0.2-2.2l0.8-0.1
		c0.2,0.4,0.3,1,0.3,1.5C322.2,160.7,323.3,160.2,324.4,160.2z"/>
	<path id="XMLID_77_" class="st0" d="M333.2,164.3c0,2.2-0.9,4.3-3.7,4.3s-3.7-2.1-3.7-4.3c0-2.2,0.9-4.2,3.7-4.2
		S333.2,162.1,333.2,164.3L333.2,164.3z M329.5,167.8c1.9,0,2.8-1.3,2.8-3.6c0-2.2-0.9-3.5-2.8-3.5c-1.9,0-2.8,1.3-2.8,3.5
		C326.7,166.5,327.6,167.8,329.5,167.8L329.5,167.8z"/>
	<path id="XMLID_80_" class="st0" d="M339.7,160.2c1.1,0,1.9,0.5,2.2,1.3c0.8-0.8,2-1.3,3.1-1.3c1.7,0,2.5,1,2.5,2.9v5.2h-0.9v-5
		c0-1.2-0.3-2.4-1.9-2.4c-0.9,0-2,0.5-2.7,1.2c0.1,0.4,0.1,0.8,0.1,1.3v4.9h-0.8v-5c0-1.2-0.3-2.4-1.9-2.4c-0.9,0-2,0.5-2.6,1.3v6.2
		H336v-6.5c0-0.5-0.1-1-0.2-1.5l0.8-0.1c0.1,0.4,0.2,0.9,0.3,1.3C337.5,160.7,338.6,160.2,339.7,160.2z"/>
	<path id="XMLID_82_" class="st0" d="M354.7,164.4c0-2.5,1-4.4,3.8-4.4c0.7,0,1.3,0.1,1.9,0.3l-0.2,0.8c-0.5-0.2-1.1-0.3-1.7-0.3
		c-2.2,0-2.9,1.7-2.9,3.6c0,1.8,0.7,3.4,2.9,3.4c0.6,0,1.3-0.1,1.7-0.3l0.1,0.8c-0.5,0.2-1.2,0.3-1.9,0.3
		C355.6,168.6,354.7,166.6,354.7,164.4L354.7,164.4z"/>
	<path id="XMLID_84_" class="st0" d="M366.6,160.2c1.7,0,2.5,1,2.5,2.9v5.2h-0.9v-5c0-1.2-0.3-2.4-1.9-2.4c-1,0-2.1,0.5-2.7,1.3v6.1
		h-0.9v-11.2l0.9-0.1v4.5C364.4,160.7,365.5,160.2,366.6,160.2z"/>
	<path id="XMLID_86_" class="st0" d="M373.2,158.5h-1v-1h1V158.5z M373.1,168.3h-0.9v-8h0.9V168.3z"/>
	<path id="XMLID_89_" class="st0" d="M377,160.2c0.1,0.4,0.3,0.9,0.3,1.3c0.7-0.8,1.9-1.3,2.9-1.3c1.8,0,2.5,1,2.5,2.9v5.2h-0.9v-5
		c0-1.2-0.3-2.4-1.9-2.4c-1,0-2.1,0.5-2.7,1.3v6.2h-0.9v-6.5c0-0.5-0.1-1-0.2-1.5L377,160.2z"/>
	<path id="XMLID_91_" class="st0" d="M391.7,168.3l-0.7,0.2c-0.4-0.4-0.6-1.1-0.6-1.6c-0.4,1.1-1.6,1.7-2.7,1.7
		c-1.3,0-2.6-0.7-2.6-2.4c0-1.8,0.9-2.4,5.2-2.7v-0.8c0-1.1-0.2-1.8-1.8-1.8c-0.9,0-1.8,0.3-2.5,0.7l-0.2-0.7
		c0.7-0.4,1.8-0.7,2.8-0.7c2,0,2.5,1,2.5,2.5v3.3C391.1,166.9,391.3,167.8,391.7,168.3z M385.9,166.1c0,1.4,1.2,1.7,1.9,1.7
		c1.4,0,2.2-0.9,2.5-1.9v-1.7C386.9,164.4,385.9,164.7,385.9,166.1z"/>
	<path id="XMLID_94_" class="st0" d="M395.1,168.3H394v-1.2h1.1V168.3z"/>
	<path id="XMLID_96_" class="st0" d="M403.6,168.3h-0.8v-10.8h1.1l5.9,9.4v-9.4h0.8v10.8h-1l-6.1-9.7V168.3z"/>
	<path id="XMLID_98_" class="st0" d="M420.7,164.3c0,2.2-0.9,4.3-3.7,4.3s-3.7-2.1-3.7-4.3c0-2.2,0.9-4.2,3.7-4.2
		S420.7,162.1,420.7,164.3L420.7,164.3z M417,167.8c1.9,0,2.8-1.3,2.8-3.6c0-2.2-0.9-3.5-2.8-3.5c-1.9,0-2.8,1.3-2.8,3.5
		C414.2,166.5,415.1,167.8,417,167.8L417,167.8z"/>
	<path id="XMLID_102_" class="st0" d="M433.4,160.3h0.9l-2.7,8h-0.8l-2.5-6.9l-2.5,6.9H425l-2.7-8h0.9l2.3,6.9l2.4-6.8h0.8l2.5,6.8
		L433.4,160.3z"/>
	<path id="XMLID_104_" class="st0" d="M436.3,170.4l-0.6-0.1c0.5-1.2,0.8-2.9,0.9-3.9l0.9,0.1C437.4,167.6,436.8,169.4,436.3,170.4z
		"/>
	<path id="XMLID_106_" class="st0" d="M445.9,168.3H445v-10.8h0.9V168.3z"/>
	<path id="XMLID_108_" class="st0" d="M449.5,159.8l-0.6-0.1c0.3-0.9,0.6-2.1,0.7-2.8l0.8,0.1C450.2,157.8,449.8,159,449.5,159.8z"
		/>
	<path id="XMLID_111_" class="st0" d="M458.8,160.2c1.1,0,1.9,0.5,2.2,1.3c0.8-0.8,2-1.3,3.1-1.3c1.7,0,2.5,1,2.5,2.9v5.2h-0.9v-5
		c0-1.2-0.3-2.4-1.9-2.4c-0.9,0-2,0.5-2.7,1.2c0.1,0.4,0.1,0.8,0.1,1.3v4.9h-0.8v-5c0-1.2-0.3-2.4-1.9-2.4c-0.9,0-2,0.5-2.6,1.3v6.2
		h-0.9v-6.5c0-0.5-0.1-1-0.2-1.5l0.8-0.1c0.1,0.4,0.2,0.9,0.3,1.3C456.7,160.7,457.8,160.2,458.8,160.2z"/>
	<path id="XMLID_113_" class="st0" d="M478.4,161.3c-0.5-0.3-1.3-0.5-2-0.5c-0.6,0-1.6,0.3-1.6,1.4c0,0.8,0.5,1.1,1.7,1.6
		c1.3,0.5,2.3,1.1,2.3,2.4c0,1.8-1.3,2.3-2.5,2.3c-0.8,0-2-0.2-2.7-0.5l0.2-0.7c0.7,0.3,1.6,0.5,2.4,0.5c0.9,0,1.7-0.3,1.7-1.5
		c0-0.9-0.7-1.3-2-1.8c-1.2-0.5-2-0.9-2-2.2c0-1.6,1.4-2.1,2.5-2.1c0.8,0,1.7,0.2,2.2,0.5L478.4,161.3z"/>
	<path id="XMLID_118_" class="st0" d="M484.1,167.7v0.7l-0.5,0c-1.2,0.1-1.9-0.4-1.9-1.8v-5.5h-1.4v-0.7h1.4v-2l0.9-0.2v2.2h1.9v0.7
		h-1.9v5.3c0,1.1,0.3,1.3,1.2,1.3H484.1z"/>
	<path id="XMLID_120_" class="st0" d="M489,168.5c-1.7,0-2.5-1.1-2.5-2.9v-5.3h0.9v5.1c0,1.2,0.3,2.4,1.9,2.4c1,0,2.1-0.5,2.7-1.3
		v-6.2h0.9v6.3c0,0.6,0.1,1.2,0.2,1.7l-0.8,0.1c-0.2-0.4-0.3-0.9-0.3-1.2C491.2,168,490.1,168.5,489,168.5z"/>
	<path id="XMLID_122_" class="st0" d="M498.6,168.5c-1.7,0-3.1-1.2-3.1-3.9c0-2.3,0.8-4.4,3.3-4.4c1,0,2,0.5,2.6,1.1v-4.1l0.8-0.1
		v9.1c0,0.7,0.1,1.6,0.3,2.2l-0.8,0.2c-0.2-0.4-0.3-1-0.3-1.5C501.2,167.5,500.3,168.5,498.6,168.5L498.6,168.5z M501.5,163
		c0-0.3,0-0.7-0.1-1c-0.4-0.5-1.2-1.2-2.4-1.2c-1.8,0-2.6,1.3-2.6,3.7c0,1.8,0.7,3.2,2.3,3.2c1.6,0,2.4-1.2,2.7-1.7
		c0-0.2,0.1-0.6,0.1-0.9V163z"/>
	<path id="XMLID_134_" class="st0" d="M510.5,160.3h0.9c-0.7,2.1-1.9,5.4-2.8,7.7c-0.8,1.9-1.5,3.1-2.1,3.6l-0.8-0.4
		c0.6-0.5,1.4-1.7,2.1-3.3l-3.3-7.6h1l2.7,6.7C509,164.8,509.9,162.1,510.5,160.3z"/>
	<path id="XMLID_136_" class="st0" d="M514.4,158.5h-1v-1h1V158.5z M514.4,168.3h-0.9v-8h0.9V168.3z"/>
	<path id="XMLID_139_" class="st0" d="M518.2,160.2c0.1,0.4,0.3,0.9,0.3,1.3c0.7-0.8,1.9-1.3,2.9-1.3c1.8,0,2.5,1,2.5,2.9v5.2h-0.9
		v-5c0-1.2-0.3-2.4-1.9-2.4c-1,0-2.1,0.5-2.7,1.3v6.2h-0.9v-6.5c0-0.5-0.1-1-0.2-1.5L518.2,160.2z"/>
	<path id="XMLID_141_" class="st0" d="M530.1,170.9c1.8,0,2.5-1.1,2.5-2.3v-1.6c-0.4,0.6-1.2,1.6-2.8,1.6c-1.8,0-3.1-1.2-3.1-3.9
		c0-2.3,0.8-4.4,3.3-4.4c1.1,0,2.1,0.5,2.6,1.1c0-0.2,0.1-0.7,0.1-1h0.8c-0.1,0.4-0.1,1-0.1,1.4v6.9c0,1.8-1.2,2.9-3.3,2.9
		c-1,0-2.1-0.3-3-0.7l0.2-0.7C528.1,170.5,529.1,170.9,530.1,170.9z M532.6,163c0-0.3,0-0.7-0.1-1c-0.4-0.5-1.3-1.2-2.4-1.2
		c-1.8,0-2.6,1.3-2.6,3.7c0,1.8,0.7,3.2,2.3,3.2c1.6,0,2.4-1.2,2.7-1.7c0-0.2,0.1-0.6,0.1-0.9V163z"/>
	<path id="XMLID_171_" class="st0" d="M52.6,178.5h-1v-1h1V178.5z M52.5,188.3h-0.9v-8h0.9V188.3z"/>
	<path id="XMLID_174_" class="st0" d="M56.4,180.2c0.1,0.4,0.3,0.9,0.3,1.3c0.7-0.8,1.9-1.3,2.9-1.3c1.8,0,2.5,1,2.5,2.9v5.2h-0.9
		v-5c0-1.2-0.3-2.4-1.9-2.4c-1,0-2.1,0.5-2.7,1.3v6.2h-0.9v-6.5c0-0.5-0.1-1-0.2-1.5L56.4,180.2z"/>
	<path id="XMLID_176_" class="st0" d="M71.8,188.3v-10h-3.5v-0.8h7.9v0.8h-3.5v10H71.8z"/>
	<path id="XMLID_178_" class="st0" d="M77.6,182.9c0-3.1,1.4-5.6,4.9-5.6c3.5,0,4.9,2.5,4.9,5.6c0,2.9-1.2,5.6-4.9,5.6
		C79.7,188.6,77.6,186.8,77.6,182.9L77.6,182.9z M78.5,182.9c0,3.5,1.8,4.8,4,4.8c2.3,0,4-1.4,4-4.9c0-2.9-1.2-4.8-4-4.8
		C79.7,178.1,78.5,180.1,78.5,182.9L78.5,182.9z"/>
	<path id="XMLID_181_" class="st0" d="M91.2,188.3h-0.9v-10.8h0.9v4.9h6.2v-4.9h0.9v10.8h-0.9v-5.1h-6.2V188.3z"/>
	<path id="XMLID_183_" class="st0" d="M101.1,182.9c0-3.1,1.4-5.6,4.9-5.6c3.5,0,4.9,2.5,4.9,5.6c0,2.9-1.2,5.6-4.9,5.6
		C103.2,188.6,101.1,186.8,101.1,182.9L101.1,182.9z M102,182.9c0,3.5,1.8,4.8,4,4.8c2.3,0,4-1.4,4-4.9c0-2.9-1.2-4.8-4-4.8
		C103.2,178.1,102,180.1,102,182.9L102,182.9z"/>
	<path id="XMLID_186_" class="st0" d="M121.1,188.3h-1.2l-5.2-5.4v5.4h-0.9v-10.8h0.9v5.2l5.1-5.2h1.1l-5.3,5.2L121.1,188.3z"/>
	<path id="XMLID_188_" class="st0" d="M127,188.5c-2.6,0-4-1.6-4-3.7v-7.3h0.9v7c0,1.7,0.8,3.2,3.2,3.2c2.4,0,3.2-1.5,3.2-3.2v-7
		h0.9v7.3C131,187,129.7,188.5,127,188.5L127,188.5z"/>
	<path id="XMLID_190_" class="st0" d="M141.1,188.5c-1.7,0-2.5-1.1-2.5-2.9v-5.3h0.9v5.1c0,1.2,0.3,2.4,1.9,2.4c1,0,2.1-0.5,2.7-1.3
		v-6.2h0.9v6.3c0,0.6,0.1,1.2,0.2,1.7l-0.8,0.1c-0.2-0.4-0.3-0.9-0.3-1.2C143.3,188,142.1,188.5,141.1,188.5z"/>
	<path id="XMLID_192_" class="st0" d="M148.8,180.2c0.1,0.4,0.3,0.9,0.3,1.3c0.7-0.8,1.9-1.3,2.9-1.3c1.8,0,2.5,1,2.5,2.9v5.2h-0.9
		v-5c0-1.2-0.3-2.4-1.9-2.4c-1,0-2.1,0.5-2.7,1.3v6.2h-0.9v-6.5c0-0.5-0.1-1-0.2-1.5L148.8,180.2z"/>
	<path id="XMLID_194_" class="st0" d="M158.6,178.5h-1v-1h1V178.5z M158.5,188.3h-0.9v-8h0.9V188.3z"/>
	<path id="XMLID_197_" class="st0" d="M166.9,180.3h0.9l-3.2,8h-0.8l-3.2-8h0.9l2.7,6.9L166.9,180.3z"/>
	<path id="XMLID_199_" class="st0" d="M173.3,187.8c1,0,1.8-0.2,2.5-0.5l0.2,0.7c-0.6,0.3-1.6,0.5-2.7,0.5c-2.3,0-3.8-1.3-3.8-4.1
		c0-2.6,1.3-4.4,3.6-4.4c1.9,0,3.1,1.2,3.1,3.7v0.5h-5.8C170.1,186.8,171.5,187.8,173.3,187.8L173.3,187.8z M172.9,180.7
		c-1.4,0-2.4,1.2-2.6,2.8h5C175.2,181.7,174.5,180.7,172.9,180.7L172.9,180.7z"/>
	<path id="XMLID_202_" class="st0" d="M182.5,180.2l0,0.8c-1.1,0-2.2,0.5-2.7,1.6v5.8h-0.9v-5.8c0-0.9-0.1-1.7-0.2-2.2l0.8-0.1
		c0.2,0.4,0.3,1,0.3,1.5C180.2,180.7,181.3,180.2,182.5,180.2z"/>
	<path id="XMLID_204_" class="st0" d="M188.4,181.3c-0.5-0.3-1.3-0.5-2-0.5c-0.6,0-1.6,0.3-1.6,1.4c0,0.8,0.5,1.1,1.7,1.6
		c1.3,0.5,2.3,1.1,2.3,2.4c0,1.8-1.3,2.3-2.5,2.3c-0.8,0-2-0.2-2.7-0.5l0.2-0.7c0.7,0.3,1.6,0.5,2.4,0.5c0.9,0,1.7-0.3,1.7-1.5
		c0-0.9-0.7-1.3-2-1.8c-1.2-0.5-2-0.9-2-2.2c0-1.6,1.4-2.1,2.5-2.1c0.8,0,1.7,0.2,2.2,0.5L188.4,181.3z"/>
	<path id="XMLID_206_" class="st0" d="M192.3,178.5h-1v-1h1V178.5z M192.2,188.3h-0.9v-8h0.9V188.3z"/>
	<path id="XMLID_209_" class="st0" d="M198.1,187.7v0.7l-0.5,0c-1.2,0.1-1.9-0.4-1.9-1.8v-5.5h-1.4v-0.7h1.4v-2l0.9-0.2v2.2h1.9v0.7
		h-1.9v5.3c0,1.1,0.3,1.3,1.2,1.3H198.1z"/>
	<path id="XMLID_211_" class="st0" d="M205.5,180.3h0.9c-0.7,2.1-1.9,5.4-2.8,7.7c-0.8,1.9-1.5,3.1-2.1,3.6l-0.8-0.4
		c0.6-0.5,1.4-1.7,2.1-3.3l-3.3-7.6h1l2.7,6.7C204,184.8,204.9,182.1,205.5,180.3z"/>
	<path id="XMLID_213_" class="st0" d="M211.6,181.1v-0.7h1.5v-0.4c0-1.6,0.4-3,2.4-3c0.3,0,0.9,0.1,1.4,0.2l-0.1,0.7
		c-0.4-0.1-0.9-0.2-1.1-0.2c-1.1,0-1.6,0.5-1.6,2.3v0.4h2.1v0.7H214v7.3h-0.8v-7.3H211.6z"/>
	<path id="XMLID_215_" class="st0" d="M224.7,184.3c0,2.2-0.9,4.3-3.7,4.3s-3.7-2.1-3.7-4.3c0-2.2,0.9-4.2,3.7-4.2
		S224.7,182.1,224.7,184.3L224.7,184.3z M221.1,187.8c1.9,0,2.8-1.3,2.8-3.6c0-2.2-0.9-3.5-2.8-3.5c-1.9,0-2.8,1.3-2.8,3.5
		C218.3,186.5,219.1,187.8,221.1,187.8L221.1,187.8z"/>
	<path id="XMLID_218_" class="st0" d="M231.1,180.2l0,0.8c-1.1,0-2.2,0.5-2.7,1.6v5.8h-0.9v-5.8c0-0.9-0.1-1.7-0.2-2.2l0.8-0.1
		c0.2,0.4,0.3,1,0.3,1.5C228.9,180.7,230,180.2,231.1,180.2z"/>
	<path id="XMLID_220_" class="st0" d="M240.3,190.9c1.8,0,2.5-1.1,2.5-2.3v-1.6c-0.4,0.6-1.2,1.6-2.8,1.6c-1.8,0-3.1-1.2-3.1-3.9
		c0-2.3,0.8-4.4,3.3-4.4c1.1,0,2.1,0.5,2.6,1.1c0-0.2,0.1-0.7,0.1-1h0.8c-0.1,0.4-0.1,1-0.1,1.4v6.9c0,1.8-1.2,2.9-3.3,2.9
		c-1,0-2.1-0.3-3-0.7l0.2-0.7C238.3,190.5,239.4,190.9,240.3,190.9z M242.8,183c0-0.3,0-0.7-0.1-1c-0.4-0.5-1.3-1.2-2.4-1.2
		c-1.8,0-2.6,1.3-2.6,3.7c0,1.8,0.7,3.2,2.3,3.2c1.6,0,2.4-1.2,2.7-1.7c0-0.2,0.1-0.6,0.1-0.9V183z"/>
	<path id="XMLID_223_" class="st0" d="M250.5,180.2l0,0.8c-1.1,0-2.2,0.5-2.7,1.6v5.8h-0.9v-5.8c0-0.9-0.1-1.7-0.2-2.2l0.8-0.1
		c0.2,0.4,0.3,1,0.3,1.5C248.3,180.7,249.4,180.2,250.5,180.2z"/>
	<path id="XMLID_225_" class="st0" d="M258.3,188.3l-0.7,0.2c-0.4-0.4-0.6-1.1-0.6-1.6c-0.4,1.1-1.6,1.7-2.7,1.7
		c-1.3,0-2.6-0.7-2.6-2.4c0-1.8,0.9-2.4,5.2-2.7v-0.8c0-1.1-0.2-1.8-1.8-1.8c-0.9,0-1.8,0.3-2.5,0.7l-0.2-0.7
		c0.7-0.4,1.8-0.7,2.8-0.7c2,0,2.5,1,2.5,2.5v3.3C257.6,186.9,257.8,187.8,258.3,188.3z M252.4,186.1c0,1.4,1.2,1.7,1.9,1.7
		c1.4,0,2.2-0.9,2.5-1.9v-1.7C253.4,184.4,252.4,184.7,252.4,186.1z"/>
	<path id="XMLID_228_" class="st0" d="M263.3,188.5c-1.7,0-3.1-1.2-3.1-3.9c0-2.3,0.8-4.4,3.3-4.4c1,0,2,0.5,2.6,1.1v-4.1l0.8-0.1
		v9.1c0,0.7,0.1,1.6,0.3,2.2l-0.8,0.2c-0.2-0.4-0.3-1-0.3-1.5C265.9,187.5,265,188.5,263.3,188.5L263.3,188.5z M266.2,183
		c0-0.3,0-0.7-0.1-1c-0.4-0.5-1.2-1.2-2.4-1.2c-1.8,0-2.6,1.3-2.6,3.7c0,1.8,0.7,3.2,2.3,3.2c1.6,0,2.4-1.2,2.7-1.7
		c0-0.2,0.1-0.6,0.1-0.9V183z"/>
	<path id="XMLID_231_" class="st0" d="M272.8,188.5c-1.7,0-2.5-1.1-2.5-2.9v-5.3h0.9v5.1c0,1.2,0.3,2.4,1.9,2.4c1,0,2.1-0.5,2.7-1.3
		v-6.2h0.9v6.3c0,0.6,0.1,1.2,0.2,1.7l-0.8,0.1c-0.2-0.4-0.3-0.9-0.3-1.2C275,188,273.8,188.5,272.8,188.5z"/>
	<path id="XMLID_233_" class="st0" d="M285.7,188.3l-0.7,0.2c-0.4-0.4-0.6-1.1-0.6-1.6c-0.4,1.1-1.6,1.7-2.7,1.7
		c-1.3,0-2.6-0.7-2.6-2.4c0-1.8,0.9-2.4,5.2-2.7v-0.8c0-1.1-0.2-1.8-1.8-1.8c-0.9,0-1.8,0.3-2.5,0.7l-0.2-0.7
		c0.7-0.4,1.8-0.7,2.8-0.7c2,0,2.5,1,2.5,2.5v3.3C285,186.9,285.3,187.8,285.7,188.3z M279.9,186.1c0,1.4,1.2,1.7,1.9,1.7
		c1.4,0,2.2-0.9,2.5-1.9v-1.7C280.8,184.4,279.9,184.7,279.9,186.1z"/>
	<path id="XMLID_236_" class="st0" d="M290.9,187.7v0.7l-0.5,0c-1.2,0.1-1.9-0.4-1.9-1.8v-5.5H287v-0.7h1.4v-2l0.9-0.2v2.2h1.9v0.7
		h-1.9v5.3c0,1.1,0.3,1.3,1.2,1.3H290.9z"/>
	<path id="XMLID_238_" class="st0" d="M296.8,187.8c1,0,1.8-0.2,2.5-0.5l0.2,0.7c-0.6,0.3-1.6,0.5-2.7,0.5c-2.3,0-3.8-1.3-3.8-4.1
		c0-2.6,1.3-4.4,3.6-4.4c1.9,0,3.1,1.2,3.1,3.7v0.5h-5.8C293.6,186.8,295,187.8,296.8,187.8L296.8,187.8z M296.4,180.7
		c-1.4,0-2.4,1.2-2.6,2.8h5C298.7,181.7,298,180.7,296.4,180.7L296.4,180.7z"/>
	<path id="XMLID_241_" class="st0" d="M310.6,181.3c-0.5-0.3-1.3-0.5-2-0.5c-0.6,0-1.6,0.3-1.6,1.4c0,0.8,0.5,1.1,1.7,1.6
		c1.3,0.5,2.3,1.1,2.3,2.4c0,1.8-1.3,2.3-2.5,2.3c-0.8,0-2-0.2-2.7-0.5l0.2-0.7c0.7,0.3,1.6,0.5,2.4,0.5c0.9,0,1.7-0.3,1.7-1.5
		c0-0.9-0.7-1.3-2-1.8c-1.2-0.5-2-0.9-2-2.2c0-1.6,1.4-2.1,2.5-2.1c0.8,0,1.7,0.2,2.2,0.5L310.6,181.3z"/>
	<path id="XMLID_243_" class="st0" d="M316.3,187.7v0.7l-0.5,0c-1.2,0.1-1.9-0.4-1.9-1.8v-5.5h-1.4v-0.7h1.4v-2l0.9-0.2v2.2h1.9v0.7
		h-1.9v5.3c0,1.1,0.3,1.3,1.2,1.3H316.3z"/>
	<path id="XMLID_245_" class="st0" d="M321.2,188.5c-1.7,0-2.5-1.1-2.5-2.9v-5.3h0.9v5.1c0,1.2,0.3,2.4,1.9,2.4c1,0,2.1-0.5,2.7-1.3
		v-6.2h0.9v6.3c0,0.6,0.1,1.2,0.2,1.7l-0.8,0.1c-0.2-0.4-0.3-0.9-0.3-1.2C323.4,188,322.2,188.5,321.2,188.5z"/>
	<path id="XMLID_247_" class="st0" d="M330.8,188.5c-1.7,0-3.1-1.2-3.1-3.9c0-2.3,0.8-4.4,3.3-4.4c1,0,2,0.5,2.6,1.1v-4.1l0.8-0.1
		v9.1c0,0.7,0.1,1.6,0.3,2.2l-0.8,0.2c-0.2-0.4-0.3-1-0.3-1.5C333.4,187.5,332.5,188.5,330.8,188.5L330.8,188.5z M333.7,183
		c0-0.3,0-0.7-0.1-1c-0.4-0.5-1.2-1.2-2.4-1.2c-1.8,0-2.6,1.3-2.6,3.7c0,1.8,0.7,3.2,2.3,3.2c1.6,0,2.4-1.2,2.7-1.7
		c0-0.2,0.1-0.6,0.1-0.9V183z"/>
	<path id="XMLID_250_" class="st0" d="M338.7,178.5h-1v-1h1V178.5z M338.6,188.3h-0.9v-8h0.9V188.3z"/>
	<path id="XMLID_253_" class="st0" d="M345.3,187.8c1,0,1.8-0.2,2.5-0.5l0.2,0.7c-0.6,0.3-1.6,0.5-2.7,0.5c-2.3,0-3.8-1.3-3.8-4.1
		c0-2.6,1.3-4.4,3.6-4.4c1.9,0,3.1,1.2,3.1,3.7v0.5h-5.8C342.1,186.8,343.5,187.8,345.3,187.8L345.3,187.8z M344.9,180.7
		c-1.4,0-2.4,1.2-2.6,2.8h5C347.2,181.7,346.5,180.7,344.9,180.7L344.9,180.7z"/>
	<path id="XMLID_256_" class="st0" d="M354.8,181.3c-0.5-0.3-1.3-0.5-2-0.5c-0.6,0-1.6,0.3-1.6,1.4c0,0.8,0.5,1.1,1.7,1.6
		c1.3,0.5,2.3,1.1,2.3,2.4c0,1.8-1.3,2.3-2.5,2.3c-0.8,0-2-0.2-2.7-0.5l0.2-0.7c0.7,0.3,1.6,0.5,2.4,0.5c0.9,0,1.7-0.3,1.7-1.5
		c0-0.9-0.7-1.3-2-1.8c-1.2-0.5-2-0.9-2-2.2c0-1.6,1.4-2.1,2.5-2.1c0.8,0,1.7,0.2,2.2,0.5L354.8,181.3z"/>
	<path id="XMLID_258_" class="st0" d="M367.9,188.3l-0.7,0.2c-0.4-0.4-0.6-1.1-0.6-1.6c-0.4,1.1-1.6,1.7-2.7,1.7
		c-1.3,0-2.6-0.7-2.6-2.4c0-1.8,0.9-2.4,5.2-2.7v-0.8c0-1.1-0.2-1.8-1.8-1.8c-0.9,0-1.8,0.3-2.5,0.7l-0.2-0.7
		c0.7-0.4,1.8-0.7,2.8-0.7c2,0,2.5,1,2.5,2.5v3.3C367.3,186.9,367.5,187.8,367.9,188.3z M362.1,186.1c0,1.4,1.2,1.7,1.9,1.7
		c1.4,0,2.2-0.9,2.5-1.9v-1.7C363.1,184.4,362.1,184.7,362.1,186.1z"/>
	<path id="XMLID_261_" class="st0" d="M373.2,187.7v0.7l-0.5,0c-1.2,0.1-1.9-0.4-1.9-1.8v-5.5h-1.4v-0.7h1.4v-2l0.9-0.2v2.2h1.9v0.7
		h-1.9v5.3c0,1.1,0.3,1.3,1.2,1.3H373.2z"/>
	<path id="XMLID_263_" class="st1" d="M379.5,184.4c0-2.5,1-4.4,3.8-4.4c0.7,0,1.3,0.1,1.9,0.3l-0.2,0.8c-0.5-0.2-1.1-0.3-1.7-0.3
		c-2.2,0-2.9,1.7-2.9,3.6c0,1.8,0.7,3.4,2.9,3.4c0.6,0,1.3-0.1,1.7-0.3l0.1,0.8c-0.5,0.2-1.2,0.3-1.9,0.3
		C380.4,188.6,379.5,186.6,379.5,184.4L379.5,184.4z"/>
	<path id="XMLID_265_" class="st1" d="M394.3,184.3c0,2.2-0.9,4.3-3.7,4.3s-3.7-2.1-3.7-4.3c0-2.2,0.9-4.2,3.7-4.2
		S394.3,182.1,394.3,184.3L394.3,184.3z M390.7,187.8c1.9,0,2.8-1.3,2.8-3.6c0-2.2-0.9-3.5-2.8-3.5c-1.9,0-2.8,1.3-2.8,3.5
		C387.9,186.5,388.7,187.8,390.7,187.8L390.7,187.8z"/>
	<path id="XMLID_268_" class="st1" d="M400,190.9c1.8,0,2.5-1.1,2.5-2.3v-1.6c-0.4,0.6-1.2,1.6-2.8,1.6c-1.8,0-3.1-1.2-3.1-3.9
		c0-2.3,0.8-4.4,3.3-4.4c1.1,0,2.1,0.5,2.6,1.1c0-0.2,0.1-0.7,0.1-1h0.8c-0.1,0.4-0.1,1-0.1,1.4v6.9c0,1.8-1.2,2.9-3.3,2.9
		c-1,0-2.1-0.3-3-0.7l0.2-0.7C398,190.5,399,190.9,400,190.9z M402.5,183c0-0.3,0-0.7-0.1-1c-0.4-0.5-1.3-1.2-2.4-1.2
		c-1.8,0-2.6,1.3-2.6,3.7c0,1.8,0.7,3.2,2.3,3.2c1.6,0,2.4-1.2,2.7-1.7c0-0.2,0.1-0.6,0.1-0.9V183z"/>
	<path id="XMLID_271_" class="st1" d="M407.1,180.2c0.1,0.4,0.3,0.9,0.3,1.3c0.7-0.8,1.9-1.3,2.9-1.3c1.8,0,2.5,1,2.5,2.9v5.2H412
		v-5c0-1.2-0.3-2.4-1.9-2.4c-1,0-2.1,0.5-2.7,1.3v6.2h-0.9v-6.5c0-0.5-0.1-1-0.2-1.5L407.1,180.2z"/>
	<path id="XMLID_273_" class="st1" d="M417,178.5h-1v-1h1V178.5z M416.9,188.3h-0.9v-8h0.9V188.3z"/>
	<path id="XMLID_276_" class="st1" d="M422.9,187.7v0.7l-0.5,0c-1.2,0.1-1.9-0.4-1.9-1.8v-5.5H419v-0.7h1.4v-2l0.9-0.2v2.2h1.9v0.7
		h-1.9v5.3c0,1.1,0.3,1.3,1.2,1.3H422.9z"/>
	<path id="XMLID_278_" class="st1" d="M426.3,178.5h-1v-1h1V178.5z M426.2,188.3h-0.9v-8h0.9V188.3z"/>
	<path id="XMLID_281_" class="st1" d="M434.6,180.3h0.9l-3.2,8h-0.8l-3.2-8h0.9l2.7,6.9L434.6,180.3z"/>
	<path id="XMLID_283_" class="st1" d="M440.9,187.8c1,0,1.8-0.2,2.5-0.5l0.2,0.7c-0.6,0.3-1.6,0.5-2.7,0.5c-2.3,0-3.8-1.3-3.8-4.1
		c0-2.6,1.3-4.4,3.6-4.4c1.9,0,3.1,1.2,3.1,3.7v0.5h-5.8C437.8,186.8,439.2,187.8,440.9,187.8L440.9,187.8z M440.5,180.7
		c-1.4,0-2.4,1.2-2.6,2.8h5C442.9,181.7,442.1,180.7,440.5,180.7L440.5,180.7z"/>
	<path id="XMLID_286_" class="st1" d="M454.6,180.1c1.8,0,3.1,1.2,3.1,4c0,2.3-0.8,4.4-3.3,4.4c-1,0-2-0.5-2.6-1.1v4.2h-0.8v-9.7
		c0-0.5-0.1-1-0.2-1.5l0.8-0.1c0.1,0.4,0.3,1,0.3,1.5C452.1,181.1,452.9,180.1,454.6,180.1L454.6,180.1z M451.7,185.6
		c0,0.3,0,0.7,0.1,1c0.4,0.5,1.2,1.2,2.5,1.2c1.8,0,2.5-1.3,2.5-3.7c0-1.8-0.7-3.2-2.3-3.2c-1.6,0-2.4,1.2-2.6,1.7
		c0,0.2-0.1,0.6-0.1,0.9V185.6z"/>
	<path id="XMLID_289_" class="st1" d="M464.3,181.3c-0.5-0.3-1.3-0.5-2-0.5c-0.6,0-1.6,0.3-1.6,1.4c0,0.8,0.5,1.1,1.7,1.6
		c1.3,0.5,2.3,1.1,2.3,2.4c0,1.8-1.3,2.3-2.5,2.3c-0.8,0-2-0.2-2.7-0.5l0.2-0.7c0.7,0.3,1.6,0.5,2.4,0.5c0.9,0,1.7-0.3,1.7-1.5
		c0-0.9-0.7-1.3-2-1.8c-1.2-0.5-2-0.9-2-2.2c0-1.6,1.4-2.1,2.5-2.1c0.8,0,1.7,0.2,2.2,0.5L464.3,181.3z"/>
	<path id="XMLID_291_" class="st1" d="M472.2,180.3h0.9c-0.7,2.1-1.9,5.4-2.8,7.7c-0.8,1.9-1.5,3.1-2.1,3.6l-0.8-0.4
		c0.6-0.5,1.4-1.7,2.1-3.3l-3.3-7.6h1l2.7,6.7C470.7,184.8,471.6,182.1,472.2,180.3z"/>
	<path id="XMLID_293_" class="st1" d="M474.7,184.4c0-2.5,1-4.4,3.8-4.4c0.7,0,1.3,0.1,1.9,0.3l-0.2,0.8c-0.5-0.2-1.1-0.3-1.7-0.3
		c-2.2,0-2.9,1.7-2.9,3.6c0,1.8,0.7,3.4,2.9,3.4c0.6,0,1.3-0.1,1.7-0.3l0.1,0.8c-0.5,0.2-1.2,0.3-1.9,0.3
		C475.6,188.6,474.7,186.6,474.7,184.4L474.7,184.4z"/>
	<path id="XMLID_295_" class="st1" d="M486.5,180.2c1.7,0,2.5,1,2.5,2.9v5.2h-0.9v-5c0-1.2-0.3-2.4-1.9-2.4c-1,0-2.1,0.5-2.7,1.3
		v6.1h-0.9v-11.2l0.9-0.1v4.5C484.3,180.7,485.4,180.2,486.5,180.2z"/>
	<path id="XMLID_297_" class="st1" d="M499,184.3c0,2.2-0.9,4.3-3.7,4.3s-3.7-2.1-3.7-4.3c0-2.2,0.9-4.2,3.7-4.2
		S499,182.1,499,184.3L499,184.3z M495.4,187.8c1.9,0,2.8-1.3,2.8-3.6c0-2.2-0.9-3.5-2.8-3.5c-1.9,0-2.8,1.3-2.8,3.5
		C492.6,186.5,493.5,187.8,495.4,187.8L495.4,187.8z"/>
	<path id="XMLID_300_" class="st1" d="M502.6,188.3h-0.9v-11.2l0.9-0.1V188.3z"/>
	<path id="XMLID_302_" class="st1" d="M512.7,184.3c0,2.2-0.9,4.3-3.7,4.3s-3.7-2.1-3.7-4.3c0-2.2,0.9-4.2,3.7-4.2
		S512.7,182.1,512.7,184.3L512.7,184.3z M509.1,187.8c1.9,0,2.8-1.3,2.8-3.6c0-2.2-0.9-3.5-2.8-3.5c-1.9,0-2.8,1.3-2.8,3.5
		C506.3,186.5,507.2,187.8,509.1,187.8L509.1,187.8z"/>
	<path id="XMLID_305_" class="st1" d="M518.4,190.9c1.8,0,2.5-1.1,2.5-2.3v-1.6c-0.4,0.6-1.2,1.6-2.8,1.6c-1.8,0-3.1-1.2-3.1-3.9
		c0-2.3,0.8-4.4,3.3-4.4c1.1,0,2.1,0.5,2.6,1.1c0-0.2,0.1-0.7,0.1-1h0.8c-0.1,0.4-0.1,1-0.1,1.4v6.9c0,1.8-1.2,2.9-3.3,2.9
		c-1,0-2.1-0.3-3-0.7l0.2-0.7C516.4,190.5,517.4,190.9,518.4,190.9z M520.9,183c0-0.3,0-0.7-0.1-1c-0.4-0.5-1.3-1.2-2.4-1.2
		c-1.8,0-2.6,1.3-2.6,3.7c0,1.8,0.7,3.2,2.3,3.2c1.6,0,2.4-1.2,2.7-1.7c0-0.2,0.1-0.6,0.1-0.9V183z"/>
	<path id="XMLID_308_" class="st1" d="M529.9,180.3h0.9c-0.7,2.1-1.9,5.4-2.8,7.7c-0.8,1.9-1.5,3.1-2.1,3.6l-0.8-0.4
		c0.6-0.5,1.4-1.7,2.1-3.3l-3.3-7.6h1l2.7,6.7C528.4,184.8,529.3,182.1,529.9,180.3z"/>
	<path id="XMLID_310_" class="st0" d="M533.6,188.3h-1.1v-1.2h1.1V188.3z"/>
	<path id="XMLID_312_" class="st0" d="M54.5,197.6h0.8l4.2,10.8h-1l-1.3-3.5h-4.7l-1.3,3.5h-0.9L54.5,197.6z M57,204.1l-2.1-5.6
		l-2.1,5.6H57z"/>
	<path id="XMLID_315_" class="st0" d="M62.1,200.2c0.1,0.4,0.3,0.9,0.3,1.3c0.7-0.8,1.9-1.3,2.9-1.3c1.8,0,2.5,1,2.5,2.9v5.2H67v-5
		c0-1.2-0.3-2.4-1.9-2.4c-1,0-2.1,0.5-2.7,1.3v6.2h-0.9v-6.5c0-0.5-0.1-1-0.2-1.5L62.1,200.2z"/>
	<path id="XMLID_317_" class="st0" d="M73.6,208.5c-1.7,0-3.1-1.2-3.1-3.9c0-2.3,0.8-4.4,3.3-4.4c1,0,2,0.5,2.6,1.1v-4.1l0.8-0.1
		v9.1c0,0.7,0.1,1.6,0.3,2.2l-0.8,0.2c-0.2-0.4-0.3-1-0.3-1.5C76.1,207.5,75.2,208.5,73.6,208.5L73.6,208.5z M76.4,203
		c0-0.3,0-0.7-0.1-1c-0.4-0.5-1.2-1.2-2.4-1.2c-1.8,0-2.6,1.3-2.6,3.7c0,1.8,0.7,3.2,2.3,3.2c1.6,0,2.4-1.2,2.7-1.7
		c0-0.2,0.1-0.6,0.1-0.9V203z"/>
	<path id="XMLID_320_" class="st0" d="M85.1,198.5h-1v-1h1V198.5z M85,208.3h-0.9v-8H85V208.3z"/>
	<path id="XMLID_323_" class="st0" d="M88.9,200.2c0.1,0.4,0.3,0.9,0.3,1.3c0.7-0.8,1.9-1.3,2.9-1.3c1.8,0,2.5,1,2.5,2.9v5.2h-0.9
		v-5c0-1.2-0.3-2.4-1.9-2.4c-1,0-2.1,0.5-2.7,1.3v6.2h-0.9v-6.5c0-0.5-0.1-1-0.2-1.5L88.9,200.2z"/>
	<path id="XMLID_325_" class="st0" d="M100.9,204.4c0-2.5,1-4.4,3.8-4.4c0.7,0,1.3,0.1,1.9,0.3l-0.2,0.8c-0.5-0.2-1.1-0.3-1.7-0.3
		c-2.2,0-2.9,1.7-2.9,3.6c0,1.8,0.7,3.4,2.9,3.4c0.6,0,1.3-0.1,1.7-0.3l0.1,0.8c-0.5,0.2-1.2,0.3-1.9,0.3
		C101.8,208.6,100.9,206.6,100.9,204.4L100.9,204.4z"/>
	<path id="XMLID_327_" class="st0" d="M112.7,200.2c1.7,0,2.5,1,2.5,2.9v5.2h-0.9v-5c0-1.2-0.3-2.4-1.9-2.4c-1,0-2.1,0.5-2.7,1.3
		v6.1H109v-11.2l0.9-0.1v4.5C110.5,200.7,111.7,200.2,112.7,200.2z"/>
	<path id="XMLID_329_" class="st0" d="M119.4,198.5h-1v-1h1V198.5z M119.3,208.3h-0.9v-8h0.9V208.3z"/>
	<path id="XMLID_332_" class="st0" d="M123.2,200.2c0.1,0.4,0.3,0.9,0.3,1.3c0.7-0.8,1.9-1.3,2.9-1.3c1.8,0,2.5,1,2.5,2.9v5.2H128
		v-5c0-1.2-0.3-2.4-1.9-2.4c-1,0-2.1,0.5-2.7,1.3v6.2h-0.9v-6.5c0-0.5-0.1-1-0.2-1.5L123.2,200.2z"/>
	<path id="XMLID_334_" class="st0" d="M137.9,208.3l-0.7,0.2c-0.4-0.4-0.6-1.1-0.6-1.6c-0.4,1.1-1.6,1.7-2.7,1.7
		c-1.3,0-2.6-0.7-2.6-2.4c0-1.8,0.9-2.4,5.2-2.7v-0.8c0-1.1-0.2-1.8-1.8-1.8c-0.9,0-1.8,0.3-2.5,0.7l-0.2-0.7
		c0.7-0.4,1.8-0.7,2.8-0.7c2,0,2.5,1,2.5,2.5v3.3C137.3,206.9,137.5,207.8,137.9,208.3z M132.1,206.1c0,1.4,1.2,1.7,1.9,1.7
		c1.4,0,2.2-0.9,2.5-1.9v-1.7C133.1,204.4,132.1,204.7,132.1,206.1z"/>
	<path id="XMLID_337_" class="st0" d="M140.3,210.4l-0.6-0.1c0.5-1.2,0.8-2.9,0.9-3.9l0.9,0.1C141.3,207.6,140.8,209.4,140.3,210.4z
		"/>
	<path id="XMLID_339_" class="st0" d="M148.8,208.3h-0.9v-10.8h0.9V208.3z"/>
	<path id="XMLID_341_" class="st0" d="M165.8,200.3h0.9l-2.7,8h-0.8l-2.5-6.9l-2.5,6.9h-0.8l-2.7-8h0.9l2.3,6.9l2.4-6.8h0.8l2.5,6.8
		L165.8,200.3z"/>
	<path id="XMLID_343_" class="st0" d="M174.7,208.3l-0.7,0.2c-0.4-0.4-0.6-1.1-0.6-1.6c-0.4,1.1-1.6,1.7-2.7,1.7
		c-1.3,0-2.6-0.7-2.6-2.4c0-1.8,0.9-2.4,5.2-2.7v-0.8c0-1.1-0.2-1.8-1.8-1.8c-0.9,0-1.8,0.3-2.5,0.7l-0.2-0.7
		c0.7-0.4,1.8-0.7,2.8-0.7c2,0,2.5,1,2.5,2.5v3.3C174,206.9,174.3,207.8,174.7,208.3z M168.9,206.1c0,1.4,1.2,1.7,1.9,1.7
		c1.4,0,2.2-0.9,2.5-1.9v-1.7C169.8,204.4,168.9,204.7,168.9,206.1z"/>
	<path id="XMLID_346_" class="st0" d="M181.2,201.3c-0.5-0.3-1.3-0.5-2-0.5c-0.6,0-1.6,0.3-1.6,1.4c0,0.8,0.5,1.1,1.7,1.6
		c1.3,0.5,2.3,1.1,2.3,2.4c0,1.8-1.3,2.3-2.5,2.3c-0.8,0-2-0.2-2.7-0.5l0.2-0.7c0.7,0.3,1.6,0.5,2.4,0.5c0.9,0,1.7-0.3,1.7-1.5
		c0-0.9-0.7-1.3-2-1.8c-1.2-0.5-2-0.9-2-2.2c0-1.6,1.4-2.1,2.5-2.1c0.8,0,1.7,0.2,2.2,0.5L181.2,201.3z"/>
	<path id="XMLID_348_" class="st0" d="M191.5,200.2c1.1,0,1.9,0.5,2.2,1.3c0.8-0.8,2-1.3,3.1-1.3c1.7,0,2.5,1,2.5,2.9v5.2h-0.9v-5
		c0-1.2-0.3-2.4-1.9-2.4c-0.9,0-2,0.5-2.7,1.2c0.1,0.4,0.1,0.8,0.1,1.3v4.9h-0.8v-5c0-1.2-0.3-2.4-1.9-2.4c-0.9,0-2,0.5-2.6,1.3v6.2
		h-0.9v-6.5c0-0.5-0.1-1-0.2-1.5l0.8-0.1c0.1,0.4,0.2,0.9,0.3,1.3C189.4,200.7,190.5,200.2,191.5,200.2z"/>
	<path id="XMLID_350_" class="st0" d="M208.3,208.3l-0.7,0.2c-0.4-0.4-0.6-1.1-0.6-1.6c-0.4,1.1-1.6,1.7-2.7,1.7
		c-1.3,0-2.6-0.7-2.6-2.4c0-1.8,0.9-2.4,5.2-2.7v-0.8c0-1.1-0.2-1.8-1.8-1.8c-0.9,0-1.8,0.3-2.5,0.7l-0.2-0.7
		c0.7-0.4,1.8-0.7,2.8-0.7c2,0,2.5,1,2.5,2.5v3.3C207.7,206.9,207.9,207.8,208.3,208.3z M202.5,206.1c0,1.4,1.2,1.7,1.9,1.7
		c1.4,0,2.2-0.9,2.5-1.9v-1.7C203.5,204.4,202.5,204.7,202.5,206.1z"/>
	<path id="XMLID_353_" class="st0" d="M211.8,200.3v7.6c0,1.9-0.5,3.1-2,3.8l-0.5-0.6c1.4-0.7,1.7-1.7,1.7-3.3v-7.5H211.8z
		 M211.9,198.5h-1v-1h1V198.5z"/>
	<path id="XMLID_356_" class="st0" d="M221.9,204.3c0,2.2-0.9,4.3-3.7,4.3s-3.7-2.1-3.7-4.3c0-2.2,0.9-4.2,3.7-4.2
		S221.9,202.1,221.9,204.3L221.9,204.3z M218.3,207.8c1.9,0,2.8-1.3,2.8-3.6c0-2.2-0.9-3.5-2.8-3.5c-1.9,0-2.8,1.3-2.8,3.5
		C215.5,206.5,216.3,207.8,218.3,207.8L218.3,207.8z"/>
	<path id="XMLID_359_" class="st0" d="M229.6,200.3h0.9c-0.7,2.1-1.9,5.4-2.8,7.7c-0.8,1.9-1.5,3.1-2.1,3.6l-0.8-0.4
		c0.6-0.5,1.4-1.7,2.1-3.3l-3.3-7.6h1l2.7,6.7C228.1,204.8,229,202.1,229.6,200.3z"/>
	<path id="XMLID_361_" class="st0" d="M235.9,207.8c1,0,1.8-0.2,2.5-0.5l0.2,0.7c-0.6,0.3-1.6,0.5-2.7,0.5c-2.3,0-3.8-1.3-3.8-4.1
		c0-2.6,1.3-4.4,3.6-4.4c1.9,0,3.1,1.2,3.1,3.7v0.5h-5.8C232.8,206.8,234.2,207.8,235.9,207.8L235.9,207.8z M235.5,200.7
		c-1.4,0-2.4,1.2-2.6,2.8h5C237.9,201.7,237.1,200.7,235.5,200.7L235.5,200.7z"/>
	<path id="XMLID_364_" class="st0" d="M244,208.5c-1.7,0-3.1-1.2-3.1-3.9c0-2.3,0.8-4.4,3.3-4.4c1,0,2,0.5,2.6,1.1v-4.1l0.8-0.1v9.1
		c0,0.7,0.1,1.6,0.3,2.2l-0.8,0.2c-0.2-0.4-0.3-1-0.3-1.5C246.6,207.5,245.7,208.5,244,208.5L244,208.5z M246.9,203
		c0-0.3,0-0.7-0.1-1c-0.4-0.5-1.2-1.2-2.4-1.2c-1.8,0-2.6,1.3-2.6,3.7c0,1.8,0.7,3.2,2.3,3.2c1.6,0,2.4-1.2,2.7-1.7
		c0-0.2,0.1-0.6,0.1-0.9V203z"/>
	<path id="XMLID_367_" class="st0" d="M255.5,198.5h-1v-1h1V198.5z M255.4,208.3h-0.9v-8h0.9V208.3z"/>
	<path id="XMLID_370_" class="st0" d="M259.3,200.2c0.1,0.4,0.3,0.9,0.3,1.3c0.7-0.8,1.9-1.3,2.9-1.3c1.8,0,2.5,1,2.5,2.9v5.2h-0.9
		v-5c0-1.2-0.3-2.4-1.9-2.4c-1,0-2.1,0.5-2.7,1.3v6.2h-0.9v-6.5c0-0.5-0.1-1-0.2-1.5L259.3,200.2z"/>
	<path id="XMLID_372_" class="st0" d="M277.7,208.3l-0.7,0.2c-0.4-0.4-0.6-1.1-0.6-1.6c-0.4,1.1-1.6,1.7-2.7,1.7
		c-1.3,0-2.6-0.7-2.6-2.4c0-1.8,0.9-2.4,5.2-2.7v-0.8c0-1.1-0.2-1.8-1.8-1.8c-0.9,0-1.8,0.3-2.5,0.7l-0.2-0.7
		c0.7-0.4,1.8-0.7,2.8-0.7c2,0,2.5,1,2.5,2.5v3.3C277.1,206.9,277.3,207.8,277.7,208.3z M271.9,206.1c0,1.4,1.2,1.7,1.9,1.7
		c1.4,0,2.2-0.9,2.5-1.9v-1.7C272.9,204.4,271.9,204.7,271.9,206.1z"/>
	<path id="XMLID_375_" class="st0" d="M282.8,208.5c-1.7,0-3.1-1.2-3.1-3.9c0-2.3,0.8-4.4,3.3-4.4c1,0,2,0.5,2.6,1.1v-4.1l0.8-0.1
		v9.1c0,0.7,0.1,1.6,0.3,2.2l-0.8,0.2c-0.2-0.4-0.3-1-0.3-1.5C285.4,207.5,284.5,208.5,282.8,208.5L282.8,208.5z M285.7,203
		c0-0.3,0-0.7-0.1-1c-0.4-0.5-1.2-1.2-2.4-1.2c-1.8,0-2.6,1.3-2.6,3.7c0,1.8,0.7,3.2,2.3,3.2c1.6,0,2.4-1.2,2.7-1.7
		c0-0.2,0.1-0.6,0.1-0.9V203z"/>
	<path id="XMLID_378_" class="st0" d="M294.9,200.3h0.9l-3.2,8h-0.8l-3.2-8h0.9l2.7,6.9L294.9,200.3z"/>
	<path id="XMLID_380_" class="st0" d="M301.3,207.8c1,0,1.8-0.2,2.5-0.5l0.2,0.7c-0.6,0.3-1.6,0.5-2.7,0.5c-2.3,0-3.8-1.3-3.8-4.1
		c0-2.6,1.3-4.4,3.6-4.4c1.9,0,3.1,1.2,3.1,3.7v0.5h-5.8C298.1,206.8,299.5,207.8,301.3,207.8L301.3,207.8z M300.9,200.7
		c-1.4,0-2.4,1.2-2.6,2.8h5C303.2,201.7,302.5,200.7,300.9,200.7L300.9,200.7z"/>
	<path id="XMLID_383_" class="st0" d="M310.4,200.2l0,0.8c-1.1,0-2.2,0.5-2.7,1.6v5.8h-0.9v-5.8c0-0.9-0.1-1.7-0.2-2.2l0.8-0.1
		c0.2,0.4,0.3,1,0.3,1.5C308.2,200.7,309.3,200.2,310.4,200.2z"/>
	<path id="XMLID_385_" class="st0" d="M315,207.7v0.7l-0.5,0c-1.2,0.1-1.9-0.4-1.9-1.8v-5.5h-1.4v-0.7h1.4v-2l0.9-0.2v2.2h1.9v0.7
		h-1.9v5.3c0,1.1,0.3,1.3,1.2,1.3H315z"/>
	<path id="XMLID_387_" class="st0" d="M318.4,198.5h-1v-1h1V198.5z M318.3,208.3h-0.9v-8h0.9V208.3z"/>
	<path id="XMLID_390_" class="st0" d="M325.6,201.3c-0.5-0.3-1.3-0.5-2-0.5c-0.6,0-1.6,0.3-1.6,1.4c0,0.8,0.5,1.1,1.7,1.6
		c1.3,0.5,2.3,1.1,2.3,2.4c0,1.8-1.3,2.3-2.5,2.3c-0.8,0-2-0.2-2.7-0.5l0.2-0.7c0.7,0.3,1.6,0.5,2.4,0.5c0.9,0,1.7-0.3,1.7-1.5
		c0-0.9-0.7-1.3-2-1.8c-1.2-0.5-2-0.9-2-2.2c0-1.6,1.4-2.1,2.5-2.1c0.8,0,1.7,0.2,2.2,0.5L325.6,201.3z"/>
	<path id="XMLID_392_" class="st0" d="M329.5,198.5h-1v-1h1V198.5z M329.4,208.3h-0.9v-8h0.9V208.3z"/>
	<path id="XMLID_395_" class="st0" d="M333.3,200.2c0.1,0.4,0.3,0.9,0.3,1.3c0.7-0.8,1.9-1.3,2.9-1.3c1.8,0,2.5,1,2.5,2.9v5.2h-0.9
		v-5c0-1.2-0.3-2.4-1.9-2.4c-1,0-2.1,0.5-2.7,1.3v6.2h-0.9v-6.5c0-0.5-0.1-1-0.2-1.5L333.3,200.2z"/>
	<path id="XMLID_397_" class="st0" d="M345.1,210.9c1.8,0,2.5-1.1,2.5-2.3v-1.6c-0.4,0.6-1.2,1.6-2.8,1.6c-1.8,0-3.1-1.2-3.1-3.9
		c0-2.3,0.8-4.4,3.3-4.4c1.1,0,2.1,0.5,2.6,1.1c0-0.2,0.1-0.7,0.1-1h0.8c-0.1,0.4-0.1,1-0.1,1.4v6.9c0,1.8-1.2,2.9-3.3,2.9
		c-1,0-2.1-0.3-3-0.7l0.2-0.7C343.1,210.5,344.2,210.9,345.1,210.9z M347.6,203c0-0.3,0-0.7-0.1-1c-0.4-0.5-1.3-1.2-2.4-1.2
		c-1.8,0-2.6,1.3-2.6,3.7c0,1.8,0.7,3.2,2.3,3.2c1.6,0,2.4-1.2,2.7-1.7c0-0.2,0.1-0.6,0.1-0.9V203z"/>
	<path id="XMLID_400_" class="st0" d="M357.9,208.5c-1.7,0-3.1-1.2-3.1-3.9c0-2.3,0.8-4.4,3.3-4.4c1,0,2,0.5,2.6,1.1v-4.1l0.8-0.1
		v9.1c0,0.7,0.1,1.6,0.3,2.2l-0.8,0.2c-0.2-0.4-0.3-1-0.3-1.5C360.4,207.5,359.5,208.5,357.9,208.5L357.9,208.5z M360.7,203
		c0-0.3,0-0.7-0.1-1c-0.4-0.5-1.2-1.2-2.4-1.2c-1.8,0-2.6,1.3-2.6,3.7c0,1.8,0.7,3.2,2.3,3.2c1.6,0,2.4-1.2,2.7-1.7
		c0-0.2,0.1-0.6,0.1-0.9V203z"/>
	<path id="XMLID_403_" class="st0" d="M368.2,207.8c1,0,1.8-0.2,2.5-0.5l0.2,0.7c-0.6,0.3-1.6,0.5-2.7,0.5c-2.3,0-3.8-1.3-3.8-4.1
		c0-2.6,1.3-4.4,3.6-4.4c1.9,0,3.1,1.2,3.1,3.7v0.5h-5.8C365,206.8,366.4,207.8,368.2,207.8L368.2,207.8z M367.8,200.7
		c-1.4,0-2.4,1.2-2.6,2.8h5C370.2,201.7,369.4,200.7,367.8,200.7L367.8,200.7z"/>
	<path id="XMLID_406_" class="st0" d="M377.7,201.3c-0.5-0.3-1.3-0.5-2-0.5c-0.6,0-1.6,0.3-1.6,1.4c0,0.8,0.5,1.1,1.7,1.6
		c1.3,0.5,2.3,1.1,2.3,2.4c0,1.8-1.3,2.3-2.5,2.3c-0.8,0-2-0.2-2.7-0.5l0.2-0.7c0.7,0.3,1.6,0.5,2.4,0.5c0.9,0,1.7-0.3,1.7-1.5
		c0-0.9-0.7-1.3-2-1.8c-1.2-0.5-2-0.9-2-2.2c0-1.6,1.4-2.1,2.5-2.1c0.8,0,1.7,0.2,2.2,0.5L377.7,201.3z"/>
	<path id="XMLID_408_" class="st0" d="M381.6,198.5h-1v-1h1V198.5z M381.5,208.3h-0.9v-8h0.9V208.3z"/>
	<path id="XMLID_411_" class="st0" d="M387.7,210.9c1.8,0,2.5-1.1,2.5-2.3v-1.6c-0.4,0.6-1.2,1.6-2.8,1.6c-1.8,0-3.1-1.2-3.1-3.9
		c0-2.3,0.8-4.4,3.3-4.4c1.1,0,2.1,0.5,2.6,1.1c0-0.2,0.1-0.7,0.1-1h0.8c-0.1,0.4-0.1,1-0.1,1.4v6.9c0,1.8-1.2,2.9-3.3,2.9
		c-1,0-2.1-0.3-3-0.7l0.2-0.7C385.7,210.5,386.8,210.9,387.7,210.9z M390.2,203c0-0.3,0-0.7-0.1-1c-0.4-0.5-1.3-1.2-2.4-1.2
		c-1.8,0-2.6,1.3-2.6,3.7c0,1.8,0.7,3.2,2.3,3.2c1.6,0,2.4-1.2,2.7-1.7c0-0.2,0.1-0.6,0.1-0.9V203z"/>
	<path id="XMLID_414_" class="st0" d="M394.9,200.2c0.1,0.4,0.3,0.9,0.3,1.3c0.7-0.8,1.9-1.3,2.9-1.3c1.8,0,2.5,1,2.5,2.9v5.2h-0.9
		v-5c0-1.2-0.3-2.4-1.9-2.4c-1,0-2.1,0.5-2.7,1.3v6.2h-0.9v-6.5c0-0.5-0.1-1-0.2-1.5L394.9,200.2z"/>
	<path id="XMLID_416_" class="st0" d="M408.2,208.3h-1.1v-1.2h1.1V208.3z"/>
	<path id="XMLID_418_" class="st0" d="M414.1,197.6h0.8l4.2,10.8h-1l-1.3-3.5h-4.7l-1.3,3.5h-0.9L414.1,197.6z M416.5,204.1
		l-2.1-5.6l-2.1,5.6H416.5z"/>
	<path id="XMLID_421_" class="st0" d="M421.7,200.2c0.1,0.4,0.3,0.9,0.3,1.3c0.7-0.8,1.9-1.3,2.9-1.3c1.8,0,2.5,1,2.5,2.9v5.2h-0.9
		v-5c0-1.2-0.3-2.4-1.9-2.4c-1,0-2.1,0.5-2.7,1.3v6.2h-0.9v-6.5c0-0.5-0.1-1-0.2-1.5L421.7,200.2z"/>
	<path id="XMLID_423_" class="st0" d="M433.1,208.5c-1.7,0-3.1-1.2-3.1-3.9c0-2.3,0.8-4.4,3.3-4.4c1,0,2,0.5,2.6,1.1v-4.1l0.8-0.1
		v9.1c0,0.7,0.1,1.6,0.3,2.2l-0.8,0.2c-0.2-0.4-0.3-1-0.3-1.5C435.7,207.5,434.8,208.5,433.1,208.5L433.1,208.5z M436,203
		c0-0.3,0-0.7-0.1-1c-0.4-0.5-1.2-1.2-2.4-1.2c-1.8,0-2.6,1.3-2.6,3.7c0,1.8,0.7,3.2,2.3,3.2c1.6,0,2.4-1.2,2.7-1.7
		c0-0.2,0.1-0.6,0.1-0.9V203z"/>
	<path id="XMLID_426_" class="st0" d="M453.7,200.3h0.9l-2.7,8h-0.8l-2.5-6.9l-2.5,6.9h-0.8l-2.7-8h0.9l2.3,6.9l2.4-6.8h0.8l2.5,6.8
		L453.7,200.3z"/>
	<path id="XMLID_428_" class="st0" d="M460.6,200.2c1.7,0,2.5,1,2.5,2.9v5.2h-0.9v-5c0-1.2-0.3-2.4-1.9-2.4c-1,0-2.1,0.5-2.7,1.3
		v6.1h-0.9v-11.2l0.9-0.1v4.5C458.4,200.7,459.5,200.2,460.6,200.2z"/>
	<path id="XMLID_430_" class="st0" d="M469.7,207.8c1,0,1.8-0.2,2.5-0.5l0.2,0.7c-0.6,0.3-1.6,0.5-2.7,0.5c-2.3,0-3.8-1.3-3.8-4.1
		c0-2.6,1.3-4.4,3.6-4.4c1.9,0,3.1,1.2,3.1,3.7v0.5h-5.8C466.5,206.8,467.9,207.8,469.7,207.8L469.7,207.8z M469.3,200.7
		c-1.4,0-2.4,1.2-2.6,2.8h5C471.6,201.7,470.9,200.7,469.3,200.7L469.3,200.7z"/>
	<path id="XMLID_433_" class="st0" d="M475.8,200.2c0.1,0.4,0.3,0.9,0.3,1.3c0.7-0.8,1.9-1.3,2.9-1.3c1.8,0,2.5,1,2.5,2.9v5.2h-0.9
		v-5c0-1.2-0.3-2.4-1.9-2.4c-1,0-2.1,0.5-2.7,1.3v6.2h-0.9v-6.5c0-0.5-0.1-1-0.2-1.5L475.8,200.2z"/>
	<path id="XMLID_435_" class="st0" d="M489.3,208.3h-0.9v-10.8h0.9V208.3z"/>
	<path id="XMLID_437_" class="st0" d="M506.3,200.3h0.9l-2.7,8h-0.8l-2.5-6.9l-2.5,6.9h-0.8l-2.7-8h0.9l2.3,6.9l2.4-6.8h0.8l2.5,6.8
		L506.3,200.3z"/>
	<path id="XMLID_439_" class="st0" d="M515.1,208.3l-0.7,0.2c-0.4-0.4-0.6-1.1-0.6-1.6c-0.4,1.1-1.6,1.7-2.7,1.7
		c-1.3,0-2.6-0.7-2.6-2.4c0-1.8,0.9-2.4,5.2-2.7v-0.8c0-1.1-0.2-1.8-1.8-1.8c-0.9,0-1.8,0.3-2.5,0.7l-0.2-0.7
		c0.7-0.4,1.8-0.7,2.8-0.7c2,0,2.5,1,2.5,2.5v3.3C514.5,206.9,514.7,207.8,515.1,208.3z M509.3,206.1c0,1.4,1.2,1.7,1.9,1.7
		c1.4,0,2.2-0.9,2.5-1.9v-1.7C510.3,204.4,509.3,204.7,509.3,206.1z"/>
	<path id="XMLID_442_" class="st0" d="M521.7,201.3c-0.5-0.3-1.3-0.5-2-0.5c-0.6,0-1.6,0.3-1.6,1.4c0,0.8,0.5,1.1,1.7,1.6
		c1.3,0.5,2.3,1.1,2.3,2.4c0,1.8-1.3,2.3-2.5,2.3c-0.8,0-2-0.2-2.7-0.5l0.2-0.7c0.7,0.3,1.6,0.5,2.4,0.5c0.9,0,1.7-0.3,1.7-1.5
		c0-0.9-0.7-1.3-2-1.8c-1.2-0.5-2-0.9-2-2.2c0-1.6,1.4-2.1,2.5-2.1c0.8,0,1.7,0.2,2.2,0.5L521.7,201.3z"/>
	<path id="XMLID_444_" class="st0" d="M534.1,208.3l-0.7,0.2c-0.4-0.4-0.6-1.1-0.6-1.6c-0.4,1.1-1.6,1.7-2.7,1.7
		c-1.3,0-2.6-0.7-2.6-2.4c0-1.8,0.9-2.4,5.2-2.7v-0.8c0-1.1-0.2-1.8-1.8-1.8c-0.9,0-1.8,0.3-2.5,0.7l-0.2-0.7
		c0.7-0.4,1.8-0.7,2.8-0.7c2,0,2.5,1,2.5,2.5v3.3C533.5,206.9,533.7,207.8,534.1,208.3z M528.3,206.1c0,1.4,1.2,1.7,1.9,1.7
		c1.4,0,2.2-0.9,2.5-1.9v-1.7C529.2,204.4,528.3,204.7,528.3,206.1z"/>
	<path id="XMLID_447_" class="st0" d="M55.6,221.3c-0.5-0.3-1.3-0.5-2-0.5c-0.6,0-1.6,0.3-1.6,1.4c0,0.8,0.5,1.1,1.7,1.6
		c1.3,0.5,2.3,1.1,2.3,2.4c0,1.8-1.3,2.3-2.5,2.3c-0.8,0-2-0.2-2.7-0.5l0.2-0.7c0.7,0.3,1.6,0.5,2.4,0.5c0.9,0,1.7-0.3,1.7-1.5
		c0-0.9-0.7-1.3-2-1.8c-1.2-0.5-2-0.9-2-2.2c0-1.6,1.4-2.1,2.5-2.1c0.8,0,1.7,0.2,2.2,0.5L55.6,221.3z"/>
	<path id="XMLID_449_" class="st0" d="M65.4,224.3c0,2.2-0.9,4.3-3.7,4.3s-3.7-2.1-3.7-4.3c0-2.2,0.9-4.2,3.7-4.2
		S65.4,222.1,65.4,224.3L65.4,224.3z M61.7,227.8c1.9,0,2.8-1.3,2.8-3.6c0-2.2-0.9-3.5-2.8-3.5c-1.9,0-2.8,1.3-2.8,3.5
		C58.9,226.5,59.8,227.8,61.7,227.8L61.7,227.8z"/>
	<path id="XMLID_452_" class="st0" d="M71.9,220.1c1.8,0,3.1,1.2,3.1,4c0,2.3-0.8,4.4-3.3,4.4c-1,0-2-0.5-2.6-1.1v4.2h-0.8v-9.7
		c0-0.5-0.1-1-0.2-1.5l0.8-0.1c0.1,0.4,0.3,1,0.3,1.5C69.4,221.1,70.3,220.1,71.9,220.1L71.9,220.1z M69,225.6c0,0.3,0,0.7,0.1,1
		c0.4,0.5,1.2,1.2,2.5,1.2c1.8,0,2.5-1.3,2.5-3.7c0-1.8-0.7-3.2-2.3-3.2c-1.6,0-2.4,1.2-2.6,1.7c0,0.2-0.1,0.6-0.1,0.9V225.6z"/>
	<path id="XMLID_455_" class="st0" d="M81.5,220.2c1.7,0,2.5,1,2.5,2.9v5.2h-0.9v-5c0-1.2-0.3-2.4-1.9-2.4c-1,0-2.1,0.5-2.7,1.3v6.1
		h-0.9v-11.2l0.9-0.1v4.5C79.3,220.7,80.4,220.2,81.5,220.2z"/>
	<path id="XMLID_457_" class="st0" d="M94,224.3c0,2.2-0.9,4.3-3.7,4.3s-3.7-2.1-3.7-4.3c0-2.2,0.9-4.2,3.7-4.2S94,222.1,94,224.3
		L94,224.3z M90.4,227.8c1.9,0,2.8-1.3,2.8-3.6c0-2.2-0.9-3.5-2.8-3.5c-1.9,0-2.8,1.3-2.8,3.5C87.5,226.5,88.4,227.8,90.4,227.8
		L90.4,227.8z"/>
	<path id="XMLID_460_" class="st0" d="M100.5,220.2c1.1,0,1.9,0.5,2.2,1.3c0.8-0.8,2-1.3,3.1-1.3c1.7,0,2.5,1,2.5,2.9v5.2h-0.9v-5
		c0-1.2-0.3-2.4-1.9-2.4c-0.9,0-2,0.5-2.7,1.2c0.1,0.4,0.1,0.8,0.1,1.3v4.9h-0.8v-5c0-1.2-0.3-2.4-1.9-2.4c-0.9,0-2,0.5-2.6,1.3v6.2
		h-0.9v-6.5c0-0.5-0.1-1-0.2-1.5l0.8-0.1c0.1,0.4,0.2,0.9,0.3,1.3C98.3,220.7,99.5,220.2,100.5,220.2z"/>
	<path id="XMLID_462_" class="st0" d="M118.3,224.3c0,2.2-0.9,4.3-3.7,4.3s-3.7-2.1-3.7-4.3c0-2.2,0.9-4.2,3.7-4.2
		S118.3,222.1,118.3,224.3L118.3,224.3z M114.6,227.8c1.9,0,2.8-1.3,2.8-3.6c0-2.2-0.9-3.5-2.8-3.5c-1.9,0-2.8,1.3-2.8,3.5
		C111.8,226.5,112.7,227.8,114.6,227.8L114.6,227.8z"/>
	<path id="XMLID_465_" class="st0" d="M124.7,220.2l0,0.8c-1.1,0-2.2,0.5-2.7,1.6v5.8h-0.9v-5.8c0-0.9-0.1-1.7-0.2-2.2l0.8-0.1
		c0.2,0.4,0.3,1,0.3,1.5C122.4,220.7,123.5,220.2,124.7,220.2z"/>
	<path id="XMLID_467_" class="st0" d="M129.9,227.8c1,0,1.8-0.2,2.5-0.5l0.2,0.7c-0.6,0.3-1.6,0.5-2.7,0.5c-2.3,0-3.8-1.3-3.8-4.1
		c0-2.6,1.3-4.4,3.6-4.4c1.9,0,3.1,1.2,3.1,3.7v0.5h-5.8C126.8,226.8,128.2,227.8,129.9,227.8L129.9,227.8z M129.5,220.7
		c-1.4,0-2.4,1.2-2.6,2.8h5C131.9,221.7,131.1,220.7,129.5,220.7L129.5,220.7z"/>
	<path id="XMLID_470_" class="st0" d="M135.3,230.4l-0.6-0.1c0.5-1.2,0.8-2.9,0.9-3.9l0.9,0.1C136.3,227.6,135.8,229.4,135.3,230.4z
		"/>
	<path id="XMLID_472_" class="st0" d="M145,228.3h-0.9v-10.8h0.9V228.3z"/>
	<path id="XMLID_474_" class="st0" d="M152,221.1v-0.7h1.5v-0.4c0-1.6,0.4-3,2.4-3c0.3,0,0.9,0.1,1.4,0.2l-0.1,0.7
		c-0.4-0.1-0.9-0.2-1.1-0.2c-1.1,0-1.6,0.5-1.6,2.3v0.4h2.1v0.7h-2.1v7.3h-0.8v-7.3H152z"/>
	<path id="XMLID_476_" class="st0" d="M165,224.3c0,2.2-0.9,4.3-3.7,4.3s-3.7-2.1-3.7-4.3c0-2.2,0.9-4.2,3.7-4.2
		S165,222.1,165,224.3L165,224.3z M161.4,227.8c1.9,0,2.8-1.3,2.8-3.6c0-2.2-0.9-3.5-2.8-3.5c-1.9,0-2.8,1.3-2.8,3.5
		C158.6,226.5,159.5,227.8,161.4,227.8L161.4,227.8z"/>
	<path id="XMLID_479_" class="st0" d="M170.2,228.5c-1.7,0-2.5-1.1-2.5-2.9v-5.3h0.9v5.1c0,1.2,0.3,2.4,1.9,2.4c1,0,2.1-0.5,2.7-1.3
		v-6.2h0.9v6.3c0,0.6,0.1,1.2,0.2,1.7l-0.8,0.1c-0.2-0.4-0.3-0.9-0.3-1.2C172.4,228,171.3,228.5,170.2,228.5z"/>
	<path id="XMLID_481_" class="st0" d="M177.9,220.2c0.1,0.4,0.3,0.9,0.3,1.3c0.7-0.8,1.9-1.3,2.9-1.3c1.8,0,2.5,1,2.5,2.9v5.2h-0.9
		v-5c0-1.2-0.3-2.4-1.9-2.4c-1,0-2.1,0.5-2.7,1.3v6.2h-0.9v-6.5c0-0.5-0.1-1-0.2-1.5L177.9,220.2z"/>
	<path id="XMLID_483_" class="st0" d="M189.4,228.5c-1.7,0-3.1-1.2-3.1-3.9c0-2.3,0.8-4.4,3.3-4.4c1,0,2,0.5,2.6,1.1v-4.1l0.8-0.1
		v9.1c0,0.7,0.1,1.6,0.3,2.2l-0.8,0.2c-0.2-0.4-0.3-1-0.3-1.5C191.9,227.5,191.1,228.5,189.4,228.5L189.4,228.5z M192.3,223
		c0-0.3,0-0.7-0.1-1c-0.4-0.5-1.2-1.2-2.4-1.2c-1.8,0-2.6,1.3-2.6,3.7c0,1.8,0.7,3.2,2.3,3.2c1.6,0,2.4-1.2,2.7-1.7
		c0-0.2,0.1-0.6,0.1-0.9V223z"/>
	<path id="XMLID_486_" class="st0" d="M202.1,218.5h-1v-1h1V218.5z M202,228.3h-0.9v-8h0.9V228.3z"/>
	<path id="XMLID_489_" class="st0" d="M205.9,220.2c0.1,0.4,0.3,0.9,0.3,1.3c0.7-0.8,1.9-1.3,2.9-1.3c1.8,0,2.5,1,2.5,2.9v5.2h-0.9
		v-5c0-1.2-0.3-2.4-1.9-2.4c-1,0-2.1,0.5-2.7,1.3v6.2h-0.9v-6.5c0-0.5-0.1-1-0.2-1.5L205.9,220.2z"/>
	<path id="XMLID_491_" class="st0" d="M217.5,227.7v0.7l-0.5,0c-1.2,0.1-1.9-0.4-1.9-1.8v-5.5h-1.4v-0.7h1.4v-2l0.9-0.2v2.2h1.9v0.7
		h-1.9v5.3c0,1.1,0.3,1.3,1.2,1.3H217.5z"/>
	<path id="XMLID_493_" class="st0" d="M223.4,227.8c1,0,1.8-0.2,2.5-0.5l0.2,0.7c-0.6,0.3-1.6,0.5-2.7,0.5c-2.3,0-3.8-1.3-3.8-4.1
		c0-2.6,1.3-4.4,3.6-4.4c1.9,0,3.1,1.2,3.1,3.7v0.5h-5.8C220.2,226.8,221.6,227.8,223.4,227.8L223.4,227.8z M223,220.7
		c-1.4,0-2.4,1.2-2.6,2.8h5C225.3,221.7,224.6,220.7,223,220.7L223,220.7z"/>
	<path id="XMLID_496_" class="st0" d="M232.6,220.2l0,0.8c-1.1,0-2.2,0.5-2.7,1.6v5.8H229v-5.8c0-0.9-0.1-1.7-0.2-2.2l0.8-0.1
		c0.2,0.4,0.3,1,0.3,1.5C230.3,220.7,231.4,220.2,232.6,220.2z"/>
	<path id="XMLID_498_" class="st0" d="M240.3,228.3l-0.7,0.2c-0.4-0.4-0.6-1.1-0.6-1.6c-0.4,1.1-1.6,1.7-2.7,1.7
		c-1.3,0-2.6-0.7-2.6-2.4c0-1.8,0.9-2.4,5.2-2.7v-0.8c0-1.1-0.2-1.8-1.8-1.8c-0.9,0-1.8,0.3-2.5,0.7l-0.2-0.7
		c0.7-0.4,1.8-0.7,2.8-0.7c2,0,2.5,1,2.5,2.5v3.3C239.7,226.9,239.9,227.8,240.3,228.3z M234.5,226.1c0,1.4,1.2,1.7,1.9,1.7
		c1.4,0,2.2-0.9,2.5-1.9v-1.7C235.4,224.4,234.5,224.7,234.5,226.1z"/>
	<path id="XMLID_501_" class="st0" d="M242.3,224.4c0-2.5,1-4.4,3.8-4.4c0.7,0,1.3,0.1,1.9,0.3l-0.2,0.8c-0.5-0.2-1.1-0.3-1.7-0.3
		c-2.2,0-2.9,1.7-2.9,3.6c0,1.8,0.7,3.4,2.9,3.4c0.6,0,1.3-0.1,1.7-0.3l0.1,0.8c-0.5,0.2-1.2,0.3-1.9,0.3
		C243.2,228.6,242.3,226.6,242.3,224.4L242.3,224.4z"/>
	<path id="XMLID_503_" class="st0" d="M253,227.7v0.7l-0.5,0c-1.2,0.1-1.9-0.4-1.9-1.8v-5.5h-1.4v-0.7h1.4v-2l0.9-0.2v2.2h1.9v0.7
		h-1.9v5.3c0,1.1,0.3,1.3,1.2,1.3H253z"/>
	<path id="XMLID_505_" class="st0" d="M256.4,218.5h-1v-1h1V218.5z M256.3,228.3h-0.9v-8h0.9V228.3z"/>
	<path id="XMLID_508_" class="st0" d="M264.7,220.3h0.9l-3.2,8h-0.8l-3.2-8h0.9l2.7,6.9L264.7,220.3z"/>
	<path id="XMLID_510_" class="st0" d="M271.1,227.8c1,0,1.8-0.2,2.5-0.5l0.2,0.7c-0.6,0.3-1.6,0.5-2.7,0.5c-2.3,0-3.8-1.3-3.8-4.1
		c0-2.6,1.3-4.4,3.6-4.4c1.9,0,3.1,1.2,3.1,3.7v0.5h-5.8C267.9,226.8,269.3,227.8,271.1,227.8L271.1,227.8z M270.7,220.7
		c-1.4,0-2.4,1.2-2.6,2.8h5C273.1,221.7,272.3,220.7,270.7,220.7L270.7,220.7z"/>
	<path id="XMLID_513_" class="st0" d="M284,228.5c-1.7,0-3.1-1.2-3.1-3.9c0-2.3,0.8-4.4,3.3-4.4c1,0,2,0.5,2.6,1.1v-4.1l0.8-0.1v9.1
		c0,0.7,0.1,1.6,0.3,2.2l-0.8,0.2c-0.2-0.4-0.3-1-0.3-1.5C286.6,227.5,285.7,228.5,284,228.5L284,228.5z M286.9,223
		c0-0.3,0-0.7-0.1-1c-0.4-0.5-1.2-1.2-2.4-1.2c-1.8,0-2.6,1.3-2.6,3.7c0,1.8,0.7,3.2,2.3,3.2c1.6,0,2.4-1.2,2.7-1.7
		c0-0.2,0.1-0.6,0.1-0.9V223z"/>
	<path id="XMLID_516_" class="st0" d="M294.3,227.8c1,0,1.8-0.2,2.5-0.5l0.2,0.7c-0.6,0.3-1.6,0.5-2.7,0.5c-2.3,0-3.8-1.3-3.8-4.1
		c0-2.6,1.3-4.4,3.6-4.4c1.9,0,3.1,1.2,3.1,3.7v0.5h-5.8C291.2,226.8,292.6,227.8,294.3,227.8L294.3,227.8z M293.9,220.7
		c-1.4,0-2.4,1.2-2.6,2.8h5C296.3,221.7,295.5,220.7,293.9,220.7L293.9,220.7z"/>
	<path id="XMLID_519_" class="st0" d="M303.8,221.3c-0.5-0.3-1.3-0.5-2-0.5c-0.6,0-1.6,0.3-1.6,1.4c0,0.8,0.5,1.1,1.7,1.6
		c1.3,0.5,2.3,1.1,2.3,2.4c0,1.8-1.3,2.3-2.5,2.3c-0.8,0-2-0.2-2.7-0.5l0.2-0.7c0.7,0.3,1.6,0.5,2.4,0.5c0.9,0,1.7-0.3,1.7-1.5
		c0-0.9-0.7-1.3-2-1.8c-1.2-0.5-2-0.9-2-2.2c0-1.6,1.4-2.1,2.5-2.1c0.8,0,1.7,0.2,2.2,0.5L303.8,221.3z"/>
	<path id="XMLID_521_" class="st0" d="M307.7,218.5h-1v-1h1V218.5z M307.7,228.3h-0.9v-8h0.9V228.3z"/>
	<path id="XMLID_524_" class="st0" d="M313.8,230.9c1.8,0,2.5-1.1,2.5-2.3v-1.6c-0.4,0.6-1.2,1.6-2.8,1.6c-1.8,0-3.1-1.2-3.1-3.9
		c0-2.3,0.8-4.4,3.3-4.4c1.1,0,2.1,0.5,2.6,1.1c0-0.2,0.1-0.7,0.1-1h0.8c-0.1,0.4-0.1,1-0.1,1.4v6.9c0,1.8-1.2,2.9-3.3,2.9
		c-1,0-2.1-0.3-3-0.7l0.2-0.7C311.8,230.5,312.9,230.9,313.8,230.9z M316.3,223c0-0.3,0-0.7-0.1-1c-0.4-0.5-1.3-1.2-2.4-1.2
		c-1.8,0-2.6,1.3-2.6,3.7c0,1.8,0.7,3.2,2.3,3.2c1.6,0,2.4-1.2,2.7-1.7c0-0.2,0.1-0.6,0.1-0.9V223z"/>
	<path id="XMLID_527_" class="st0" d="M321,220.2c0.1,0.4,0.3,0.9,0.3,1.3c0.7-0.8,1.9-1.3,2.9-1.3c1.8,0,2.5,1,2.5,2.9v5.2h-0.9v-5
		c0-1.2-0.3-2.4-1.9-2.4c-1,0-2.1,0.5-2.7,1.3v6.2h-0.9v-6.5c0-0.5-0.1-1-0.2-1.5L321,220.2z"/>
	<path id="XMLID_529_" class="st0" d="M341.6,224.3c0,2.2-0.9,4.3-3.7,4.3s-3.7-2.1-3.7-4.3c0-2.2,0.9-4.2,3.7-4.2
		S341.6,222.1,341.6,224.3L341.6,224.3z M337.9,227.8c1.9,0,2.8-1.3,2.8-3.6c0-2.2-0.9-3.5-2.8-3.5c-1.9,0-2.8,1.3-2.8,3.5
		C335.1,226.5,336,227.8,337.9,227.8L337.9,227.8z"/>
	<path id="XMLID_532_" class="st0" d="M343.1,221.1v-0.7h1.5v-0.4c0-1.6,0.4-3,2.4-3c0.3,0,0.9,0.1,1.4,0.2l-0.1,0.7
		c-0.4-0.1-0.9-0.2-1.1-0.2c-1.1,0-1.6,0.5-1.6,2.3v0.4h2.1v0.7h-2.1v7.3h-0.8v-7.3H343.1z"/>
	<path id="XMLID_534_" class="st0" d="M356.9,227.7v0.7l-0.5,0c-1.2,0.1-1.9-0.4-1.9-1.8v-5.5H353v-0.7h1.4v-2l0.9-0.2v2.2h1.9v0.7
		h-1.9v5.3c0,1.1,0.3,1.3,1.2,1.3H356.9z"/>
	<path id="XMLID_536_" class="st0" d="M363.1,220.2c1.7,0,2.5,1,2.5,2.9v5.2h-0.9v-5c0-1.2-0.3-2.4-1.9-2.4c-1,0-2.1,0.5-2.7,1.3
		v6.1h-0.9v-11.2l0.9-0.1v4.5C360.9,220.7,362.1,220.2,363.1,220.2z"/>
	<path id="XMLID_538_" class="st0" d="M372.2,227.8c1,0,1.8-0.2,2.5-0.5l0.2,0.7c-0.6,0.3-1.6,0.5-2.7,0.5c-2.3,0-3.8-1.3-3.8-4.1
		c0-2.6,1.3-4.4,3.6-4.4c1.9,0,3.1,1.2,3.1,3.7v0.5h-5.8C369,226.8,370.4,227.8,372.2,227.8L372.2,227.8z M371.8,220.7
		c-1.4,0-2.4,1.2-2.6,2.8h5C374.2,221.7,373.4,220.7,371.8,220.7L371.8,220.7z"/>
	<path id="XMLID_541_" class="st0" d="M392.6,220.3h0.9l-2.7,8h-0.8l-2.5-6.9l-2.5,6.9h-0.8l-2.7-8h0.9l2.3,6.9l2.4-6.8h0.8l2.5,6.8
		L392.6,220.3z"/>
	<path id="XMLID_543_" class="st0" d="M399,227.8c1,0,1.8-0.2,2.5-0.5l0.2,0.7c-0.6,0.3-1.6,0.5-2.7,0.5c-2.3,0-3.8-1.3-3.8-4.1
		c0-2.6,1.3-4.4,3.6-4.4c1.9,0,3.1,1.2,3.1,3.7v0.5H396C395.8,226.8,397.2,227.8,399,227.8L399,227.8z M398.6,220.7
		c-1.4,0-2.4,1.2-2.6,2.8h5C401,221.7,400.2,220.7,398.6,220.7L398.6,220.7z"/>
	<path id="XMLID_546_" class="st0" d="M404.5,228.3v-11.2l0.9-0.1v4.7c0.4-0.6,1.2-1.6,2.8-1.6c1.8,0,3.1,1.2,3.1,4
		c0,2.3-0.8,4.4-3.3,4.4c-1,0-2.1-0.5-2.6-1.1l-0.1,1H404.5z M405.4,225.6c0,0.3,0,0.7,0.1,1c0.4,0.5,1.2,1.2,2.4,1.2
		c1.8,0,2.6-1.3,2.6-3.7c0-1.8-0.7-3.2-2.3-3.2c-1.6,0-2.4,1.2-2.6,1.7c0,0.2-0.1,0.6-0.1,0.9V225.6z"/>
	<path id="XMLID_549_" class="st0" d="M418,221.3c-0.5-0.3-1.3-0.5-2-0.5c-0.6,0-1.6,0.3-1.6,1.4c0,0.8,0.5,1.1,1.7,1.6
		c1.3,0.5,2.3,1.1,2.3,2.4c0,1.8-1.3,2.3-2.5,2.3c-0.8,0-2-0.2-2.7-0.5l0.2-0.7c0.7,0.3,1.6,0.5,2.4,0.5c0.9,0,1.7-0.3,1.7-1.5
		c0-0.9-0.7-1.3-2-1.8c-1.2-0.5-2-0.9-2-2.2c0-1.6,1.4-2.1,2.5-2.1c0.8,0,1.7,0.2,2.2,0.5L418,221.3z"/>
	<path id="XMLID_551_" class="st0" d="M421.9,218.5h-1v-1h1V218.5z M421.8,228.3H421v-8h0.9V228.3z"/>
	<path id="XMLID_554_" class="st0" d="M427.8,227.7v0.7l-0.5,0c-1.2,0.1-1.9-0.4-1.9-1.8v-5.5h-1.4v-0.7h1.4v-2l0.9-0.2v2.2h1.9v0.7
		h-1.9v5.3c0,1.1,0.3,1.3,1.2,1.3H427.8z"/>
	<path id="XMLID_556_" class="st0" d="M433.6,227.8c1,0,1.8-0.2,2.5-0.5l0.2,0.7c-0.6,0.3-1.6,0.5-2.7,0.5c-2.3,0-3.8-1.3-3.8-4.1
		c0-2.6,1.3-4.4,3.6-4.4c1.9,0,3.1,1.2,3.1,3.7v0.5h-5.8C430.4,226.8,431.8,227.8,433.6,227.8L433.6,227.8z M433.2,220.7
		c-1.4,0-2.4,1.2-2.6,2.8h5C435.6,221.7,434.8,220.7,433.2,220.7L433.2,220.7z"/>
	<path id="XMLID_559_" class="st0" d="M454,220.3h0.9l-2.7,8h-0.8l-2.5-6.9l-2.5,6.9h-0.8l-2.7-8h0.9l2.3,6.9l2.4-6.8h0.8l2.5,6.8
		L454,220.3z"/>
	<path id="XMLID_561_" class="st0" d="M462.9,228.3l-0.7,0.2c-0.4-0.4-0.6-1.1-0.6-1.6c-0.4,1.1-1.6,1.7-2.7,1.7
		c-1.3,0-2.6-0.7-2.6-2.4c0-1.8,0.9-2.4,5.2-2.7v-0.8c0-1.1-0.2-1.8-1.8-1.8c-0.9,0-1.8,0.3-2.5,0.7l-0.2-0.7
		c0.7-0.4,1.8-0.7,2.8-0.7c2,0,2.5,1,2.5,2.5v3.3C462.2,226.9,462.5,227.8,462.9,228.3z M457.1,226.1c0,1.4,1.2,1.7,1.9,1.7
		c1.4,0,2.2-0.9,2.5-1.9v-1.7C458,224.4,457.1,224.7,457.1,226.1z"/>
	<path id="XMLID_564_" class="st0" d="M469.4,221.3c-0.5-0.3-1.3-0.5-2-0.5c-0.6,0-1.6,0.3-1.6,1.4c0,0.8,0.5,1.1,1.7,1.6
		c1.3,0.5,2.3,1.1,2.3,2.4c0,1.8-1.3,2.3-2.5,2.3c-0.8,0-2-0.2-2.7-0.5l0.2-0.7c0.7,0.3,1.6,0.5,2.4,0.5c0.9,0,1.7-0.3,1.7-1.5
		c0-0.9-0.7-1.3-2-1.8c-1.2-0.5-2-0.9-2-2.2c0-1.6,1.4-2.1,2.5-2.1c0.8,0,1.7,0.2,2.2,0.5L469.4,221.3z"/>
	<path id="XMLID_566_" class="st0" d="M481.2,221.3c-0.5-0.3-1.3-0.5-2-0.5c-0.6,0-1.6,0.3-1.6,1.4c0,0.8,0.5,1.1,1.7,1.6
		c1.3,0.5,2.3,1.1,2.3,2.4c0,1.8-1.3,2.3-2.5,2.3c-0.8,0-2-0.2-2.7-0.5l0.2-0.7c0.7,0.3,1.6,0.5,2.4,0.5c0.9,0,1.7-0.3,1.7-1.5
		c0-0.9-0.7-1.3-2-1.8c-1.2-0.5-2-0.9-2-2.2c0-1.6,1.4-2.1,2.5-2.1c0.8,0,1.7,0.2,2.2,0.5L481.2,221.3z"/>
	<path id="XMLID_568_" class="st0" d="M491,224.3c0,2.2-0.9,4.3-3.7,4.3s-3.7-2.1-3.7-4.3c0-2.2,0.9-4.2,3.7-4.2
		S491,222.1,491,224.3L491,224.3z M487.3,227.8c1.9,0,2.8-1.3,2.8-3.6c0-2.2-0.9-3.5-2.8-3.5c-1.9,0-2.8,1.3-2.8,3.5
		C484.5,226.5,485.4,227.8,487.3,227.8L487.3,227.8z"/>
	<path id="XMLID_571_" class="st0" d="M499.5,218.5h-1v-1h1V218.5z M499.4,228.3h-0.9v-8h0.9V228.3z"/>
	<path id="XMLID_574_" class="st0" d="M503.3,220.2c0.1,0.4,0.3,0.9,0.3,1.3c0.7-0.8,1.9-1.3,2.9-1.3c1.8,0,2.5,1,2.5,2.9v5.2h-0.9
		v-5c0-1.2-0.3-2.4-1.9-2.4c-1,0-2.1,0.5-2.7,1.3v6.2h-0.9v-6.5c0-0.5-0.1-1-0.2-1.5L503.3,220.2z"/>
	<path id="XMLID_576_" class="st0" d="M514.9,227.7v0.7l-0.5,0c-1.2,0.1-1.9-0.4-1.9-1.8v-5.5H511v-0.7h1.4v-2l0.9-0.2v2.2h1.9v0.7
		h-1.9v5.3c0,1.1,0.3,1.3,1.2,1.3H514.9z"/>
	<path id="XMLID_578_" class="st0" d="M520.7,227.8c1,0,1.8-0.2,2.5-0.5l0.2,0.7c-0.6,0.3-1.6,0.5-2.7,0.5c-2.3,0-3.8-1.3-3.8-4.1
		c0-2.6,1.3-4.4,3.6-4.4c1.9,0,3.1,1.2,3.1,3.7v0.5h-5.8C517.5,226.8,518.9,227.8,520.7,227.8L520.7,227.8z M520.3,220.7
		c-1.4,0-2.4,1.2-2.6,2.8h5C522.7,221.7,521.9,220.7,520.3,220.7L520.3,220.7z"/>
	<path id="XMLID_581_" class="st0" d="M529.9,220.2l0,0.8c-1.1,0-2.2,0.5-2.7,1.6v5.8h-0.9v-5.8c0-0.9-0.1-1.7-0.2-2.2l0.8-0.1
		c0.2,0.4,0.3,1,0.3,1.5C527.6,220.7,528.8,220.2,529.9,220.2z"/>
	<path id="XMLID_583_" class="st0" d="M534.2,223.3v0.7H531v-0.7H534.2z"/>
	<path id="XMLID_585_" class="st0" d="M55,247.8c1,0,1.8-0.2,2.5-0.5l0.2,0.7c-0.6,0.3-1.6,0.5-2.7,0.5c-2.3,0-3.8-1.3-3.8-4.1
		c0-2.6,1.3-4.4,3.6-4.4c1.9,0,3.1,1.2,3.1,3.7v0.5H52C51.8,246.8,53.2,247.8,55,247.8L55,247.8z M54.6,240.7
		c-1.4,0-2.4,1.2-2.6,2.8h5C57,241.7,56.2,240.7,54.6,240.7L54.6,240.7z"/>
	<path id="XMLID_588_" class="st0" d="M64.5,241.3c-0.5-0.3-1.3-0.5-2-0.5c-0.6,0-1.6,0.3-1.6,1.4c0,0.8,0.5,1.1,1.7,1.6
		c1.3,0.5,2.3,1.1,2.3,2.4c0,1.8-1.3,2.3-2.5,2.3c-0.8,0-2-0.2-2.7-0.5l0.2-0.7c0.7,0.3,1.6,0.5,2.4,0.5c0.9,0,1.7-0.3,1.7-1.5
		c0-0.9-0.7-1.3-2-1.8c-1.2-0.5-2-0.9-2-2.2c0-1.6,1.4-2.1,2.5-2.1c0.8,0,1.7,0.2,2.2,0.5L64.5,241.3z"/>
	<path id="XMLID_590_" class="st0" d="M70.2,247.7v0.7l-0.5,0c-1.2,0.1-1.9-0.4-1.9-1.8v-5.5h-1.4v-0.7h1.4v-2l0.9-0.2v2.2h1.9v0.7
		h-1.9v5.3c0,1.1,0.3,1.3,1.2,1.3H70.2z"/>
	<path id="XMLID_592_" class="st0" d="M73.5,238.5h-1v-1h1V238.5z M73.5,248.3h-0.9v-8h0.9V248.3z"/>
	<path id="XMLID_595_" class="st0" d="M77.4,240.2c0.1,0.4,0.3,0.9,0.3,1.3c0.7-0.8,1.9-1.3,2.9-1.3c1.8,0,2.5,1,2.5,2.9v5.2h-0.9
		v-5c0-1.2-0.3-2.4-1.9-2.4c-1,0-2.1,0.5-2.7,1.3v6.2h-0.9v-6.5c0-0.5-0.1-1-0.2-1.5L77.4,240.2z"/>
	<path id="XMLID_597_" class="st0" d="M89.2,250.9c1.8,0,2.5-1.1,2.5-2.3v-1.6c-0.4,0.6-1.2,1.6-2.8,1.6c-1.8,0-3.1-1.2-3.1-3.9
		c0-2.3,0.8-4.4,3.3-4.4c1.1,0,2.1,0.5,2.6,1.1c0-0.2,0.1-0.7,0.1-1h0.8c-0.1,0.4-0.1,1-0.1,1.4v6.9c0,1.8-1.2,2.9-3.3,2.9
		c-1,0-2.1-0.3-3-0.7l0.2-0.7C87.2,250.5,88.2,250.9,89.2,250.9z M91.7,243c0-0.3,0-0.7-0.1-1c-0.4-0.5-1.3-1.2-2.4-1.2
		c-1.8,0-2.6,1.3-2.6,3.7c0,1.8,0.7,3.2,2.3,3.2c1.6,0,2.4-1.2,2.7-1.7c0-0.2,0.1-0.6,0.1-0.9V243z"/>
	<path id="XMLID_600_" class="st0" d="M108.1,248.3l-0.7,0.2c-0.4-0.4-0.6-1.1-0.6-1.6c-0.4,1.1-1.6,1.7-2.7,1.7
		c-1.3,0-2.6-0.7-2.6-2.4c0-1.8,0.9-2.4,5.2-2.7v-0.8c0-1.1-0.2-1.8-1.8-1.8c-0.9,0-1.8,0.3-2.5,0.7l-0.2-0.7
		c0.7-0.4,1.8-0.7,2.8-0.7c2,0,2.5,1,2.5,2.5v3.3C107.5,246.9,107.7,247.8,108.1,248.3z M102.3,246.1c0,1.4,1.2,1.7,1.9,1.7
		c1.4,0,2.2-0.9,2.5-1.9v-1.7C103.3,244.4,102.3,244.7,102.3,246.1z"/>
	<path id="XMLID_603_" class="st0" d="M111.3,240.2c0.1,0.4,0.3,0.9,0.3,1.3c0.7-0.8,1.9-1.3,2.9-1.3c1.8,0,2.5,1,2.5,2.9v5.2h-0.9
		v-5c0-1.2-0.3-2.4-1.9-2.4c-1,0-2.1,0.5-2.7,1.3v6.2h-0.9v-6.5c0-0.5-0.1-1-0.2-1.5L111.3,240.2z"/>
	<path id="XMLID_605_" class="st0" d="M122.7,248.5c-1.7,0-3.1-1.2-3.1-3.9c0-2.3,0.8-4.4,3.3-4.4c1,0,2,0.5,2.6,1.1v-4.1l0.8-0.1
		v9.1c0,0.7,0.1,1.6,0.3,2.2l-0.8,0.2c-0.2-0.4-0.3-1-0.3-1.5C125.3,247.5,124.4,248.5,122.7,248.5L122.7,248.5z M125.6,243
		c0-0.3,0-0.7-0.1-1c-0.4-0.5-1.2-1.2-2.4-1.2c-1.8,0-2.6,1.3-2.6,3.7c0,1.8,0.7,3.2,2.3,3.2c1.6,0,2.4-1.2,2.7-1.7
		c0-0.2,0.1-0.6,0.1-0.9V243z"/>
	<path id="XMLID_608_" class="st0" d="M135,241.1v-0.7h1.5v-0.4c0-1.6,0.4-3,2.4-3c0.3,0,0.9,0.1,1.4,0.2l-0.1,0.7
		c-0.4-0.1-0.9-0.2-1.1-0.2c-1.1,0-1.6,0.5-1.6,2.3v0.4h2.1v0.7h-2.1v7.3h-0.8v-7.3H135z"/>
	<path id="XMLID_610_" class="st0" d="M147.1,248.3l-0.7,0.2c-0.4-0.4-0.6-1.1-0.6-1.6c-0.4,1.1-1.6,1.7-2.7,1.7
		c-1.3,0-2.6-0.7-2.6-2.4c0-1.8,0.9-2.4,5.2-2.7v-0.8c0-1.1-0.2-1.8-1.8-1.8c-0.9,0-1.8,0.3-2.5,0.7l-0.2-0.7
		c0.7-0.4,1.8-0.7,2.8-0.7c2,0,2.5,1,2.5,2.5v3.3C146.4,246.9,146.7,247.8,147.1,248.3z M141.2,246.1c0,1.4,1.2,1.7,1.9,1.7
		c1.4,0,2.2-0.9,2.5-1.9v-1.7C142.2,244.4,141.2,244.7,141.2,246.1z"/>
	<path id="XMLID_613_" class="st0" d="M153.6,241.3c-0.5-0.3-1.3-0.5-2-0.5c-0.6,0-1.6,0.3-1.6,1.4c0,0.8,0.5,1.1,1.7,1.6
		c1.3,0.5,2.3,1.1,2.3,2.4c0,1.8-1.3,2.3-2.5,2.3c-0.8,0-2-0.2-2.7-0.5l0.2-0.7c0.7,0.3,1.6,0.5,2.4,0.5c0.9,0,1.7-0.3,1.7-1.5
		c0-0.9-0.7-1.3-2-1.8c-1.2-0.5-2-0.9-2-2.2c0-1.6,1.4-2.1,2.5-2.1c0.8,0,1.7,0.2,2.2,0.5L153.6,241.3z"/>
	<path id="XMLID_615_" class="st0" d="M156,244.4c0-2.5,1-4.4,3.8-4.4c0.7,0,1.3,0.1,1.9,0.3l-0.2,0.8c-0.5-0.2-1.1-0.3-1.7-0.3
		c-2.2,0-2.9,1.7-2.9,3.6c0,1.8,0.7,3.4,2.9,3.4c0.6,0,1.3-0.1,1.7-0.3l0.1,0.8c-0.5,0.2-1.2,0.3-1.9,0.3
		C156.9,248.6,156,246.6,156,244.4L156,244.4z"/>
	<path id="XMLID_617_" class="st0" d="M165,238.5h-1v-1h1V238.5z M164.9,248.3h-0.9v-8h0.9V248.3z"/>
	<path id="XMLID_620_" class="st0" d="M168.8,240.2c0.1,0.4,0.3,0.9,0.3,1.3c0.7-0.8,1.9-1.3,2.9-1.3c1.8,0,2.5,1,2.5,2.9v5.2h-0.9
		v-5c0-1.2-0.3-2.4-1.9-2.4c-1,0-2.1,0.5-2.7,1.3v6.2h-0.9v-6.5c0-0.5-0.1-1-0.2-1.5L168.8,240.2z"/>
	<path id="XMLID_622_" class="st0" d="M183.5,248.3l-0.7,0.2c-0.4-0.4-0.6-1.1-0.6-1.6c-0.4,1.1-1.6,1.7-2.7,1.7
		c-1.3,0-2.6-0.7-2.6-2.4c0-1.8,0.9-2.4,5.2-2.7v-0.8c0-1.1-0.2-1.8-1.8-1.8c-0.9,0-1.8,0.3-2.5,0.7l-0.2-0.7
		c0.7-0.4,1.8-0.7,2.8-0.7c2,0,2.5,1,2.5,2.5v3.3C182.9,246.9,183.1,247.8,183.5,248.3z M177.7,246.1c0,1.4,1.2,1.7,1.9,1.7
		c1.4,0,2.2-0.9,2.5-1.9v-1.7C178.7,244.4,177.7,244.7,177.7,246.1z"/>
	<path id="XMLID_625_" class="st0" d="M188.8,247.7v0.7l-0.5,0c-1.2,0.1-1.9-0.4-1.9-1.8v-5.5h-1.4v-0.7h1.4v-2l0.9-0.2v2.2h1.9v0.7
		h-1.9v5.3c0,1.1,0.3,1.3,1.2,1.3H188.8z"/>
	<path id="XMLID_627_" class="st0" d="M192.2,238.5h-1v-1h1V238.5z M192.1,248.3h-0.9v-8h0.9V248.3z"/>
	<path id="XMLID_630_" class="st0" d="M196,240.2c0.1,0.4,0.3,0.9,0.3,1.3c0.7-0.8,1.9-1.3,2.9-1.3c1.8,0,2.5,1,2.5,2.9v5.2h-0.9v-5
		c0-1.2-0.3-2.4-1.9-2.4c-1,0-2.1,0.5-2.7,1.3v6.2h-0.9v-6.5c0-0.5-0.1-1-0.2-1.5L196,240.2z"/>
	<path id="XMLID_632_" class="st0" d="M207.8,250.9c1.8,0,2.5-1.1,2.5-2.3v-1.6c-0.4,0.6-1.2,1.6-2.8,1.6c-1.8,0-3.1-1.2-3.1-3.9
		c0-2.3,0.8-4.4,3.3-4.4c1.1,0,2.1,0.5,2.6,1.1c0-0.2,0.1-0.7,0.1-1h0.8c-0.1,0.4-0.1,1-0.1,1.4v6.9c0,1.8-1.2,2.9-3.3,2.9
		c-1,0-2.1-0.3-3-0.7l0.2-0.7C205.8,250.5,206.9,250.9,207.8,250.9z M210.3,243c0-0.3,0-0.7-0.1-1c-0.4-0.5-1.3-1.2-2.4-1.2
		c-1.8,0-2.6,1.3-2.6,3.7c0,1.8,0.7,3.2,2.3,3.2c1.6,0,2.4-1.2,2.7-1.7c0-0.2,0.1-0.6,0.1-0.9V243z"/>
	<path id="XMLID_635_" class="st0" d="M215.1,248.3h-1.1v-1.2h1.1V248.3z"/>
	<path id="XMLID_637_" class="st0" d="M225.6,248.3h-0.9v-10.8h0.9V248.3z"/>
	<path id="XMLID_639_" class="st0" d="M229.2,239.8l-0.6-0.1c0.3-0.9,0.6-2.1,0.7-2.8l0.8,0.1C230,237.8,229.5,239,229.2,239.8z"/>
	<path id="XMLID_641_" class="st0" d="M238.5,240.2c1.1,0,1.9,0.5,2.2,1.3c0.8-0.8,2-1.3,3.1-1.3c1.7,0,2.5,1,2.5,2.9v5.2h-0.9v-5
		c0-1.2-0.3-2.4-1.9-2.4c-0.9,0-2,0.5-2.7,1.2c0.1,0.4,0.1,0.8,0.1,1.3v4.9h-0.8v-5c0-1.2-0.3-2.4-1.9-2.4c-0.9,0-2,0.5-2.6,1.3v6.2
		h-0.9v-6.5c0-0.5-0.1-1-0.2-1.5l0.8-0.1c0.1,0.4,0.2,0.9,0.3,1.3C236.4,240.7,237.5,240.2,238.5,240.2z"/>
	<path id="XMLID_643_" class="st0" d="M257,238.5h-1v-1h1V238.5z M256.9,248.3H256v-8h0.9V248.3z"/>
	<path id="XMLID_646_" class="st0" d="M260.8,240.2c0.1,0.4,0.3,0.9,0.3,1.3c0.7-0.8,1.9-1.3,2.9-1.3c1.8,0,2.5,1,2.5,2.9v5.2h-0.9
		v-5c0-1.2-0.3-2.4-1.9-2.4c-1,0-2.1,0.5-2.7,1.3v6.2h-0.9v-6.5c0-0.5-0.1-1-0.2-1.5L260.8,240.2z"/>
	<path id="XMLID_648_" class="st0" d="M272.4,247.7v0.7l-0.5,0c-1.2,0.1-1.9-0.4-1.9-1.8v-5.5h-1.4v-0.7h1.4v-2l0.9-0.2v2.2h1.9v0.7
		h-1.9v5.3c0,1.1,0.3,1.3,1.2,1.3H272.4z"/>
	<path id="XMLID_650_" class="st0" d="M278.2,247.8c1,0,1.8-0.2,2.5-0.5l0.2,0.7c-0.6,0.3-1.6,0.5-2.7,0.5c-2.3,0-3.8-1.3-3.8-4.1
		c0-2.6,1.3-4.4,3.6-4.4c1.9,0,3.1,1.2,3.1,3.7v0.5h-5.8C275,246.8,276.4,247.8,278.2,247.8L278.2,247.8z M277.8,240.7
		c-1.4,0-2.4,1.2-2.6,2.8h5C280.2,241.7,279.4,240.7,277.8,240.7L277.8,240.7z"/>
	<path id="XMLID_653_" class="st0" d="M287.4,240.2l0,0.8c-1.1,0-2.2,0.5-2.7,1.6v5.8h-0.9v-5.8c0-0.9-0.1-1.7-0.2-2.2l0.8-0.1
		c0.2,0.4,0.3,1,0.3,1.5C285.1,240.7,286.2,240.2,287.4,240.2z"/>
	<path id="XMLID_655_" class="st0" d="M292.7,247.8c1,0,1.8-0.2,2.5-0.5l0.2,0.7c-0.6,0.3-1.6,0.5-2.7,0.5c-2.3,0-3.8-1.3-3.8-4.1
		c0-2.6,1.3-4.4,3.6-4.4c1.9,0,3.1,1.2,3.1,3.7v0.5h-5.8C289.5,246.8,290.9,247.8,292.7,247.8L292.7,247.8z M292.3,240.7
		c-1.4,0-2.4,1.2-2.6,2.8h5C294.6,241.7,293.9,240.7,292.3,240.7L292.3,240.7z"/>
	<path id="XMLID_658_" class="st0" d="M302.1,241.3c-0.5-0.3-1.3-0.5-2-0.5c-0.6,0-1.6,0.3-1.6,1.4c0,0.8,0.5,1.1,1.7,1.6
		c1.3,0.5,2.3,1.1,2.3,2.4c0,1.8-1.3,2.3-2.5,2.3c-0.8,0-2-0.2-2.7-0.5l0.2-0.7c0.7,0.3,1.6,0.5,2.4,0.5c0.9,0,1.7-0.3,1.7-1.5
		c0-0.9-0.7-1.3-2-1.8c-1.2-0.5-2-0.9-2-2.2c0-1.6,1.4-2.1,2.5-2.1c0.8,0,1.7,0.2,2.2,0.5L302.1,241.3z"/>
	<path id="XMLID_660_" class="st0" d="M307.8,247.7v0.7l-0.5,0c-1.2,0.1-1.9-0.4-1.9-1.8v-5.5h-1.4v-0.7h1.4v-2l0.9-0.2v2.2h1.9v0.7
		h-1.9v5.3c0,1.1,0.3,1.3,1.2,1.3H307.8z"/>
	<path id="XMLID_662_" class="st0" d="M313.6,247.8c1,0,1.8-0.2,2.5-0.5l0.2,0.7c-0.6,0.3-1.6,0.5-2.7,0.5c-2.3,0-3.8-1.3-3.8-4.1
		c0-2.6,1.3-4.4,3.6-4.4c1.9,0,3.1,1.2,3.1,3.7v0.5h-5.8C310.5,246.8,311.9,247.8,313.6,247.8L313.6,247.8z M313.2,240.7
		c-1.4,0-2.4,1.2-2.6,2.8h5C315.6,241.7,314.8,240.7,313.2,240.7L313.2,240.7z"/>
	<path id="XMLID_665_" class="st0" d="M321.7,248.5c-1.7,0-3.1-1.2-3.1-3.9c0-2.3,0.8-4.4,3.3-4.4c1,0,2,0.5,2.6,1.1v-4.1l0.8-0.1
		v9.1c0,0.7,0.1,1.6,0.3,2.2l-0.8,0.2c-0.2-0.4-0.3-1-0.3-1.5C324.3,247.5,323.4,248.5,321.7,248.5L321.7,248.5z M324.6,243
		c0-0.3,0-0.7-0.1-1c-0.4-0.5-1.2-1.2-2.4-1.2c-1.8,0-2.6,1.3-2.6,3.7c0,1.8,0.7,3.2,2.3,3.2c1.6,0,2.4-1.2,2.7-1.7
		c0-0.2,0.1-0.6,0.1-0.9V243z"/>
	<path id="XMLID_668_" class="st0" d="M336.1,238.5h-1v-1h1V238.5z M336.1,248.3h-0.9v-8h0.9V248.3z"/>
	<path id="XMLID_671_" class="st0" d="M339.9,240.2c0.1,0.4,0.3,0.9,0.3,1.3c0.7-0.8,1.9-1.3,2.9-1.3c1.8,0,2.5,1,2.5,2.9v5.2h-0.9
		v-5c0-1.2-0.3-2.4-1.9-2.4c-1,0-2.1,0.5-2.7,1.3v6.2h-0.9v-6.5c0-0.5-0.1-1-0.2-1.5L339.9,240.2z"/>
	<path id="XMLID_673_" class="st1" d="M359.3,248.5c-2.6,0-4-1.6-4-3.7v-7.3h0.9v7c0,1.7,0.8,3.2,3.2,3.2c2.4,0,3.2-1.5,3.2-3.2v-7
		h0.9v7.3C363.4,247,362,248.5,359.3,248.5L359.3,248.5z"/>
	<path id="XMLID_675_" class="st1" d="M374.7,248.3h-1.1l-3.4-4.8l-3.4,4.8h-1.1l4-5.4l-3.9-5.3h1.1l3.3,4.7l3.3-4.7h1.1l-3.9,5.3
		L374.7,248.3z"/>
	<path id="XMLID_677_" class="st1" d="M386.1,248.5c-1.7,0-3.1-1.2-3.1-3.9c0-2.3,0.8-4.4,3.3-4.4c1,0,2,0.5,2.6,1.1v-4.1l0.8-0.1
		v9.1c0,0.7,0.1,1.6,0.3,2.2l-0.8,0.2c-0.2-0.4-0.3-1-0.3-1.5C388.6,247.5,387.8,248.5,386.1,248.5L386.1,248.5z M388.9,243
		c0-0.3,0-0.7-0.1-1c-0.4-0.5-1.2-1.2-2.4-1.2c-1.8,0-2.6,1.3-2.6,3.7c0,1.8,0.7,3.2,2.3,3.2c1.6,0,2.4-1.2,2.7-1.7
		c0-0.2,0.1-0.6,0.1-0.9V243z"/>
	<path id="XMLID_680_" class="st1" d="M396.4,247.8c1,0,1.8-0.2,2.5-0.5l0.2,0.7c-0.6,0.3-1.6,0.5-2.7,0.5c-2.3,0-3.8-1.3-3.8-4.1
		c0-2.6,1.3-4.4,3.6-4.4c1.9,0,3.1,1.2,3.1,3.7v0.5h-5.8C393.2,246.8,394.7,247.8,396.4,247.8L396.4,247.8z M396,240.7
		c-1.4,0-2.4,1.2-2.6,2.8h5C398.4,241.7,397.6,240.7,396,240.7L396,240.7z"/>
	<path id="XMLID_683_" class="st1" d="M405.9,241.3c-0.5-0.3-1.3-0.5-2-0.5c-0.6,0-1.6,0.3-1.6,1.4c0,0.8,0.5,1.1,1.7,1.6
		c1.3,0.5,2.3,1.1,2.3,2.4c0,1.8-1.3,2.3-2.5,2.3c-0.8,0-2-0.2-2.7-0.5l0.2-0.7c0.7,0.3,1.6,0.5,2.4,0.5c0.9,0,1.7-0.3,1.7-1.5
		c0-0.9-0.7-1.3-2-1.8c-1.2-0.5-2-0.9-2-2.2c0-1.6,1.4-2.1,2.5-2.1c0.8,0,1.7,0.2,2.2,0.5L405.9,241.3z"/>
	<path id="XMLID_685_" class="st1" d="M409.8,238.5h-1v-1h1V238.5z M409.7,248.3h-0.9v-8h0.9V248.3z"/>
	<path id="XMLID_688_" class="st1" d="M415.9,250.9c1.8,0,2.5-1.1,2.5-2.3v-1.6c-0.4,0.6-1.2,1.6-2.8,1.6c-1.8,0-3.1-1.2-3.1-3.9
		c0-2.3,0.8-4.4,3.3-4.4c1.1,0,2.1,0.5,2.6,1.1c0-0.2,0.1-0.7,0.1-1h0.8c-0.1,0.4-0.1,1-0.1,1.4v6.9c0,1.8-1.2,2.9-3.3,2.9
		c-1,0-2.1-0.3-3-0.7l0.2-0.7C413.9,250.5,415,250.9,415.9,250.9z M418.4,243c0-0.3,0-0.7-0.1-1c-0.4-0.5-1.3-1.2-2.4-1.2
		c-1.8,0-2.6,1.3-2.6,3.7c0,1.8,0.7,3.2,2.3,3.2c1.6,0,2.4-1.2,2.7-1.7c0-0.2,0.1-0.6,0.1-0.9V243z"/>
	<path id="XMLID_691_" class="st1" d="M423.1,240.2c0.1,0.4,0.3,0.9,0.3,1.3c0.7-0.8,1.9-1.3,2.9-1.3c1.8,0,2.5,1,2.5,2.9v5.2H428
		v-5c0-1.2-0.3-2.4-1.9-2.4c-1,0-2.1,0.5-2.7,1.3v6.2h-0.9v-6.5c0-0.5-0.1-1-0.2-1.5L423.1,240.2z"/>
	<path id="XMLID_693_" class="st0" d="M432.8,248.3h-1.1v-1.2h1.1V248.3z"/>
	<path id="XMLID_695_" class="st0" d="M444.4,248.3v-10h-3.5v-0.8h7.9v0.8h-3.5v10H444.4z"/>
	<path id="XMLID_697_" class="st0" d="M454.5,240.2c1.7,0,2.5,1,2.5,2.9v5.2h-0.9v-5c0-1.2-0.3-2.4-1.9-2.4c-1,0-2.1,0.5-2.7,1.3
		v6.1h-0.9v-11.2l0.9-0.1v4.5C452.3,240.7,453.4,240.2,454.5,240.2z"/>
	<path id="XMLID_699_" class="st0" d="M461.1,238.5h-1v-1h1V238.5z M461,248.3h-0.9v-8h0.9V248.3z"/>
	<path id="XMLID_702_" class="st0" d="M468.3,241.3c-0.5-0.3-1.3-0.5-2-0.5c-0.6,0-1.6,0.3-1.6,1.4c0,0.8,0.5,1.1,1.7,1.6
		c1.3,0.5,2.3,1.1,2.3,2.4c0,1.8-1.3,2.3-2.5,2.3c-0.8,0-2-0.2-2.7-0.5l0.2-0.7c0.7,0.3,1.6,0.5,2.4,0.5c0.9,0,1.7-0.3,1.7-1.5
		c0-0.9-0.7-1.3-2-1.8c-1.2-0.5-2-0.9-2-2.2c0-1.6,1.4-2.1,2.5-2.1c0.8,0,1.7,0.2,2.2,0.5L468.3,241.3z"/>
	<path id="XMLID_704_" class="st0" d="M478.7,238.5h-1v-1h1V238.5z M478.6,248.3h-0.9v-8h0.9V248.3z"/>
	<path id="XMLID_707_" class="st0" d="M485.9,241.3c-0.5-0.3-1.3-0.5-2-0.5c-0.6,0-1.6,0.3-1.6,1.4c0,0.8,0.5,1.1,1.7,1.6
		c1.3,0.5,2.3,1.1,2.3,2.4c0,1.8-1.3,2.3-2.5,2.3c-0.8,0-2-0.2-2.7-0.5l0.2-0.7c0.7,0.3,1.6,0.5,2.4,0.5c0.9,0,1.7-0.3,1.7-1.5
		c0-0.9-0.7-1.3-2-1.8c-1.2-0.5-2-0.9-2-2.2c0-1.6,1.4-2.1,2.5-2.1c0.8,0,1.7,0.2,2.2,0.5L485.9,241.3z"/>
	<path id="XMLID_709_" class="st0" d="M505.4,240.3h0.9l-2.7,8h-0.8l-2.5-6.9l-2.5,6.9H497l-2.7-8h0.9l2.3,6.9l2.4-6.8h0.8l2.5,6.8
		L505.4,240.3z"/>
	<path id="XMLID_711_" class="st0" d="M512.2,240.2c1.7,0,2.5,1,2.5,2.9v5.2h-0.9v-5c0-1.2-0.3-2.4-1.9-2.4c-1,0-2.1,0.5-2.7,1.3
		v6.1h-0.9v-11.2l0.9-0.1v4.5C510,240.7,511.2,240.2,512.2,240.2z"/>
	<path id="XMLID_713_" class="st0" d="M522.8,240.3h0.9c-0.7,2.1-1.9,5.4-2.8,7.7c-0.8,1.9-1.5,3.1-2.1,3.6l-0.8-0.4
		c0.6-0.5,1.4-1.7,2.1-3.3l-3.3-7.6h1l2.7,6.7C521.3,244.8,522.2,242.1,522.8,240.3z"/>
	<path id="XMLID_715_" class="st0" d="M533.3,248.3h-0.9v-10.8h0.9V248.3z"/>
	<path id="XMLID_717_" class="st0" d="M51.1,264.4c0-2.5,1-4.4,3.8-4.4c0.7,0,1.3,0.1,1.9,0.3l-0.2,0.8c-0.5-0.2-1.1-0.3-1.7-0.3
		c-2.2,0-2.9,1.7-2.9,3.6c0,1.8,0.7,3.4,2.9,3.4c0.6,0,1.3-0.1,1.7-0.3l0.1,0.8c-0.5,0.2-1.2,0.3-1.9,0.3
		C52,268.6,51.1,266.6,51.1,264.4L51.1,264.4z"/>
	<path id="XMLID_719_" class="st0" d="M66,264.3c0,2.2-0.9,4.3-3.7,4.3s-3.7-2.1-3.7-4.3c0-2.2,0.9-4.2,3.7-4.2S66,262.1,66,264.3
		L66,264.3z M62.3,267.8c1.9,0,2.8-1.3,2.8-3.6c0-2.2-0.9-3.5-2.8-3.5c-1.9,0-2.8,1.3-2.8,3.5C59.5,266.5,60.4,267.8,62.3,267.8
		L62.3,267.8z"/>
	<path id="XMLID_722_" class="st0" d="M72.4,260.2c1.1,0,1.9,0.5,2.2,1.3c0.8-0.8,2-1.3,3.1-1.3c1.7,0,2.5,1,2.5,2.9v5.2h-0.9v-5
		c0-1.2-0.3-2.4-1.9-2.4c-0.9,0-2,0.5-2.7,1.2c0.1,0.4,0.1,0.8,0.1,1.3v4.9h-0.8v-5c0-1.2-0.3-2.4-1.9-2.4c-0.9,0-2,0.5-2.6,1.3v6.2
		h-0.9v-6.5c0-0.5-0.1-1-0.2-1.5l0.8-0.1c0.1,0.4,0.2,0.9,0.3,1.3C70.3,260.7,71.4,260.2,72.4,260.2z"/>
	<path id="XMLID_724_" class="st0" d="M86.8,267.8c1,0,1.8-0.2,2.5-0.5l0.2,0.7c-0.6,0.3-1.6,0.5-2.7,0.5c-2.3,0-3.8-1.3-3.8-4.1
		c0-2.6,1.3-4.4,3.6-4.4c1.9,0,3.1,1.2,3.1,3.7v0.5h-5.8C83.6,266.8,85,267.8,86.8,267.8L86.8,267.8z M86.4,260.7
		c-1.4,0-2.4,1.2-2.6,2.8h5C88.7,261.7,88,260.7,86.4,260.7L86.4,260.7z"/>
	<path id="XMLID_727_" class="st0" d="M98.7,267.7v0.7l-0.5,0c-1.2,0.1-1.9-0.4-1.9-1.8v-5.5h-1.4v-0.7h1.4v-2l0.9-0.2v2.2H99v0.7
		h-1.9v5.3c0,1.1,0.3,1.3,1.2,1.3H98.7z"/>
	<path id="XMLID_729_" class="st0" d="M108,264.3c0,2.2-0.9,4.3-3.7,4.3s-3.7-2.1-3.7-4.3c0-2.2,0.9-4.2,3.7-4.2
		S108,262.1,108,264.3L108,264.3z M104.3,267.8c1.9,0,2.8-1.3,2.8-3.6c0-2.2-0.9-3.5-2.8-3.5c-1.9,0-2.8,1.3-2.8,3.5
		C101.5,266.5,102.4,267.8,104.3,267.8L104.3,267.8z"/>
	<path id="XMLID_732_" class="st0" d="M114.7,257.6h0.9v9.5c0,1.8-0.9,2.9-2.3,3.5l-0.4-0.6c1.3-0.5,1.9-1.4,1.9-3V257.6z"/>
	<path id="XMLID_734_" class="st0" d="M124.7,268.3l-0.7,0.2c-0.4-0.4-0.6-1.1-0.6-1.6c-0.4,1.1-1.6,1.7-2.7,1.7
		c-1.3,0-2.6-0.7-2.6-2.4c0-1.8,0.9-2.4,5.2-2.7v-0.8c0-1.1-0.2-1.8-1.8-1.8c-0.9,0-1.8,0.3-2.5,0.7l-0.2-0.7
		c0.7-0.4,1.8-0.7,2.8-0.7c2,0,2.5,1,2.5,2.5v3.3C124.1,266.9,124.3,267.8,124.7,268.3z M118.9,266.1c0,1.4,1.2,1.7,1.9,1.7
		c1.4,0,2.2-0.9,2.5-1.9v-1.7C119.9,264.4,118.9,264.7,118.9,266.1z"/>
	<path id="XMLID_737_" class="st0" d="M131,260.1c1.8,0,3.1,1.2,3.1,4c0,2.3-0.8,4.4-3.3,4.4c-1,0-2-0.5-2.6-1.1v4.2h-0.8v-9.7
		c0-0.5-0.1-1-0.2-1.5l0.8-0.1c0.1,0.4,0.3,1,0.3,1.5C128.5,261.1,129.4,260.1,131,260.1L131,260.1z M128.1,265.6c0,0.3,0,0.7,0.1,1
		c0.4,0.5,1.2,1.2,2.5,1.2c1.8,0,2.5-1.3,2.5-3.7c0-1.8-0.7-3.2-2.3-3.2c-1.6,0-2.4,1.2-2.6,1.7c0,0.2-0.1,0.6-0.1,0.9V265.6z"/>
	<path id="XMLID_740_" class="st0" d="M142.6,268.3l-0.7,0.2c-0.4-0.4-0.6-1.1-0.6-1.6c-0.4,1.1-1.6,1.7-2.7,1.7
		c-1.3,0-2.6-0.7-2.6-2.4c0-1.8,0.9-2.4,5.2-2.7v-0.8c0-1.1-0.2-1.8-1.8-1.8c-0.9,0-1.8,0.3-2.5,0.7l-0.2-0.7
		c0.7-0.4,1.8-0.7,2.8-0.7c2,0,2.5,1,2.5,2.5v3.3C142,266.9,142.2,267.8,142.6,268.3z M136.8,266.1c0,1.4,1.2,1.7,1.9,1.7
		c1.4,0,2.2-0.9,2.5-1.9v-1.7C137.8,264.4,136.8,264.7,136.8,266.1z"/>
	<path id="XMLID_743_" class="st0" d="M145.8,260.2c0.1,0.4,0.3,0.9,0.3,1.3c0.7-0.8,1.9-1.3,2.9-1.3c1.8,0,2.5,1,2.5,2.9v5.2h-0.9
		v-5c0-1.2-0.3-2.4-1.9-2.4c-1,0-2.1,0.5-2.7,1.3v6.2h-0.9v-6.5c0-0.5-0.1-1-0.2-1.5L145.8,260.2z"/>
	<path id="XMLID_745_" class="st0" d="M157.2,261.1v-0.7h1.5v-0.4c0-1.6,0.4-3,2.4-3c0.3,0,0.9,0.1,1.4,0.2l-0.1,0.7
		c-0.4-0.1-0.9-0.2-1.1-0.2c-1.1,0-1.6,0.5-1.6,2.3v0.4h2.1v0.7h-2.1v7.3h-0.8v-7.3H157.2z"/>
	<path id="XMLID_747_" class="st0" d="M170.3,264.3c0,2.2-0.9,4.3-3.7,4.3s-3.7-2.1-3.7-4.3c0-2.2,0.9-4.2,3.7-4.2
		S170.3,262.1,170.3,264.3L170.3,264.3z M166.6,267.8c1.9,0,2.8-1.3,2.8-3.6c0-2.2-0.9-3.5-2.8-3.5c-1.9,0-2.8,1.3-2.8,3.5
		C163.8,266.5,164.7,267.8,166.6,267.8L166.6,267.8z"/>
	<path id="XMLID_750_" class="st0" d="M176.7,260.2l0,0.8c-1.1,0-2.2,0.5-2.7,1.6v5.8h-0.9v-5.8c0-0.9-0.1-1.7-0.2-2.2l0.8-0.1
		c0.2,0.4,0.3,1,0.3,1.5C174.4,260.7,175.6,260.2,176.7,260.2z"/>
	<path id="XMLID_752_" class="st0" d="M188.1,268.3l-0.7,0.2c-0.4-0.4-0.6-1.1-0.6-1.6c-0.4,1.1-1.6,1.7-2.7,1.7
		c-1.3,0-2.6-0.7-2.6-2.4c0-1.8,0.9-2.4,5.2-2.7v-0.8c0-1.1-0.2-1.8-1.8-1.8c-0.9,0-1.8,0.3-2.5,0.7l-0.2-0.7
		c0.7-0.4,1.8-0.7,2.8-0.7c2,0,2.5,1,2.5,2.5v3.3C187.5,266.9,187.7,267.8,188.1,268.3z M182.3,266.1c0,1.4,1.2,1.7,1.9,1.7
		c1.4,0,2.2-0.9,2.5-1.9v-1.7C183.3,264.4,182.3,264.7,182.3,266.1z"/>
	<path id="XMLID_755_" class="st0" d="M198.2,260.2c1.1,0,1.9,0.5,2.2,1.3c0.8-0.8,2-1.3,3.1-1.3c1.7,0,2.5,1,2.5,2.9v5.2h-0.9v-5
		c0-1.2-0.3-2.4-1.9-2.4c-0.9,0-2,0.5-2.7,1.2c0.1,0.4,0.1,0.8,0.1,1.3v4.9h-0.8v-5c0-1.2-0.3-2.4-1.9-2.4c-0.9,0-2,0.5-2.6,1.3v6.2
		h-0.9v-6.5c0-0.5-0.1-1-0.2-1.5l0.8-0.1c0.1,0.4,0.2,0.9,0.3,1.3C196,260.7,197.1,260.2,198.2,260.2z"/>
	<path id="XMLID_757_" class="st0" d="M214.9,268.3l-0.7,0.2c-0.4-0.4-0.6-1.1-0.6-1.6c-0.4,1.1-1.6,1.7-2.7,1.7
		c-1.3,0-2.6-0.7-2.6-2.4c0-1.8,0.9-2.4,5.2-2.7v-0.8c0-1.1-0.2-1.8-1.8-1.8c-0.9,0-1.8,0.3-2.5,0.7l-0.2-0.7
		c0.7-0.4,1.8-0.7,2.8-0.7c2,0,2.5,1,2.5,2.5v3.3C214.3,266.9,214.5,267.8,214.9,268.3z M209.1,266.1c0,1.4,1.2,1.7,1.9,1.7
		c1.4,0,2.2-0.9,2.5-1.9v-1.7C210.1,264.4,209.1,264.7,209.1,266.1z"/>
	<path id="XMLID_760_" class="st0" d="M221.5,261.3c-0.5-0.3-1.3-0.5-2-0.5c-0.6,0-1.6,0.3-1.6,1.4c0,0.8,0.5,1.1,1.7,1.6
		c1.3,0.5,2.3,1.1,2.3,2.4c0,1.8-1.3,2.3-2.5,2.3c-0.8,0-2-0.2-2.7-0.5l0.2-0.7c0.7,0.3,1.6,0.5,2.4,0.5c0.9,0,1.7-0.3,1.7-1.5
		c0-0.9-0.7-1.3-2-1.8c-1.2-0.5-2-0.9-2-2.2c0-1.6,1.4-2.1,2.5-2.1c0.8,0,1.7,0.2,2.2,0.5L221.5,261.3z"/>
	<path id="XMLID_762_" class="st0" d="M227.1,267.7v0.7l-0.5,0c-1.2,0.1-1.9-0.4-1.9-1.8v-5.5h-1.4v-0.7h1.4v-2l0.9-0.2v2.2h1.9v0.7
		h-1.9v5.3c0,1.1,0.3,1.3,1.2,1.3H227.1z"/>
	<path id="XMLID_764_" class="st0" d="M232.9,267.8c1,0,1.8-0.2,2.5-0.5l0.2,0.7c-0.6,0.3-1.6,0.5-2.7,0.5c-2.3,0-3.8-1.3-3.8-4.1
		c0-2.6,1.3-4.4,3.6-4.4c1.9,0,3.1,1.2,3.1,3.7v0.5h-5.8C229.8,266.8,231.2,267.8,232.9,267.8L232.9,267.8z M232.6,260.7
		c-1.4,0-2.4,1.2-2.6,2.8h5C234.9,261.7,234.2,260.7,232.6,260.7L232.6,260.7z"/>
	<path id="XMLID_767_" class="st0" d="M242.1,260.2l0,0.8c-1.1,0-2.2,0.5-2.7,1.6v5.8h-0.9v-5.8c0-0.9-0.1-1.7-0.2-2.2l0.8-0.1
		c0.2,0.4,0.3,1,0.3,1.5C239.9,260.7,241,260.2,242.1,260.2z"/>
	<path id="XMLID_769_" class="st0" d="M253.6,268.3l-0.7,0.2c-0.4-0.4-0.6-1.1-0.6-1.6c-0.4,1.1-1.6,1.7-2.7,1.7
		c-1.3,0-2.6-0.7-2.6-2.4c0-1.8,0.9-2.4,5.2-2.7v-0.8c0-1.1-0.2-1.8-1.8-1.8c-0.9,0-1.8,0.3-2.5,0.7l-0.2-0.7
		c0.7-0.4,1.8-0.7,2.8-0.7c2,0,2.5,1,2.5,2.5v3.3C253,266.9,253.2,267.8,253.6,268.3z M247.8,266.1c0,1.4,1.2,1.7,1.9,1.7
		c1.4,0,2.2-0.9,2.5-1.9v-1.7C248.8,264.4,247.8,264.7,247.8,266.1z"/>
	<path id="XMLID_772_" class="st0" d="M256.1,268.3v-11.2l0.9-0.1v4.7c0.4-0.6,1.2-1.6,2.8-1.6c1.8,0,3.1,1.2,3.1,4
		c0,2.3-0.8,4.4-3.3,4.4c-1,0-2.1-0.5-2.6-1.1l-0.1,1H256.1z M257,265.6c0,0.3,0,0.7,0.1,1c0.4,0.5,1.2,1.2,2.4,1.2
		c1.8,0,2.6-1.3,2.6-3.7c0-1.8-0.7-3.2-2.3-3.2c-1.6,0-2.4,1.2-2.6,1.7c0,0.2-0.1,0.6-0.1,0.9V265.6z"/>
	<path id="XMLID_775_" class="st0" d="M272.5,264.3c0,2.2-0.9,4.3-3.7,4.3s-3.7-2.1-3.7-4.3c0-2.2,0.9-4.2,3.7-4.2
		S272.5,262.1,272.5,264.3L272.5,264.3z M268.8,267.8c1.9,0,2.8-1.3,2.8-3.6c0-2.2-0.9-3.5-2.8-3.5c-1.9,0-2.8,1.3-2.8,3.5
		C266,266.5,266.9,267.8,268.8,267.8L268.8,267.8z"/>
	<path id="XMLID_778_" class="st0" d="M277.6,268.5c-1.7,0-2.5-1.1-2.5-2.9v-5.3h0.9v5.1c0,1.2,0.3,2.4,1.9,2.4c1,0,2.1-0.5,2.7-1.3
		v-6.2h0.9v6.3c0,0.6,0.1,1.2,0.2,1.7l-0.8,0.1c-0.2-0.4-0.3-0.9-0.3-1.2C279.9,268,278.7,268.5,277.6,268.5z"/>
	<path id="XMLID_780_" class="st0" d="M287.4,267.7v0.7l-0.5,0c-1.2,0.1-1.9-0.4-1.9-1.8v-5.5h-1.4v-0.7h1.4v-2l0.9-0.2v2.2h1.9v0.7
		h-1.9v5.3c0,1.1,0.3,1.3,1.2,1.3H287.4z"/>
	<path id="XMLID_782_" class="st0" d="M293.1,264.4c0-2.5,1-4.4,3.8-4.4c0.7,0,1.3,0.1,1.9,0.3l-0.2,0.8c-0.5-0.2-1.1-0.3-1.7-0.3
		c-2.2,0-2.9,1.7-2.9,3.6c0,1.8,0.7,3.4,2.9,3.4c0.6,0,1.3-0.1,1.7-0.3l0.1,0.8c-0.5,0.2-1.2,0.3-1.9,0.3
		C294,268.6,293.1,266.6,293.1,264.4L293.1,264.4z"/>
	<path id="XMLID_784_" class="st0" d="M307.9,264.3c0,2.2-0.9,4.3-3.7,4.3s-3.7-2.1-3.7-4.3c0-2.2,0.9-4.2,3.7-4.2
		S307.9,262.1,307.9,264.3L307.9,264.3z M304.3,267.8c1.9,0,2.8-1.3,2.8-3.6c0-2.2-0.9-3.5-2.8-3.5c-1.9,0-2.8,1.3-2.8,3.5
		C301.5,266.5,302.4,267.8,304.3,267.8L304.3,267.8z"/>
	<path id="XMLID_787_" class="st0" d="M313.6,270.9c1.8,0,2.5-1.1,2.5-2.3v-1.6c-0.4,0.6-1.2,1.6-2.8,1.6c-1.8,0-3.1-1.2-3.1-3.9
		c0-2.3,0.8-4.4,3.3-4.4c1.1,0,2.1,0.5,2.6,1.1c0-0.2,0.1-0.7,0.1-1h0.8c-0.1,0.4-0.1,1-0.1,1.4v6.9c0,1.8-1.2,2.9-3.3,2.9
		c-1,0-2.1-0.3-3-0.7l0.2-0.7C311.6,270.5,312.6,270.9,313.6,270.9z M316.1,263c0-0.3,0-0.7-0.1-1c-0.4-0.5-1.3-1.2-2.4-1.2
		c-1.8,0-2.6,1.3-2.6,3.7c0,1.8,0.7,3.2,2.3,3.2c1.6,0,2.4-1.2,2.7-1.7c0-0.2,0.1-0.6,0.1-0.9V263z"/>
	<path id="XMLID_790_" class="st0" d="M320.8,260.2c0.1,0.4,0.3,0.9,0.3,1.3c0.7-0.8,1.9-1.3,2.9-1.3c1.8,0,2.5,1,2.5,2.9v5.2h-0.9
		v-5c0-1.2-0.3-2.4-1.9-2.4c-1,0-2.1,0.5-2.7,1.3v6.2h-0.9v-6.5c0-0.5-0.1-1-0.2-1.5L320.8,260.2z"/>
	<path id="XMLID_792_" class="st0" d="M330.6,258.5h-1v-1h1V258.5z M330.5,268.3h-0.9v-8h0.9V268.3z"/>
	<path id="XMLID_795_" class="st0" d="M336.5,267.7v0.7l-0.5,0c-1.2,0.1-1.9-0.4-1.9-1.8v-5.5h-1.4v-0.7h1.4v-2l0.9-0.2v2.2h1.9v0.7
		h-1.9v5.3c0,1.1,0.3,1.3,1.2,1.3H336.5z"/>
	<path id="XMLID_797_" class="st0" d="M339.9,258.5h-1v-1h1V258.5z M339.8,268.3H339v-8h0.9V268.3z"/>
	<path id="XMLID_800_" class="st0" d="M348.2,260.3h0.9l-3.2,8h-0.8l-3.2-8h0.9l2.7,6.9L348.2,260.3z"/>
	<path id="XMLID_802_" class="st0" d="M354.6,267.8c1,0,1.8-0.2,2.5-0.5l0.2,0.7c-0.6,0.3-1.6,0.5-2.7,0.5c-2.3,0-3.8-1.3-3.8-4.1
		c0-2.6,1.3-4.4,3.6-4.4c1.9,0,3.1,1.2,3.1,3.7v0.5h-5.8C351.4,266.8,352.8,267.8,354.6,267.8L354.6,267.8z M354.2,260.7
		c-1.4,0-2.4,1.2-2.6,2.8h5C356.5,261.7,355.8,260.7,354.2,260.7L354.2,260.7z"/>
	<path id="XMLID_805_" class="st0" d="M367.6,260.1c1.8,0,3.1,1.2,3.1,4c0,2.3-0.8,4.4-3.3,4.4c-1,0-2-0.5-2.6-1.1v4.2h-0.8v-9.7
		c0-0.5-0.1-1-0.2-1.5l0.8-0.1c0.1,0.4,0.3,1,0.3,1.5C365,261.1,365.9,260.1,367.6,260.1L367.6,260.1z M364.7,265.6
		c0,0.3,0,0.7,0.1,1c0.4,0.5,1.2,1.2,2.5,1.2c1.8,0,2.5-1.3,2.5-3.7c0-1.8-0.7-3.2-2.3-3.2c-1.6,0-2.4,1.2-2.6,1.7
		c0,0.2-0.1,0.6-0.1,0.9V265.6z"/>
	<path id="XMLID_808_" class="st0" d="M377.3,261.3c-0.5-0.3-1.3-0.5-2-0.5c-0.6,0-1.6,0.3-1.6,1.4c0,0.8,0.5,1.1,1.7,1.6
		c1.3,0.5,2.3,1.1,2.3,2.4c0,1.8-1.3,2.3-2.5,2.3c-0.8,0-2-0.2-2.7-0.5l0.2-0.7c0.7,0.3,1.6,0.5,2.4,0.5c0.9,0,1.7-0.3,1.7-1.5
		c0-0.9-0.7-1.3-2-1.8c-1.2-0.5-2-0.9-2-2.2c0-1.6,1.4-2.1,2.5-2.1c0.8,0,1.7,0.2,2.2,0.5L377.3,261.3z"/>
	<path id="XMLID_810_" class="st0" d="M385.2,260.3h0.9c-0.7,2.1-1.9,5.4-2.8,7.7c-0.8,1.9-1.5,3.1-2.1,3.6l-0.8-0.4
		c0.6-0.5,1.4-1.7,2.1-3.3l-3.3-7.6h1l2.7,6.7C383.7,264.8,384.6,262.1,385.2,260.3z"/>
	<path id="XMLID_812_" class="st0" d="M387.7,264.4c0-2.5,1-4.4,3.8-4.4c0.7,0,1.3,0.1,1.9,0.3l-0.2,0.8c-0.5-0.2-1.1-0.3-1.7-0.3
		c-2.2,0-2.9,1.7-2.9,3.6c0,1.8,0.7,3.4,2.9,3.4c0.6,0,1.3-0.1,1.7-0.3l0.1,0.8c-0.5,0.2-1.2,0.3-1.9,0.3
		C388.6,268.6,387.7,266.6,387.7,264.4L387.7,264.4z"/>
	<path id="XMLID_814_" class="st0" d="M399.5,260.2c1.7,0,2.5,1,2.5,2.9v5.2h-0.9v-5c0-1.2-0.3-2.4-1.9-2.4c-1,0-2.1,0.5-2.7,1.3
		v6.1h-0.9v-11.2l0.9-0.1v4.5C397.3,260.7,398.4,260.2,399.5,260.2z"/>
	<path id="XMLID_816_" class="st0" d="M412,264.3c0,2.2-0.9,4.3-3.7,4.3c-2.8,0-3.7-2.1-3.7-4.3c0-2.2,0.9-4.2,3.7-4.2
		C411.1,260.1,412,262.1,412,264.3L412,264.3z M408.4,267.8c1.9,0,2.8-1.3,2.8-3.6c0-2.2-0.9-3.5-2.8-3.5c-1.9,0-2.8,1.3-2.8,3.5
		C405.6,266.5,406.5,267.8,408.4,267.8L408.4,267.8z"/>
	<path id="XMLID_819_" class="st0" d="M415.6,268.3h-0.9v-11.2l0.9-0.1V268.3z"/>
	<path id="XMLID_821_" class="st0" d="M425.7,264.3c0,2.2-0.9,4.3-3.7,4.3c-2.8,0-3.7-2.1-3.7-4.3c0-2.2,0.9-4.2,3.7-4.2
		C424.8,260.1,425.7,262.1,425.7,264.3L425.7,264.3z M422.1,267.8c1.9,0,2.8-1.3,2.8-3.6c0-2.2-0.9-3.5-2.8-3.5
		c-1.9,0-2.8,1.3-2.8,3.5C419.3,266.5,420.2,267.8,422.1,267.8L422.1,267.8z"/>
	<path id="XMLID_824_" class="st0" d="M431.4,270.9c1.8,0,2.5-1.1,2.5-2.3v-1.6c-0.4,0.6-1.2,1.6-2.8,1.6c-1.8,0-3.1-1.2-3.1-3.9
		c0-2.3,0.8-4.4,3.3-4.4c1.1,0,2.1,0.5,2.6,1.1c0-0.2,0.1-0.7,0.1-1h0.8c-0.1,0.4-0.1,1-0.1,1.4v6.9c0,1.8-1.2,2.9-3.3,2.9
		c-1,0-2.1-0.3-3-0.7l0.2-0.7C429.4,270.5,430.4,270.9,431.4,270.9z M433.9,263c0-0.3,0-0.7-0.1-1c-0.4-0.5-1.3-1.2-2.4-1.2
		c-1.8,0-2.6,1.3-2.6,3.7c0,1.8,0.7,3.2,2.3,3.2c1.6,0,2.4-1.2,2.7-1.7c0-0.2,0.1-0.6,0.1-0.9V263z"/>
	<path id="XMLID_827_" class="st0" d="M442.9,260.3h0.9c-0.7,2.1-1.9,5.4-2.8,7.7c-0.8,1.9-1.5,3.1-2.1,3.6l-0.8-0.4
		c0.6-0.5,1.4-1.7,2.1-3.3l-3.3-7.6h1l2.7,6.7C441.4,264.8,442.3,262.1,442.9,260.3z"/>
	<path id="XMLID_829_" class="st0" d="M446.6,268.3h-1.1v-1.2h1.1V268.3z"/>
	<path id="XMLID_831_" class="st0" d="M454.3,268.3h-0.9v-10.8h0.9V268.3z"/>
	<path id="XMLID_833_" class="st0" d="M467.2,268.3l-0.7,0.2c-0.4-0.4-0.6-1.1-0.6-1.6c-0.4,1.1-1.6,1.7-2.7,1.7
		c-1.3,0-2.6-0.7-2.6-2.4c0-1.8,0.9-2.4,5.2-2.7v-0.8c0-1.1-0.2-1.8-1.8-1.8c-0.9,0-1.8,0.3-2.5,0.7l-0.2-0.7
		c0.7-0.4,1.8-0.7,2.8-0.7c2,0,2.5,1,2.5,2.5v3.3C466.5,266.9,466.8,267.8,467.2,268.3z M461.3,266.1c0,1.4,1.2,1.7,1.9,1.7
		c1.4,0,2.2-0.9,2.5-1.9v-1.7C462.3,264.4,461.3,264.7,461.3,266.1z"/>
	<path id="XMLID_836_" class="st0" d="M470.6,268.3h-0.9v-11.2l0.9-0.1V268.3z"/>
	<path id="XMLID_838_" class="st0" d="M483.9,260.3h0.9l-2.7,8h-0.8l-2.5-6.9l-2.5,6.9h-0.8l-2.7-8h0.9l2.3,6.9l2.4-6.8h0.8l2.5,6.8
		L483.9,260.3z"/>
	<path id="XMLID_840_" class="st0" d="M492.8,268.3l-0.7,0.2c-0.4-0.4-0.6-1.1-0.6-1.6c-0.4,1.1-1.6,1.7-2.7,1.7
		c-1.3,0-2.6-0.7-2.6-2.4c0-1.8,0.9-2.4,5.2-2.7v-0.8c0-1.1-0.2-1.8-1.8-1.8c-0.9,0-1.8,0.3-2.5,0.7l-0.2-0.7
		c0.7-0.4,1.8-0.7,2.8-0.7c2,0,2.5,1,2.5,2.5v3.3C492.1,266.9,492.3,267.8,492.8,268.3z M486.9,266.1c0,1.4,1.2,1.7,1.9,1.7
		c1.4,0,2.2-0.9,2.5-1.9v-1.7C487.9,264.4,486.9,264.7,486.9,266.1z"/>
	<path id="XMLID_843_" class="st0" d="M500.2,260.3h0.9c-0.7,2.1-1.9,5.4-2.8,7.7c-0.8,1.9-1.5,3.1-2.1,3.6l-0.8-0.4
		c0.6-0.5,1.4-1.7,2.1-3.3l-3.3-7.6h1l2.7,6.7C498.7,264.8,499.6,262.1,500.2,260.3z"/>
	<path id="XMLID_845_" class="st0" d="M507.2,261.3c-0.5-0.3-1.3-0.5-2-0.5c-0.6,0-1.6,0.3-1.6,1.4c0,0.8,0.5,1.1,1.7,1.6
		c1.3,0.5,2.3,1.1,2.3,2.4c0,1.8-1.3,2.3-2.5,2.3c-0.8,0-2-0.2-2.7-0.5l0.2-0.7c0.7,0.3,1.6,0.5,2.4,0.5c0.9,0,1.7-0.3,1.7-1.5
		c0-0.9-0.7-1.3-2-1.8c-1.2-0.5-2-0.9-2-2.2c0-1.6,1.4-2.1,2.5-2.1c0.8,0,1.7,0.2,2.2,0.5L507.2,261.3z"/>
	<path id="XMLID_847_" class="st0" d="M519.7,268.3l-0.7,0.2c-0.4-0.4-0.6-1.1-0.6-1.6c-0.4,1.1-1.6,1.7-2.7,1.7
		c-1.3,0-2.6-0.7-2.6-2.4c0-1.8,0.9-2.4,5.2-2.7v-0.8c0-1.1-0.2-1.8-1.8-1.8c-0.9,0-1.8,0.3-2.5,0.7l-0.2-0.7
		c0.7-0.4,1.8-0.7,2.8-0.7c2,0,2.5,1,2.5,2.5v3.3C519.1,266.9,519.3,267.8,519.7,268.3z M513.9,266.1c0,1.4,1.2,1.7,1.9,1.7
		c1.4,0,2.2-0.9,2.5-1.9v-1.7C514.9,264.4,513.9,264.7,513.9,266.1z"/>
	<path id="XMLID_850_" class="st0" d="M526,260.1c1.8,0,3.1,1.2,3.1,4c0,2.3-0.8,4.4-3.3,4.4c-1,0-2-0.5-2.6-1.1v4.2h-0.8v-9.7
		c0-0.5-0.1-1-0.2-1.5l0.8-0.1c0.1,0.4,0.3,1,0.3,1.5C523.5,261.1,524.4,260.1,526,260.1L526,260.1z M523.1,265.6c0,0.3,0,0.7,0.1,1
		c0.4,0.5,1.2,1.2,2.5,1.2c1.8,0,2.5-1.3,2.5-3.7c0-1.8-0.7-3.2-2.3-3.2c-1.6,0-2.4,1.2-2.6,1.7c0,0.2-0.1,0.6-0.1,0.9V265.6z"/>
	<path id="XMLID_853_" class="st0" d="M534.2,263.3v0.7H531v-0.7H534.2z"/>
	<path id="XMLID_855_" class="st0" d="M55.4,280.1c1.8,0,3.1,1.2,3.1,4c0,2.3-0.8,4.4-3.3,4.4c-1,0-2-0.5-2.6-1.1v4.2h-0.8v-9.7
		c0-0.5-0.1-1-0.2-1.5l0.8-0.1c0.1,0.4,0.3,1,0.3,1.5C52.9,281.1,53.8,280.1,55.4,280.1L55.4,280.1z M52.5,285.6c0,0.3,0,0.7,0.1,1
		c0.4,0.5,1.2,1.2,2.5,1.2c1.8,0,2.5-1.3,2.5-3.7c0-1.8-0.7-3.2-2.3-3.2c-1.6,0-2.4,1.2-2.6,1.7c0,0.2-0.1,0.6-0.1,0.9V285.6z"/>
	<path id="XMLID_858_" class="st0" d="M64.8,280.2l0,0.8c-1.1,0-2.2,0.5-2.7,1.6v5.8h-0.9v-5.8c0-0.9-0.1-1.7-0.2-2.2l0.8-0.1
		c0.2,0.4,0.3,1,0.3,1.5C62.6,280.7,63.7,280.2,64.8,280.2z"/>
	<path id="XMLID_860_" class="st0" d="M70.1,287.8c1,0,1.8-0.2,2.5-0.5l0.2,0.7c-0.6,0.3-1.6,0.5-2.7,0.5c-2.3,0-3.8-1.3-3.8-4.1
		c0-2.6,1.3-4.4,3.6-4.4c1.9,0,3.1,1.2,3.1,3.7v0.5h-5.8C67,286.8,68.4,287.8,70.1,287.8L70.1,287.8z M69.7,280.7
		c-1.4,0-2.4,1.2-2.6,2.8h5C72.1,281.7,71.3,280.7,69.7,280.7L69.7,280.7z"/>
	<path id="XMLID_863_" class="st0" d="M75.1,284.4c0-2.5,1-4.4,3.8-4.4c0.7,0,1.3,0.1,1.9,0.3l-0.2,0.8c-0.5-0.2-1.1-0.3-1.7-0.3
		c-2.2,0-2.9,1.7-2.9,3.6c0,1.8,0.7,3.4,2.9,3.4c0.6,0,1.3-0.1,1.7-0.3l0.1,0.8c-0.5,0.2-1.2,0.3-1.9,0.3
		C76,288.6,75.1,286.6,75.1,284.4L75.1,284.4z"/>
	<path id="XMLID_865_" class="st0" d="M84.1,278.5h-1v-1h1V278.5z M84,288.3h-0.9v-8H84V288.3z"/>
	<path id="XMLID_868_" class="st0" d="M93.1,288.3l-0.7,0.2c-0.4-0.4-0.6-1.1-0.6-1.6c-0.4,1.1-1.6,1.7-2.7,1.7
		c-1.3,0-2.6-0.7-2.6-2.4c0-1.8,0.9-2.4,5.2-2.7v-0.8c0-1.1-0.2-1.8-1.8-1.8c-0.9,0-1.8,0.3-2.5,0.7l-0.2-0.7
		c0.7-0.4,1.8-0.7,2.8-0.7c2,0,2.5,1,2.5,2.5v3.3C92.5,286.9,92.7,287.8,93.1,288.3z M87.3,286.1c0,1.4,1.2,1.7,1.9,1.7
		c1.4,0,2.2-0.9,2.5-1.9v-1.7C88.2,284.4,87.3,284.7,87.3,286.1z"/>
	<path id="XMLID_871_" class="st0" d="M98.3,287.7v0.7l-0.5,0c-1.2,0.1-1.9-0.4-1.9-1.8v-5.5h-1.4v-0.7h1.4v-2l0.9-0.2v2.2h1.9v0.7
		h-1.9v5.3c0,1.1,0.3,1.3,1.2,1.3H98.3z"/>
	<path id="XMLID_873_" class="st0" d="M104.2,287.8c1,0,1.8-0.2,2.5-0.5l0.2,0.7c-0.6,0.3-1.6,0.5-2.7,0.5c-2.3,0-3.8-1.3-3.8-4.1
		c0-2.6,1.3-4.4,3.6-4.4c1.9,0,3.1,1.2,3.1,3.7v0.5h-5.8C101,286.8,102.4,287.8,104.2,287.8L104.2,287.8z M103.8,280.7
		c-1.4,0-2.4,1.2-2.6,2.8h5C106.1,281.7,105.4,280.7,103.8,280.7L103.8,280.7z"/>
	<path id="XMLID_876_" class="st0" d="M119.3,288.3l-0.7,0.2c-0.4-0.4-0.6-1.1-0.6-1.6c-0.4,1.1-1.6,1.7-2.7,1.7
		c-1.3,0-2.6-0.7-2.6-2.4c0-1.8,0.9-2.4,5.2-2.7v-0.8c0-1.1-0.2-1.8-1.8-1.8c-0.9,0-1.8,0.3-2.5,0.7l-0.2-0.7
		c0.7-0.4,1.8-0.7,2.8-0.7c2,0,2.5,1,2.5,2.5v3.3C118.6,286.9,118.9,287.8,119.3,288.3z M113.5,286.1c0,1.4,1.2,1.7,1.9,1.7
		c1.4,0,2.2-0.9,2.5-1.9v-1.7C114.4,284.4,113.5,284.7,113.5,286.1z"/>
	<path id="XMLID_879_" class="st0" d="M125.1,284.4c0-2.5,1-4.4,3.8-4.4c0.7,0,1.3,0.1,1.9,0.3l-0.2,0.8c-0.5-0.2-1.1-0.3-1.7-0.3
		c-2.2,0-2.9,1.7-2.9,3.6c0,1.8,0.7,3.4,2.9,3.4c0.6,0,1.3-0.1,1.7-0.3l0.1,0.8c-0.5,0.2-1.2,0.3-1.9,0.3
		C126,288.6,125.1,286.6,125.1,284.4L125.1,284.4z"/>
	<path id="XMLID_881_" class="st0" d="M134,288.3h-0.9v-11.2l0.9-0.1V288.3z"/>
	<path id="XMLID_883_" class="st0" d="M140.6,287.8c1,0,1.8-0.2,2.5-0.5l0.2,0.7c-0.6,0.3-1.6,0.5-2.7,0.5c-2.3,0-3.8-1.3-3.8-4.1
		c0-2.6,1.3-4.4,3.6-4.4c1.9,0,3.1,1.2,3.1,3.7v0.5h-5.8C137.5,286.8,138.9,287.8,140.6,287.8L140.6,287.8z M140.2,280.7
		c-1.4,0-2.4,1.2-2.6,2.8h5C142.6,281.7,141.8,280.7,140.2,280.7L140.2,280.7z"/>
	<path id="XMLID_886_" class="st0" d="M152,288.3l-0.7,0.2c-0.4-0.4-0.6-1.1-0.6-1.6c-0.4,1.1-1.6,1.7-2.7,1.7
		c-1.3,0-2.6-0.7-2.6-2.4c0-1.8,0.9-2.4,5.2-2.7v-0.8c0-1.1-0.2-1.8-1.8-1.8c-0.9,0-1.8,0.3-2.5,0.7l-0.2-0.7
		c0.7-0.4,1.8-0.7,2.8-0.7c2,0,2.5,1,2.5,2.5v3.3C151.3,286.9,151.6,287.8,152,288.3z M146.2,286.1c0,1.4,1.2,1.7,1.9,1.7
		c1.4,0,2.2-0.9,2.5-1.9v-1.7C147.1,284.4,146.2,284.7,146.2,286.1z"/>
	<path id="XMLID_889_" class="st0" d="M155.1,280.2c0.1,0.4,0.3,0.9,0.3,1.3c0.7-0.8,1.9-1.3,2.9-1.3c1.8,0,2.5,1,2.5,2.9v5.2H160
		v-5c0-1.2-0.3-2.4-1.9-2.4c-1,0-2.1,0.5-2.7,1.3v6.2h-0.9v-6.5c0-0.5-0.1-1-0.2-1.5L155.1,280.2z"/>
	<path id="XMLID_891_" class="st0" d="M163.9,290.4l-0.6-0.1c0.5-1.2,0.8-2.9,0.9-3.9l0.9,0.1C164.9,287.6,164.4,289.4,163.9,290.4z
		"/>
	<path id="XMLID_893_" class="st0" d="M181.6,280.3h0.9l-2.7,8H179l-2.5-6.9l-2.5,6.9h-0.8l-2.7-8h0.9l2.3,6.9l2.4-6.8h0.8l2.5,6.8
		L181.6,280.3z"/>
	<path id="XMLID_895_" class="st0" d="M188.1,287.8c1,0,1.8-0.2,2.5-0.5l0.2,0.7c-0.6,0.3-1.6,0.5-2.7,0.5c-2.3,0-3.8-1.3-3.8-4.1
		c0-2.6,1.3-4.4,3.6-4.4c1.9,0,3.1,1.2,3.1,3.7v0.5H185C184.9,286.8,186.3,287.8,188.1,287.8L188.1,287.8z M187.7,280.7
		c-1.4,0-2.4,1.2-2.6,2.8h5C190,281.7,189.3,280.7,187.7,280.7L187.7,280.7z"/>
	<path id="XMLID_898_" class="st0" d="M194.5,288.3h-0.9v-11.2l0.9-0.1V288.3z"/>
	<path id="XMLID_900_" class="st0" d="M198.6,288.3h-0.9v-11.2l0.9-0.1V288.3z"/>
	<path id="XMLID_902_" class="st0" d="M208.2,288.5c-1.7,0-3.1-1.2-3.1-3.9c0-2.3,0.8-4.4,3.3-4.4c1,0,2,0.5,2.6,1.1v-4.1l0.8-0.1
		v9.1c0,0.7,0.1,1.6,0.3,2.2l-0.8,0.2c-0.2-0.4-0.3-1-0.3-1.5C210.8,287.5,209.9,288.5,208.2,288.5L208.2,288.5z M211.1,283
		c0-0.3,0-0.7-0.1-1c-0.4-0.5-1.2-1.2-2.4-1.2c-1.8,0-2.6,1.3-2.6,3.7c0,1.8,0.7,3.2,2.3,3.2c1.6,0,2.4-1.2,2.7-1.7
		c0-0.2,0.1-0.6,0.1-0.9V283z"/>
	<path id="XMLID_905_" class="st0" d="M218.5,287.8c1,0,1.8-0.2,2.5-0.5l0.2,0.7c-0.6,0.3-1.6,0.5-2.7,0.5c-2.3,0-3.8-1.3-3.8-4.1
		c0-2.6,1.3-4.4,3.6-4.4c1.9,0,3.1,1.2,3.1,3.7v0.5h-5.8C215.4,286.8,216.8,287.8,218.5,287.8L218.5,287.8z M218.1,280.7
		c-1.4,0-2.4,1.2-2.6,2.8h5C220.5,281.7,219.7,280.7,218.1,280.7L218.1,280.7z"/>
	<path id="XMLID_908_" class="st0" d="M228,281.3c-0.5-0.3-1.3-0.5-2-0.5c-0.6,0-1.6,0.3-1.6,1.4c0,0.8,0.5,1.1,1.7,1.6
		c1.3,0.5,2.3,1.1,2.3,2.4c0,1.8-1.3,2.3-2.5,2.3c-0.8,0-2-0.2-2.7-0.5l0.2-0.7c0.7,0.3,1.6,0.5,2.4,0.5c0.9,0,1.7-0.3,1.7-1.5
		c0-0.9-0.7-1.3-2-1.8c-1.2-0.5-2-0.9-2-2.2c0-1.6,1.4-2.1,2.5-2.1c0.8,0,1.7,0.2,2.2,0.5L228,281.3z"/>
	<path id="XMLID_910_" class="st0" d="M231.9,278.5h-1v-1h1V278.5z M231.8,288.3H231v-8h0.9V288.3z"/>
	<path id="XMLID_913_" class="st0" d="M238,290.9c1.8,0,2.5-1.1,2.5-2.3v-1.6c-0.4,0.6-1.2,1.6-2.8,1.6c-1.8,0-3.1-1.2-3.1-3.9
		c0-2.3,0.8-4.4,3.3-4.4c1.1,0,2.1,0.5,2.6,1.1c0-0.2,0.1-0.7,0.1-1h0.8c-0.1,0.4-0.1,1-0.1,1.4v6.9c0,1.8-1.2,2.9-3.3,2.9
		c-1,0-2.1-0.3-3-0.7l0.2-0.7C236,290.5,237.1,290.9,238,290.9z M240.5,283c0-0.3,0-0.7-0.1-1c-0.4-0.5-1.3-1.2-2.4-1.2
		c-1.8,0-2.6,1.3-2.6,3.7c0,1.8,0.7,3.2,2.3,3.2c1.6,0,2.4-1.2,2.7-1.7c0-0.2,0.1-0.6,0.1-0.9V283z"/>
	<path id="XMLID_916_" class="st0" d="M245.2,280.2c0.1,0.4,0.3,0.9,0.3,1.3c0.7-0.8,1.9-1.3,2.9-1.3c1.8,0,2.5,1,2.5,2.9v5.2h-0.9
		v-5c0-1.2-0.3-2.4-1.9-2.4c-1,0-2.1,0.5-2.7,1.3v6.2h-0.9v-6.5c0-0.5-0.1-1-0.2-1.5L245.2,280.2z"/>
	<path id="XMLID_918_" class="st0" d="M257.5,287.8c1,0,1.8-0.2,2.5-0.5l0.2,0.7c-0.6,0.3-1.6,0.5-2.7,0.5c-2.3,0-3.8-1.3-3.8-4.1
		c0-2.6,1.3-4.4,3.6-4.4c1.9,0,3.1,1.2,3.1,3.7v0.5h-5.8C254.3,286.8,255.7,287.8,257.5,287.8L257.5,287.8z M257.1,280.7
		c-1.4,0-2.4,1.2-2.6,2.8h5C259.5,281.7,258.7,280.7,257.1,280.7L257.1,280.7z"/>
	<path id="XMLID_921_" class="st0" d="M265.6,288.5c-1.7,0-3.1-1.2-3.1-3.9c0-2.3,0.8-4.4,3.3-4.4c1,0,2,0.5,2.6,1.1v-4.1l0.8-0.1
		v9.1c0,0.7,0.1,1.6,0.3,2.2l-0.8,0.2c-0.2-0.4-0.3-1-0.3-1.5C268.1,287.5,267.2,288.5,265.6,288.5L265.6,288.5z M268.4,283
		c0-0.3,0-0.7-0.1-1c-0.4-0.5-1.2-1.2-2.4-1.2c-1.8,0-2.6,1.3-2.6,3.7c0,1.8,0.7,3.2,2.3,3.2c1.6,0,2.4-1.2,2.7-1.7
		c0-0.2,0.1-0.6,0.1-0.9V283z"/>
	<path id="XMLID_924_" class="st0" d="M278.8,288.5c-1.7,0-2.5-1.1-2.5-2.9v-5.3h0.9v5.1c0,1.2,0.3,2.4,1.9,2.4c1,0,2.1-0.5,2.7-1.3
		v-6.2h0.9v6.3c0,0.6,0.1,1.2,0.2,1.7l-0.8,0.1c-0.2-0.4-0.3-0.9-0.3-1.2C281,288,279.8,288.5,278.8,288.5z"/>
	<path id="XMLID_926_" class="st0" d="M289.8,281.3c-0.5-0.3-1.3-0.5-2-0.5c-0.6,0-1.6,0.3-1.6,1.4c0,0.8,0.5,1.1,1.7,1.6
		c1.3,0.5,2.3,1.1,2.3,2.4c0,1.8-1.3,2.3-2.5,2.3c-0.8,0-2-0.2-2.7-0.5l0.2-0.7c0.7,0.3,1.6,0.5,2.4,0.5c0.9,0,1.7-0.3,1.7-1.5
		c0-0.9-0.7-1.3-2-1.8c-1.2-0.5-2-0.9-2-2.2c0-1.6,1.4-2.1,2.5-2.1c0.8,0,1.7,0.2,2.2,0.5L289.8,281.3z"/>
	<path id="XMLID_928_" class="st0" d="M296.2,287.8c1,0,1.8-0.2,2.5-0.5l0.2,0.7c-0.6,0.3-1.6,0.5-2.7,0.5c-2.3,0-3.8-1.3-3.8-4.1
		c0-2.6,1.3-4.4,3.6-4.4c1.9,0,3.1,1.2,3.1,3.7v0.5h-5.8C293,286.8,294.4,287.8,296.2,287.8L296.2,287.8z M295.8,280.7
		c-1.4,0-2.4,1.2-2.6,2.8h5C298.1,281.7,297.4,280.7,295.8,280.7L295.8,280.7z"/>
	<path id="XMLID_931_" class="st0" d="M305.3,280.2l0,0.8c-1.1,0-2.2,0.5-2.7,1.6v5.8h-0.9v-5.8c0-0.9-0.1-1.7-0.2-2.2l0.8-0.1
		c0.2,0.4,0.3,1,0.3,1.5C303.1,280.7,304.2,280.2,305.3,280.2z"/>
	<path id="XMLID_933_" class="st0" d="M312,278.5h-1v-1h1V278.5z M311.9,288.3H311v-8h0.9V288.3z"/>
	<path id="XMLID_936_" class="st0" d="M315.8,280.2c0.1,0.4,0.3,0.9,0.3,1.3c0.7-0.8,1.9-1.3,2.9-1.3c1.8,0,2.5,1,2.5,2.9v5.2h-0.9
		v-5c0-1.2-0.3-2.4-1.9-2.4c-1,0-2.1,0.5-2.7,1.3v6.2h-0.9v-6.5c0-0.5-0.1-1-0.2-1.5L315.8,280.2z"/>
	<path id="XMLID_938_" class="st0" d="M327.4,287.7v0.7l-0.5,0c-1.2,0.1-1.9-0.4-1.9-1.8v-5.5h-1.4v-0.7h1.4v-2l0.9-0.2v2.2h1.9v0.7
		h-1.9v5.3c0,1.1,0.3,1.3,1.2,1.3H327.4z"/>
	<path id="XMLID_940_" class="st0" d="M333.2,287.8c1,0,1.8-0.2,2.5-0.5l0.2,0.7c-0.6,0.3-1.6,0.5-2.7,0.5c-2.3,0-3.8-1.3-3.8-4.1
		c0-2.6,1.3-4.4,3.6-4.4c1.9,0,3.1,1.2,3.1,3.7v0.5h-5.8C330,286.8,331.4,287.8,333.2,287.8L333.2,287.8z M332.8,280.7
		c-1.4,0-2.4,1.2-2.6,2.8h5C335.2,281.7,334.4,280.7,332.8,280.7L332.8,280.7z"/>
	<path id="XMLID_943_" class="st0" d="M342.4,280.2l0,0.8c-1.1,0-2.2,0.5-2.7,1.6v5.8h-0.9v-5.8c0-0.9-0.1-1.7-0.2-2.2l0.8-0.1
		c0.2,0.4,0.3,1,0.3,1.5C340.1,280.7,341.3,280.2,342.4,280.2z"/>
	<path id="XMLID_945_" class="st0" d="M343.1,281.1v-0.7h1.5v-0.4c0-1.6,0.4-3,2.4-3c0.3,0,0.9,0.1,1.4,0.2l-0.1,0.7
		c-0.4-0.1-0.9-0.2-1.1-0.2c-1.1,0-1.6,0.5-1.6,2.3v0.4h2.1v0.7h-2.1v7.3h-0.8v-7.3H343.1z"/>
	<path id="XMLID_947_" class="st0" d="M355.1,288.3l-0.7,0.2c-0.4-0.4-0.6-1.1-0.6-1.6c-0.4,1.1-1.6,1.7-2.7,1.7
		c-1.3,0-2.6-0.7-2.6-2.4c0-1.8,0.9-2.4,5.2-2.7v-0.8c0-1.1-0.2-1.8-1.8-1.8c-0.9,0-1.8,0.3-2.5,0.7l-0.2-0.7
		c0.7-0.4,1.8-0.7,2.8-0.7c2,0,2.5,1,2.5,2.5v3.3C354.5,286.9,354.7,287.8,355.1,288.3z M349.3,286.1c0,1.4,1.2,1.7,1.9,1.7
		c1.4,0,2.2-0.9,2.5-1.9v-1.7C350.3,284.4,349.3,284.7,349.3,286.1z"/>
	<path id="XMLID_950_" class="st0" d="M357.2,284.4c0-2.5,1-4.4,3.8-4.4c0.7,0,1.3,0.1,1.9,0.3l-0.2,0.8c-0.5-0.2-1.1-0.3-1.7-0.3
		c-2.2,0-2.9,1.7-2.9,3.6c0,1.8,0.7,3.4,2.9,3.4c0.6,0,1.3-0.1,1.7-0.3l0.1,0.8c-0.5,0.2-1.2,0.3-1.9,0.3
		C358.1,288.6,357.2,286.6,357.2,284.4L357.2,284.4z"/>
	<path id="XMLID_952_" class="st0" d="M368.6,287.8c1,0,1.8-0.2,2.5-0.5l0.2,0.7c-0.6,0.3-1.6,0.5-2.7,0.5c-2.3,0-3.8-1.3-3.8-4.1
		c0-2.6,1.3-4.4,3.6-4.4c1.9,0,3.1,1.2,3.1,3.7v0.5h-5.8C365.4,286.8,366.8,287.8,368.6,287.8L368.6,287.8z M368.2,280.7
		c-1.4,0-2.4,1.2-2.6,2.8h5C370.5,281.7,369.8,280.7,368.2,280.7L368.2,280.7z"/>
	<path id="XMLID_955_" class="st0" d="M374.9,288.3h-1.1v-1.2h1.1V288.3z"/>
</g>
<path id="XMLID_123_" class="st2" d="M160,73.7L160,73.7c0-5.6-3.5-6.7-9.8-6.7H146v13h7.8C157.6,80,160,77.6,160,73.7z"/>
<path id="XMLID_124_" class="st2" d="M214.7,66.1c-8.6,0-14.7,4.8-14.7,19.8V86c0,15.2,6.1,20.5,14.7,20.5s14.9-5.3,14.9-20.6
	C229.6,70.9,223.4,66.1,214.7,66.1z"/>
<polygon id="XMLID_125_" class="st2" points="78.2,87 96.9,87 87.6,59 "/>
<line id="XMLID_1_" class="st2" x1="65.1" y1="79.9" x2="71.7" y2="62.7"/>
<path id="XMLID_127_" class="st2" d="M151,90h-5v16h6.2c5.5,0,9.4-1.8,9.4-8.3C161.7,93.3,159,90,151,90z"/>
<polygon id="XMLID_128_" class="st3" points="122.8,117 125.5,117 100.1,50.8 90.2,55 "/>
<path id="XMLID_131_" d="M220.5,54.1C197.3,54.1,191,71.8,191,86v0.1c0,14.6,6.3,32.6,29.5,32.6c23.2,0,29.5-18,29.5-32.6
	C250,71.8,243.7,54.1,220.5,54.1z M220.7,106.4c-8.6,0-14.7-5.3-14.7-20.5v-0.1c0-15,6-19.8,14.7-19.8s14.9,4.8,14.9,19.8
	C235.6,101.2,229.3,106.4,220.7,106.4z"/>
<polygon id="XMLID_132_" class="st4" points="100.1,50.7 96.1,40 82.4,40 90.2,54.8 "/>
<polygon id="XMLID_150_" class="st5" points="50.9,117 68.2,117 74,100 79,100 65.1,79.9 "/>
<path id="XMLID_153_" d="M169.4,84c4.4-1.8,7.9-5.9,7.9-12.5c0-13.2-11-15.5-21.2-15.5H137v61h20c11.4,0,23-3.6,23-17.8v-0.1
	C180,88.4,173,84.8,169.4,84z M150,67h4.2c6.2,0,9.8,1.1,9.8,6.6v0.1c0,3.9-2.4,6.3-6.2,6.3H150V67z M156.2,106H150V90h5
	c8,0,10.6,3.3,10.6,7.7C165.7,104.2,161.8,106,156.2,106z"/>
<polygon id="XMLID_155_" class="st6" points="82.4,40 80.3,40 71.7,62.6 90.2,54.8 "/>
<path id="XMLID_158_" class="st7" d="M79,100h21.6l6,17h16.2L90.2,55l-18.5,7.8l-6.6,17.2 M78.2,87l9.4-28l9.3,28H78.2z"/>
<path id="XMLID_159_" d="M298,92c0,9-2.6,14.6-12,14.6c-9.4,0-12-5.5-12-14.6V56h-13v40.8c0,15.8,12.2,21.2,24.8,21.2h0.1
	c13,0,26.1-5.4,26.1-21.2V56h-14V92z"/>
<polygon id="XMLID_160_" points="324,56 324,67 339,67 339,117 353,117 353,67 368,67 368,56 "/>
</svg>
