<?xml version="1.0" encoding="utf-8"?>
<!-- Generator: Adobe Illustrator 19.0.0, SVG Export Plug-In . SVG Version: 6.00 Build 0)  -->
<svg version="1.1" id="图层_1" xmlns="http://www.w3.org/2000/svg" xmlns:xlink="http://www.w3.org/1999/xlink" x="0px" y="0px"
	 viewBox="-189 172 900 457" style="enable-background:new -189 172 900 457;" xml:space="preserve">
<style type="text/css">
	.st0{display:none;}
	.st1{display:inline;opacity:8.000000e-02;fill:none;stroke:#000000;stroke-miterlimit:10;enable-background:new    ;}
	.st2{display:inline;opacity:8.000000e-02;fill:#FFFFFF;stroke:#000000;stroke-miterlimit:10;enable-background:new    ;}
	.st3{fill:#FFFFFF;}
	.st4{opacity:0.69;}
	.st5{fill:none;}
	.st6{fill:#70D2FF;}
	.st7{fill:#40C4FF;}
	.st8{fill:#29B6F6;}
	.st9{fill:#8AD9FC;}
	.st10{fill:#4FC3F7;}
</style>
<g id="图层_1_1_" class="st0">
	<line class="st1" x1="598.5" y1="988" x2="553.3" y2="988"/>
	<line class="st1" x1="261.1" y1="503.5" x2="354.1" y2="503.5"/>
	<polygon class="st2" points="-38.3,796.2 -64.7,888.9 -62.2,891.2 -20.3,841 	"/>
	<polygon class="st2" points="248,751 252.8,761 256.3,757.5 	"/>
	<polygon class="st2" points="-20.3,841 33.9,975.9 83.7,927 47.4,759.8 	"/>
	<polygon class="st2" points="-62.2,891.2 31.8,978 33.9,975.9 -20.3,841 	"/>
	<polygon class="st2" points="130.6,660 47.4,759.8 83.7,927 252.8,761 248,751 	"/>
	<polygon class="st2" points="252.8,761 303,863.5 334.7,818.4 256.3,757.5 	"/>
	<polygon class="st2" points="438.6,670.9 598.5,988 600.5,988 600.5,697.5 524.5,548.9 	"/>
	<polygon class="st2" points="371.4,766.3 431.4,893.4 553.3,988 598.5,988 438.6,670.9 	"/>
	<polygon class="st2" points="332.2,683.1 256.3,757.5 334.7,818.4 371.4,766.3 	"/>
	<polygon class="st2" points="334.7,818.4 431.4,893.4 371.4,766.3 	"/>
	<polygon class="st2" points="36.5,982.4 33.9,975.9 31.8,978 	"/>
	<polygon class="st2" points="-145.1,814.6 -94.8,930.2 -67,896.9 -64.7,888.9 	"/>
	<polygon class="st2" points="-67,896.9 -62.2,891.2 -64.7,888.9 	"/>
	<polygon class="st2" points="47.4,759.8 14.8,609.9 -38.3,796.2 -20.3,841 	"/>
	<polygon class="st2" points="-83.7,955.5 -67,896.9 -94.8,930.2 	"/>
	<polygon class="st2" points="4.4,562 14.8,609.9 24.1,577.3 	"/>
	<polygon class="st2" points="600.5,697.5 600.5,503.5 556.5,503.5 524.5,548.9 	"/>
	<polygon class="st2" points="256.3,757.5 332.2,683.1 252.4,514 176.5,604.9 248,751 	"/>
	<polygon class="st2" points="176.5,604.9 130.6,660 248,751 	"/>
	<polygon class="st2" points="524.5,548.9 505.9,512.5 407.4,609.2 438.6,670.9 	"/>
	<polygon class="st2" points="438.6,670.9 407.4,609.2 332.2,683.1 371.4,766.3 	"/>
	<polygon class="st2" points="130.6,660 24.1,577.3 14.8,609.9 47.4,759.8 	"/>
	<polygon class="st2" points="-62.2,891.2 -67,896.9 -83.7,955.5 -69.6,988 21.6,988 31.8,978 	"/>
	<polygon class="st2" points="31.8,978 21.6,988 38.8,988 36.5,982.4 	"/>
	<polygon class="st2" points="-93,988 -69.6,988 -83.7,955.5 	"/>
	<polygon class="st2" points="38.8,988 42.5,988 36.5,982.4 	"/>
	<polygon class="st2" points="-94.8,930.2 -143,988 -93,988 -83.7,955.5 	"/>
	<polygon class="st2" points="334.7,818.4 303,863.5 363.8,988 476,988 431.4,893.4 	"/>
	<polygon class="st2" points="-145.1,814.6 -262,706.6 -262,988 -143,988 -94.8,930.2 	"/>
	<polygon class="st2" points="431.4,893.4 476,988 553.3,988 	"/>
	<polygon class="st2" points="215.3,988 363.8,988 303,863.5 	"/>
	<polygon class="st2" points="33.9,975.9 36.5,982.4 42.5,988 97,988 83.7,927 	"/>
	<polygon class="st2" points="252.8,761 83.7,927 97,988 215.3,988 303,863.5 	"/>
	<polygon class="st2" points="524.5,548.9 556.5,503.5 515.1,503.5 505.9,512.5 	"/>
	<polygon class="st2" points="-262,546.3 -262,706.6 -145.1,814.6 	"/>
	<polygon class="st2" points="332.2,683.1 407.4,609.2 354.1,503.5 261.1,503.5 252.4,514 	"/>
	<polygon class="st2" points="252.4,514 247.4,503.5 127,503.5 176.5,604.9 	"/>
	<polygon class="st2" points="505.9,512.5 501.4,503.5 354.1,503.5 407.4,609.2 	"/>
	<polygon class="st2" points="515.1,503.5 501.4,503.5 505.9,512.5 	"/>
	<polygon class="st2" points="261.1,503.5 247.4,503.5 252.4,514 	"/>
	<polygon class="st2" points="14.8,609.9 4.4,562 -71,503.5 -156,503.5 -38.3,796.2 	"/>
	<polygon class="st2" points="-64.7,888.9 -38.3,796.2 -156,503.5 -262,503.5 -262,546.3 -145.1,814.6 	"/>
	<polygon class="st2" points="-8.3,503.5 -71,503.5 4.4,562 	"/>
	<polygon class="st2" points="130.6,660 176.5,604.9 127,503.5 45.1,503.5 24.1,577.3 	"/>
	<polygon class="st2" points="24.1,577.3 45.1,503.5 -8.3,503.5 4.4,562 	"/>
</g>
<path class="st3" d="M-189,172v460h901.2V172H-189z M353.7,332.2l-15.6,51.7l-15.5,51.6l-4.1,13.6h-28.2l-5.2-17.1l-13.2-43
	l-11.4-37.1l-13.9,46.5l-3.1,10.3l-2.6,8.7l-3.1,10.3l-6.4,21.5H203l-3.3-10.2l-4.9-15.3L177.3,369l-14.9-46.4h31.8l19.9,74.5
	l5.1,19.1l3.7-12.4l8.4-28.4l15.6-52.7h16.3h11.9l4,13.1l12.3,39.9l12.5,40.6l12-50.3l2.1-8.7l8.3-34.5h30.4L353.7,332.2z"/>
<g class="st4">
	<g>
		<line class="st5" x1="315.9" y1="366" x2="318" y2="357.3"/>
		<line class="st5" x1="279.1" y1="335.8" x2="291.4" y2="375.7"/>
		<line class="st5" x1="243.6" y1="408.9" x2="241" y2="417.6"/>
		<line class="st5" x1="241" y1="417.6" x2="237.9" y2="427.9"/>
		<polygon class="st3" points="275.1,322.7 263.2,322.7 279.1,335.8 		"/>
		<polygon class="st3" points="194.3,322.7 162.5,322.7 177.4,369.2 214.2,397.2 		"/>
		<polygon class="st3" points="290.3,449.3 318.5,449.3 322.6,435.8 285.1,432.3 		"/>
		<polygon class="st3" points="356.7,322.7 326.3,322.7 318,357.3 353.7,332.5 		"/>
		<polygon class="st3" points="236.2,414 241,417.6 243.6,408.9 		"/>
		<polygon class="st3" points="338.1,384.2 353.7,332.5 318,357.3 315.9,366 		"/>
		<polygon class="st3" points="194.9,423.9 199.8,439.2 218.7,426.1 		"/>
		<polygon class="st3" points="303.9,416.3 291.4,375.7 271.9,389.3 285.1,432.3 322.6,435.8 338.1,384.2 315.9,366 		"/>
		<polygon class="st3" points="236.2,414 218.7,426.1 237.9,427.9 241,417.6 		"/>
		<polygon class="st3" points="199.8,439.2 203.1,449.3 231.5,449.3 237.9,427.9 218.7,426.1 		"/>
		<polygon class="st3" points="236.2,414 223,403.9 219.3,416.3 214.2,397.2 177.4,369.2 194.9,423.9 218.7,426.1 		"/>
		<polygon class="st3" points="260.5,352.1 271.9,389.3 291.4,375.7 279.1,335.8 263.2,322.7 246.9,322.7 231.3,375.5 246.6,398.6 
					"/>
		<polygon class="st3" points="243.6,408.9 246.6,398.6 231.3,375.5 223,403.9 236.2,414 		"/>
	</g>
	<g>
		<line class="st5" x1="315.9" y1="366" x2="318" y2="357.3"/>
		<line class="st5" x1="279.1" y1="335.8" x2="291.4" y2="375.7"/>
		<line class="st5" x1="243.6" y1="408.9" x2="241" y2="417.6"/>
		<line class="st5" x1="241" y1="417.6" x2="237.9" y2="427.9"/>
		<polygon class="st6" points="275.1,322.7 263.2,322.7 279.1,335.8 		"/>
		<polygon class="st7" points="194.3,322.7 162.5,322.7 177.4,369.2 214.2,397.2 		"/>
		<polygon class="st8" points="290.3,449.3 318.5,449.3 322.6,435.8 285.1,432.3 		"/>
		<polygon class="st9" points="356.7,322.7 326.3,322.7 318,357.3 353.7,332.5 		"/>
		<polygon class="st8" points="236.2,414 241,417.6 243.6,408.9 		"/>
		<polygon class="st10" points="338.1,384.2 353.7,332.5 318,357.3 315.9,366 		"/>
		<polygon class="st7" points="194.9,423.9 199.8,439.2 218.7,426.1 		"/>
		<polygon class="st9" points="303.9,416.3 291.4,375.7 271.9,389.3 285.1,432.3 322.6,435.8 338.1,384.2 315.9,366 		"/>
		<polygon class="st8" points="236.2,414 218.7,426.1 237.9,427.9 241,417.6 		"/>
		<polygon class="st8" points="199.8,439.2 203.1,449.3 231.5,449.3 237.9,427.9 218.7,426.1 		"/>
		<polygon class="st9" points="236.2,414 223,403.9 219.3,416.3 214.2,397.2 177.4,369.2 194.9,423.9 218.7,426.1 		"/>
		<polygon class="st8" points="260.5,352.1 271.9,389.3 291.4,375.7 279.1,335.8 263.2,322.7 246.9,322.7 231.3,375.5 246.6,398.6 
					"/>
		<polygon class="st9" points="243.6,408.9 246.6,398.6 231.3,375.5 223,403.9 236.2,414 		"/>
	</g>
</g>
</svg>
